<svg width="363" height="108" viewBox="0 0 363 108" fill="none" xmlns="http://www.w3.org/2000/svg">
<path d="M85.6752 33.8001L85.7552 34.1901C82.7252 35.9401 78.0752 38.3101 71.1652 41.3401C70.9352 41.8501 70.5052 42.2301 70.0352 42.3501L67.7852 36.5201C69.7252 36.3201 73.4852 35.7801 77.9552 35.0801V19.8401H69.1052L68.7552 18.7501H77.9552V6.93005L83.8552 7.51005C83.7752 8.06005 83.5052 8.44005 82.4552 8.60005V34.3401L85.6752 33.8001ZM102.015 36.4401C103.255 36.9801 103.605 37.5301 103.605 38.3401C103.605 40.3201 101.825 41.1801 95.7252 41.1801H92.2752C88.3952 41.1801 87.2352 40.2501 87.2352 36.8601V6.97005L93.1352 7.63005C93.0952 8.14005 92.7452 8.56005 91.7752 8.72005V18.7901H97.0152L99.0352 15.2101C99.0352 15.2101 101.325 17.7001 102.485 19.2501C102.365 19.6801 102.015 19.8701 101.475 19.8701H91.7752V35.5401C91.7752 36.4701 92.1252 36.7401 93.3252 36.7401H96.1152C97.2052 36.7401 98.0952 36.7401 98.5952 36.7001C99.0252 36.6601 99.2952 36.5801 99.6052 36.1901C100.075 35.4501 100.735 33.0801 101.425 30.6301H101.815L102.005 36.4201L102.015 36.4401Z" fill="#CBA37B"/>
<path d="M125.475 10.62L129.745 14.51C129.475 14.94 129.085 15.09 128.115 15.21C126.405 26.83 122.565 37.41 108.285 42.62L107.935 42.15C114.105 38.53 117.945 33.4 120.355 27.34C119.505 27.81 118.375 27.77 117.215 26.83C117.025 24.85 116.055 22.71 114.845 21C113.065 23.72 110.965 25.98 108.555 27.8L108.095 27.49C111.545 22.24 114.345 14.35 115.275 6.10999L121.635 7.54999C121.485 8.05999 121.055 8.39998 120.125 8.43998C119.695 10.15 119.195 11.71 118.645 13.22H123.035L125.475 10.62ZM118.265 14.32C117.455 16.34 116.555 18.21 115.585 19.88C119.235 20.85 120.975 22.56 121.445 24.12C122.415 21.01 122.995 17.74 123.385 14.32H118.265ZM135.525 18.48C148.715 21.78 145.495 31.04 140.685 27.93C139.835 25.13 137.625 22.06 135.525 19.69V41.27C135.525 41.7 133.545 42.63 131.795 42.63H130.865V6.34999L136.915 6.92999C136.835 7.46999 136.565 7.85999 135.515 8.01999V18.48H135.525Z" fill="#CBA37B"/>
<path d="M183.095 16.22C183.095 16.3 182.905 16.45 182.595 16.57C183.255 17.11 185.035 18.48 186.205 19.49C186.085 19.92 185.665 20.11 185.115 20.11H161.255C161.755 20.65 162.305 21.24 162.725 21.74C162.605 22.17 162.255 22.36 161.715 22.36H157.565V32.04C159.195 31.53 160.865 30.99 162.535 30.45L162.655 30.88C160.525 32.63 157.185 35.27 152.295 38.5C152.215 39.01 151.835 39.43 151.405 39.59L148.885 34.57C149.855 34.34 151.365 33.91 153.265 33.36V22.36H149.735L149.425 21.27H153.265V11.24H149.425L149.115 10.11H156.685L158.935 7.08004C158.935 7.08004 161.265 9.02004 162.775 10.46V6.77004L166.885 8.44004H178.875L180.735 6.42004L184.735 9.41004C184.465 9.72004 183.885 10.07 183.105 10.23V16.22H183.095ZM160.515 19.02H180.225L181.935 16.84C181.315 17.07 180.535 17.27 179.915 17.27H179.255V16.61H166.645V17.12C166.645 17.47 164.895 18.32 163.305 18.32H162.765V10.93C162.575 11.13 162.265 11.24 161.835 11.24H157.565V21.27H157.995L159.705 18.43C159.705 18.43 160.135 18.86 160.675 19.44L160.515 19.01V19.02ZM184.685 32.36C184.415 32.75 184.105 32.79 183.325 32.63C182.085 33.33 180.335 34.07 178.705 34.73C180.835 36.25 183.325 37.3 185.965 37.88L185.925 38.31C184.415 38.7 183.245 39.98 182.815 42C177.925 39.67 174.975 35.9 173.305 29.95C172.455 30.88 171.485 31.74 170.395 32.55V37.29C171.835 36.86 173.425 36.36 174.975 35.85L175.135 36.32C173.735 37.41 170.865 39.66 167.605 41.84C167.295 42.35 166.905 42.66 166.555 42.81L164.615 38.88C166.285 38.1 166.555 37.79 166.555 37.13V34.87C164.265 36.04 161.705 36.97 159.025 37.79L158.755 37.28C162.825 35.26 166.285 32.3 168.495 29.27H167.645V29.7C167.645 30.01 165.855 30.87 164.265 30.87H163.725V20.8L167.875 22.51H177.465L179.405 20.37L183.595 23.52C183.365 23.83 182.775 24.14 182.005 24.3V28.81C181.965 29.01 181.465 29.32 180.725 29.59L184.685 32.35V32.36ZM166.645 9.57004V15.48H168.935V9.57004H166.645ZM167.655 28.2H177.865V23.61H167.655V28.2ZM174.095 15.48V9.57004H171.965V15.48H174.095ZM173.855 29.29C174.745 30.96 175.955 32.44 177.385 33.68C178.435 32.48 179.515 31.04 180.415 29.71C179.835 29.9 179.135 30.06 178.555 30.06H177.855V29.28H173.855V29.29ZM177.115 9.57004V15.48H179.245V9.57004H177.115Z" fill="#CBA37B"/>
<path d="M216.165 0L213.785 5.19H201.345L198.635 10.75C204.025 11.54 208.285 13.55 211.435 16.77C214.135 19.54 215.485 22.8 215.485 26.54C215.485 28.72 215.045 30.74 214.155 32.59C213.275 34.44 212.155 36.02 210.815 37.32C209.475 38.62 207.985 39.67 206.335 40.47C203.995 41.59 201.595 42.15 199.145 42.15C196.695 42.15 194.865 41.73 193.735 40.88C192.605 40.04 192.045 39.1 192.045 38.09C192.045 37.52 192.275 37.02 192.745 36.58C193.215 36.14 193.805 35.92 194.515 35.92C195.045 35.92 195.505 36 195.905 36.16C196.305 36.32 196.975 36.74 197.935 37.41C199.455 38.47 201.005 39 202.565 39C204.945 39 207.025 38.1 208.825 36.3C210.625 34.5 211.525 32.31 211.525 29.72C211.525 27.13 210.725 24.88 209.115 22.71C207.505 20.54 205.295 18.87 202.475 17.69C200.265 16.77 197.245 16.24 193.425 16.1L201.355 0.01H216.165V0Z" fill="#CBA37B"/>
<path d="M235.875 10.43C235.675 10.86 235.335 11.17 234.365 11.09C231.535 16.11 226.485 21.7 219.275 24.66L218.965 24.27C224.355 20.07 228.195 13.31 229.795 7.98003L235.885 10.43H235.875ZM245.145 19.57L249.295 23.11C248.985 23.42 248.515 23.69 247.705 23.81C247.235 33.45 246.345 38.82 244.215 40.57C242.895 41.66 241.305 42.16 238.745 42.16C238.745 40.84 238.555 39.71 237.895 39.09C237.115 38.39 235.485 37.77 233.625 37.46V36.92C235.605 37.11 238.595 37.31 239.525 37.31C240.225 37.31 240.575 37.19 240.925 36.88C242.085 35.91 242.745 30.78 243.135 23.04H236.575C235.835 29.77 233.585 37.11 220.825 42.32L220.435 41.81C230.175 35.67 231.265 28.82 231.535 23.03H225.905L225.555 21.94H242.745L245.155 19.57H245.145ZM245.535 8.64003C245.075 9.15003 243.785 9.46003 242.355 9.57003C244.375 13.46 249.375 17.15 255.355 18.78L255.275 19.25C253.525 19.87 252.095 21.51 251.625 23.25C246.585 20.1 242.895 15.2 241.305 9.37003H237.075L236.725 8.28003H240.335L241.695 6.03003L245.535 8.63003V8.64003Z" fill="#CBA37B"/>
<path d="M292.755 37.0199C292.755 37.0199 295.235 38.9999 296.715 40.3999C296.635 40.8299 296.245 41.0199 295.705 41.0199H273.705L273.395 39.9299H283.055V35.8499H276.065L275.795 34.9199C273.115 36.5099 269.275 38.6499 263.535 41.4099C263.345 41.9199 262.995 42.2999 262.565 42.4199L259.845 37.6399C261.125 37.4099 263.225 37.0199 265.785 36.5099V24.5699H260.775L260.465 23.4399H265.785V18.6999H263.265L263.035 17.7699C261.945 18.8599 260.865 19.7899 259.665 20.6099L259.235 20.2999C262.065 16.6099 264.555 10.1499 265.365 6.14995L270.955 7.89995C270.795 8.36995 270.415 8.63995 269.485 8.75995C279.225 11.2099 275.075 17.1199 272.085 14.7899C271.575 13.4299 270.455 11.4799 268.905 9.69995C267.585 12.3399 265.605 15.1799 263.245 17.5899H269.215L271.195 14.8299C271.195 14.8299 273.365 16.7399 274.685 18.0999C274.565 18.5299 274.175 18.7199 273.635 18.7199H269.565V23.4599H270.375L272.315 20.6199C272.315 20.6199 274.525 22.5999 275.765 23.9599C275.685 24.3899 275.295 24.5799 274.755 24.5799H269.555V35.7399C271.615 35.2699 273.745 34.8099 275.915 34.3399L276.035 34.7699H283.055V30.8799H280.145V31.9699C280.145 32.2399 278.905 32.9399 276.845 32.9399H276.145V19.1799L280.525 20.8499H290.115L292.055 18.6299L295.815 21.5099C295.585 21.8599 295.235 22.0899 294.375 22.2499V31.3899C294.375 31.5499 293.055 32.2499 290.925 32.2499H290.225V30.8899H287.165V34.7799H289.645L291.745 32.2499C291.745 32.2499 294.145 33.9999 295.625 35.2399C295.505 35.6699 295.115 35.8599 294.575 35.8599H287.165V39.9399H290.585L292.755 37.0199ZM261.715 26.2099C268.115 31.4199 264.235 37.0999 261.755 34.0599C262.145 31.5299 261.755 28.5399 261.215 26.3199L261.715 26.1999V26.2099ZM270.055 33.8299C270.445 31.8499 270.875 28.7399 271.145 26.0499L275.725 27.4099C275.525 27.8799 275.065 28.2299 274.245 28.2299C273.235 30.2099 271.955 32.4699 270.715 34.0999L270.055 33.8299ZM275.835 12.2599L275.525 11.1699H289.885L292.095 8.21995C292.095 8.21995 294.575 10.2399 296.095 11.6399C295.975 12.0699 295.555 12.2599 295.005 12.2599H288.025L292.875 13.4299C292.755 13.8999 292.295 14.2499 291.435 14.2499C290.545 15.1399 289.305 16.2699 288.065 17.3199H290.465L292.635 14.6399C292.635 14.6399 295.075 16.5099 296.675 17.8299C296.555 18.2599 296.165 18.4499 295.585 18.4499H275.325L275.015 17.3199H281.035C280.645 17.1699 280.255 16.9299 279.875 16.5399C279.995 14.9799 279.565 13.3499 279.095 12.2999L279.175 12.2599H275.835ZM286.545 17.3099C286.855 15.7199 287.245 13.7299 287.475 12.2599H280.025C285.265 13.7399 284.565 16.6499 282.665 17.3099H286.545ZM280.145 21.9799V25.3599H283.055V21.9799H280.145ZM283.055 29.7499V26.4799H280.145V29.7499H283.055ZM281.695 6.06995C290.895 6.33995 286.775 13.1799 283.135 10.3499C283.135 8.86995 282.285 7.23995 281.385 6.30995L281.695 6.07995V6.06995ZM287.165 21.9799V25.3599H290.225V21.9799H287.165ZM290.235 29.7499V26.4799H287.175V29.7499H290.235Z" fill="#CBA37B"/>
<path d="M5.35505 78.78C5.82505 81.54 5.12505 83.52 3.91505 84.46C2.78505 85.39 0.775053 85.12 0.155053 83.64C-0.344947 82.2 0.425053 81.03 1.59505 80.37C2.75505 79.55 4.03505 77.42 3.76505 75.35H4.30505C4.65505 76.17 4.92505 76.91 5.11505 77.64H17.2251C16.9151 77.48 16.5651 77.29 16.2551 77.02C16.3351 75.04 15.3251 72.82 13.9651 71.54L14.2351 71.27C22.4651 71.81 22.2251 76.4 19.8251 77.65H29.5251L31.9351 75.24L36.1651 79.24C35.855 79.55 35.4651 79.67 34.6551 79.71C33.2551 81.11 30.8151 82.94 28.9551 83.99L28.6451 83.72C29.0351 82.4 29.5351 80.38 29.7751 78.78H5.35505ZM31.1551 85.55C31.1551 85.55 33.9851 87.65 35.7351 89.17C35.6151 89.6 35.1951 89.79 34.6451 89.79H26.7651C25.8751 93.48 24.3951 96.67 21.7951 99.39C36.8151 103.47 30.9551 109.38 26.8351 107.17C24.8151 105.61 21.9451 103.9 18.3351 102.23C14.4151 104.76 8.86505 106.58 0.955053 107.67L0.725053 107.2C7.16505 105.53 11.7051 103.35 14.9251 100.75C11.8951 99.55 8.56505 98.38 4.83505 97.37C5.88505 95.54 7.27505 92.7 8.59505 89.79H0.855053L0.505053 88.66H9.11505C10.5951 85.24 11.9451 81.93 12.4951 80.07L18.8151 81.98C18.6551 82.41 18.3151 82.8 17.0651 82.76C16.3251 84.24 15.3151 86.38 14.1951 88.67H21.7651C21.9951 87.11 22.1551 85.52 22.2251 83.85L28.9351 85.13C28.8151 85.75 28.3151 86.06 27.4251 86.02C27.3051 86.91 27.1551 87.81 26.9951 88.67H28.7051L31.1451 85.56L31.1551 85.55ZM13.6151 89.79C12.2951 92.36 10.8951 95 9.61505 97.18C12.5651 97.53 15.1251 97.92 17.4151 98.38C19.6251 95.78 20.8351 92.94 21.5251 89.79H13.6051H13.6151Z" fill="#CBA37B"/>
<path d="M55.9851 80.88C55.9851 80.88 58.5851 83.06 60.0551 84.53C59.9751 84.96 59.5551 85.15 59.0051 85.15H52.7151V87.83C62.4951 90.75 58.8051 97.55 55.3151 94.71C55.0451 92.73 53.9151 90.51 52.7151 88.8V106.41C52.7151 106.68 51.2751 107.69 49.1051 107.69H48.2851V93.3C46.3451 96.41 43.8951 99.13 40.9851 101.46L40.5151 100.99C43.6951 96.75 45.9051 90.76 47.1151 85.13H41.4051L41.0951 84.04H48.2751V77.16C45.9051 77.43 43.4651 77.67 41.2151 77.78L41.0951 77.24C45.8651 75.8 51.8851 73.12 54.8751 71.17L59.6851 75.6C59.2151 75.95 58.3651 76.03 57.1251 75.56C55.8451 75.87 54.3351 76.18 52.7051 76.49V84.03H53.7951L55.9651 80.84L55.9851 80.88ZM76.4751 78.67C76.2451 79.02 75.6551 79.33 74.8851 79.52V103.32C74.8051 103.63 72.6351 104.56 71.0451 104.56H70.3051V100.44H64.7151V103.59C64.7151 104.1 62.9351 105.18 60.9551 105.18H60.2151V75.63L64.9051 77.61H69.8751L72.0451 75.16L76.4651 78.66L76.4751 78.67ZM70.3051 99.31V78.7H64.7151V99.31H70.3051Z" fill="#CBA37B"/>
<path d="M92.5252 100.21C94.4252 99.78 96.4452 99.35 98.4252 98.89L98.5752 99.32C95.3952 101.03 90.8152 103.4 84.2552 106.32C84.0652 106.79 83.6752 107.21 83.2452 107.33L81.3052 102.51C81.8852 102.43 82.6252 102.28 83.5152 102.12V88.24L87.7852 88.63C87.7452 88.98 87.5152 89.29 86.8952 89.37V101.46L88.5652 101.11V84.55H87.5152V85.09C87.5152 85.36 86.2752 86.22 84.2952 86.22H83.5952V72.34L88.0152 74.09H92.0852L93.9852 72.03L97.9452 75.06C97.7152 75.33 97.2052 75.64 96.4752 75.8V84.7C96.3952 84.97 94.4552 85.67 93.1752 85.67H92.5152V90.88H93.0252L94.9652 87.85C94.9652 87.85 97.1752 89.95 98.4152 91.35C98.2952 91.78 97.9152 91.97 97.3652 91.97H92.5152V100.21H92.5252ZM87.5252 83.41H92.4952V75.17H87.5252V83.41ZM116.085 77.58C115.815 78.01 115.385 78.12 114.495 78.2C113.255 80.96 111.585 83.53 109.455 85.82C112.055 87.34 115.195 88.5 118.885 89.24L118.805 89.63C116.985 90.29 116.045 91.57 115.735 93.75C114.845 93.4 113.985 93.05 113.215 92.66L115.735 94.57C115.465 94.88 115.115 95.11 114.295 95.27V106.58C114.295 106.81 112.855 107.55 110.565 107.55H109.745V104.79H102.875V106.66C102.875 106.97 101.555 107.71 99.3452 107.71H98.6052V93.13C97.4052 93.64 96.1252 94.06 94.8052 94.45L94.4952 93.94C98.8052 91.88 102.415 89.04 105.165 85.7C104.155 84.26 103.345 82.67 102.605 80.96C100.815 83.02 98.8052 84.65 96.5952 85.94L96.1652 85.59C98.9952 82.25 101.555 76.92 102.765 71.17L108.505 73.03C108.315 73.54 107.845 73.89 106.955 73.81C106.565 74.7 106.175 75.56 105.755 76.38H109.795L112.205 74.09L116.085 77.59V77.58ZM111.505 91.69C109.795 90.64 108.325 89.43 107.085 88.07C105.025 89.82 102.665 91.34 99.9052 92.58L103.325 93.86H109.615L111.515 91.68L111.505 91.69ZM109.755 103.71V95H102.885V103.71H109.755ZM105.105 77.5C104.565 78.43 103.975 79.29 103.315 80.1C104.205 81.46 105.335 82.71 106.615 83.79C107.975 81.81 109.055 79.71 109.835 77.49H105.105V77.5Z" fill="#CBA37B"/>
<path d="M136.135 90.8C135.865 91.11 135.515 91.23 134.695 91.31C133.765 94.11 131.865 97.14 129.345 99.51C129.575 99.59 129.775 99.71 130.045 99.9C133.075 102.31 137.805 102.78 146.535 102.78C151.195 102.78 154.915 102.74 159.535 102.51V102.94C157.675 103.33 156.625 105 156.395 106.75H144.985C136.215 106.75 132.835 105.39 129.575 101.31C128.995 100.57 128.565 100.69 128.255 101.39C127.675 102.56 126.895 104.5 126.155 106.41C126.275 106.76 126.155 106.99 125.885 107.19L122.785 102.83C124.375 101.94 126.705 100.19 127.945 99.6C129.225 97.19 130.235 93.88 130.665 91.04H128.375L127.095 92.28L123.795 89.99C124.145 89.72 124.685 89.45 125.265 89.25C126.315 87.38 127.675 84.66 128.525 82.72H123.795L123.445 81.59H128.485L130.275 79.8L133.925 83.03C133.575 83.38 132.835 83.57 132.025 83.65C131.175 85.36 129.815 88 128.725 89.91H130.435L132.535 87.85L136.145 90.81L136.135 90.8ZM124.965 71.86C135.095 73.41 131.365 81 127.485 78.16C127.255 76.02 125.935 73.61 124.615 72.09L124.965 71.86ZM145.525 82.21C143.775 82.95 140.445 84.31 136.835 85.63C136.565 85.98 136.215 86.17 135.905 86.33L134.315 82.83C135.135 82.32 135.245 82.01 135.245 81.27V71.63L139.475 73.3H141.725L143.355 71.59L146.805 74.2C146.615 74.43 146.145 74.71 145.485 74.82V78.9C145.445 79.17 143.775 79.95 142.655 79.95H142.075V78.82H138.935V82.2C140.835 82.04 143.165 81.85 145.495 81.62L145.535 82.2L145.525 82.21ZM154.725 90.91C154.725 90.91 157.365 92.82 158.955 94.22C158.835 94.65 158.445 94.84 157.905 94.84H134.665L134.355 93.71H139.945V89.74H136.375L136.065 88.65H139.945V84.72L145.025 85.19C144.985 85.62 144.755 85.93 143.975 86.08V88.65H147.625V84.72L152.705 85.19C152.665 85.66 152.435 85.93 151.655 86.08V88.65H151.735L153.555 86.28C153.555 86.28 155.685 87.95 157.005 89.12C156.925 89.55 156.545 89.74 155.995 89.74H151.645V93.71H152.465L154.715 90.91H154.725ZM134.545 101.37C137.025 99.78 139.475 96.98 140.525 94.95L145.845 97.32C145.655 97.79 145.035 98.02 143.865 97.9C141.885 99.45 138.395 101.01 134.825 101.79L134.555 101.36L134.545 101.37ZM142.075 77.73V74.42H138.935V77.73H142.075ZM143.975 93.71H147.625V89.74H143.975V93.71ZM150.265 84.38C147.315 84.38 146.885 83.64 146.885 81.46V71.66L150.995 73.29H153.095L154.725 71.54L158.255 74.19C158.065 74.42 157.595 74.7 156.975 74.85V78.78C156.935 79.09 155.195 79.83 154.025 79.83H153.445V78.82H150.495V80.88C150.495 81.39 150.615 81.5 151.345 81.5H154.955C155.185 81.5 155.535 81.46 155.765 81.46C155.995 81.42 156.385 81.34 156.615 81.27H156.965L157.155 81.31C158.125 81.74 158.475 82.01 158.475 82.59C158.475 83.91 157.115 84.38 152.735 84.38H150.255H150.265ZM147.195 95.46C163.765 97.09 156.235 104.48 153.015 101.1C152.085 99.54 150.025 97.52 146.965 95.93L147.195 95.46ZM150.495 74.43V77.74H153.445V74.43H150.495Z" fill="#CBA37B"/>
<path d="M198.335 85.2C198.335 85.2 200.395 87.53 201.435 88.97C201.315 89.4 200.965 89.59 200.425 89.59H196.545V102.5C196.545 105.65 196.005 107.36 191.425 107.75C191.385 106.31 191.235 105.15 190.885 104.52C190.535 103.86 189.955 103.35 188.715 103.12V102.58C188.715 102.58 190.845 102.73 191.395 102.73C191.975 102.73 192.095 102.46 192.095 101.99V89.59H188.215V105.88C188.215 106.15 186.975 107.09 184.805 107.09H184.065V89.59H180.265V105.88C180.265 106.15 178.985 107.09 176.885 107.09H176.105V89.59H172.495V106C172.495 106.58 170.745 107.71 168.805 107.71H168.025V89.59H164.025L163.715 88.5H168.025V72.56L172.795 74.58H191.695L193.755 72.13L198.135 75.59C197.865 75.9 197.325 76.25 196.545 76.41V88.42L198.335 85.19V85.2ZM176.095 88.5V75.67H172.485V88.5H176.095ZM184.055 88.5V75.67H180.255V88.5H184.055ZM192.085 88.5V75.67H188.205V88.5H192.085Z" fill="#CBA37B"/>
<path d="M242.445 78.59C242.135 78.9 241.745 79.02 240.935 79.06C239.615 80.62 237.285 82.72 235.425 83.96L235.075 83.69C235.465 82.13 235.895 79.88 236.125 78.13H210.665C210.935 80.93 210.005 82.87 208.645 83.77C207.405 84.63 205.425 84.31 204.845 82.76C204.375 81.4 205.195 80.23 206.395 79.61C207.835 78.87 209.385 76.89 209.305 74.79H209.845C210.115 75.57 210.345 76.31 210.465 77.01H221.915C221.725 76.89 221.565 76.78 221.375 76.62C221.525 74.72 220.715 72.58 219.515 71.37L219.785 71.14C227.155 71.61 227.315 75.53 225.335 77.01H235.815L238.255 74.56L242.445 78.6V78.59ZM239.145 101.84C240.545 102.31 240.935 102.85 240.935 103.75C240.935 105.81 239.075 106.59 230.655 106.59H225.415C220.755 106.59 219.365 105.85 219.365 102.35V93.8H206.445L206.095 92.71H219.365V86.02C215.835 86.37 212.185 86.6 208.735 86.64L208.655 86.06C216.185 84.82 225.495 82.17 230.195 79.96L234.585 84.08C234.155 84.47 233.265 84.51 232.105 84.04C229.775 84.58 226.985 85.05 223.915 85.48V92.71H232.375L235.015 89.21C235.015 89.21 238.045 91.54 239.865 93.18C239.785 93.61 239.325 93.8 238.735 93.8H223.915V101.23C223.915 102.09 224.265 102.36 226.015 102.36H231.095C232.915 102.36 234.475 102.32 235.245 102.24C235.905 102.2 236.215 102.05 236.525 101.62C237.035 100.8 237.685 98.82 238.585 95.98H239.015L239.165 101.85L239.145 101.84Z" fill="#CBA37B"/>
<path d="M273.695 98.56L270.795 106.53H246.415V105.4C253.585 98.85 258.635 93.49 261.565 89.34C264.495 85.19 265.955 81.39 265.955 77.95C265.955 75.32 265.155 73.17 263.545 71.48C261.935 69.79 260.015 68.94 257.785 68.94C255.755 68.94 253.925 69.54 252.315 70.73C250.705 71.92 249.505 73.67 248.735 75.97H247.605C248.115 72.2 249.415 69.31 251.525 67.3C253.625 65.28 256.255 64.28 259.405 64.28C262.755 64.28 265.555 65.36 267.805 67.52C270.045 69.68 271.175 72.22 271.175 75.15C271.175 77.25 270.685 79.35 269.715 81.44C268.215 84.74 265.775 88.23 262.395 91.92C257.335 97.46 254.175 100.8 252.915 101.93H263.705C265.895 101.93 267.435 101.85 268.325 101.69C269.205 101.53 270.005 101.2 270.715 100.7C271.425 100.2 272.045 99.49 272.575 98.58H273.705L273.695 98.56Z" fill="#CBA37B"/>
<path d="M276.165 85.97H291.345V88.28H276.165V85.97Z" fill="#CBA37B"/>
<path d="M298.065 73.01C299.245 70.22 300.735 68.07 302.525 66.55C304.325 65.03 306.565 64.27 309.245 64.27C312.555 64.27 315.095 65.35 316.865 67.51C318.205 69.12 318.875 70.84 318.875 72.67C318.875 75.68 316.985 78.8 313.205 82.01C315.745 83.01 317.665 84.43 318.965 86.29C320.265 88.14 320.915 90.32 320.915 92.82C320.915 96.4 319.775 99.51 317.505 102.13C314.535 105.55 310.245 107.26 304.615 107.26C301.835 107.26 299.935 106.91 298.935 106.22C297.925 105.53 297.425 104.78 297.425 103.99C297.425 103.4 297.665 102.88 298.145 102.43C298.625 101.98 299.195 101.76 299.865 101.76C300.375 101.76 300.895 101.84 301.415 102C301.765 102.1 302.545 102.47 303.765 103.11C304.985 103.75 305.825 104.13 306.295 104.26C307.045 104.48 307.845 104.6 308.705 104.6C310.775 104.6 312.585 103.8 314.115 102.19C315.645 100.58 316.415 98.68 316.415 96.48C316.415 94.87 316.055 93.3 315.345 91.78C314.815 90.64 314.235 89.77 313.605 89.18C312.735 88.37 311.535 87.63 310.005 86.97C308.485 86.31 306.925 85.98 305.345 85.98H304.365V85.06C305.975 84.86 307.585 84.28 309.195 83.32C310.815 82.36 311.985 81.21 312.715 79.87C313.445 78.52 313.815 77.05 313.815 75.44C313.815 73.34 313.155 71.65 311.845 70.36C310.535 69.07 308.905 68.42 306.955 68.42C303.805 68.42 301.175 70.11 299.065 73.49L298.055 73L298.065 73.01Z" fill="#CBA37B"/>
<path d="M327.475 107.59L327.045 107.28C331.045 100.94 331.425 92.89 331.425 85.7V73.96L335.655 75.44C342.915 74.51 351.605 72.72 356.375 71.24L360.605 75.55C360.135 75.94 359.245 75.94 358.045 75.43C352.265 76.09 343.495 76.44 335.925 76.32V79.04H354.785L356.885 76.75L361.305 80.09C361.075 80.36 360.565 80.71 359.795 80.87V85.92C359.755 86.23 357.465 87.05 355.955 87.05H355.175V85.61L335.925 85.65C335.925 92.57 335.425 101.67 327.465 107.58L327.475 107.59ZM358.485 88.12C358.485 88.12 361.005 90.02 362.595 91.42C362.475 91.85 362.055 92.04 361.505 92.04H347.535C347.375 93.36 347.225 94.65 346.915 95.89H354.135L356.425 93.75L360.505 97.09C360.235 97.4 359.765 97.6 358.995 97.71C358.525 102.38 357.635 105.18 355.855 106.26C354.725 107 353.215 107.35 351.195 107.35C351.195 106.15 351.075 105.06 350.455 104.43C349.875 103.81 348.595 103.3 347.035 102.99V102.48C348.505 102.6 350.955 102.75 351.695 102.75C352.315 102.75 352.625 102.67 352.935 102.52C353.595 102.01 354.095 100.07 354.405 97H346.565C345.165 101.12 341.905 104.89 333.565 107.62L333.215 107.08C341.555 102.49 342.215 97.24 342.415 92.03H336.825L336.515 90.9H348.045C347.855 90.82 347.615 90.71 347.425 90.59C347.115 89.11 346.065 87.48 345.255 86.55L345.565 86.32C352.355 86.2 352.085 90.01 349.985 90.91H356.275L358.485 88.11V88.12ZM335.935 80.14V84.53H355.185V80.14H335.935Z" fill="#CBA37B"/>
</svg>
