<svg width="289" height="74" viewBox="0 0 289 74" fill="none" xmlns="http://www.w3.org/2000/svg">
<g style="mix-blend-mode:multiply">
<path d="M283.44 23.2592C284.467 22.8188 282.452 20.914 282.04 20.6002C281.59 20.2644 280.596 19.5928 279.937 19.7414C279.789 20.4021 280.459 21.3985 280.794 21.8499C281.107 22.2628 283.006 24.2887 283.446 23.2537L283.44 23.2592ZM265.343 23.2592C265.783 24.2887 267.682 22.2683 267.995 21.8554C268.33 21.404 269 20.4076 268.852 19.7469C268.193 19.5983 267.199 20.2699 266.749 20.6058C266.337 20.9195 264.317 22.8243 265.349 23.2647L265.343 23.2592ZM265.343 5.11978C264.317 5.56019 266.332 7.46497 266.744 7.77877C267.194 8.11458 268.188 8.78621 268.846 8.63757C268.995 7.97695 268.325 6.98052 267.99 6.5291C267.677 6.11621 265.783 4.09032 265.338 5.12529L265.343 5.11978ZM283.44 5.11978C283.001 4.09032 281.101 6.11071 280.788 6.5236C280.453 6.97502 279.783 7.97145 279.932 8.63206C280.591 8.7807 281.584 8.10908 282.035 7.77326C282.446 7.45947 284.467 5.56019 283.435 5.11428L283.44 5.11978ZM274.897 14.6932C274.732 14.7263 274.568 14.7483 274.392 14.7483C274.216 14.7483 274.051 14.7263 273.887 14.6932C273.854 14.5281 273.832 14.3629 273.832 14.1868C273.832 14.0106 273.854 13.8454 273.887 13.6803C274.051 13.6473 274.216 13.6252 274.392 13.6252C274.568 13.6252 274.732 13.6473 274.897 13.6803C274.93 13.8454 274.952 14.0106 274.952 14.1868C274.952 14.3629 274.93 14.5281 274.897 14.6932ZM287.097 11.7039C286.734 10.8286 286.454 9.92027 286.279 9.00091C286.268 8.94035 286.246 8.84677 286.224 8.73666C285.911 7.2778 286.065 6.26485 285.911 6.13273C285.757 5.9896 285.521 6.00061 285.378 6.15475C282.88 8.84677 280.492 10.2616 278.12 10.4488C278.307 8.07054 279.718 5.6758 282.402 3.17096C282.556 3.02783 282.562 2.79111 282.424 2.63696C282.293 2.48832 281.282 2.63696 279.827 2.32317C279.718 2.30115 279.63 2.27913 279.564 2.26812C278.647 2.09195 277.736 1.81119 276.863 1.44785C275.973 1.0735 275.16 0.561525 274.386 0C273.612 0.561525 272.794 1.07901 271.91 1.44785C271.037 1.81119 270.131 2.09195 269.214 2.26812C269.154 2.27913 269.061 2.30115 268.951 2.32317C267.496 2.63696 266.485 2.48282 266.354 2.63696C266.211 2.79111 266.222 3.02783 266.376 3.17096C269.061 5.6758 270.472 8.07054 270.658 10.4488C268.286 10.2616 265.898 8.84677 263.4 6.15475C263.257 6.00061 263.021 5.9951 262.867 6.13273C262.719 6.26485 262.867 7.2778 262.554 8.73666C262.532 8.84677 262.51 8.93485 262.499 9.00091C262.324 9.92027 262.044 10.8341 261.681 11.7039C261.313 12.5958 260.797 13.4105 260.237 14.1868C260.797 14.963 261.313 15.7832 261.681 16.6696C262.044 17.5449 262.324 18.4532 262.499 19.3781C262.51 19.4387 262.532 19.5322 262.554 19.6424C262.867 21.1012 262.714 22.1142 262.867 22.2463C263.021 22.3894 263.257 22.3784 263.4 22.2243C265.898 19.5322 268.286 18.1174 270.658 17.9303C270.472 20.3085 269.061 22.7032 266.376 25.2081C266.222 25.3512 266.216 25.5879 266.354 25.7421C266.485 25.8962 267.496 25.7421 268.951 26.0558C269.061 26.0779 269.148 26.0999 269.214 26.1109C270.131 26.2871 271.043 26.5678 271.91 26.9312C272.8 27.3055 273.612 27.8175 274.386 28.379C275.16 27.8175 275.979 27.3 276.863 26.9312C277.736 26.5678 278.641 26.2871 279.564 26.1109C279.624 26.0999 279.718 26.0779 279.827 26.0558C281.282 25.7421 282.293 25.8962 282.424 25.7421C282.567 25.5879 282.556 25.3512 282.402 25.2081C279.718 22.7032 278.307 20.3085 278.12 17.9303C280.492 18.1174 282.886 19.5322 285.378 22.2243C285.521 22.3784 285.757 22.3839 285.911 22.2463C286.059 22.1142 285.911 21.1012 286.224 19.6424C286.246 19.5322 286.268 19.4442 286.279 19.3781C286.46 18.4587 286.734 17.5449 287.097 16.6696C287.47 15.7777 287.981 14.963 288.541 14.1868C287.981 13.4105 287.465 12.5903 287.097 11.7039ZM285.219 7.39891C285.263 7.78427 285.356 8.26873 285.488 8.89631C285.51 9.00091 285.527 9.08349 285.538 9.14404C285.724 10.1129 286.015 11.0763 286.4 11.9957C286.723 12.7719 287.141 13.4876 287.602 14.1647C287.069 13.7518 286.564 13.3775 286.01 13.0527C284.533 12.1939 282.979 11.748 281.513 11.7755C280.459 11.792 279.35 12.0563 278.301 12.5462C278.197 12.1058 278.131 11.6599 278.109 11.2085C280.459 11.0323 282.842 9.76062 285.225 7.40442L285.219 7.39891ZM278.51 13.2784C278.537 13.2619 278.565 13.2454 278.598 13.2344C279.558 12.7884 280.569 12.5462 281.524 12.5297C282.853 12.5077 284.275 12.9151 285.636 13.7078C285.894 13.8564 286.141 14.0161 286.389 14.1923C286.141 14.3684 285.894 14.5281 285.636 14.6767C284.275 15.4695 282.858 15.8768 281.524 15.8548C280.569 15.8383 279.558 15.5961 278.598 15.1502C278.57 15.1391 278.543 15.1171 278.51 15.1061C278.614 14.8033 278.735 14.495 278.878 14.1923C278.735 13.8895 278.614 13.5867 278.51 13.2784ZM276.577 2.14701C277.494 2.53237 278.455 2.82414 279.421 3.01131C279.482 3.02232 279.564 3.03884 279.668 3.06086C280.289 3.19298 280.777 3.28107 281.162 3.33061C278.812 5.71984 277.543 8.11458 277.368 10.4653C276.917 10.4378 276.473 10.3772 276.033 10.2726C276.517 9.22112 276.786 8.10908 276.802 7.05209C276.824 5.58222 276.385 4.02426 275.528 2.53787C275.204 1.98185 274.831 1.46987 274.419 0.94138C275.095 1.40381 275.808 1.8222 276.583 2.14701H276.577ZM278.016 14.1868C278.016 15.1667 277.379 15.9979 276.5 16.3007C276.198 17.1816 275.369 17.8201 274.392 17.8201C273.415 17.8201 272.585 17.1816 272.283 16.3007C271.405 15.9979 270.768 15.1667 270.768 14.1868C270.768 13.2068 271.405 12.3756 272.283 12.0728C272.585 11.192 273.415 10.5534 274.392 10.5534C275.369 10.5534 276.198 11.192 276.5 12.0728C277.379 12.3756 278.016 13.2068 278.016 14.1868ZM274.875 2.91773C275.666 4.283 276.072 5.70333 276.05 7.04108C276.033 7.99897 275.792 9.01192 275.347 9.97532C275.336 10.0028 275.314 10.0304 275.303 10.0634C275.001 9.95881 274.694 9.83769 274.392 9.69456C274.09 9.83769 273.788 9.95881 273.48 10.0634C273.464 10.0359 273.447 10.0084 273.436 9.97532C272.992 9.01192 272.75 7.99897 272.734 7.04108C272.712 5.70883 273.118 4.283 273.909 2.91773C274.057 2.65898 274.216 2.41125 274.392 2.16352C274.568 2.41125 274.727 2.65898 274.875 2.91773ZM267.622 3.33061C268.006 3.28657 268.495 3.19298 269.115 3.06086C269.22 3.03884 269.302 3.02232 269.363 3.01131C270.329 2.82414 271.29 2.53237 272.207 2.14701C272.981 1.8222 273.689 1.40381 274.37 0.94138C273.958 1.47538 273.585 1.98185 273.261 2.53787C272.404 4.01875 271.96 5.57671 271.987 7.05209C272.003 8.10908 272.267 9.22112 272.756 10.2726C272.316 10.3772 271.872 10.4433 271.421 10.4653C271.246 8.10908 269.977 5.71984 267.628 3.33061H267.622ZM262.379 11.9957C262.763 11.0763 263.054 10.1129 263.241 9.14404C263.252 9.08349 263.268 9.00091 263.29 8.89631C263.422 8.27423 263.515 7.78427 263.559 7.39891C265.942 9.75511 268.33 11.0268 270.675 11.203C270.647 11.6544 270.587 12.1003 270.483 12.5407C269.434 12.0563 268.325 11.7865 267.271 11.77C265.805 11.748 264.251 12.1884 262.768 13.0472C262.214 13.372 261.703 13.7408 261.176 14.1592C261.637 13.4821 262.055 12.7664 262.379 11.9902V11.9957ZM270.274 15.1006C270.246 15.1171 270.219 15.1336 270.186 15.1446C269.225 15.5906 268.215 15.8328 267.26 15.8493C265.931 15.8713 264.509 15.4639 263.147 14.6712C262.889 14.5226 262.642 14.3629 262.395 14.1868C262.642 14.0106 262.889 13.8509 263.147 13.7023C264.509 12.9096 265.925 12.5022 267.26 12.5242C268.215 12.5407 269.225 12.7829 270.186 13.2289C270.214 13.2399 270.241 13.2564 270.274 13.2729C270.17 13.5757 270.049 13.884 269.906 14.1868C270.049 14.4895 270.17 14.7923 270.274 15.1006ZM263.559 20.9746C263.515 20.5892 263.422 20.0993 263.29 19.4772C263.268 19.3726 263.252 19.29 263.241 19.2295C263.054 18.2606 262.763 17.2972 262.379 16.3778C262.055 15.6016 261.637 14.8859 261.176 14.2088C261.709 14.6217 262.214 14.996 262.768 15.3208C264.245 16.1796 265.799 16.6255 267.271 16.598C268.325 16.5815 269.434 16.3172 270.483 15.8273C270.587 16.2677 270.653 16.7136 270.675 17.165C268.325 17.3412 265.942 18.6129 263.559 20.9691V20.9746ZM272.201 26.232C271.284 25.8466 270.323 25.5549 269.357 25.3677C269.297 25.3567 269.214 25.3402 269.11 25.3182C268.49 25.186 268.001 25.0979 267.617 25.0484C269.966 22.6592 271.235 20.2644 271.41 17.9137C271.861 17.9413 272.305 18.0018 272.745 18.1064C272.262 19.1579 271.992 20.2699 271.976 21.3269C271.954 22.7968 272.393 24.3548 273.25 25.8356C273.574 26.3917 273.942 26.9036 274.359 27.4321C273.684 26.9697 272.97 26.5513 272.196 26.2265L272.201 26.232ZM273.909 25.4613C273.118 24.096 272.712 22.6757 272.734 21.3379C272.75 20.38 272.992 19.3671 273.436 18.4037C273.453 18.3762 273.469 18.3486 273.48 18.3156C273.782 18.4202 274.09 18.5413 274.392 18.6845C274.694 18.5413 274.996 18.4202 275.303 18.3156C275.32 18.3431 275.336 18.3707 275.347 18.4037C275.792 19.3671 276.033 20.38 276.05 21.3379C276.072 22.6702 275.666 24.096 274.875 25.4613C274.727 25.72 274.568 25.9678 274.392 26.2155C274.216 25.9678 274.057 25.72 273.909 25.4613ZM281.162 25.0484C280.777 25.0924 280.289 25.186 279.668 25.3182C279.564 25.3402 279.482 25.3567 279.421 25.3677C278.455 25.5549 277.494 25.8466 276.577 26.232C275.803 26.5568 275.089 26.9752 274.414 27.4376C274.826 26.9036 275.199 26.3972 275.523 25.8411C276.379 24.3603 276.824 22.8023 276.797 21.3324C276.78 20.2754 276.517 19.1634 276.028 18.1119C276.467 18.0073 276.912 17.9413 277.362 17.9192C277.538 20.2754 278.806 22.6647 281.156 25.0539L281.162 25.0484ZM286.405 16.3833C286.021 17.3027 285.73 18.2661 285.543 19.235C285.532 19.2955 285.516 19.3781 285.494 19.4827C285.362 20.1048 285.274 20.5947 285.225 20.9801C282.842 18.6239 280.453 17.3522 278.109 17.176C278.136 16.7246 278.197 16.2787 278.301 15.8383C279.35 16.3228 280.459 16.5925 281.513 16.609C282.979 16.631 284.533 16.1906 286.01 15.3318C286.564 15.007 287.075 14.6327 287.602 14.2198C287.141 14.8969 286.723 15.6126 286.4 16.3888L286.405 16.3833ZM280.448 14.1868C281.711 13.5096 283.193 13.3059 284.604 13.961C284.747 14.0271 284.89 14.1042 285.021 14.1868C284.884 14.2693 284.747 14.3464 284.604 14.4125C283.193 15.0676 281.711 14.8639 280.448 14.1868ZM273.008 11.9407C272.937 11.9407 272.871 11.9572 272.8 11.9627C273.102 11.3901 273.7 10.9938 274.392 10.9938C275.084 10.9938 275.677 11.3901 275.984 11.9627C275.913 11.9572 275.847 11.9407 275.775 11.9407C275.254 11.9407 274.776 12.1278 274.392 12.4306C274.007 12.1278 273.535 11.9407 273.008 11.9407ZM275.775 12.3756C275.907 12.3756 276.033 12.3921 276.154 12.4196C276.182 12.5407 276.198 12.6728 276.198 12.805C276.198 13.2068 276.061 13.5757 275.841 13.8785C275.633 13.6968 275.386 13.5537 275.122 13.4656C275.029 13.1958 274.891 12.9536 274.71 12.7444C275.012 12.5242 275.38 12.3866 275.781 12.3866L275.775 12.3756ZM274.167 3.94719C274.233 3.80405 274.309 3.66092 274.392 3.52329C274.474 3.66092 274.551 3.79855 274.617 3.94719C275.27 5.36201 275.067 6.8484 274.392 8.11458C273.716 6.8484 273.513 5.36201 274.167 3.94719ZM277.582 14.1868C277.582 14.8804 277.186 15.475 276.615 15.7832C276.621 15.7117 276.637 15.6456 276.637 15.5741C276.637 15.0511 276.451 14.5721 276.149 14.1868C276.451 13.8014 276.637 13.328 276.637 12.7995C276.637 12.7279 276.621 12.6618 276.615 12.5903C277.186 12.893 277.582 13.4931 277.582 14.1868ZM272.942 13.873C272.723 13.5702 272.585 13.2068 272.585 12.7995C272.585 12.6673 272.602 12.5407 272.629 12.4141C272.75 12.3866 272.882 12.3701 273.014 12.3701C273.415 12.3701 273.782 12.5077 274.079 12.7279C273.898 12.9371 273.755 13.1848 273.667 13.4491C273.398 13.5427 273.156 13.6858 272.948 13.862L272.942 13.873ZM275.841 14.5061C276.061 14.8088 276.198 15.1722 276.198 15.5741C276.198 15.7062 276.182 15.8328 276.154 15.9594C276.033 15.9869 275.902 16.0035 275.775 16.0035C275.375 16.0035 275.007 15.8658 274.705 15.6456C274.886 15.4364 275.023 15.1887 275.117 14.9244C275.386 14.8309 275.627 14.6932 275.836 14.5116L275.841 14.5061ZM274.617 24.4318C274.551 24.575 274.474 24.7181 274.392 24.8502C274.309 24.7181 274.233 24.575 274.167 24.4318C273.513 23.017 273.716 21.5306 274.392 20.2644C275.067 21.5306 275.27 23.017 274.617 24.4318ZM272.64 14.1868C272.338 14.5721 272.152 15.0456 272.152 15.5741C272.152 15.6456 272.168 15.7117 272.174 15.7832C271.603 15.4805 271.207 14.8804 271.207 14.1868C271.207 13.4931 271.603 12.8986 272.174 12.5903C272.168 12.6618 272.152 12.7279 272.152 12.7995C272.152 13.3224 272.338 13.8014 272.64 14.1868ZM268.336 14.1868C267.073 14.8639 265.591 15.0676 264.179 14.4125C264.037 14.3464 263.894 14.2693 263.762 14.1868C263.899 14.1042 264.037 14.0271 264.179 13.961C265.591 13.3059 267.073 13.5096 268.336 14.1868ZM273.008 15.9979C272.876 15.9979 272.75 15.9814 272.624 15.9539C272.596 15.8328 272.58 15.7007 272.58 15.5685C272.58 15.1667 272.717 14.7978 272.937 14.5005C273.145 14.6822 273.393 14.8198 273.656 14.9134C273.749 15.1832 273.892 15.4254 274.068 15.6346C273.766 15.8548 273.398 15.9924 273.003 15.9924L273.008 15.9979ZM275.775 16.4384C275.847 16.4384 275.913 16.4218 275.984 16.4163C275.682 16.9889 275.084 17.3852 274.392 17.3852C273.7 17.3852 273.107 16.9889 272.8 16.4163C272.871 16.4218 272.937 16.4384 273.008 16.4384C273.53 16.4384 274.007 16.2512 274.392 15.9484C274.776 16.2512 275.248 16.4384 275.775 16.4384Z" fill="#3B8281"/>
</g>
<path d="M186.226 34.3961V34.5668C186.061 34.5668 185.93 34.5943 185.831 34.6549C185.732 34.7154 185.633 34.8255 185.54 34.9852C185.479 35.0953 185.38 35.3485 185.249 35.7559L183.503 40.8151H183.316L181.888 36.8019L180.472 40.8151H180.307L178.446 35.6017C178.309 35.2109 178.221 34.9852 178.182 34.9136C178.122 34.798 178.04 34.7099 177.93 34.6493C177.826 34.5943 177.677 34.5613 177.496 34.5613V34.3906H179.813V34.5613H179.703C179.539 34.5613 179.418 34.5998 179.33 34.6714C179.242 34.7429 179.198 34.8365 179.198 34.9411C179.198 35.0457 179.264 35.299 179.401 35.6843L180.637 39.2076L181.674 36.2128L181.488 35.6843L181.339 35.2604C181.274 35.1063 181.202 34.9686 181.12 34.853C181.081 34.7925 181.032 34.7429 180.972 34.7044C180.895 34.6493 180.818 34.6108 180.741 34.5833C180.681 34.5668 180.593 34.5558 180.466 34.5558V34.3851H182.904V34.5558H182.74C182.569 34.5558 182.443 34.5943 182.361 34.6659C182.278 34.7374 182.24 34.842 182.24 34.9686C182.24 35.1283 182.311 35.398 182.449 35.7944L183.651 39.2076L184.842 35.7504C184.98 35.365 185.046 35.1008 185.046 34.9521C185.046 34.8806 185.024 34.8145 184.98 34.7539C184.936 34.6934 184.881 34.6493 184.809 34.6218C184.694 34.5778 184.54 34.5558 184.354 34.5558V34.3851H186.226V34.3961Z" fill="#738C9A"/>
<path d="M189.003 37.3083H191.913V35.5137C191.913 35.1944 191.891 34.9797 191.853 34.8806C191.82 34.8035 191.76 34.7374 191.661 34.6824C191.529 34.6108 191.386 34.5723 191.238 34.5723H191.018V34.4016H193.698V34.5723H193.478C193.33 34.5723 193.193 34.6053 193.055 34.6769C192.957 34.7264 192.891 34.8035 192.852 34.9026C192.819 35.0017 192.797 35.2054 192.797 35.5137V39.5655C192.797 39.8848 192.819 40.094 192.858 40.193C192.891 40.2701 192.951 40.3362 193.044 40.3912C193.182 40.4628 193.319 40.5013 193.467 40.5013H193.687V40.672H191.007V40.5013H191.227C191.485 40.5013 191.666 40.4243 191.787 40.2756C191.864 40.1765 191.902 39.9398 191.902 39.56V37.6497H188.992V39.56C188.992 39.8793 189.014 40.0884 189.053 40.1875C189.086 40.2646 189.146 40.3307 189.245 40.3857C189.377 40.4573 189.52 40.4958 189.668 40.4958H189.893V40.6665H187.208V40.4958H187.428C187.686 40.4958 187.872 40.4188 187.993 40.2701C188.065 40.171 188.103 39.9343 188.103 39.5544V35.5027C188.103 35.1834 188.081 34.9687 188.043 34.8696C188.01 34.7925 187.949 34.7264 187.856 34.6714C187.719 34.5998 187.581 34.5613 187.433 34.5613H187.213V34.3906H189.898V34.5613H189.673C189.525 34.5613 189.388 34.5943 189.25 34.6659C189.157 34.7154 189.091 34.7925 189.053 34.8916C189.014 34.9907 188.998 35.1944 188.998 35.5027V37.2973L189.003 37.3083Z" fill="#738C9A"/>
<path d="M196.619 34.7374V37.2202H197.997C198.354 37.2202 198.59 37.1652 198.711 37.0606C198.87 36.9174 198.958 36.6697 198.98 36.3119H199.15V38.4974H198.98C198.936 38.1891 198.892 37.9965 198.849 37.9084C198.794 37.7983 198.7 37.7157 198.574 37.6551C198.448 37.5946 198.256 37.5616 197.992 37.5616H196.614V39.6315C196.614 39.9067 196.625 40.0774 196.652 40.138C196.68 40.1985 196.718 40.2481 196.784 40.2811C196.844 40.3141 196.96 40.3361 197.135 40.3361H198.195C198.547 40.3361 198.805 40.3141 198.964 40.2646C199.123 40.215 199.277 40.1159 199.425 39.9728C199.617 39.7801 199.809 39.4939 200.013 39.1085H200.199L199.661 40.683H194.835V40.5123H195.055C195.203 40.5123 195.34 40.4793 195.477 40.4077C195.576 40.3582 195.642 40.2866 195.68 40.1875C195.713 40.0884 195.735 39.8847 195.735 39.5819V35.5026C195.735 35.1063 195.697 34.8585 195.615 34.7649C195.505 34.6438 195.318 34.5778 195.06 34.5778H194.84V34.4071H199.667L199.738 35.7834H199.557C199.491 35.4531 199.42 35.2274 199.343 35.1008C199.266 34.9796 199.15 34.8805 198.997 34.82C198.876 34.7759 198.656 34.7484 198.343 34.7484H196.625L196.619 34.7374Z" fill="#738C9A"/>
<path d="M207.567 40.672H205.898L203.779 37.7377C203.619 37.7432 203.493 37.7488 203.394 37.7488C203.356 37.7488 203.312 37.7488 203.263 37.7488C203.219 37.7488 203.169 37.7487 203.12 37.7432V39.5654C203.12 39.9618 203.164 40.204 203.252 40.3031C203.367 40.4408 203.543 40.5068 203.779 40.5068H204.026V40.6775H201.341V40.5068H201.577C201.841 40.5068 202.033 40.4187 202.143 40.2481C202.208 40.1545 202.241 39.9233 202.241 39.5654V35.5082C202.241 35.1118 202.197 34.8696 202.11 34.7705C201.989 34.6328 201.813 34.5668 201.572 34.5668H201.335V34.3961H203.614C204.278 34.3961 204.767 34.4457 205.085 34.5393C205.398 34.6383 205.667 34.8145 205.887 35.0788C206.107 35.3375 206.217 35.6513 206.217 36.0091C206.217 36.3945 206.09 36.7303 205.838 37.0111C205.585 37.2973 205.201 37.4955 204.674 37.6111L205.964 39.4113C206.26 39.8242 206.513 40.0994 206.727 40.2371C206.941 40.3747 207.216 40.4573 207.556 40.4958V40.6665L207.567 40.672ZM203.12 37.446C203.18 37.446 203.23 37.446 203.274 37.446C203.318 37.446 203.35 37.446 203.378 37.446C203.976 37.446 204.427 37.3138 204.729 37.0551C205.031 36.7964 205.184 36.4661 205.184 36.0642C205.184 35.6623 205.064 35.354 204.816 35.1063C204.569 34.8586 204.245 34.7374 203.845 34.7374C203.663 34.7374 203.422 34.765 203.12 34.8255V37.435V37.446Z" fill="#738C9A"/>
<path d="M210.214 34.7374V37.2202H211.592C211.949 37.2202 212.185 37.1652 212.306 37.0606C212.465 36.9174 212.553 36.6697 212.575 36.3119H212.745V38.4974H212.575C212.531 38.1891 212.487 37.9965 212.443 37.9084C212.388 37.7983 212.295 37.7157 212.168 37.6551C212.042 37.5946 211.85 37.5616 211.586 37.5616H210.208V39.6315C210.208 39.9067 210.219 40.0774 210.247 40.138C210.269 40.1985 210.312 40.2481 210.378 40.2811C210.439 40.3141 210.56 40.3361 210.73 40.3361H211.789C212.141 40.3361 212.399 40.3141 212.558 40.2646C212.717 40.215 212.871 40.1159 213.019 39.9728C213.211 39.7801 213.404 39.4939 213.607 39.1085H213.793L213.255 40.683H208.429V40.5123H208.649C208.797 40.5123 208.934 40.4793 209.072 40.4077C209.17 40.3582 209.236 40.2866 209.275 40.1875C209.308 40.0884 209.33 39.8847 209.33 39.5819V35.5026C209.33 35.1063 209.291 34.8585 209.209 34.7649C209.099 34.6438 208.912 34.5778 208.654 34.5778H208.435V34.4071H213.261L213.332 35.7834H213.151C213.085 35.4531 213.014 35.2274 212.937 35.1008C212.86 34.9796 212.745 34.8805 212.591 34.82C212.47 34.7759 212.251 34.7484 211.938 34.7484H210.219L210.214 34.7374Z" fill="#738C9A"/>
<path d="M218.054 40.672V40.5013H218.29C218.554 40.5013 218.74 40.4187 218.856 40.2481C218.921 40.1435 218.954 39.9178 218.954 39.5655V35.5082C218.954 35.1173 218.91 34.8696 218.823 34.7705C218.702 34.6328 218.526 34.5668 218.285 34.5668H218.048V34.3961H220.596C221.529 34.3961 222.243 34.5007 222.732 34.7154C223.221 34.9301 223.61 35.2824 223.907 35.7779C224.203 36.2734 224.352 36.8514 224.352 37.501C224.352 38.3763 224.088 39.103 223.555 39.6921C222.962 40.3472 222.057 40.672 220.843 40.672H218.043H218.054ZM219.844 40.2206C220.234 40.3086 220.563 40.3527 220.827 40.3527C221.54 40.3527 222.133 40.0994 222.606 39.5985C223.078 39.0975 223.314 38.4149 223.314 37.5506C223.314 36.6863 223.078 35.9981 222.606 35.4971C222.133 34.9962 221.529 34.7484 220.794 34.7484C220.519 34.7484 220.201 34.7925 219.849 34.8806V40.2206H219.844Z" fill="#738C9A"/>
<path d="M231.868 40.672H230.199L228.08 37.7377C227.92 37.7432 227.794 37.7488 227.695 37.7488C227.657 37.7488 227.613 37.7488 227.563 37.7488C227.519 37.7488 227.47 37.7487 227.421 37.7432V39.5654C227.421 39.9618 227.465 40.204 227.552 40.3031C227.668 40.4408 227.843 40.5068 228.08 40.5068H228.327V40.6775H225.642V40.5068H225.878C226.141 40.5068 226.334 40.4187 226.443 40.2481C226.509 40.1545 226.542 39.9233 226.542 39.5654V35.5082C226.542 35.1118 226.498 34.8696 226.41 34.7705C226.29 34.6328 226.114 34.5668 225.872 34.5668H225.636V34.3961H227.915C228.579 34.3961 229.068 34.4457 229.386 34.5393C229.699 34.6383 229.968 34.8145 230.188 35.0788C230.407 35.3375 230.517 35.6513 230.517 36.0091C230.517 36.3945 230.391 36.7303 230.138 37.0111C229.886 37.2973 229.502 37.4955 228.974 37.6111L230.265 39.4113C230.561 39.8242 230.814 40.0994 231.028 40.2371C231.242 40.3747 231.517 40.4573 231.857 40.4958V40.6665L231.868 40.672ZM227.421 37.446C227.481 37.446 227.53 37.446 227.574 37.446C227.618 37.446 227.651 37.446 227.679 37.446C228.277 37.446 228.727 37.3138 229.029 37.0551C229.331 36.7964 229.485 36.4661 229.485 36.0642C229.485 35.6623 229.364 35.354 229.117 35.1063C228.87 34.8586 228.546 34.7374 228.145 34.7374C227.964 34.7374 227.723 34.765 227.421 34.8255V37.435V37.446Z" fill="#738C9A"/>
<path d="M234.52 34.7374V37.2202H235.898C236.255 37.2202 236.491 37.1652 236.612 37.0606C236.771 36.9174 236.859 36.6697 236.881 36.3119H237.051V38.4974H236.881C236.837 38.1891 236.793 37.9965 236.749 37.9084C236.694 37.7983 236.601 37.7157 236.474 37.6551C236.348 37.5946 236.156 37.5616 235.892 37.5616H234.514V39.6315C234.514 39.9067 234.525 40.0774 234.553 40.138C234.58 40.1985 234.619 40.2481 234.684 40.2811C234.745 40.3141 234.86 40.3361 235.036 40.3361H236.096C236.447 40.3361 236.705 40.3141 236.864 40.2646C237.023 40.215 237.177 40.1159 237.325 39.9728C237.518 39.7801 237.71 39.4939 237.913 39.1085H238.1L237.562 40.683H232.735V40.5123H232.955C233.103 40.5123 233.24 40.4793 233.378 40.4077C233.477 40.3582 233.542 40.2866 233.581 40.1875C233.614 40.0884 233.636 39.8847 233.636 39.5819V35.5026C233.636 35.1063 233.597 34.8585 233.515 34.7649C233.405 34.6438 233.219 34.5778 232.96 34.5778H232.741V34.4071H237.567L237.638 35.7834H237.457C237.391 35.4531 237.32 35.2274 237.243 35.1008C237.166 34.9741 237.051 34.8805 236.897 34.82C236.776 34.7759 236.557 34.7484 236.244 34.7484H234.525L234.52 34.7374Z" fill="#738C9A"/>
<path d="M243.404 38.569H240.977L240.554 39.5599C240.45 39.8022 240.395 39.9838 240.395 40.105C240.395 40.1985 240.439 40.2866 240.532 40.3582C240.625 40.4298 240.818 40.4793 241.12 40.5013V40.672H239.148V40.5013C239.412 40.4573 239.577 40.3967 239.659 40.3197C239.818 40.171 239.988 39.8682 240.181 39.4168L242.382 34.253H242.542L244.721 39.4774C244.897 39.8958 245.056 40.171 245.199 40.2921C245.342 40.4188 245.539 40.4848 245.797 40.5013V40.672H243.327V40.5013C243.574 40.4903 243.744 40.4463 243.832 40.3747C243.92 40.3031 243.964 40.2151 243.964 40.116C243.964 39.9783 243.903 39.7636 243.777 39.4719L243.398 38.569H243.404ZM243.272 38.2277L242.212 35.6898L241.125 38.2277H243.277H243.272Z" fill="#738C9A"/>
<path d="M250.53 40.672L248.109 35.3871V39.582C248.109 39.9673 248.153 40.2096 248.235 40.3031C248.35 40.4353 248.532 40.4958 248.773 40.4958H248.993V40.6665H246.813V40.4958H247.033C247.296 40.4958 247.483 40.4133 247.598 40.2536C247.664 40.1545 247.697 39.9288 247.697 39.5765V35.4751C247.697 35.1999 247.664 34.9962 247.604 34.8751C247.56 34.787 247.483 34.7099 247.368 34.6494C247.252 34.5888 247.066 34.5613 246.813 34.5613V34.3906H248.586L250.859 39.3012L253.094 34.3906H254.868V34.5613H254.648C254.379 34.5613 254.192 34.6439 254.082 34.8035C254.017 34.9026 253.978 35.1283 253.978 35.4806V39.582C253.978 39.9673 254.022 40.2096 254.11 40.3031C254.225 40.4353 254.406 40.4958 254.648 40.4958H254.868V40.6665H252.21V40.4958H252.43C252.699 40.4958 252.885 40.4133 252.995 40.2536C253.061 40.1545 253.1 39.9288 253.1 39.5765V35.3815L250.684 40.6665H250.53V40.672Z" fill="#738C9A"/>
<path d="M260.161 34.253V36.422H259.99C259.935 36.0037 259.837 35.6733 259.694 35.4256C259.551 35.1779 259.348 34.9852 259.084 34.8366C258.821 34.6934 258.546 34.6164 258.261 34.6164C257.942 34.6164 257.673 34.7154 257.465 34.9081C257.256 35.1063 257.152 35.3265 257.152 35.5798C257.152 35.7724 257.218 35.9431 257.349 36.1027C257.542 36.334 257.992 36.6422 258.711 37.0276C259.299 37.3414 259.694 37.5836 259.908 37.7543C260.122 37.9249 260.287 38.1231 260.402 38.3488C260.517 38.5746 260.578 38.8168 260.578 39.0645C260.578 39.538 260.391 39.9508 260.023 40.2922C259.655 40.639 259.183 40.8096 258.601 40.8096C258.42 40.8096 258.25 40.7931 258.091 40.7656C257.997 40.7491 257.8 40.694 257.498 40.5949C257.196 40.4958 257.009 40.4518 256.927 40.4518C256.844 40.4518 256.789 40.4738 256.745 40.5234C256.702 40.5674 256.669 40.6665 256.647 40.8096H256.476V38.6571H256.647C256.729 39.1086 256.833 39.4444 256.971 39.6701C257.108 39.8958 257.311 40.0775 257.591 40.2261C257.871 40.3747 258.173 40.4463 258.508 40.4463C258.892 40.4463 259.194 40.3472 259.419 40.1435C259.644 39.9398 259.754 39.6976 259.754 39.4223C259.754 39.2682 259.71 39.1141 259.628 38.9544C259.546 38.7948 259.414 38.6516 259.233 38.514C259.112 38.4204 258.782 38.2222 258.25 37.9249C257.712 37.6222 257.333 37.3854 257.108 37.2038C256.883 37.0221 256.713 36.8294 256.592 36.6092C256.471 36.389 256.416 36.1578 256.416 35.8935C256.416 35.4421 256.586 35.0568 256.932 34.732C257.278 34.4072 257.717 34.242 258.25 34.242C258.585 34.242 258.936 34.3246 259.31 34.4897C259.48 34.5668 259.606 34.6053 259.672 34.6053C259.754 34.6053 259.815 34.5833 259.87 34.5338C259.919 34.4842 259.963 34.3906 259.99 34.242H260.161V34.253Z" fill="#738C9A"/>
<path d="M270.384 38.9379L270.538 38.9709L270 40.672H265.151V40.5013H265.388C265.651 40.5013 265.843 40.4132 265.953 40.2426C266.019 40.1435 266.052 39.9178 266.052 39.5599V35.5082C266.052 35.1173 266.008 34.8696 265.92 34.7705C265.799 34.6328 265.624 34.5668 265.382 34.5668H265.146V34.3961H267.979V34.5668C267.644 34.5668 267.414 34.5943 267.282 34.6604C267.15 34.7264 267.057 34.809 267.007 34.9081C266.958 35.0072 266.936 35.2439 266.936 35.6183V39.5599C266.936 39.8187 266.958 39.9893 267.007 40.0884C267.046 40.1545 267.101 40.1985 267.177 40.2316C267.254 40.2646 267.496 40.2756 267.897 40.2756H268.352C268.83 40.2756 269.171 40.2426 269.363 40.171C269.555 40.0994 269.736 39.9728 269.895 39.7912C270.055 39.6095 270.214 39.3232 270.373 38.9379H270.384Z" fill="#738C9A"/>
<path d="M274.414 40.5013V40.672H271.729V40.5013H271.949C272.207 40.5013 272.393 40.4243 272.514 40.2756C272.586 40.1765 272.624 39.9398 272.624 39.5599V35.5027C272.624 35.1834 272.602 34.9742 272.564 34.8751C272.531 34.798 272.47 34.7319 272.377 34.6769C272.24 34.6053 272.102 34.5668 271.954 34.5668H271.734V34.3961H274.419V34.5668H274.194C273.936 34.5668 273.755 34.6439 273.634 34.7925C273.557 34.8916 273.519 35.1283 273.519 35.5082V39.5655C273.519 39.8847 273.541 40.0939 273.579 40.193C273.612 40.2701 273.673 40.3362 273.771 40.3912C273.903 40.4628 274.046 40.5013 274.194 40.5013H274.419H274.414Z" fill="#738C9A"/>
<path d="M282.112 34.3961V34.5668C281.892 34.6053 281.722 34.6769 281.606 34.7815C281.442 34.9301 281.299 35.1669 281.173 35.4751L278.987 40.8151H278.817L276.473 35.4036C276.352 35.1283 276.27 34.9577 276.22 34.8916C276.143 34.798 276.05 34.7209 275.935 34.6659C275.825 34.6108 275.671 34.5778 275.479 34.5613V34.3906H278.038V34.5613C277.747 34.5888 277.56 34.6384 277.472 34.7099C277.384 34.7815 277.34 34.8696 277.34 34.9852C277.34 35.1393 277.412 35.3816 277.554 35.7064L279.147 39.3893L280.624 35.7559C280.766 35.3981 280.843 35.1503 280.843 35.0127C280.843 34.9246 280.799 34.8365 280.711 34.754C280.624 34.6714 280.47 34.6163 280.261 34.5778C280.245 34.5778 280.217 34.5723 280.184 34.5613V34.3906H282.117L282.112 34.3961Z" fill="#738C9A"/>
<path d="M284.961 34.7374V37.2202H286.339C286.696 37.2202 286.932 37.1652 287.053 37.0606C287.212 36.9174 287.3 36.6697 287.322 36.3119H287.492V38.4974H287.322C287.278 38.1891 287.234 37.9965 287.19 37.9084C287.135 37.7983 287.042 37.7157 286.916 37.6551C286.79 37.5946 286.597 37.5616 286.334 37.5616H284.956V39.6315C284.956 39.9067 284.967 40.0774 284.994 40.138C285.016 40.1985 285.06 40.2481 285.126 40.2811C285.186 40.3141 285.302 40.3361 285.477 40.3361H286.537C286.888 40.3361 287.146 40.3141 287.306 40.2646C287.465 40.215 287.619 40.1159 287.767 39.9728C287.959 39.7801 288.151 39.4939 288.354 39.1085H288.541L288.003 40.683H283.177V40.5123H283.396C283.545 40.5123 283.682 40.4793 283.819 40.4077C283.918 40.3582 283.984 40.2866 284.022 40.1875C284.055 40.0884 284.077 39.8847 284.077 39.5819V35.5026C284.077 35.1063 284.039 34.8585 283.956 34.7649C283.847 34.6438 283.66 34.5778 283.402 34.5778H283.182V34.4071H288.008L288.08 35.7834H287.899C287.833 35.4531 287.761 35.2274 287.684 35.1008C287.608 34.9741 287.492 34.8805 287.339 34.82C287.218 34.7759 286.998 34.7484 286.685 34.7484H284.967L284.961 34.7374Z" fill="#738C9A"/>
<path d="M0 39H168.729" stroke="#3B8281" stroke-width="0.5" stroke-miterlimit="10"/>
<path d="M3.98936 39H0V74H3.98936V39Z" fill="#3B8281"/>
</svg>
