<?xml version="1.0" encoding="UTF-8"?>
<svg xmlns="http://www.w3.org/2000/svg" version="1.1" viewBox="0 0 289 110">
  <!-- Generator: Adobe Illustrator 30.0.0, SVG Export Plug-In . SVG Version: 2.1.1 Build 123)  -->
  <defs>
    <style>
      .st0 {
        fill: none;
        stroke: #3b8281;
        stroke-miterlimit: 10;
        stroke-width: .5px;
      }

      .st1 {
        fill: #738c9a;
      }

      .st2 {
        isolation: isolate;
      }

      .st3 {
        mix-blend-mode: multiply;
      }

      .st4 {
        fill: #3b8281;
      }
    </style>
  </defs>
  <g class="st2">
    <g id="_圖層_1" data-name="圖層_1">
      <g class="st3">
        <path class="st4" d="M283.4,23.3c1-.4-1-2.3-1.4-2.7-.5-.3-1.4-1-2.1-.9-.1.7.5,1.7.9,2.1.3.4,2.2,2.4,2.7,1.4h0ZM265.3,23.3c.4,1,2.3-1,2.7-1.4.3-.5,1-1.4.9-2.1-.7-.1-1.7.5-2.1.9-.4.3-2.4,2.2-1.4,2.7h0ZM265.3,5.1c-1,.4,1,2.3,1.4,2.7.5.3,1.4,1,2.1.9.1-.7-.5-1.7-.9-2.1-.3-.4-2.2-2.4-2.7-1.4h0ZM283.4,5.1c-.4-1-2.3,1-2.7,1.4-.3.5-1,1.4-.9,2.1.7.1,1.7-.5,2.1-.9.4-.3,2.4-2.2,1.4-2.7h0ZM274.9,14.7c-.2,0-.3,0-.5,0s-.3,0-.5,0c0-.2,0-.3,0-.5s0-.3,0-.5c.2,0,.3,0,.5,0s.3,0,.5,0c0,.2,0,.3,0,.5s0,.3,0,.5ZM287.1,11.7c-.4-.9-.6-1.8-.8-2.7,0,0,0-.2,0-.3-.3-1.5-.2-2.5-.3-2.6-.2-.1-.4-.1-.5,0-2.5,2.7-4.9,4.1-7.3,4.3.2-2.4,1.6-4.8,4.3-7.3.2-.1.2-.4,0-.5-.1-.1-1.1,0-2.6-.3-.1,0-.2,0-.3,0-.9-.2-1.8-.5-2.7-.8-.9-.4-1.7-.9-2.5-1.4-.8.6-1.6,1.1-2.5,1.4-.9.4-1.8.6-2.7.8,0,0-.2,0-.3,0-1.5.3-2.5.2-2.6.3-.1.2-.1.4,0,.5,2.7,2.5,4.1,4.9,4.3,7.3-2.4-.2-4.8-1.6-7.3-4.3-.1-.2-.4-.2-.5,0-.1.1,0,1.1-.3,2.6,0,.1,0,.2,0,.3-.2.9-.5,1.8-.8,2.7-.4.9-.9,1.7-1.4,2.5.6.8,1.1,1.6,1.4,2.5.4.9.6,1.8.8,2.7,0,0,0,.2,0,.3.3,1.5.2,2.5.3,2.6.2.1.4.1.5,0,2.5-2.7,4.9-4.1,7.3-4.3-.2,2.4-1.6,4.8-4.3,7.3-.2.1-.2.4,0,.5.1.2,1.1,0,2.6.3.1,0,.2,0,.3,0,.9.2,1.8.5,2.7.8.9.4,1.7.9,2.5,1.4.8-.6,1.6-1.1,2.5-1.4.9-.4,1.8-.6,2.7-.8,0,0,.2,0,.3,0,1.5-.3,2.5-.2,2.6-.3.1-.2.1-.4,0-.5-2.7-2.5-4.1-4.9-4.3-7.3,2.4.2,4.8,1.6,7.3,4.3.1.2.4.2.5,0,.1-.1,0-1.1.3-2.6,0-.1,0-.2,0-.3.2-.9.5-1.8.8-2.7.4-.9.9-1.7,1.4-2.5-.6-.8-1.1-1.6-1.4-2.5ZM285.2,7.4c0,.4.1.9.3,1.5,0,.1,0,.2,0,.2.2,1,.5,1.9.9,2.9.3.8.7,1.5,1.2,2.2-.5-.4-1-.8-1.6-1.1-1.5-.9-3-1.3-4.5-1.3-1.1,0-2.2.3-3.2.8-.1-.4-.2-.9-.2-1.3,2.4-.2,4.7-1.4,7.1-3.8h0ZM278.5,13.3s0,0,0,0c1-.4,2-.7,2.9-.7,1.3,0,2.8.4,4.1,1.2.3.1.5.3.8.5-.2.2-.5.3-.8.5-1.4.8-2.8,1.2-4.1,1.2-1,0-2-.3-2.9-.7,0,0,0,0,0,0,.1-.3.2-.6.4-.9-.1-.3-.3-.6-.4-.9ZM276.6,2.1c.9.4,1.9.7,2.8.9,0,0,.1,0,.2,0,.6.1,1.1.2,1.5.3-2.3,2.4-3.6,4.8-3.8,7.1-.5,0-.9,0-1.3-.2.5-1.1.8-2.2.8-3.2,0-1.5-.4-3-1.3-4.5-.3-.6-.7-1.1-1.1-1.6.7.5,1.4.9,2.2,1.2h0ZM278,14.2c0,1-.6,1.8-1.5,2.1-.3.9-1.1,1.5-2.1,1.5s-1.8-.6-2.1-1.5c-.9-.3-1.5-1.1-1.5-2.1s.6-1.8,1.5-2.1c.3-.9,1.1-1.5,2.1-1.5s1.8.6,2.1,1.5c.9.3,1.5,1.1,1.5,2.1ZM274.9,2.9c.8,1.4,1.2,2.8,1.2,4.1,0,1-.3,2-.7,2.9,0,0,0,0,0,0-.3-.1-.6-.2-.9-.4-.3.1-.6.3-.9.4,0,0,0,0,0,0-.4-1-.7-2-.7-2.9,0-1.3.4-2.8,1.2-4.1.1-.3.3-.5.5-.8.2.2.3.5.5.8ZM267.6,3.3c.4,0,.9-.1,1.5-.3.1,0,.2,0,.2,0,1-.2,1.9-.5,2.8-.9.8-.3,1.5-.7,2.2-1.2-.4.5-.8,1-1.1,1.6-.9,1.5-1.3,3-1.3,4.5,0,1.1.3,2.2.8,3.2-.4.1-.9.2-1.3.2-.2-2.4-1.4-4.7-3.8-7.1h0ZM262.4,12c.4-.9.7-1.9.9-2.9,0,0,0-.1,0-.2.1-.6.2-1.1.3-1.5,2.4,2.4,4.8,3.6,7.1,3.8,0,.5,0,.9-.2,1.3-1-.5-2.2-.8-3.2-.8-1.5,0-3,.4-4.5,1.3-.6.3-1.1.7-1.6,1.1.5-.7.9-1.4,1.2-2.2h0ZM270.3,15.1s0,0,0,0c-1,.4-2,.7-2.9.7-1.3,0-2.8-.4-4.1-1.2-.3-.1-.5-.3-.8-.5.2-.2.5-.3.8-.5,1.4-.8,2.8-1.2,4.1-1.2,1,0,2,.3,2.9.7,0,0,0,0,0,0-.1.3-.2.6-.4.9.1.3.3.6.4.9ZM263.6,21c0-.4-.1-.9-.3-1.5,0-.1,0-.2,0-.2-.2-1-.5-1.9-.9-2.9-.3-.8-.7-1.5-1.2-2.2.5.4,1,.8,1.6,1.1,1.5.9,3,1.3,4.5,1.3,1.1,0,2.2-.3,3.2-.8.1.4.2.9.2,1.3-2.3.2-4.7,1.4-7.1,3.8h0ZM272.2,26.2c-.9-.4-1.9-.7-2.8-.9,0,0-.1,0-.2,0-.6-.1-1.1-.2-1.5-.3,2.3-2.4,3.6-4.8,3.8-7.1.5,0,.9,0,1.3.2-.5,1.1-.8,2.2-.8,3.2,0,1.5.4,3,1.3,4.5.3.6.7,1.1,1.1,1.6-.7-.5-1.4-.9-2.2-1.2h0ZM273.9,25.5c-.8-1.4-1.2-2.8-1.2-4.1,0-1,.3-2,.7-2.9,0,0,0,0,0,0,.3.1.6.2.9.4.3-.1.6-.3.9-.4,0,0,0,0,0,0,.4,1,.7,2,.7,2.9,0,1.3-.4,2.8-1.2,4.1-.1.3-.3.5-.5.8-.2-.2-.3-.5-.5-.8ZM281.2,25c-.4,0-.9.1-1.5.3-.1,0-.2,0-.2,0-1,.2-1.9.5-2.8.9-.8.3-1.5.7-2.2,1.2.4-.5.8-1,1.1-1.6.9-1.5,1.3-3,1.3-4.5,0-1.1-.3-2.2-.8-3.2.4-.1.9-.2,1.3-.2.2,2.4,1.4,4.7,3.8,7.1h0ZM286.4,16.4c-.4.9-.7,1.9-.9,2.9,0,0,0,.1,0,.2-.1.6-.2,1.1-.3,1.5-2.4-2.4-4.8-3.6-7.1-3.8,0-.5,0-.9.2-1.3,1,.5,2.2.8,3.2.8,1.5,0,3-.4,4.5-1.3.6-.3,1.1-.7,1.6-1.1-.5.7-.9,1.4-1.2,2.2h0ZM280.4,14.2c1.3-.7,2.7-.9,4.2-.2.1,0,.3.1.4.2-.1,0-.3.2-.4.2-1.4.7-2.9.5-4.2-.2ZM273,11.9c0,0-.1,0-.2,0,.3-.6.9-1,1.6-1s1.3.4,1.6,1c0,0-.1,0-.2,0-.5,0-1,.2-1.4.5-.4-.3-.9-.5-1.4-.5ZM275.8,12.4c.1,0,.3,0,.4,0,0,.1,0,.3,0,.4,0,.4-.1.8-.4,1.1-.2-.2-.5-.3-.7-.4,0-.3-.2-.5-.4-.7.3-.2.7-.4,1.1-.4h0ZM274.2,3.9c0-.1.1-.3.2-.4,0,.1.2.3.2.4.7,1.4.4,2.9-.2,4.2-.7-1.3-.9-2.8-.2-4.2ZM277.6,14.2c0,.7-.4,1.3-1,1.6,0,0,0-.1,0-.2,0-.5-.2-1-.5-1.4.3-.4.5-.9.5-1.4s0-.1,0-.2c.6.3,1,.9,1,1.6ZM272.9,13.9c-.2-.3-.4-.7-.4-1.1s0-.3,0-.4c.1,0,.3,0,.4,0,.4,0,.8.1,1.1.4-.2.2-.3.5-.4.7-.3,0-.5.2-.7.4h0ZM275.8,14.5c.2.3.4.7.4,1.1s0,.3,0,.4c-.1,0-.3,0-.4,0-.4,0-.8-.1-1.1-.4.2-.2.3-.5.4-.7.3,0,.5-.2.7-.4h0ZM274.6,24.4c0,.1-.1.3-.2.4,0-.1-.2-.3-.2-.4-.7-1.4-.5-2.9.2-4.2.7,1.3.9,2.8.2,4.2ZM272.6,14.2c-.3.4-.5.9-.5,1.4s0,.1,0,.2c-.6-.3-1-.9-1-1.6s.4-1.3,1-1.6c0,0,0,.1,0,.2,0,.5.2,1,.5,1.4ZM268.3,14.2c-1.3.7-2.7.9-4.2.2-.1,0-.3-.1-.4-.2.1,0,.3-.2.4-.2,1.4-.7,2.9-.5,4.2.2ZM273,16c-.1,0-.3,0-.4,0,0-.1,0-.3,0-.4,0-.4.1-.8.4-1.1.2.2.5.3.7.4,0,.3.2.5.4.7-.3.2-.7.4-1.1.4h0ZM275.8,16.4c0,0,.1,0,.2,0-.3.6-.9,1-1.6,1s-1.3-.4-1.6-1c0,0,.1,0,.2,0,.5,0,1-.2,1.4-.5.4.3.9.5,1.4.5Z"/>
      </g>
      <path class="st1" d="M186.2,34.4v.2c-.2,0-.3,0-.4,0,0,0-.2.2-.3.3,0,.1-.2.4-.3.8l-1.7,5.1h-.2l-1.4-4-1.4,4h-.2l-1.9-5.2c-.1-.4-.2-.6-.3-.7,0-.1-.1-.2-.3-.3-.1,0-.3,0-.4,0v-.2h2.3v.2h-.1c-.2,0-.3,0-.4.1,0,0-.1.2-.1.3s0,.4.2.7l1.2,3.5,1-3-.2-.5v-.4c-.2-.2-.3-.3-.4-.4,0,0,0-.1-.1-.1,0,0-.2,0-.2-.1,0,0-.1,0-.3,0v-.2h2.4v.2h-.2c-.2,0-.3,0-.4.1,0,0-.1.2-.1.3s0,.4.2.8l1.2,3.4,1.2-3.5c.1-.4.2-.6.2-.8s0-.1,0-.2c0,0,0-.1-.2-.1-.1,0-.3,0-.5,0v-.2h1.9Z"/>
      <path class="st1" d="M189,37.3h2.9v-1.8c0-.3,0-.5,0-.6,0,0,0-.1-.2-.2-.1,0-.3-.1-.4-.1h-.2v-.2h2.7v.2h-.2c-.1,0-.3,0-.4.1,0,0-.2.1-.2.2,0,0,0,.3,0,.6v4.1c0,.3,0,.5,0,.6,0,0,0,.1.2.2.1,0,.3.1.4.1h.2v.2h-2.7v-.2h.2c.3,0,.4,0,.6-.2,0,0,.1-.3.1-.7v-1.9h-2.9v1.9c0,.3,0,.5,0,.6,0,0,0,.1.2.2.1,0,.3.1.4.1h.2v.2h-2.7v-.2h.2c.3,0,.4,0,.6-.2,0,0,.1-.3.1-.7v-4.1c0-.3,0-.5,0-.6,0,0,0-.1-.2-.2-.1,0-.3-.1-.4-.1h-.2v-.2h2.7v.2h-.2c-.1,0-.3,0-.4.1,0,0-.2.1-.2.2,0,0,0,.3,0,.6v1.8h0Z"/>
      <path class="st1" d="M196.6,34.7v2.5h1.4c.4,0,.6,0,.7-.2.2-.1.2-.4.3-.7h.2v2.2h-.2c0-.3,0-.5-.1-.6,0-.1-.1-.2-.3-.3-.1,0-.3,0-.6,0h-1.4v2.1c0,.3,0,.4,0,.5,0,0,0,.1.1.1,0,0,.2,0,.4,0h1.1c.4,0,.6,0,.8,0,.2,0,.3-.1.5-.3.2-.2.4-.5.6-.9h.2l-.5,1.6h-4.8v-.2h.2c.1,0,.3,0,.4-.1,0,0,.2-.1.2-.2,0,0,0-.3,0-.6v-4.1c0-.4,0-.6-.1-.7-.1-.1-.3-.2-.6-.2h-.2v-.2h4.8v1.4c0,0-.1,0-.1,0,0-.3-.1-.6-.2-.7,0-.1-.2-.2-.3-.3-.1,0-.3,0-.7,0h-1.7Z"/>
      <path class="st1" d="M207.6,40.7h-1.7l-2.1-2.9c-.2,0-.3,0-.4,0h-.1s0,0-.1,0v1.8c0,.4,0,.6.1.7.1.1.3.2.5.2h.2v.2h-2.7v-.2h.2c.3,0,.5,0,.6-.3,0,0,0-.3,0-.7v-4.1c0-.4,0-.6-.1-.7-.1-.1-.3-.2-.5-.2h-.2v-.2h2.3c.7,0,1.2,0,1.5.1.3,0,.6.3.8.5.2.3.3.6.3.9s-.1.7-.4,1c-.3.3-.6.5-1.2.6l1.3,1.8c.3.4.5.7.8.8.2.1.5.2.8.3v.2h0ZM203.1,37.4h.3c.6,0,1-.1,1.4-.4s.5-.6.5-1-.1-.7-.4-1c-.2-.2-.6-.4-1-.4s-.4,0-.7,0v2.6h0Z"/>
      <path class="st1" d="M210.2,34.7v2.5h1.4c.4,0,.6,0,.7-.2.2-.1.2-.4.3-.7h.2v2.2h-.2c0-.3,0-.5-.1-.6,0-.1-.1-.2-.3-.3-.1,0-.3,0-.6,0h-1.4v2.1c0,.3,0,.4,0,.5,0,0,0,.1.1.1,0,0,.2,0,.4,0h1.1c.4,0,.6,0,.8,0,.2,0,.3-.1.5-.3.2-.2.4-.5.6-.9h.2l-.5,1.6h-4.8v-.2h.2c.1,0,.3,0,.4-.1,0,0,.2-.1.2-.2,0,0,0-.3,0-.6v-4.1c0-.4,0-.6-.1-.7-.1-.1-.3-.2-.6-.2h-.2v-.2h4.8v1.4c0,0-.1,0-.1,0,0-.3-.1-.6-.2-.7,0-.1-.2-.2-.3-.3-.1,0-.3,0-.7,0h-1.7Z"/>
      <path class="st1" d="M218.1,40.7v-.2h.2c.3,0,.5,0,.6-.3,0-.1,0-.3,0-.7v-4.1c0-.4,0-.6-.1-.7-.1-.1-.3-.2-.5-.2h-.2v-.2h2.5c.9,0,1.6.1,2.1.3s.9.6,1.2,1.1c.3.5.4,1.1.4,1.7s-.3,1.6-.8,2.2c-.6.7-1.5,1-2.7,1h-2.8,0ZM219.8,40.2c.4,0,.7.1,1,.1.7,0,1.3-.3,1.8-.8.5-.5.7-1.2.7-2s-.2-1.6-.7-2.1c-.5-.5-1.1-.7-1.8-.7s-.6,0-.9.1v5.3h0Z"/>
      <path class="st1" d="M231.9,40.7h-1.7l-2.1-2.9c-.2,0-.3,0-.4,0h-.1s0,0-.1,0v1.8c0,.4,0,.6.1.7.1.1.3.2.5.2h.2v.2h-2.7v-.2h.2c.3,0,.5,0,.6-.3,0,0,0-.3,0-.7v-4.1c0-.4,0-.6-.1-.7-.1-.1-.3-.2-.5-.2h-.2v-.2h2.3c.7,0,1.2,0,1.5.1.3,0,.6.3.8.5.2.3.3.6.3.9s-.1.7-.4,1c-.3.3-.6.5-1.2.6l1.3,1.8c.3.4.5.7.8.8.2.1.5.2.8.3v.2h0ZM227.4,37.4h.3c.6,0,1-.1,1.4-.4.3-.3.5-.6.5-1s-.1-.7-.4-1c-.2-.2-.6-.4-1-.4s-.4,0-.7,0v2.6h0Z"/>
      <path class="st1" d="M234.5,34.7v2.5h1.4c.4,0,.6,0,.7-.2.2-.1.2-.4.3-.7h.2v2.2h-.2c0-.3,0-.5-.1-.6,0-.1-.1-.2-.3-.3-.1,0-.3,0-.6,0h-1.4v2.1c0,.3,0,.4,0,.5,0,0,0,.1.1.1,0,0,.2,0,.4,0h1.1c.4,0,.6,0,.8,0,.2,0,.3-.1.5-.3.2-.2.4-.5.6-.9h.2l-.5,1.6h-4.8v-.2h.2c.1,0,.3,0,.4-.1,0,0,.2-.1.2-.2,0,0,0-.3,0-.6v-4.1c0-.4,0-.6-.1-.7-.1-.1-.3-.2-.6-.2h-.2v-.2h4.8v1.4c0,0-.1,0-.1,0,0-.3-.1-.6-.2-.7,0-.1-.2-.2-.3-.3-.1,0-.3,0-.7,0h-1.7Z"/>
      <path class="st1" d="M243.4,38.6h-2.4l-.4,1c-.1.2-.2.4-.2.5s0,.2.1.3c0,0,.3.1.6.1v.2h-2v-.2c.3,0,.4-.1.5-.2.2-.1.3-.5.5-.9l2.2-5.2h.2l2.2,5.2c.2.4.3.7.5.8.1.1.3.2.6.2v.2h-2.5v-.2c.2,0,.4,0,.5-.1,0,0,.1-.2.1-.3s0-.4-.2-.6l-.4-.9h0ZM243.3,38.2l-1.1-2.5-1.1,2.5h2.2,0Z"/>
      <path class="st1" d="M250.5,40.7l-2.4-5.3v4.2c0,.4,0,.6.1.7.1.1.3.2.5.2h.2v.2h-2.2v-.2h.2c.3,0,.4,0,.6-.2,0,0,0-.3,0-.7v-4.1c0-.3,0-.5,0-.6,0,0-.1-.2-.2-.2-.1,0-.3,0-.6,0v-.2h1.8l2.3,4.9,2.2-4.9h1.8v.2h-.2c-.3,0-.5,0-.6.2,0,0-.1.3-.1.7v4.1c0,.4,0,.6.1.7.1.1.3.2.5.2h.2v.2h-2.7v-.2h.2c.3,0,.5,0,.6-.2,0,0,.1-.3.1-.7v-4.2l-2.4,5.3h-.2Z"/>
      <path class="st1" d="M260.2,34.3v2.2h-.2c0-.4-.2-.7-.3-1-.1-.2-.3-.4-.6-.6-.3-.1-.5-.2-.8-.2s-.6,0-.8.3c-.2.2-.3.4-.3.7s0,.4.2.5c.2.2.6.5,1.4.9.6.3,1,.6,1.2.7.2.2.4.4.5.6.1.2.2.5.2.7,0,.5-.2.9-.6,1.2-.4.3-.8.5-1.4.5s-.4,0-.5,0c0,0-.3,0-.6-.2-.3,0-.5-.1-.6-.1s-.1,0-.2,0c0,0,0,.1,0,.3h-.2v-2.2h.2c0,.5.2.8.3,1,.1.2.3.4.6.6.3.1.6.2.9.2s.7,0,.9-.3c.2-.2.3-.4.3-.7s0-.3-.1-.5c0-.2-.2-.3-.4-.4-.1,0-.5-.3-1-.6-.5-.3-.9-.5-1.1-.7-.2-.2-.4-.4-.5-.6s-.2-.5-.2-.7c0-.5.2-.8.5-1.2.3-.3.8-.5,1.3-.5s.7,0,1.1.2c.2,0,.3.1.4.1s.1,0,.2,0c0,0,0-.1.1-.3h.2Z"/>
      <path class="st1" d="M270.4,38.9h.2s-.5,1.7-.5,1.7h-4.8v-.2h.2c.3,0,.5,0,.6-.3,0,0,0-.3,0-.7v-4.1c0-.4,0-.6-.1-.7-.1-.1-.3-.2-.5-.2h-.2v-.2h2.8v.2c-.3,0-.6,0-.7,0-.1,0-.2.1-.3.2,0,0,0,.3,0,.7v3.9c0,.3,0,.4,0,.5,0,0,0,.1.2.1,0,0,.3,0,.7,0h.5c.5,0,.8,0,1-.1.2,0,.4-.2.5-.4.2-.2.3-.5.5-.9h0Z"/>
      <path class="st1" d="M274.4,40.5v.2h-2.7v-.2h.2c.3,0,.4,0,.6-.2,0,0,.1-.3.1-.7v-4.1c0-.3,0-.5,0-.6,0,0,0-.1-.2-.2-.1,0-.3-.1-.4-.1h-.2v-.2h2.7v.2h-.2c-.3,0-.4,0-.6.2,0,0-.1.3-.1.7v4.1c0,.3,0,.5,0,.6,0,0,0,.1.2.2.1,0,.3.1.4.1h.2,0Z"/>
      <path class="st1" d="M282.1,34.4v.2c-.2,0-.4.1-.5.2-.2.1-.3.4-.4.7l-2.2,5.3h-.2l-2.3-5.4c-.1-.3-.2-.4-.3-.5,0,0-.2-.2-.3-.2-.1,0-.3,0-.5-.1v-.2h2.6v.2c-.3,0-.5,0-.6.1,0,0-.1.2-.1.3s0,.4.2.7l1.6,3.7,1.5-3.6c.1-.4.2-.6.2-.7s0-.2-.1-.3c0,0-.2-.1-.5-.2,0,0,0,0,0,0v-.2h1.9,0Z"/>
      <path class="st1" d="M285,34.7v2.5h1.4c.4,0,.6,0,.7-.2.2-.1.2-.4.3-.7h.2v2.2h-.2c0-.3,0-.5-.1-.6,0-.1-.1-.2-.3-.3-.1,0-.3,0-.6,0h-1.4v2.1c0,.3,0,.4,0,.5,0,0,0,.1.1.1,0,0,.2,0,.4,0h1.1c.4,0,.6,0,.8,0,.2,0,.3-.1.5-.3.2-.2.4-.5.6-.9h.2l-.5,1.6h-4.8v-.2h.2c.1,0,.3,0,.4-.1,0,0,.2-.1.2-.2,0,0,0-.3,0-.6v-4.1c0-.4,0-.6-.1-.7-.1-.1-.3-.2-.6-.2h-.2v-.2h4.8v1.4c0,0-.1,0-.1,0,0-.3-.1-.6-.2-.7,0-.1-.2-.2-.3-.3-.1,0-.3,0-.7,0h-1.7Z"/>
      <path class="st0" d="M0,39h168.7"/>
      <path class="st4" d="M4,39H0v75h4V39Z"/>
    </g>
  </g>
</svg>