<?xml version="1.0" encoding="UTF-8"?><svg id="_圖層_1" data-name="圖層_1" xmlns="http://www.w3.org/2000/svg" version="1.1" viewBox="0 0 210 191"><!--Generator: Adobe Illustrator 30.0.0, SVG Export Plug-In . SVG Version: 2.1.1 Build 123)--><defs><style>.st0 {
        fill: #738c9a;
      }

      .st1 {
        fill: #3b8281;
      }</style></defs><path class="st1" d="M43.7,151.9c1.9-.8-1.8-4.3-2.5-4.8-.8-.6-2.6-1.8-3.8-1.6-.3,1.2,1,3,1.6,3.8.6.8,4,4.4,4.8,2.6h0ZM10.7,151.9c.8,1.9,4.3-1.8,4.8-2.5.6-.8,1.8-2.6,1.6-3.8-1.2-.3-3,.9-3.8,1.6-.8.6-4.4,4-2.6,4.8h0ZM10.7,118.9c-1.9.8,1.8,4.3,2.6,4.8.8.6,2.6,1.8,3.8,1.6.3-1.2-1-3-1.6-3.8-.6-.8-4-4.4-4.8-2.6h0ZM43.7,118.9c-.8-1.9-4.3,1.8-4.8,2.6-.6.8-1.8,2.6-1.6,3.8,1.2.3,3-1,3.8-1.6.8-.6,4.4-4,2.5-4.8h0ZM28.1,136.4c-.3,0-.6,0-.9,0s-.6,0-.9,0c0-.3,0-.6,0-.9s0-.6,0-.9c.3,0,.6,0,.9,0s.6,0,.9,0c0,.3.1.6.1.9s0,.6-.1.9ZM50.3,130.9c-.7-1.6-1.2-3.2-1.5-4.9,0-.1,0-.3,0-.5-.6-2.6-.3-4.5-.6-4.7-.3-.3-.7-.2-1,0-4.5,4.9-8.9,7.5-13.2,7.8.3-4.3,2.9-8.7,7.8-13.2.3-.3.3-.7,0-1-.2-.3-2.1,0-4.7-.6-.2,0-.4,0-.5-.1-1.7-.3-3.3-.8-4.9-1.5-1.6-.7-3.1-1.6-4.5-2.6-1.4,1-2.9,2-4.5,2.6-1.6.7-3.2,1.2-4.9,1.5-.1,0-.3,0-.5.1-2.6.6-4.5.3-4.7.6-.3.3-.2.7,0,1,4.9,4.5,7.5,8.9,7.8,13.2-4.3-.3-8.7-2.9-13.2-7.8-.3-.3-.7-.3-1,0-.3.2,0,2.1-.6,4.7,0,.2,0,.4,0,.5-.3,1.7-.8,3.3-1.5,4.9-.7,1.6-1.6,3.1-2.6,4.5,1,1.4,2,2.9,2.6,4.5.7,1.6,1.2,3.2,1.5,4.9,0,.1,0,.3,0,.5.6,2.6.3,4.5.6,4.7.3.3.7.2,1,0,4.5-4.9,8.9-7.5,13.2-7.8-.3,4.3-2.9,8.7-7.8,13.2-.3.3-.3.7,0,1,.2.3,2.1,0,4.7.6.2,0,.4,0,.5.1,1.7.3,3.3.8,4.9,1.5,1.6.7,3.1,1.6,4.5,2.6,1.4-1,2.9-2,4.5-2.6,1.6-.7,3.2-1.2,4.9-1.5.1,0,.3,0,.5-.1,2.7-.6,4.5-.3,4.7-.6.3-.3.2-.7,0-1-4.9-4.6-7.5-8.9-7.8-13.2,4.3.3,8.7,2.9,13.2,7.8.3.3.7.3,1,0,.3-.2,0-2.1.6-4.7,0-.2,0-.4,0-.5.3-1.7.8-3.3,1.5-4.9.7-1.6,1.6-3.1,2.6-4.5-1-1.4-2-2.9-2.6-4.5ZM46.9,123.1c0,.7.2,1.6.5,2.7,0,.2,0,.3,0,.4.3,1.8.9,3.5,1.6,5.2.6,1.4,1.3,2.7,2.2,3.9-1-.8-1.9-1.4-2.9-2-2.7-1.6-5.5-2.4-8.2-2.3-1.9,0-3.9.5-5.8,1.4-.2-.8-.3-1.6-.3-2.4,4.3-.3,8.6-2.6,13-6.9h0ZM34.7,133.8s0,0,.2,0c1.8-.8,3.6-1.2,5.3-1.3,2.4,0,5,.7,7.5,2.1.5.3.9.6,1.4.9-.5.3-.9.6-1.4.9-2.5,1.4-5.1,2.2-7.5,2.1-1.7,0-3.6-.5-5.3-1.3,0,0-.1,0-.2,0,.2-.6.4-1.1.7-1.7-.3-.5-.5-1.1-.7-1.7ZM31.2,113.6c1.7.7,3.4,1.2,5.2,1.6.1,0,.3,0,.5,0,1.1.2,2,.4,2.7.5-4.3,4.3-6.6,8.7-6.9,13-.8,0-1.6-.2-2.4-.4.9-1.9,1.4-3.9,1.4-5.8,0-2.7-.8-5.5-2.3-8.2-.6-1-1.3-1.9-2-2.9,1.2.8,2.5,1.6,3.9,2.2h0ZM33.8,135.4c0,1.8-1.2,3.3-2.8,3.8-.5,1.6-2.1,2.8-3.8,2.8s-3.3-1.2-3.8-2.8c-1.6-.6-2.8-2.1-2.8-3.8s1.2-3.3,2.8-3.8c.6-1.6,2.1-2.8,3.8-2.8s3.3,1.2,3.8,2.8c1.6.6,2.8,2.1,2.8,3.8ZM28.1,114.9c1.4,2.5,2.2,5.1,2.1,7.5,0,1.7-.5,3.6-1.3,5.3,0,0,0,.1,0,.2-.5-.2-1.1-.4-1.7-.7-.5.3-1.1.5-1.7.7,0,0,0,0,0-.2-.8-1.8-1.2-3.6-1.3-5.3,0-2.4.7-5,2.1-7.5.3-.5.6-.9.9-1.4.3.4.6.9.9,1.4ZM14.8,115.7c.7,0,1.6-.2,2.7-.5.2,0,.3,0,.4,0,1.8-.3,3.5-.9,5.2-1.6,1.4-.6,2.7-1.4,3.9-2.2-.8,1-1.4,1.9-2,2.9-1.6,2.7-2.4,5.5-2.3,8.2,0,1.9.5,3.9,1.4,5.8-.8.2-1.6.3-2.4.4-.3-4.3-2.6-8.6-6.9-13h0ZM5.3,131.4c.7-1.7,1.2-3.4,1.6-5.2,0-.1,0-.3,0-.5.2-1.1.4-2,.5-2.7,4.3,4.3,8.7,6.6,13,6.9,0,.8-.2,1.6-.4,2.4-1.9-.9-3.9-1.4-5.9-1.4-2.7,0-5.5.8-8.2,2.3-1,.6-1.9,1.3-2.9,2,.8-1.2,1.6-2.5,2.2-3.9h0ZM19.7,137.1c0,0-.1,0-.2,0-1.8.8-3.6,1.2-5.3,1.3-2.4,0-5-.7-7.5-2.1-.5-.3-.9-.6-1.4-.9.4-.3.9-.6,1.4-.9,2.5-1.4,5.1-2.2,7.5-2.1,1.7,0,3.6.5,5.3,1.3,0,0,.1,0,.2,0-.2.6-.4,1.1-.7,1.7.3.6.5,1.1.7,1.7ZM7.4,147.8c0-.7-.2-1.6-.5-2.7,0-.2,0-.3,0-.4-.3-1.8-.9-3.5-1.6-5.2-.6-1.4-1.4-2.7-2.2-3.9,1,.8,1.9,1.4,2.9,2,2.7,1.6,5.5,2.4,8.2,2.3,1.9,0,3.9-.5,5.9-1.4.2.8.3,1.6.4,2.4-4.3.3-8.6,2.6-13,6.9h0ZM23.2,157.3c-1.7-.7-3.4-1.2-5.2-1.6-.1,0-.3,0-.4,0-1.1-.2-2-.4-2.7-.5,4.3-4.3,6.6-8.7,6.9-13,.8,0,1.6.2,2.4.4-.9,1.9-1.4,3.9-1.4,5.8,0,2.7.8,5.5,2.3,8.2.6,1,1.3,1.9,2,2.9-1.2-.8-2.5-1.6-3.9-2.2h0ZM26.3,155.9c-1.4-2.5-2.2-5.1-2.1-7.5,0-1.7.5-3.6,1.3-5.3,0,0,0-.1,0-.2.6.2,1.1.4,1.7.7.6-.3,1.1-.5,1.7-.7,0,0,0,.1,0,.2.8,1.8,1.2,3.6,1.3,5.3,0,2.4-.7,5-2.1,7.5-.3.5-.6.9-.9,1.4-.3-.4-.6-.9-.9-1.4ZM39.5,155.1c-.7,0-1.6.2-2.7.5-.2,0-.3,0-.5,0-1.8.3-3.5.9-5.2,1.6-1.4.6-2.7,1.3-3.9,2.2.8-1,1.4-1.9,2-2.9,1.6-2.7,2.4-5.5,2.3-8.2,0-1.9-.5-3.9-1.4-5.8.8-.2,1.6-.3,2.4-.4.3,4.3,2.6,8.6,6.9,13h0ZM49.1,139.4c-.7,1.7-1.2,3.4-1.6,5.2,0,.1,0,.3,0,.4-.2,1.1-.4,2-.5,2.7-4.3-4.3-8.7-6.6-13-6.9,0-.8.2-1.6.3-2.4,1.9.9,3.9,1.4,5.8,1.4,2.7,0,5.5-.8,8.2-2.3,1-.6,1.9-1.3,2.9-2-.8,1.2-1.6,2.5-2.2,3.9h0ZM38.2,135.4c2.3-1.2,5-1.6,7.6-.4.3.1.5.3.8.4-.2.2-.5.3-.8.4-2.6,1.2-5.3.8-7.6-.4ZM24.7,131.3c-.1,0-.2,0-.4,0,.6-1,1.6-1.8,2.9-1.8s2.3.7,2.9,1.8c-.1,0-.2,0-.4,0-.9,0-1.8.3-2.5.9-.7-.6-1.6-.9-2.5-.9ZM29.7,132.1c.2,0,.5,0,.7,0,0,.2,0,.5,0,.7,0,.7-.2,1.4-.6,1.9-.4-.3-.8-.6-1.3-.8-.2-.5-.4-.9-.8-1.3.6-.4,1.2-.6,2-.6h0ZM26.8,116.8c.1-.3.3-.5.4-.8.2.2.3.5.4.8,1.2,2.6.8,5.3-.4,7.6-1.2-2.3-1.6-5-.4-7.6ZM33,135.4c0,1.3-.7,2.3-1.8,2.9,0-.1,0-.2,0-.4,0-.9-.3-1.8-.9-2.5.5-.7.9-1.6.9-2.5s0-.2,0-.4c1,.6,1.8,1.6,1.8,2.9ZM24.5,134.9c-.4-.6-.6-1.2-.6-2s0-.5,0-.7c.2,0,.5,0,.7,0,.7,0,1.4.2,1.9.7-.3.4-.6.8-.8,1.3-.5.2-.9.4-1.3.8h0ZM29.8,136c.4.6.6,1.2.6,1.9s0,.5,0,.7c-.2,0-.5,0-.7,0-.7,0-1.4-.2-1.9-.6.3-.4.6-.8.8-1.3.5-.2.9-.4,1.3-.8h0ZM27.6,154c-.1.3-.3.5-.4.8-.1-.2-.3-.5-.4-.8-1.2-2.6-.8-5.3.4-7.6,1.2,2.3,1.6,5,.4,7.6ZM24,135.4c-.6.7-.9,1.6-.9,2.5s0,.2,0,.4c-1-.6-1.8-1.6-1.8-2.9s.7-2.3,1.8-2.9c0,.1,0,.2,0,.4,0,.9.3,1.8.9,2.5ZM16.1,135.4c-2.3,1.2-5,1.6-7.6.4-.3-.1-.5-.3-.8-.4.2-.1.5-.3.8-.4,2.6-1.2,5.3-.8,7.6.4ZM24.7,138.7c-.2,0-.5,0-.7,0,0-.2,0-.5,0-.7,0-.7.2-1.4.6-1.9.4.3.8.6,1.3.8.2.5.4.9.8,1.3-.5.4-1.2.7-1.9.7h0ZM29.7,139.5c.1,0,.2,0,.4,0-.6,1-1.6,1.8-2.9,1.8s-2.3-.7-2.9-1.8c.1,0,.2,0,.4,0,.9,0,1.8-.3,2.5-.9.7.6,1.6.9,2.5.9Z"/><path class="st0" d="M15.9,178.9v.3c-.3,0-.5,0-.7.2-.2.1-.4.3-.5.6-.1.2-.3.7-.5,1.4l-3.2,9.2h-.3l-2.6-7.3-2.6,7.3h-.3l-3.4-9.5c-.2-.7-.4-1.1-.5-1.2-.1-.2-.3-.4-.5-.5-.2-.1-.5-.2-.8-.2v-.3h4.2v.3h-.2c-.3,0-.5,0-.7.2-.2.1-.2.3-.2.5s.1.6.4,1.4l2.2,6.4,1.9-5.4-.3-1-.3-.8c-.1-.3-.2-.5-.4-.7,0-.1-.2-.2-.3-.3-.1-.1-.3-.2-.4-.2-.1,0-.3,0-.5,0v-.3h4.4v.3h-.3c-.3,0-.5,0-.7.2-.1.1-.2.3-.2.6s.1.8.4,1.5l2.2,6.2,2.2-6.3c.2-.7.4-1.2.4-1.4s0-.2-.1-.4-.2-.2-.3-.2c-.2,0-.5-.1-.8-.1v-.3h3.4ZM21,184.2h5.3v-3.3c0-.6,0-1-.1-1.1,0-.1-.2-.3-.4-.4-.2-.1-.5-.2-.8-.2h-.4v-.3h4.9v.3h-.4c-.3,0-.5,0-.8.2-.2,0-.3.2-.4.4,0,.2,0,.5,0,1.1v7.4c0,.6,0,1,.1,1.1,0,.1.2.3.3.4.2.1.5.2.8.2h.4v.3h-4.9v-.3h.4c.5,0,.8-.1,1-.4.1-.2.2-.6.2-1.3v-3.5h-5.3v3.5c0,.6,0,1,.1,1.1,0,.1.2.3.4.4.2.1.5.2.8.2h.4v.3h-4.9v-.3h.4c.5,0,.8-.1,1-.4.1-.2.2-.6.2-1.3v-7.4c0-.6,0-1-.1-1.1,0-.1-.2-.3-.3-.4-.2-.1-.5-.2-.8-.2h-.4v-.3h4.9v.3h-.4c-.3,0-.5,0-.8.2-.2,0-.3.2-.4.4,0,.2,0,.5,0,1.1v3.3h0ZM34.8,179.5v4.5h2.5c.7,0,1.1-.1,1.3-.3.3-.3.5-.7.5-1.4h.3v4h-.3c0-.6-.2-.9-.2-1.1s-.3-.4-.5-.5c-.2-.1-.6-.2-1.1-.2h-2.5v3.8c0,.5,0,.8,0,.9,0,.1.1.2.2.3.1,0,.3.1.6.1h1.9c.6,0,1.1,0,1.4-.1.3,0,.6-.3.8-.5.3-.4.7-.9,1.1-1.6h.3l-1,2.9h-8.8v-.3h.4c.3,0,.5,0,.8-.2.2,0,.3-.2.4-.4,0-.2.1-.6.1-1.1v-7.4c0-.7,0-1.2-.2-1.3-.2-.2-.5-.3-1-.3h-.4v-.3h8.8v2.5c.1,0-.2,0-.2,0-.1-.6-.2-1-.4-1.2-.1-.2-.3-.4-.6-.5-.2,0-.6-.1-1.2-.1h-3.1ZM54.8,190.3h-3l-3.9-5.3c-.3,0-.5,0-.7,0h-.2c0,0-.2,0-.3,0v3.3c0,.7,0,1.2.2,1.3.2.2.5.4,1,.4h.5v.3h-4.9v-.3h.4c.5,0,.8-.2,1-.5.1-.2.2-.6.2-1.2v-7.4c0-.7,0-1.2-.2-1.3-.2-.2-.5-.4-1-.4h-.4v-.3h4.2c1.2,0,2.1,0,2.7.3.6.2,1.1.5,1.5,1,.4.5.6,1,.6,1.7s-.2,1.3-.7,1.8c-.5.5-1.2.9-2.1,1.1l2.3,3.3c.5.8,1,1.2,1.4,1.5.4.2.9.4,1.5.5v.3h0ZM46.7,184.4h.5c1.1,0,1.9-.2,2.5-.7.6-.5.8-1.1.8-1.8s-.2-1.3-.7-1.7c-.4-.4-1-.7-1.8-.7s-.8,0-1.3.2v4.7h0ZM59.6,179.5v4.5h2.5c.7,0,1.1-.1,1.3-.3.3-.3.5-.7.5-1.4h.3v4h-.3c0-.6-.2-.9-.2-1.1s-.3-.4-.5-.5c-.2-.1-.6-.2-1.1-.2h-2.5v3.8c0,.5,0,.8,0,.9,0,.1.1.2.2.3.1,0,.3.1.6.1h1.9c.6,0,1.1,0,1.4-.1.3,0,.6-.3.8-.5.3-.4.7-.9,1.1-1.6h.3l-1,2.9h-8.8v-.3h.4c.3,0,.5,0,.8-.2.2,0,.3-.2.4-.4,0-.2.1-.6.1-1.1v-7.4c0-.7,0-1.2-.2-1.3-.2-.2-.5-.3-1-.3h-.4v-.3h8.8v2.5c.1,0-.2,0-.2,0-.1-.6-.2-1-.4-1.2-.1-.2-.3-.4-.6-.5-.2,0-.6-.1-1.2-.1h-3.1ZM73.9,190.3v-.3h.4c.5,0,.8-.2,1-.5.1-.2.2-.6.2-1.2v-7.4c0-.7,0-1.2-.2-1.3-.2-.2-.5-.4-1-.4h-.4v-.3h4.6c1.7,0,3,.2,3.9.6s1.6,1,2.1,1.9c.5.9.8,1.9.8,3.1s-.5,2.9-1.4,4c-1.1,1.2-2.7,1.8-4.9,1.8h-5.1,0ZM77.1,189.5c.7.2,1.3.2,1.8.2,1.3,0,2.4-.5,3.2-1.4.9-.9,1.3-2.2,1.3-3.7s-.4-2.8-1.3-3.7c-.9-.9-2-1.4-3.3-1.4s-1.1,0-1.7.2v9.7h0ZM99,190.3h-3l-3.9-5.3c-.3,0-.5,0-.7,0h-.2c0,0-.2,0-.3,0v3.3c0,.7,0,1.2.2,1.3.2.2.5.4,1,.4h.4v.3h-4.9v-.3h.4c.5,0,.8-.2,1-.5.1-.2.2-.6.2-1.2v-7.4c0-.7,0-1.2-.2-1.3-.2-.2-.5-.4-1-.4h-.4v-.3h4.1c1.2,0,2.1,0,2.7.3.6.2,1.1.5,1.5,1,.4.5.6,1,.6,1.7s-.2,1.3-.7,1.8c-.5.5-1.2.9-2.1,1.1l2.4,3.3c.5.8,1,1.2,1.4,1.5s.9.4,1.5.5v.3h0ZM90.9,184.4h.5c1.1,0,1.9-.2,2.5-.7.5-.5.8-1.1.8-1.8s-.2-1.3-.7-1.7c-.4-.4-1-.7-1.8-.7s-.8,0-1.3.2v4.7h0ZM103.8,179.5v4.5h2.5c.7,0,1.1-.1,1.3-.3.3-.3.4-.7.5-1.4h.3v4h-.3c0-.6-.2-.9-.2-1.1-.1-.2-.3-.4-.5-.5-.2-.1-.6-.2-1.1-.2h-2.5v3.8c0,.5,0,.8,0,.9,0,.1.1.2.2.3.1,0,.3.1.6.1h1.9c.6,0,1.1,0,1.4-.1s.6-.3.8-.5c.3-.4.7-.9,1.1-1.6h.3l-1,2.9h-8.8v-.3h.4c.3,0,.5,0,.8-.2.2,0,.3-.2.4-.4,0-.2,0-.6,0-1.1v-7.4c0-.7,0-1.2-.2-1.3-.2-.2-.5-.3-1-.3h-.4v-.3h8.8v2.5c.1,0-.2,0-.2,0-.1-.6-.2-1-.4-1.2-.1-.2-.3-.4-.6-.5-.2,0-.6-.1-1.2-.1h-3.1ZM120,186.5h-4.4l-.8,1.8c-.2.4-.3.8-.3,1s0,.3.2.5c.2.1.5.2,1.1.3v.3h-3.6v-.3c.5,0,.8-.2.9-.3.3-.3.6-.8,1-1.6l4-9.4h.3l4,9.5c.3.8.6,1.3.9,1.5.3.2.6.4,1.1.4v.3h-4.5v-.3c.5,0,.8-.1.9-.2.2-.1.2-.3.2-.5s-.1-.6-.3-1.2l-.7-1.6h0ZM119.8,185.9l-1.9-4.6-2,4.6h3.9,0ZM133,190.3l-4.4-9.6v7.6c0,.7,0,1.1.2,1.3.2.2.5.3,1,.3h.4v.3h-4v-.3h.4c.5,0,.8-.1,1-.4.1-.2.2-.6.2-1.2v-7.4c0-.5,0-.9-.2-1.1s-.2-.3-.4-.4-.6-.2-1-.2v-.3h3.2l4.1,8.9,4.1-8.9h3.2v.3h-.4c-.5,0-.8.2-1,.4-.1.2-.2.6-.2,1.2v7.5c0,.7,0,1.1.2,1.3.2.2.5.3,1,.3h.4v.3h-4.8v-.3h.4c.5,0,.8-.1,1-.4.1-.2.2-.6.2-1.2v-7.6l-4.4,9.6h-.3ZM150.6,178.6v3.9h-.3c-.1-.8-.3-1.4-.5-1.8-.3-.4-.6-.8-1.1-1.1-.5-.3-1-.4-1.5-.4s-1.1.2-1.4.5c-.4.4-.6.8-.6,1.2s.1.7.4.9c.4.4,1.2,1,2.5,1.7,1.1.6,1.8,1,2.2,1.3s.7.7.9,1.1c.2.4.3.8.3,1.3,0,.9-.3,1.6-1,2.2-.7.6-1.5.9-2.6.9s-.6,0-.9,0c-.2,0-.5-.1-1.1-.3-.6-.2-.9-.3-1-.3s-.2,0-.3.1c0,0-.1.3-.2.5h-.3v-3.9h.3c.1.8.3,1.4.6,1.8.2.4.6.7,1.1,1,.5.3,1.1.4,1.7.4s1.2-.2,1.7-.6c.4-.4.6-.8.6-1.3s0-.6-.2-.9c-.1-.3-.4-.5-.7-.8-.2-.2-.8-.5-1.8-1.1-1-.6-1.7-1-2.1-1.3s-.7-.7-.9-1.1c-.2-.4-.3-.8-.3-1.3,0-.8.3-1.5.9-2.1.6-.6,1.4-.9,2.4-.9s1.2.2,1.9.5c.3.1.5.2.7.2s.3,0,.4-.1c0,0,.2-.3.2-.5h.3,0ZM169.2,187.1h.3c0,0-1,3.2-1,3.2h-8.8v-.3h.4c.5,0,.8-.2,1-.5.1-.2.2-.6.2-1.2v-7.4c0-.7,0-1.2-.2-1.3-.2-.2-.5-.4-1-.4h-.4v-.3h5.2v.3c-.6,0-1,0-1.3.2-.2.1-.4.3-.5.4,0,.2-.1.6-.1,1.3v7.2c0,.5,0,.8.1,1,0,.1.2.2.3.3.1,0,.6,0,1.3,0h.8c.9,0,1.5,0,1.8-.2.3-.1.7-.4,1-.7.3-.3.6-.8.9-1.6h0ZM176.5,190v.3h-4.9v-.3h.4c.5,0,.8-.1,1-.4.1-.2.2-.6.2-1.3v-7.4c0-.6,0-1-.1-1.1,0-.1-.2-.3-.3-.4-.2-.1-.5-.2-.8-.2h-.4v-.3h4.9v.3h-.4c-.5,0-.8.1-1,.4-.1.2-.2.6-.2,1.3v7.4c0,.6,0,1,.1,1.1,0,.1.2.3.4.4.2.1.5.2.8.2h.4,0ZM190.5,178.9v.3c-.4,0-.7.2-.9.4-.3.3-.6.7-.8,1.3l-4,9.7h-.3l-4.3-9.8c-.2-.5-.4-.8-.5-.9-.1-.2-.3-.3-.5-.4-.2-.1-.5-.2-.8-.2v-.3h4.7v.3c-.5,0-.9.1-1,.3s-.2.3-.2.5.1.7.4,1.3l2.9,6.7,2.7-6.6c.3-.6.4-1.1.4-1.3s0-.3-.2-.5c-.2-.2-.4-.2-.8-.3,0,0,0,0-.1,0v-.3h3.5,0ZM195.7,179.5v4.5h2.5c.7,0,1.1-.1,1.3-.3.3-.3.4-.7.5-1.4h.3v4h-.3c0-.6-.2-.9-.2-1.1-.1-.2-.3-.4-.5-.5-.2-.1-.6-.2-1.1-.2h-2.5v3.8c0,.5,0,.8,0,.9s.1.2.2.3c.1,0,.3.1.6.1h1.9c.6,0,1.1,0,1.4-.1.3,0,.6-.3.8-.5.3-.4.7-.9,1.1-1.6h.3l-1,2.9h-8.8v-.3h.4c.3,0,.5,0,.8-.2.2,0,.3-.2.4-.4,0-.2.1-.6.1-1.1v-7.4c0-.7,0-1.2-.2-1.3-.2-.2-.5-.3-1-.3h-.4v-.3h8.8v2.5c.1,0-.2,0-.2,0-.1-.6-.2-1-.4-1.2-.1-.2-.3-.4-.6-.5-.2,0-.6-.1-1.2-.1h-3.1Z"/><path class="st1" d="M23.9,87.4h6.6V-9.6h-6.6v97Z"/></svg>