<svg xmlns="http://www.w3.org/2000/svg" version="1.1" xmlns:xlink="http://www.w3.org/1999/xlink" viewBox="0 0 303 261"><defs><linearGradient id="paint0" x1="0.0108104" y1="114.1" x2="302.741" y2="114.1" gradientUnits="userSpaceOnUse"><stop stop-color="#BC925B"/><stop offset="0.03" stop-color="#F9E7A8"/><stop offset="0.06" stop-color="#E4BA8E"/><stop offset="0.08" stop-color="#BC925B"/><stop offset="0.09" stop-color="#D3B278"/><stop offset="0.11" stop-color="#EED89A"/><stop offset="0.12" stop-color="#F9E7A8"/><stop offset="0.19" stop-color="#E4BA8E"/><stop offset="0.27" stop-color="#BC925B"/><stop offset="0.31" stop-color="#DEC186"/><stop offset="0.35" stop-color="#F9E7A8"/><stop offset="0.41" stop-color="#E4BA8E"/><stop offset="0.54" stop-color="#BC925B"/><stop offset="0.57" stop-color="#DEC186"/><stop offset="0.6" stop-color="#F9E7A8"/><stop offset="0.68" stop-color="#E4BA8E"/><stop offset="0.79" stop-color="#BC925B"/><stop offset="0.82" stop-color="#F9E7A8"/><stop offset="0.85" stop-color="#E4BA8E"/><stop offset="0.9" stop-color="#BC925B"/><stop offset="0.93" stop-color="#F9E7A8"/><stop offset="0.98" stop-color="#E4BA8E"/></linearGradient><linearGradient id="paint1" x1="119.471" y1="31.91" x2="183.281" y2="31.91" gradientUnits="userSpaceOnUse"><stop stop-color="#BC925B"/><stop offset="0.1" stop-color="#D3B278"/><stop offset="0.24" stop-color="#EED89A"/><stop offset="0.31" stop-color="#F9E7A8"/><stop offset="0.57" stop-color="#E4BA8E"/></linearGradient><linearGradient id="gr1" x1="0" y1="0" x2="80" y2="30" gradientUnits="userSpaceOnUse"><stop offset="0" stop-color="#fff0"/><stop offset=".5" stop-color="#fff"/><stop offset="1" stop-color="#fff0"/><animate attributeName="x1" values="-190;2000" dur="8s" repeatCount="indefinite"/><animate attributeName="x2" values="-100;2090" dur="8s" repeatCount="indefinite"/></linearGradient></defs><path fill="url(#paint0)" d="M22.8,85.1c-.6,2-1.3,4-1.9,5.9-.5,1.6-1.1,3.3-1.6,5-.2.5-.2,1.1-.2,1.6,0,15.6,0,31.5,0,46.8v7.4c0,.9-.8,1.7-1.7,1.7h-5.6c-.9,0-1.7-.8-1.7-1.7v-37.8c0-.3-.4-.4-.5-.1l-2.3,6.8c0,.2-.3.3-.4.3s-.2,0-.2,0l-6.3-3.2c-.1,0-.2-.2-.2-.3,0-.1,0-.3,0-.4,6.5-11.5,11.6-24.6,15.6-40.2,0-.2.3-.4.5-.4h.1c.7.1,1.4.3,2,.4,1.8.4,3.5.7,5.3,1.1.4,0,.6.2.8.5.2.4.1.8,0,1h0c-.1.5-.3,1-.4,1.4-.4,1.4-.8,2.9-1.2,4.4h0ZM69.6,146.8h-14.9c-2.1,0-3.8-1.7-3.8-3.8v-14.2h15.6c.5,0,1-.4,1-1v-1.4c0-.5-.4-1-1-1h-11.8c-2.1,0-3.8-1.7-3.8-3.8v-6.7c0-.3-.2-.5-.5-.5h-8.1c-.3,0-.5.2-.5.5v10.6h-15c-.5,0-1,.4-1,1v1.4c0,.5.4,1,1,1h15v18h-18.5c-.5,0-1,.4-1,1v2.5c0,.5.4,1,1,1h46.3c.5,0,1-.4,1-1v-2.6c0-.5-.4-1-1-1ZM27,91.1h14.8v14.9h-17.1c-.5,0-1,.4-1,1v2.6c0,.5.4,1,1,1h43.7c.5,0,1-.4,1-1v-2.6c0-.5-.4-1-1-1h-13.6c-2.1,0-3.8-1.7-3.8-3.8v-11.1h14.9c.5,0,1-.4,1-1v-1.4c0-.5-.4-1-1-1h-11.2c-2.1,0-3.8-1.7-3.8-3.8v-7.5c0-.3-.2-.5-.5-.5h-8.1c-.3,0-.5.2-.5.5v11.4h-14.8c-.5,0-1,.4-1,1v1.4c0,.5.4,1,1,1h0ZM141,151.3c-.9-.9-26-28.3-26-28.3h-5.7v18.6c0,1.7,1.6,3,3.3,2.6l8.6-2.1s0,0,.1,0c.2,0,.4.2.5.4l.7,2.7.3,1.2c0,.1,0,.3,0,.4,0,.1-.2.2-.3.2l-24.8,6.1s0,0-.1,0c-.2,0-.4-.1-.5-.4l-1-4.1c0-.1,0-.3,0-.4,0-.1.2-.2.3-.2l2.3-.6,1.4-.4v-24.1h-7.4c-.9,8.4-2.6,18.6-4.8,27.2s-.7,1-1.3,1h-6.5c-.9,0-1.5-.8-1.3-1.7h0c1.5-5.8,3.6-16.6,4.3-22,.8-6.1,1.2-12.6,1.3-21.2,0-6.2,0-12.5,0-18.6v-8c0-.8.7-1.5,1.5-1.5h56.5c1.9,0,3.5,1.6,3.5,3.5v10.1c0,1.9-1.6,3.5-3.5,3.5h-48.9l-.2,14.4v6.5c0,1.7,1.3,3.2,3,3.2h8.2v-10.1h-8.7c-.3,0-.5-.2-.5-.5v-2.5c0-.3.2-.5.5-.5h8.7v-6.7c0-.3.2-.5.5-.5h8c.3,0,.5.2.5.5v3.9c0,1.5,1.2,2.7,2.7,2.7h10.9v-6.6c0-.3.2-.5.5-.5h8c.3,0,.5.2.5.5v3.9c0,1.5,1.2,2.7,2.7,2.7h5.9c.6,0,1.1.5,1.1,1.1v1.2c0,.6-.5,1.1-1.1,1.1h-8.6v7.5c0,1.5,1.2,2.7,2.7,2.7h8.4c.6,0,1.1.5,1.1,1.1v1.2c0,.6-.5,1.1-1.1,1.1h-20.4c3.2,3.9,4.7,6,7.3,9l4-3.4,3.8-3.3c0,0,.2-.1.3-.1h0c.1,0,.2,0,.3.2l2.1,2.3,1.8,2.1c.2.2.1.5,0,.7l-2.2,1.9-3.1,2.7c-1.2,1-1.1,2.8,0,3.8,2.6,2.5,6.5,6,12.1,10.8.7.6.3,1.6-.6,1.6h-11.9,0ZM93.5,88.7c0,1.8,1.4,3.2,3.2,3.2h40.1v-10.1h-43.3v6.9ZM127.2,119.5v-10.1h-13.6v7.4c0,1.5,1.2,2.7,2.7,2.7h10.9ZM302.7,84.5v63.5c0,.3-.2.5-.5.5h-22.5c-3.6,0-6.6-2.9-6.6-6.6v-61.6c0-.3.2-.5.5-.5h24.4c2.6,0,4.6,2.1,4.6,4.6h0ZM288.3,145.2h5.5v-61.8h-11.5v55.8c0,3.4,2.7,6.1,6.1,6.1ZM271.8,124.4c-.1-.2-.2-.3-.3-.5l-3.2-4.4c-3.1-4.2-6.2-8.5-9.3-12.7,0,0,0-.1-.1-.2,0,0-.2-.2-.2-.3,0-1,0-2,0-3s.3-.6.6-.6h9.5c.7,0,1.2-.5,1.2-1.2v-1.1c0-.7-.5-1.2-1.2-1.2h-4.8c-2.9,0-5.3-2.4-5.3-5.3v-11.2l9.6-1.7c.1,0,.2,0,.3-.2,0-.1.1-.2,0-.4l-.6-2.5-.3-1.4c0-.2-.2-.4-.5-.4h0l-16.4,2.5-12.6,1.9c-.3,0-.4.3-.4.5l.2,1.7.2,2.2c0,.1,0,.2.2.3,0,0,.2.1.3.1h0l9.1-1.2,1.7-.2v15.2h-12.8c-.7,0-1.2.5-1.2,1.2v1.1c0,.7.5,1.2,1.2,1.2h8.6c1.6,0,2.7,1.6,2.1,3-3.7,10.4-7.9,19.6-12.9,28,0,.1,0,.2,0,.4,0,.1.1.2.2.3l4.8,2.7.8.4c0,0,.2,0,.2,0,.2,0,.3,0,.4-.2,2.3-3.7,5.7-10.5,7.4-14.1.3-.6,1.2-.4,1.2.3v25.6c0,1.4,1.2,2.6,2.6,2.6h3.9c1.4,0,2.6-1.2,2.6-2.6v-29.6c0-.8,1-1.1,1.5-.5l6.7,9.2c0,.1.2.2.4.2s.2,0,.3,0l1.6-1.1,2.7-1.9c.1,0,.2-.2.2-.3,0-.1,0-.3,0-.4l-.2-.2h0ZM164.5,99.1h2.9c1.7,0,3.1-1.4,3.1-3v-8.1h46.6v8.1c0,1.7,1.4,3.1,3.1,3.1h2.8c1.7,0,3.1-1.4,3.1-3.1v-10.4c0-1.3-1.1-2.4-2.4-2.4h-24.9v-5.2c0-1.8-1.5-3.3-3.3-3.3h-2.4c-1.8,0-3.3,1.5-3.3,3.3v5.3h-25.7c-1.3,0-2.4,1.1-2.4,2.4v10.3c0,1.7,1.4,3,3.1,3h0ZM197.1,140.1c5.1-3.6,9.8-8,13.5-13,2-2.8,3.8-5.8,5.2-8.9.6-1.2-.4-2.7-1.7-2.7h-5.8c-.7,0-1.4.4-1.7,1,0,.2-.2.3-.2.5-2.6,4.7-6.1,8.9-10.3,12.5,0,0-.2.1-.3.1h0c-4.4-1.9-8.9-3.8-13.2-5.6-.7-.3-1-1.1-.7-1.8,1.1-2.5,3.8-8.1,5-10.3.2-.4.2-.4.4-.4,4.1,0,8.1,0,12.2,0h19s7.8,0,7.8,0c.7,0,1.2-.6,1.2-1.2v-1c0-.7-.6-1.2-1.2-1.2h-34.5c-1.2,0-2.1-1.2-1.6-2.4l4.4-11c0-.1,0-.3,0-.4,0-.1-.2-.2-.3-.3l-7.5-3.1c0,0-.1,0-.2,0-.2,0-.4.1-.5.3v.2c-.1.1-.2.2-.2.3,0,0-4.8,12.1-6.4,15.9-.2.4-.3.5-.7.5-3.5,0-7,0-9.7,0h-8.1c-.7,0-1.2.6-1.2,1.2v1.1c0,.7.6,1.2,1.2,1.2h16.2l-5.9,10.6-3,5.4c0,.1,0,.3,0,.4,0,.1.1.2.3.3l14.5,6c1.6.7,1.7,3,0,3.7-6.5,3-13.9,4.8-22.5,5.7-.8,0-1.5.8-1.4,1.6l.6,7c0,.3.2.4.5.4h.5c.1,0,.2,0,.3,0,.9-.1,1.9-.2,2.8-.4,2.1-.3,4.4-.6,6.5-1,9.6-1.8,18.8-5.5,26.8-11.1h0ZM229.2,146.8c1-.9.7-2.5-.6-3l-18.6-8.1c-.6-.2-1.2-.1-1.6.3-1.8,1.7-3.9,3.7-5.8,5.4-.4.3-.3.9.2,1.1,3.7,1.6,7.4,3.2,11.1,4.7l2.9,1.2c.7.3,3.2,1.4,6.3,2.7.7.3,1.5.2,2-.4l4.1-3.9h0Z"/><path fill="url(#paint1)" d="M171.8,52.3c2.3-1-2.2-5.3-3.2-6-1-.8-3.3-2.3-4.7-1.9-.3,1.5,1.2,3.7,1.9,4.7.7.9,5,5.5,6,3.2ZM131,52.3c1,2.3,5.3-2.2,6-3.2.8-1,2.3-3.3,1.9-4.7-1.5-.3-3.7,1.2-4.7,1.9-.9.7-5.5,5-3.2,6ZM131,11.5c-2.3,1,2.2,5.3,3.2,6,1,.8,3.3,2.3,4.7,1.9.3-1.5-1.2-3.7-1.9-4.7-.7-.9-5-5.5-6-3.2ZM171.8,11.5c-1-2.3-5.3,2.2-6,3.2-.8,1-2.3,3.3-1.9,4.7,1.5.3,3.7-1.2,4.7-1.9.9-.7,5.5-5,3.2-6ZM152.5,33c-.4,0-.8.1-1.1.1s-.8,0-1.1-.1c0-.4-.1-.8-.1-1.1s0-.8.1-1.1c.4,0,.8-.1,1.1-.1s.8,0,1.1.1c0,.4.1.8.1,1.1s0,.8-.1,1.1ZM180,26.3c-.8-2-1.4-4-1.8-6.1,0-.1,0-.3-.1-.6-.7-3.3-.4-5.6-.7-5.9-.3-.3-.9-.3-1.2,0-5.6,6.1-11,9.2-16.4,9.7.4-5.4,3.6-10.7,9.7-16.4.3-.3.4-.8,0-1.2-.3-.3-2.6,0-5.9-.7-.2,0-.4,0-.6-.1-2.1-.4-4.1-1-6.1-1.8-2-.8-3.8-2-5.6-3.3-1.8,1.3-3.6,2.4-5.6,3.3-2,.8-4,1.4-6.1,1.8-.1,0-.3,0-.6.1-3.3.7-5.6.4-5.9.7-.3.3-.3.9,0,1.2,6.1,5.6,9.2,11,9.7,16.4-5.4-.4-10.7-3.6-16.4-9.7-.3-.3-.8-.4-1.2,0-.3.3,0,2.6-.7,5.9,0,.2,0,.5-.1.6-.4,2.1-1,4.1-1.8,6.1-.8,2-2,3.8-3.3,5.6,1.3,1.8,2.4,3.6,3.3,5.6.8,2,1.4,4,1.8,6.1,0,.1,0,.3.1.6.7,3.3.4,5.6.7,5.9.3.3.9.3,1.2,0,5.6-6.1,11-9.2,16.4-9.7-.4,5.3-3.6,10.7-9.7,16.4-.3.3-.4.8,0,1.2.3.3,2.6,0,5.9.7.2,0,.5.1.6.1,2.1.4,4.1,1,6.1,1.8,2,.8,3.8,2,5.6,3.3,1.8-1.3,3.6-2.4,5.6-3.3,2-.8,4-1.4,6.1-1.8.1,0,.3,0,.6-.1,3.3-.7,5.6-.4,5.9-.7.3-.3.3-.9,0-1.2-6.1-5.6-9.2-11-9.7-16.4,5.4.4,10.7,3.6,16.4,9.7.3.3.9.4,1.2,0,.3-.3,0-2.6.7-5.9,0-.2,0-.4.1-.6.4-2.1,1-4.1,1.8-6.1.8-2,2-3.8,3.3-5.6-1.3-1.8-2.4-3.6-3.3-5.6ZM175.8,16.6c.1.9.3,2,.6,3.4,0,.2,0,.4.1.6.4,2.2,1.1,4.3,1.9,6.4.7,1.7,1.7,3.4,2.7,4.9-1.2-.9-2.3-1.8-3.6-2.5-3.3-1.9-6.8-2.9-10.1-2.9-2.4,0-4.9.6-7.2,1.7-.2-1-.4-2-.4-3,5.3-.4,10.7-3.2,16-8.6h0ZM160.7,29.9c0,0,.1,0,.2-.1,2.2-1,4.4-1.6,6.6-1.6,3,0,6.2.9,9.3,2.6.6.3,1.1.7,1.7,1.1-.6.4-1.1.8-1.7,1.1-3.1,1.8-6.3,2.7-9.3,2.7-2.1,0-4.4-.6-6.6-1.6,0,0-.1,0-.2-.1.2-.7.5-1.4.8-2-.3-.7-.6-1.4-.8-2ZM156.3,4.8c2.1.9,4.2,1.5,6.4,1.9.1,0,.3,0,.6.1,1.4.3,2.5.5,3.4.6-5.3,5.4-8.2,10.8-8.6,16.1-1,0-2-.2-3-.4,1.1-2.4,1.7-4.9,1.7-7.2,0-3.3-.9-6.8-2.9-10.1-.7-1.2-1.6-2.4-2.5-3.6,1.5,1,3.1,2,4.9,2.7h0ZM159.6,31.9c0,2.2-1.4,4.1-3.4,4.8-.7,2-2.6,3.4-4.8,3.4s-4.1-1.4-4.8-3.4c-2-.7-3.4-2.5-3.4-4.8s1.4-4.1,3.4-4.8c.7-2,2.6-3.4,4.8-3.4s4.1,1.4,4.8,3.4c2,.7,3.4,2.6,3.4,4.8ZM152.5,6.6c1.8,3.1,2.7,6.3,2.6,9.3,0,2.1-.6,4.4-1.6,6.6,0,0,0,.1,0,.2-.7-.2-1.4-.5-2.1-.8-.7.3-1.4.6-2.1.8,0,0,0-.1-.1-.2-1-2.2-1.5-4.4-1.6-6.6,0-3,.9-6.2,2.7-9.3.3-.6.7-1.1,1.1-1.7.4.6.8,1.1,1.1,1.7ZM136.1,7.5c.9,0,2-.3,3.4-.6.2,0,.4,0,.6-.1,2.2-.4,4.3-1.1,6.4-1.9,1.7-.7,3.4-1.7,4.9-2.7-.9,1.2-1.8,2.3-2.5,3.6-1.9,3.3-2.9,6.8-2.9,10.2,0,2.4.6,4.9,1.7,7.2-1,.2-2,.4-3,.4-.4-5.3-3.2-10.7-8.6-16.1h0ZM124.3,27c.9-2.1,1.5-4.2,1.9-6.4,0-.1,0-.3.1-.6.3-1.4.5-2.5.6-3.4,5.4,5.3,10.7,8.2,16,8.6,0,1-.2,2-.4,3-2.4-1.1-4.9-1.7-7.2-1.7-3.3,0-6.8.9-10.2,2.9-1.2.7-2.4,1.6-3.6,2.5,1-1.5,2-3.1,2.7-4.9h0ZM142.1,34c0,0-.1,0-.2.1-2.2,1-4.4,1.5-6.6,1.6-3,0-6.2-.9-9.3-2.7-.6-.3-1.1-.7-1.7-1.1.6-.4,1.1-.8,1.7-1.1,3.1-1.8,6.3-2.7,9.3-2.6,2.2,0,4.4.6,6.6,1.6,0,0,.1,0,.2.1-.2.7-.5,1.4-.8,2,.3.7.6,1.4.8,2ZM127,47.2c0-.9-.3-2-.6-3.4,0-.2,0-.4-.1-.6-.4-2.2-1.1-4.3-2-6.4-.7-1.7-1.7-3.3-2.7-4.9,1.2.9,2.3,1.8,3.6,2.5,3.3,1.9,6.8,2.9,10.2,2.9,2.4,0,4.9-.6,7.2-1.7.2,1,.4,2,.4,3-5.3.4-10.7,3.2-16,8.5h0ZM146.4,59c-2.1-.9-4.2-1.5-6.4-1.9-.1,0-.3,0-.6-.1-1.4-.3-2.5-.5-3.4-.6,5.3-5.4,8.2-10.8,8.6-16.1,1,0,2,.2,3,.4-1.1,2.4-1.7,4.9-1.7,7.2,0,3.3.9,6.8,2.9,10.1.7,1.2,1.6,2.4,2.5,3.6-1.5-1-3.1-2-4.9-2.7h0ZM150.3,57.2c-1.8-3.1-2.7-6.3-2.6-9.3,0-2.1.6-4.4,1.6-6.6,0,0,0-.1,0-.2.7.2,1.4.5,2.1.8.7-.3,1.4-.6,2.1-.8,0,0,0,.1.1.2,1,2.2,1.5,4.4,1.6,6.6,0,3-.9,6.2-2.7,9.3-.3.6-.7,1.1-1.1,1.7-.4-.6-.8-1.1-1.1-1.7ZM166.6,56.3c-.9,0-2,.3-3.4.6-.2,0-.4,0-.6.1-2.2.4-4.3,1.1-6.4,1.9-1.7.7-3.4,1.7-4.9,2.7.9-1.2,1.8-2.3,2.5-3.6,1.9-3.3,2.9-6.8,2.9-10.2,0-2.4-.6-4.9-1.7-7.2,1-.2,2-.4,3-.4.4,5.3,3.2,10.7,8.6,16h0ZM178.5,36.8c-.9,2.1-1.5,4.2-1.9,6.4,0,.1,0,.3-.1.6-.3,1.4-.5,2.5-.6,3.4-5.4-5.3-10.8-8.2-16.1-8.5,0-1,.2-2,.4-3,2.4,1.1,4.9,1.7,7.2,1.7,3.3,0,6.8-.9,10.1-2.9,1.2-.7,2.4-1.6,3.6-2.5-1,1.5-2,3.1-2.7,4.9h0ZM165,31.9c2.8-1.5,6.2-2,9.4-.5.3.1.6.3.9.5-.3.2-.6.4-.9.5-3.2,1.5-6.5,1-9.4-.5ZM148.3,26.9c-.2,0-.3,0-.5,0,.7-1.3,2-2.2,3.6-2.2s2.9.9,3.6,2.2c-.2,0-.3,0-.5,0-1.2,0-2.3.4-3.1,1.1-.9-.7-1.9-1.1-3.1-1.1h0ZM154.5,27.8c.3,0,.6,0,.9.1,0,.3.1.6.1.9,0,.9-.3,1.7-.8,2.4-.5-.4-1-.7-1.6-.9-.2-.6-.5-1.1-.9-1.6.7-.5,1.5-.8,2.4-.8ZM150.9,8.9c.1-.3.3-.6.5-1,.2.3.4.6.5,1,1.5,3.2,1,6.5-.5,9.4-1.5-2.9-2-6.2-.5-9.4ZM158.6,31.9c0,1.6-.9,2.9-2.2,3.6,0-.2,0-.3,0-.5,0-1.2-.4-2.2-1.1-3.1.7-.9,1.1-1.9,1.1-3.1s0-.3,0-.5c1.3.7,2.2,2,2.2,3.6ZM148.1,31.2c-.5-.7-.8-1.5-.8-2.4s0-.6.1-.9c.3,0,.6-.1.9-.1.9,0,1.7.3,2.4.8-.4.5-.7,1-.9,1.6-.6.2-1.1.5-1.6.9ZM154.6,32.6c.5.7.8,1.5.8,2.4s0,.6-.1.9c-.3,0-.6.1-.9.1-.9,0-1.7-.3-2.4-.8.4-.5.7-1,.9-1.6.6-.2,1.1-.5,1.6-.9ZM151.9,54.9c-.1.3-.3.6-.5,1-.2-.3-.4-.6-.5-1-1.5-3.2-1-6.5.5-9.4,1.5,2.8,2,6.2.5,9.4ZM147.4,31.9c-.7.9-1.1,1.9-1.1,3.1s0,.3,0,.5c-1.3-.7-2.2-2-2.2-3.6s.9-2.9,2.2-3.6c0,.2,0,.3,0,.5,0,1.2.4,2.2,1.1,3.1h0ZM137.7,31.9c-2.8,1.5-6.2,2-9.4.5-.3-.1-.6-.3-.9-.5.3-.2.6-.4.9-.5,3.2-1.5,6.5-1,9.4.5ZM148.3,36c-.3,0-.6,0-.9,0,0-.3-.1-.6-.1-.9,0-.9.3-1.7.8-2.4.5.4,1,.7,1.6.9.2.6.5,1.1.9,1.6-.7.5-1.5.8-2.4.8ZM154.5,37c.2,0,.3,0,.5,0-.7,1.3-2,2.2-3.6,2.2s-2.9-.9-3.6-2.2c.2,0,.3,0,.5,0,1.2,0,2.2-.4,3.1-1.1.9.7,1.9,1.1,3.1,1.1h0Z"/><path fill="url(#gr1)" d="M22.8,85.1c-.6,2-1.3,4-1.9,5.9-.5,1.6-1.1,3.3-1.6,5-.2.5-.2,1.1-.2,1.6,0,15.6,0,31.5,0,46.8v7.4c0,.9-.8,1.7-1.7,1.7h-5.6c-.9,0-1.7-.8-1.7-1.7v-37.8c0-.3-.4-.4-.5-.1l-2.3,6.8c0,.2-.3.3-.4.3s-.2,0-.2,0l-6.3-3.2c-.1,0-.2-.2-.2-.3,0-.1,0-.3,0-.4,6.5-11.5,11.6-24.6,15.6-40.2,0-.2.3-.4.5-.4h.1c.7.1,1.4.3,2,.4,1.8.4,3.5.7,5.3,1.1.4,0,.6.2.8.5.2.4.1.8,0,1h0c-.1.5-.3,1-.4,1.4-.4,1.4-.8,2.9-1.2,4.4h0ZM69.6,146.8h-14.9c-2.1,0-3.8-1.7-3.8-3.8v-14.2h15.6c.5,0,1-.4,1-1v-1.4c0-.5-.4-1-1-1h-11.8c-2.1,0-3.8-1.7-3.8-3.8v-6.7c0-.3-.2-.5-.5-.5h-8.1c-.3,0-.5.2-.5.5v10.6h-15c-.5,0-1,.4-1,1v1.4c0,.5.4,1,1,1h15v18h-18.5c-.5,0-1,.4-1,1v2.5c0,.5.4,1,1,1h46.3c.5,0,1-.4,1-1v-2.6c0-.5-.4-1-1-1ZM27,91.1h14.8v14.9h-17.1c-.5,0-1,.4-1,1v2.6c0,.5.4,1,1,1h43.7c.5,0,1-.4,1-1v-2.6c0-.5-.4-1-1-1h-13.6c-2.1,0-3.8-1.7-3.8-3.8v-11.1h14.9c.5,0,1-.4,1-1v-1.4c0-.5-.4-1-1-1h-11.2c-2.1,0-3.8-1.7-3.8-3.8v-7.5c0-.3-.2-.5-.5-.5h-8.1c-.3,0-.5.2-.5.5v11.4h-14.8c-.5,0-1,.4-1,1v1.4c0,.5.4,1,1,1h0ZM141,151.3c-.9-.9-26-28.3-26-28.3h-5.7v18.6c0,1.7,1.6,3,3.3,2.6l8.6-2.1s0,0,.1,0c.2,0,.4.2.5.4l.7,2.7.3,1.2c0,.1,0,.3,0,.4,0,.1-.2.2-.3.2l-24.8,6.1s0,0-.1,0c-.2,0-.4-.1-.5-.4l-1-4.1c0-.1,0-.3,0-.4,0-.1.2-.2.3-.2l2.3-.6,1.4-.4v-24.1h-7.4c-.9,8.4-2.6,18.6-4.8,27.2s-.7,1-1.3,1h-6.5c-.9,0-1.5-.8-1.3-1.7h0c1.5-5.8,3.6-16.6,4.3-22,.8-6.1,1.2-12.6,1.3-21.2,0-6.2,0-12.5,0-18.6v-8c0-.8.7-1.5,1.5-1.5h56.5c1.9,0,3.5,1.6,3.5,3.5v10.1c0,1.9-1.6,3.5-3.5,3.5h-48.9l-.2,14.4v6.5c0,1.7,1.3,3.2,3,3.2h8.2v-10.1h-8.7c-.3,0-.5-.2-.5-.5v-2.5c0-.3.2-.5.5-.5h8.7v-6.7c0-.3.2-.5.5-.5h8c.3,0,.5.2.5.5v3.9c0,1.5,1.2,2.7,2.7,2.7h10.9v-6.6c0-.3.2-.5.5-.5h8c.3,0,.5.2.5.5v3.9c0,1.5,1.2,2.7,2.7,2.7h5.9c.6,0,1.1.5,1.1,1.1v1.2c0,.6-.5,1.1-1.1,1.1h-8.6v7.5c0,1.5,1.2,2.7,2.7,2.7h8.4c.6,0,1.1.5,1.1,1.1v1.2c0,.6-.5,1.1-1.1,1.1h-20.4c3.2,3.9,4.7,6,7.3,9l4-3.4,3.8-3.3c0,0,.2-.1.3-.1h0c.1,0,.2,0,.3.2l2.1,2.3,1.8,2.1c.2.2.1.5,0,.7l-2.2,1.9-3.1,2.7c-1.2,1-1.1,2.8,0,3.8,2.6,2.5,6.5,6,12.1,10.8.7.6.3,1.6-.6,1.6h-11.9,0ZM93.5,88.7c0,1.8,1.4,3.2,3.2,3.2h40.1v-10.1h-43.3v6.9ZM127.2,119.5v-10.1h-13.6v7.4c0,1.5,1.2,2.7,2.7,2.7h10.9ZM302.7,84.5v63.5c0,.3-.2.5-.5.5h-22.5c-3.6,0-6.6-2.9-6.6-6.6v-61.6c0-.3.2-.5.5-.5h24.4c2.6,0,4.6,2.1,4.6,4.6h0ZM288.3,145.2h5.5v-61.8h-11.5v55.8c0,3.4,2.7,6.1,6.1,6.1ZM271.8,124.4c-.1-.2-.2-.3-.3-.5l-3.2-4.4c-3.1-4.2-6.2-8.5-9.3-12.7,0,0,0-.1-.1-.2,0,0-.2-.2-.2-.3,0-1,0-2,0-3s.3-.6.6-.6h9.5c.7,0,1.2-.5,1.2-1.2v-1.1c0-.7-.5-1.2-1.2-1.2h-4.8c-2.9,0-5.3-2.4-5.3-5.3v-11.2l9.6-1.7c.1,0,.2,0,.3-.2,0-.1.1-.2,0-.4l-.6-2.5-.3-1.4c0-.2-.2-.4-.5-.4h0l-16.4,2.5-12.6,1.9c-.3,0-.4.3-.4.5l.2,1.7.2,2.2c0,.1,0,.2.2.3,0,0,.2.1.3.1h0l9.1-1.2,1.7-.2v15.2h-12.8c-.7,0-1.2.5-1.2,1.2v1.1c0,.7.5,1.2,1.2,1.2h8.6c1.6,0,2.7,1.6,2.1,3-3.7,10.4-7.9,19.6-12.9,28,0,.1,0,.2,0,.4,0,.1.1.2.2.3l4.8,2.7.8.4c0,0,.2,0,.2,0,.2,0,.3,0,.4-.2,2.3-3.7,5.7-10.5,7.4-14.1.3-.6,1.2-.4,1.2.3v25.6c0,1.4,1.2,2.6,2.6,2.6h3.9c1.4,0,2.6-1.2,2.6-2.6v-29.6c0-.8,1-1.1,1.5-.5l6.7,9.2c0,.1.2.2.4.2s.2,0,.3,0l1.6-1.1,2.7-1.9c.1,0,.2-.2.2-.3,0-.1,0-.3,0-.4l-.2-.2h0ZM164.5,99.1h2.9c1.7,0,3.1-1.4,3.1-3v-8.1h46.6v8.1c0,1.7,1.4,3.1,3.1,3.1h2.8c1.7,0,3.1-1.4,3.1-3.1v-10.4c0-1.3-1.1-2.4-2.4-2.4h-24.9v-5.2c0-1.8-1.5-3.3-3.3-3.3h-2.4c-1.8,0-3.3,1.5-3.3,3.3v5.3h-25.7c-1.3,0-2.4,1.1-2.4,2.4v10.3c0,1.7,1.4,3,3.1,3h0ZM197.1,140.1c5.1-3.6,9.8-8,13.5-13,2-2.8,3.8-5.8,5.2-8.9.6-1.2-.4-2.7-1.7-2.7h-5.8c-.7,0-1.4.4-1.7,1,0,.2-.2.3-.2.5-2.6,4.7-6.1,8.9-10.3,12.5,0,0-.2.1-.3.1h0c-4.4-1.9-8.9-3.8-13.2-5.6-.7-.3-1-1.1-.7-1.8,1.1-2.5,3.8-8.1,5-10.3.2-.4.2-.4.4-.4,4.1,0,8.1,0,12.2,0h19s7.8,0,7.8,0c.7,0,1.2-.6,1.2-1.2v-1c0-.7-.6-1.2-1.2-1.2h-34.5c-1.2,0-2.1-1.2-1.6-2.4l4.4-11c0-.1,0-.3,0-.4,0-.1-.2-.2-.3-.3l-7.5-3.1c0,0-.1,0-.2,0-.2,0-.4.1-.5.3v.2c-.1.1-.2.2-.2.3,0,0-4.8,12.1-6.4,15.9-.2.4-.3.5-.7.5-3.5,0-7,0-9.7,0h-8.1c-.7,0-1.2.6-1.2,1.2v1.1c0,.7.6,1.2,1.2,1.2h16.2l-5.9,10.6-3,5.4c0,.1,0,.3,0,.4,0,.1.1.2.3.3l14.5,6c1.6.7,1.7,3,0,3.7-6.5,3-13.9,4.8-22.5,5.7-.8,0-1.5.8-1.4,1.6l.6,7c0,.3.2.4.5.4h.5c.1,0,.2,0,.3,0,.9-.1,1.9-.2,2.8-.4,2.1-.3,4.4-.6,6.5-1,9.6-1.8,18.8-5.5,26.8-11.1h0ZM229.2,146.8c1-.9.7-2.5-.6-3l-18.6-8.1c-.6-.2-1.2-.1-1.6.3-1.8,1.7-3.9,3.7-5.8,5.4-.4.3-.3.9.2,1.1,3.7,1.6,7.4,3.2,11.1,4.7l2.9,1.2c.7.3,3.2,1.4,6.3,2.7.7.3,1.5.2,2-.4l4.1-3.9h0ZM171.8,52.3c2.3-1-2.2-5.3-3.2-6-1-.8-3.3-2.3-4.7-1.9-.3,1.5,1.2,3.7,1.9,4.7.7.9,5,5.5,6,3.2ZM131,52.3c1,2.3,5.3-2.2,6-3.2.8-1,2.3-3.3,1.9-4.7-1.5-.3-3.7,1.2-4.7,1.9-.9.7-5.5,5-3.2,6ZM131,11.5c-2.3,1,2.2,5.3,3.2,6,1,.8,3.3,2.3,4.7,1.9.3-1.5-1.2-3.7-1.9-4.7-.7-.9-5-5.5-6-3.2ZM171.8,11.5c-1-2.3-5.3,2.2-6,3.2-.8,1-2.3,3.3-1.9,4.7,1.5.3,3.7-1.2,4.7-1.9.9-.7,5.5-5,3.2-6ZM152.5,33c-.4,0-.8.1-1.1.1s-.8,0-1.1-.1c0-.4-.1-.8-.1-1.1s0-.8.1-1.1c.4,0,.8-.1,1.1-.1s.8,0,1.1.1c0,.4.1.8.1,1.1s0,.8-.1,1.1ZM180,26.3c-.8-2-1.4-4-1.8-6.1,0-.1,0-.3-.1-.6-.7-3.3-.4-5.6-.7-5.9-.3-.3-.9-.3-1.2,0-5.6,6.1-11,9.2-16.4,9.7.4-5.4,3.6-10.7,9.7-16.4.3-.3.4-.8,0-1.2-.3-.3-2.6,0-5.9-.7-.2,0-.4,0-.6-.1-2.1-.4-4.1-1-6.1-1.8-2-.8-3.8-2-5.6-3.3-1.8,1.3-3.6,2.4-5.6,3.3-2,.8-4,1.4-6.1,1.8-.1,0-.3,0-.6.1-3.3.7-5.6.4-5.9.7-.3.3-.3.9,0,1.2,6.1,5.6,9.2,11,9.7,16.4-5.4-.4-10.7-3.6-16.4-9.7-.3-.3-.8-.4-1.2,0-.3.3,0,2.6-.7,5.9,0,.2,0,.5-.1.6-.4,2.1-1,4.1-1.8,6.1-.8,2-2,3.8-3.3,5.6,1.3,1.8,2.4,3.6,3.3,5.6.8,2,1.4,4,1.8,6.1,0,.1,0,.3.1.6.7,3.3.4,5.6.7,5.9.3.3.9.3,1.2,0,5.6-6.1,11-9.2,16.4-9.7-.4,5.3-3.6,10.7-9.7,16.4-.3.3-.4.8,0,1.2.3.3,2.6,0,5.9.7.2,0,.5.1.6.1,2.1.4,4.1,1,6.1,1.8,2,.8,3.8,2,5.6,3.3,1.8-1.3,3.6-2.4,5.6-3.3,2-.8,4-1.4,6.1-1.8.1,0,.3,0,.6-.1,3.3-.7,5.6-.4,5.9-.7.3-.3.3-.9,0-1.2-6.1-5.6-9.2-11-9.7-16.4,5.4.4,10.7,3.6,16.4,9.7.3.3.9.4,1.2,0,.3-.3,0-2.6.7-5.9,0-.2,0-.4.1-.6.4-2.1,1-4.1,1.8-6.1.8-2,2-3.8,3.3-5.6-1.3-1.8-2.4-3.6-3.3-5.6ZM175.8,16.6c.1.9.3,2,.6,3.4,0,.2,0,.4.1.6.4,2.2,1.1,4.3,1.9,6.4.7,1.7,1.7,3.4,2.7,4.9-1.2-.9-2.3-1.8-3.6-2.5-3.3-1.9-6.8-2.9-10.1-2.9-2.4,0-4.9.6-7.2,1.7-.2-1-.4-2-.4-3,5.3-.4,10.7-3.2,16-8.6h0ZM160.7,29.9c0,0,.1,0,.2-.1,2.2-1,4.4-1.6,6.6-1.6,3,0,6.2.9,9.3,2.6.6.3,1.1.7,1.7,1.1-.6.4-1.1.8-1.7,1.1-3.1,1.8-6.3,2.7-9.3,2.7-2.1,0-4.4-.6-6.6-1.6,0,0-.1,0-.2-.1.2-.7.5-1.4.8-2-.3-.7-.6-1.4-.8-2ZM156.3,4.8c2.1.9,4.2,1.5,6.4,1.9.1,0,.3,0,.6.1,1.4.3,2.5.5,3.4.6-5.3,5.4-8.2,10.8-8.6,16.1-1,0-2-.2-3-.4,1.1-2.4,1.7-4.9,1.7-7.2,0-3.3-.9-6.8-2.9-10.1-.7-1.2-1.6-2.4-2.5-3.6,1.5,1,3.1,2,4.9,2.7h0ZM159.6,31.9c0,2.2-1.4,4.1-3.4,4.8-.7,2-2.6,3.4-4.8,3.4s-4.1-1.4-4.8-3.4c-2-.7-3.4-2.5-3.4-4.8s1.4-4.1,3.4-4.8c.7-2,2.6-3.4,4.8-3.4s4.1,1.4,4.8,3.4c2,.7,3.4,2.6,3.4,4.8ZM152.5,6.6c1.8,3.1,2.7,6.3,2.6,9.3,0,2.1-.6,4.4-1.6,6.6,0,0,0,.1,0,.2-.7-.2-1.4-.5-2.1-.8-.7.3-1.4.6-2.1.8,0,0,0-.1-.1-.2-1-2.2-1.5-4.4-1.6-6.6,0-3,.9-6.2,2.7-9.3.3-.6.7-1.1,1.1-1.7.4.6.8,1.1,1.1,1.7ZM136.1,7.5c.9,0,2-.3,3.4-.6.2,0,.4,0,.6-.1,2.2-.4,4.3-1.1,6.4-1.9,1.7-.7,3.4-1.7,4.9-2.7-.9,1.2-1.8,2.3-2.5,3.6-1.9,3.3-2.9,6.8-2.9,10.2,0,2.4.6,4.9,1.7,7.2-1,.2-2,.4-3,.4-.4-5.3-3.2-10.7-8.6-16.1h0ZM124.3,27c.9-2.1,1.5-4.2,1.9-6.4,0-.1,0-.3.1-.6.3-1.4.5-2.5.6-3.4,5.4,5.3,10.7,8.2,16,8.6,0,1-.2,2-.4,3-2.4-1.1-4.9-1.7-7.2-1.7-3.3,0-6.8.9-10.2,2.9-1.2.7-2.4,1.6-3.6,2.5,1-1.5,2-3.1,2.7-4.9h0ZM142.1,34c0,0-.1,0-.2.1-2.2,1-4.4,1.5-6.6,1.6-3,0-6.2-.9-9.3-2.7-.6-.3-1.1-.7-1.7-1.1.6-.4,1.1-.8,1.7-1.1,3.1-1.8,6.3-2.7,9.3-2.6,2.2,0,4.4.6,6.6,1.6,0,0,.1,0,.2.1-.2.7-.5,1.4-.8,2,.3.7.6,1.4.8,2ZM127,47.2c0-.9-.3-2-.6-3.4,0-.2,0-.4-.1-.6-.4-2.2-1.1-4.3-2-6.4-.7-1.7-1.7-3.3-2.7-4.9,1.2.9,2.3,1.8,3.6,2.5,3.3,1.9,6.8,2.9,10.2,2.9,2.4,0,4.9-.6,7.2-1.7.2,1,.4,2,.4,3-5.3.4-10.7,3.2-16,8.5h0ZM146.4,59c-2.1-.9-4.2-1.5-6.4-1.9-.1,0-.3,0-.6-.1-1.4-.3-2.5-.5-3.4-.6,5.3-5.4,8.2-10.8,8.6-16.1,1,0,2,.2,3,.4-1.1,2.4-1.7,4.9-1.7,7.2,0,3.3.9,6.8,2.9,10.1.7,1.2,1.6,2.4,2.5,3.6-1.5-1-3.1-2-4.9-2.7h0ZM150.3,57.2c-1.8-3.1-2.7-6.3-2.6-9.3,0-2.1.6-4.4,1.6-6.6,0,0,0-.1,0-.2.7.2,1.4.5,2.1.8.7-.3,1.4-.6,2.1-.8,0,0,0,.1.1.2,1,2.2,1.5,4.4,1.6,6.6,0,3-.9,6.2-2.7,9.3-.3.6-.7,1.1-1.1,1.7-.4-.6-.8-1.1-1.1-1.7ZM166.6,56.3c-.9,0-2,.3-3.4.6-.2,0-.4,0-.6.1-2.2.4-4.3,1.1-6.4,1.9-1.7.7-3.4,1.7-4.9,2.7.9-1.2,1.8-2.3,2.5-3.6,1.9-3.3,2.9-6.8,2.9-10.2,0-2.4-.6-4.9-1.7-7.2,1-.2,2-.4,3-.4.4,5.3,3.2,10.7,8.6,16h0ZM178.5,36.8c-.9,2.1-1.5,4.2-1.9,6.4,0,.1,0,.3-.1.6-.3,1.4-.5,2.5-.6,3.4-5.4-5.3-10.8-8.2-16.1-8.5,0-1,.2-2,.4-3,2.4,1.1,4.9,1.7,7.2,1.7,3.3,0,6.8-.9,10.1-2.9,1.2-.7,2.4-1.6,3.6-2.5-1,1.5-2,3.1-2.7,4.9h0ZM165,31.9c2.8-1.5,6.2-2,9.4-.5.3.1.6.3.9.5-.3.2-.6.4-.9.5-3.2,1.5-6.5,1-9.4-.5ZM148.3,26.9c-.2,0-.3,0-.5,0,.7-1.3,2-2.2,3.6-2.2s2.9.9,3.6,2.2c-.2,0-.3,0-.5,0-1.2,0-2.3.4-3.1,1.1-.9-.7-1.9-1.1-3.1-1.1h0ZM154.5,27.8c.3,0,.6,0,.9.1,0,.3.1.6.1.9,0,.9-.3,1.7-.8,2.4-.5-.4-1-.7-1.6-.9-.2-.6-.5-1.1-.9-1.6.7-.5,1.5-.8,2.4-.8ZM150.9,8.9c.1-.3.3-.6.5-1,.2.3.4.6.5,1,1.5,3.2,1,6.5-.5,9.4-1.5-2.9-2-6.2-.5-9.4ZM158.6,31.9c0,1.6-.9,2.9-2.2,3.6,0-.2,0-.3,0-.5,0-1.2-.4-2.2-1.1-3.1.7-.9,1.1-1.9,1.1-3.1s0-.3,0-.5c1.3.7,2.2,2,2.2,3.6ZM148.1,31.2c-.5-.7-.8-1.5-.8-2.4s0-.6.1-.9c.3,0,.6-.1.9-.1.9,0,1.7.3,2.4.8-.4.5-.7,1-.9,1.6-.6.2-1.1.5-1.6.9ZM154.6,32.6c.5.7.8,1.5.8,2.4s0,.6-.1.9c-.3,0-.6.1-.9.1-.9,0-1.7-.3-2.4-.8.4-.5.7-1,.9-1.6.6-.2,1.1-.5,1.6-.9ZM151.9,54.9c-.1.3-.3.6-.5,1-.2-.3-.4-.6-.5-1-1.5-3.2-1-6.5.5-9.4,1.5,2.8,2,6.2.5,9.4ZM147.4,31.9c-.7.9-1.1,1.9-1.1,3.1s0,.3,0,.5c-1.3-.7-2.2-2-2.2-3.6s.9-2.9,2.2-3.6c0,.2,0,.3,0,.5,0,1.2.4,2.2,1.1,3.1h0ZM137.7,31.9c-2.8,1.5-6.2,2-9.4.5-.3-.1-.6-.3-.9-.5.3-.2.6-.4.9-.5,3.2-1.5,6.5-1,9.4.5ZM148.3,36c-.3,0-.6,0-.9,0,0-.3-.1-.6-.1-.9,0-.9.3-1.7.8-2.4.5.4,1,.7,1.6.9.2.6.5,1.1.9,1.6-.7.5-1.5.8-2.4.8ZM154.5,37c.2,0,.3,0,.5,0-.7,1.3-2,2.2-3.6,2.2s-2.9-.9-3.6-2.2c.2,0,.3,0,.5,0,1.2,0,2.2-.4,3.1-1.1.9.7,1.9,1.1,3.1,1.1h0Z"/><path fill="#fff" d="M125,209v.5c-.5,0-.9,0-1.2.3-.3.2-.6.5-.9,1-.2.3-.5,1.1-.9,2.3l-5.3,15.3h-.6l-4.3-12.2-4.3,12.2h-.5l-5.7-15.8c-.4-1.2-.7-1.9-.8-2.1-.2-.4-.4-.6-.8-.8-.3-.2-.8-.3-1.3-.3v-.5h7.1v.5h-.3c-.5,0-.9.1-1.1.3-.3.2-.4.5-.4.8s.2,1.1.6,2.3l3.8,10.7,3.2-9.1-.6-1.6-.5-1.3c-.2-.5-.4-.9-.7-1.2-.1-.2-.3-.3-.5-.4-.2-.2-.5-.3-.7-.4-.2,0-.5,0-.8,0v-.5h7.4v.5h-.5c-.5,0-.9.1-1.2.3-.2.2-.4.5-.4.9s.2,1.3.6,2.5l3.6,10.3,3.6-10.5c.4-1.2.6-2,.6-2.4s0-.4-.2-.6c-.1-.2-.3-.3-.5-.4-.4-.1-.8-.2-1.4-.2v-.5h5.7,0ZM132.3,217.8h8.8v-5.4c0-1,0-1.6-.2-1.9,0-.2-.3-.4-.6-.6-.4-.2-.8-.3-1.3-.3h-.7v-.5h8.1v.5h-.7c-.4,0-.9.1-1.3.3-.3.2-.5.4-.6.7s-.2.9-.2,1.9v12.3c0,1,0,1.6.2,1.9,0,.2.3.4.6.6.4.2.8.3,1.3.3h.7v.5h-8.1v-.5h.7c.8,0,1.3-.2,1.7-.7.2-.3.4-1,.4-2.2v-5.8h-8.8v5.8c0,1,0,1.6.2,1.9,0,.2.3.4.6.6.4.2.8.3,1.3.3h.7v.5h-8.1v-.5h.7c.8,0,1.4-.2,1.7-.7.2-.3.3-1,.3-2.2v-12.3c0-1,0-1.6-.2-1.9,0-.2-.3-.4-.6-.6-.4-.2-.8-.3-1.3-.3h-.7v-.5h8.1v.5h-.7c-.4,0-.9.1-1.3.3-.3.2-.5.4-.6.7s-.2.9-.2,1.9v5.4ZM154.3,210v7.5h4.2c1.1,0,1.8-.2,2.2-.5.5-.4.8-1.2.8-2.3h.5v6.6h-.5c-.1-.9-.3-1.5-.4-1.8-.2-.3-.4-.6-.8-.8-.4-.2-1-.3-1.8-.3h-4.2v6.3c0,.8,0,1.4.1,1.5,0,.2.2.3.4.4.2.1.5.2,1.1.2h3.2c1.1,0,1.9,0,2.3-.2.5-.2,1-.4,1.4-.9.6-.6,1.2-1.4,1.8-2.6h.6l-1.6,4.8h-14.7v-.5h.7c.4,0,.9-.1,1.3-.3.3-.1.5-.4.6-.7s.2-.9.2-1.8v-12.4c0-1.2-.1-1.9-.4-2.2-.3-.4-.9-.6-1.7-.6h-.7v-.5h14.7l.2,4.2h-.6c-.2-1-.4-1.7-.7-2.1-.2-.4-.6-.7-1.1-.9-.4-.1-1-.2-2-.2h-5.2ZM186.4,228h-5.1l-6.4-8.9c-.5,0-.9,0-1.2,0h-.4c-.1,0-.3,0-.4,0v5.5c0,1.2.1,1.9.4,2.2.4.4.9.6,1.6.6h.7v.5h-8.1v-.5h.7c.8,0,1.4-.3,1.7-.8.2-.3.3-1,.3-2.1v-12.3c0-1.2-.1-1.9-.4-2.2-.4-.4-.9-.6-1.6-.6h-.7v-.5h6.9c2,0,3.5.1,4.5.4,1,.3,1.8.8,2.4,1.6.7.8,1,1.7,1,2.8s-.4,2.2-1.1,3-1.9,1.5-3.5,1.8l3.9,5.5c.9,1.2,1.7,2.1,2.3,2.5.6.4,1.5.7,2.5.8v.5h0ZM172.9,218.2h.8c1.8,0,3.2-.4,4.1-1.2.9-.8,1.4-1.8,1.4-3s-.4-2.2-1.1-2.9c-.7-.8-1.7-1.1-2.9-1.1s-1.3,0-2.2.3v7.9h0ZM193.3,210v7.5h4.2c1.1,0,1.8-.2,2.2-.5.5-.4.8-1.2.8-2.3h.5v6.6h-.5c-.1-.9-.3-1.5-.4-1.8-.2-.3-.4-.6-.8-.8-.4-.2-1-.3-1.8-.3h-4.2v6.3c0,.8,0,1.4.1,1.5,0,.2.2.3.4.4.2.1.5.2,1.1.2h3.2c1.1,0,1.9,0,2.3-.2.5-.2,1-.4,1.4-.9.6-.6,1.2-1.4,1.8-2.6h.6l-1.6,4.8h-14.7v-.5h.7c.4,0,.9-.1,1.3-.3.3-.1.5-.4.6-.7s.2-.9.2-1.8v-12.4c0-1.2-.1-1.9-.4-2.2-.3-.4-.9-.6-1.7-.6h-.7v-.5h14.7l.2,4.2h-.6c-.2-1-.4-1.7-.7-2.1-.2-.4-.6-.7-1.1-.9-.4-.1-1-.2-2-.2h-5.2ZM50,260.1v-.5h.7c.8,0,1.4-.3,1.7-.8.2-.3.3-1,.3-2.1v-12.3c0-1.2-.1-1.9-.4-2.2-.4-.4-.9-.6-1.6-.6h-.7v-.5h7.8c2.8,0,5,.3,6.5,1,1.5.6,2.7,1.7,3.6,3.2.9,1.5,1.3,3.2,1.3,5.2s-.8,4.9-2.4,6.6c-1.8,2-4.6,3-8.2,3h-8.5ZM55.4,258.8c1.2.3,2.2.4,3,.4,2.2,0,4-.8,5.4-2.3,1.4-1.5,2.1-3.6,2.1-6.2s-.7-4.7-2.1-6.2c-1.4-1.5-3.3-2.3-5.5-2.3s-1.8.1-2.9.4v16.2h0ZM90.9,260.1h-5.1l-6.4-8.9c-.5,0-.9,0-1.2,0h-.4c-.1,0-.3,0-.4,0v5.5c0,1.2.1,1.9.4,2.2.4.4.9.6,1.6.6h.7v.5h-8.2v-.5h.7c.8,0,1.4-.3,1.7-.8.2-.3.3-1,.3-2.1v-12.3c0-1.2-.1-1.9-.4-2.2-.4-.4-.9-.6-1.6-.6h-.7v-.5h6.9c2,0,3.5.1,4.5.4,1,.3,1.8.8,2.4,1.6.7.8,1,1.7,1,2.8s-.4,2.2-1.1,3c-.8.9-1.9,1.5-3.5,1.8l3.9,5.5c.9,1.2,1.7,2.1,2.3,2.5.6.4,1.5.7,2.5.8v.5h0ZM77.3,250.4h.8c1.8,0,3.2-.4,4.1-1.2.9-.8,1.4-1.8,1.4-3s-.4-2.1-1.1-2.9c-.7-.7-1.7-1.1-2.9-1.1s-1.3,0-2.2.3v7.9h0ZM97.8,242.1v7.5h4.2c1.1,0,1.8-.2,2.2-.5.5-.4.8-1.2.8-2.3h.5v6.6h-.5c-.1-.9-.3-1.5-.4-1.8-.2-.3-.4-.6-.8-.8-.4-.2-1-.3-1.8-.3h-4.2v6.3c0,.8,0,1.4.1,1.5,0,.2.2.3.4.4.2.1.5.2,1.1.2h3.2c1.1,0,1.9,0,2.3-.2.5-.1,1-.4,1.4-.9.6-.6,1.2-1.4,1.8-2.6h.6l-1.6,4.8h-14.7v-.5h.7c.4,0,.9-.1,1.3-.3.3-.1.5-.4.6-.7.1-.3.2-.9.2-1.8v-12.4c0-1.2-.1-1.9-.4-2.2-.3-.4-.9-.6-1.7-.6h-.7v-.5h14.7l.2,4.2h-.6c-.2-1-.4-1.7-.6-2.1-.2-.4-.6-.7-1.1-.9-.4-.1-1-.2-2-.2h-5.2ZM123.6,253.8h-7.4l-1.3,3c-.3.7-.5,1.3-.5,1.7s.1.5.4.8c.3.2.9.4,1.8.4v.5h-6v-.5c.8-.1,1.3-.3,1.5-.5.5-.5,1-1.4,1.6-2.7l6.7-15.7h.5l6.6,15.8c.5,1.3,1,2.1,1.4,2.5.4.4,1,.6,1.8.6v.5h-7.5v-.5c.8,0,1.3-.2,1.5-.4.3-.2.4-.5.4-.8s-.2-1.1-.6-2l-1.2-2.7h0ZM123.2,252.7l-3.2-7.7-3.3,7.7h6.5ZM144.1,260.1l-7.3-16v12.7c0,1.2.1,1.9.4,2.2.4.4.9.6,1.6.6h.7v.5h-6.6v-.5h.7c.8,0,1.4-.2,1.7-.7.2-.3.3-1,.3-2.1v-12.4c0-.8,0-1.4-.3-1.8-.1-.3-.4-.5-.7-.7-.4-.2-.9-.3-1.7-.3v-.5h5.4l6.9,14.9,6.8-14.9h5.4v.5h-.7c-.8,0-1.4.2-1.7.7-.2.3-.3,1-.3,2v12.4c0,1.2.1,1.9.4,2.2.4.4.9.6,1.6.6h.7v.5h-8.1v-.5h.7c.8,0,1.4-.2,1.7-.7.2-.3.3-1,.3-2.1v-12.7l-7.3,16h-.5,0ZM172.3,240.7v6.6h-.5c-.2-1.3-.5-2.3-.9-3-.4-.8-1.1-1.3-1.9-1.8-.8-.4-1.6-.7-2.5-.7s-1.8.3-2.4.9c-.6.6-1,1.3-1,2s.2,1.1.6,1.6c.6.7,2,1.6,4.1,2.8,1.8.9,3,1.7,3.6,2.2.7.5,1.2,1.1,1.5,1.8.4.7.5,1.4.5,2.2,0,1.4-.6,2.7-1.7,3.7-1.1,1-2.6,1.6-4.3,1.6s-1.1,0-1.6-.1c-.3,0-.9-.2-1.8-.5-.9-.3-1.5-.4-1.7-.4s-.4,0-.6.2c-.1.1-.2.4-.3.9h-.5v-6.5h.5c.2,1.4.6,2.4,1,3.1.4.7,1,1.2,1.9,1.7.8.5,1.8.7,2.8.7s2.1-.3,2.8-.9c.7-.6,1-1.3,1-2.2s-.1-.9-.4-1.4c-.3-.5-.7-.9-1.2-1.3-.4-.3-1.4-.9-3-1.8-1.6-.9-2.8-1.6-3.5-2.2-.7-.5-1.2-1.1-1.6-1.8-.4-.6-.5-1.4-.5-2.2,0-1.4.5-2.5,1.6-3.5,1.1-1,2.4-1.5,4-1.5s2.1.2,3.2.7c.5.2.9.3,1.1.3s.4,0,.6-.2c.1-.1.3-.4.4-.9h.5,0ZM201,254.9h.5c0,.1-1.6,5.3-1.6,5.3h-14.7v-.5h.7c.8,0,1.4-.3,1.7-.8.2-.3.3-1,.3-2.1v-12.3c0-1.2-.1-1.9-.4-2.2-.4-.4-.9-.6-1.6-.6h-.7v-.5h8.6v.5c-1,0-1.7,0-2.1.3-.4.2-.7.4-.8.7-.2.3-.2,1-.2,2.1v12c0,.8,0,1.3.2,1.6.1.2.3.3.5.4.2,0,1,.1,2.2.1h1.4c1.5,0,2.5-.1,3.1-.3.6-.2,1.1-.6,1.6-1.1.5-.5,1-1.4,1.5-2.6h0ZM212.1,259.6v.5h-8.2v-.5h.7c.8,0,1.4-.2,1.7-.7.2-.3.3-1,.3-2.2v-12.3c0-1,0-1.6-.2-1.9,0-.2-.3-.4-.6-.6-.4-.2-.8-.3-1.3-.3h-.7v-.5h8.2v.5h-.7c-.8,0-1.3.2-1.7.7-.2.3-.4,1-.4,2.2v12.3c0,1,0,1.6.2,1.9,0,.2.3.4.6.6.4.2.8.3,1.3.3h.7ZM234.4,241.1v.5c-.7.1-1.2.3-1.5.7-.5.5-.9,1.2-1.3,2.1l-6.6,16.2h-.5l-7.1-16.4c-.4-.8-.6-1.4-.8-1.5-.2-.3-.5-.5-.9-.7-.3-.2-.8-.3-1.4-.3v-.5h7.8v.5c-.9,0-1.4.2-1.7.4-.3.2-.4.5-.4.8s.2,1.2.7,2.2l4.8,11.2,4.5-11c.4-1.1.7-1.8.7-2.3s-.1-.5-.4-.8c-.3-.2-.7-.4-1.4-.5,0,0-.1,0-.2,0v-.5h5.9,0ZM241.9,242.1v7.5h4.2c1.1,0,1.8-.2,2.2-.5.5-.4.8-1.2.8-2.3h.5v6.6h-.5c-.1-.9-.3-1.5-.4-1.8-.2-.3-.4-.6-.8-.8-.4-.2-1-.3-1.8-.3h-4.2v6.3c0,.8,0,1.4.1,1.5,0,.2.2.3.4.4.2.1.5.2,1.1.2h3.2c1.1,0,1.9,0,2.3-.2.5-.1,1-.4,1.4-.9.6-.6,1.2-1.4,1.8-2.6h.6l-1.6,4.8h-14.7v-.5h.7c.4,0,.9-.1,1.3-.3.3-.1.5-.4.6-.7.1-.3.2-.9.2-1.8v-12.4c0-1.2-.1-1.9-.4-2.2-.3-.4-.9-.6-1.7-.6h-.7v-.5h14.7l.2,4.2h-.6c-.2-1-.4-1.7-.6-2.1-.2-.4-.6-.7-1.1-.9-.4-.1-1-.2-2-.2h-5.2,0Z"/></svg>