<svg xmlns="http://www.w3.org/2000/svg" version="1.1" viewBox="0 0 363 108"><path fill="#cba37b" d="M85.7,33.8v.4c-3,1.8-7.6,4.1-14.5,7.1-.2.5-.7.9-1.1,1l-2.2-5.8c1.9-.2,5.7-.7,10.2-1.4v-15.2h-8.8l-.3-1.1h9.2V6.9l5.9.6c0,.6-.3.9-1.4,1.1v25.7l3.2-.5ZM102,36.4c1.2.5,1.6,1.1,1.6,1.9,0,2-1.8,2.8-7.9,2.8h-3.4c-3.9,0-5-.9-5-4.3V7l5.9.7c0,.5-.4.9-1.4,1.1v10.1h5.2l2-3.6s2.3,2.5,3.4,4c-.1.4-.5.6-1,.6h-9.7v15.7c0,.9.3,1.2,1.6,1.2h2.8c1.1,0,2,0,2.5,0,.4,0,.7-.1,1-.5.5-.7,1.1-3.1,1.8-5.6h.4l.2,5.8h0ZM125.5,10.6l4.3,3.9c-.3.4-.7.6-1.6.7-1.7,11.6-5.6,22.2-19.8,27.4l-.4-.5c6.2-3.6,10-8.8,12.4-14.8-.9.5-2,.4-3.1-.5-.2-2-1.2-4.1-2.4-5.8-1.8,2.7-3.9,5-6.3,6.8l-.5-.3c3.4-5.2,6.2-13.1,7.2-21.4l6.4,1.4c-.2.5-.6.8-1.5.9-.4,1.7-.9,3.3-1.5,4.8h4.4l2.4-2.6ZM118.3,14.3c-.8,2-1.7,3.9-2.7,5.6,3.7,1,5.4,2.7,5.9,4.2,1-3.1,1.6-6.4,1.9-9.8h-5.1ZM135.5,18.5c13.2,3.3,10,12.6,5.2,9.5-.8-2.8-3.1-5.9-5.2-8.2v21.6c0,.4-2,1.4-3.7,1.4h-.9V6.3l6,.6c0,.5-.3.9-1.4,1.1v10.5h0ZM183.1,16.2c0,0-.2.2-.5.4.7.5,2.4,1.9,3.6,2.9-.1.4-.5.6-1.1.6h-23.9c.5.5,1,1.1,1.5,1.6-.1.4-.5.6-1,.6h-4.1v9.7c1.6-.5,3.3-1.1,5-1.6v.4c-2,1.8-5.4,4.4-10.2,7.6,0,.5-.5.9-.9,1.1l-2.5-5c1-.2,2.5-.7,4.4-1.2v-11h-3.5l-.3-1.1h3.8v-10h-3.8l-.3-1.1h7.6l2.2-3s2.3,1.9,3.8,3.4v-3.7l4.1,1.7h12l1.9-2,4,3c-.3.3-.9.7-1.6.8v6h0ZM160.5,19h19.7l1.7-2.2c-.6.2-1.4.4-2,.4h-.7v-.7h-12.6v.5c0,.3-1.8,1.2-3.3,1.2h-.5v-7.4c-.2.2-.5.3-.9.3h-4.3v10h.4l1.7-2.8s.4.4,1,1l-.2-.4h0ZM184.7,32.4c-.3.4-.6.4-1.4.3-1.2.7-3,1.4-4.6,2.1,2.1,1.5,4.6,2.6,7.3,3.2v.4c-1.6.4-2.7,1.7-3.1,3.7-4.9-2.3-7.8-6.1-9.5-12-.8.9-1.8,1.8-2.9,2.6v4.7c1.4-.4,3-.9,4.6-1.4l.2.5c-1.4,1.1-4.3,3.3-7.5,5.5-.3.5-.7.8-1.1,1l-1.9-3.9c1.7-.8,1.9-1.1,1.9-1.8v-2.3c-2.3,1.2-4.8,2.1-7.5,2.9l-.3-.5c4.1-2,7.5-5,9.7-8h-.8v.4c0,.3-1.8,1.2-3.4,1.2h-.5v-10.1l4.1,1.7h9.6l1.9-2.1,4.2,3.1c-.2.3-.8.6-1.6.8v4.5c0,.2-.5.5-1.3.8l4,2.8h0ZM166.6,9.6v5.9h2.3v-5.9h-2.3ZM167.7,28.2h10.2v-4.6h-10.2v4.6ZM174.1,15.5v-5.9h-2.1v5.9h2.1ZM173.9,29.3c.9,1.7,2.1,3.1,3.5,4.4,1.1-1.2,2.1-2.6,3-4-.6.2-1.3.4-1.9.4h-.7v-.8h-4ZM177.1,9.6v5.9h2.1v-5.9h-2.1ZM216.2,0l-2.4,5.2h-12.4l-2.7,5.6c5.4.8,9.7,2.8,12.8,6,2.7,2.8,4.1,6,4.1,9.8s-.4,4.2-1.3,6c-.9,1.8-2,3.4-3.3,4.7s-2.8,2.3-4.5,3.2c-2.3,1.1-4.7,1.7-7.2,1.7s-4.3-.4-5.4-1.3c-1.1-.8-1.7-1.8-1.7-2.8s.2-1.1.7-1.5c.5-.4,1.1-.7,1.8-.7s1,0,1.4.2,1.1.6,2,1.2c1.5,1.1,3.1,1.6,4.6,1.6,2.4,0,4.5-.9,6.3-2.7s2.7-4,2.7-6.6-.8-4.8-2.4-7c-1.6-2.2-3.8-3.8-6.6-5-2.2-.9-5.2-1.5-9.1-1.6L201.4,0h14.8ZM235.9,10.4c-.2.4-.5.7-1.5.7-2.8,5-7.9,10.6-15.1,13.6l-.3-.4c5.4-4.2,9.2-11,10.8-16.3l6.1,2.4h0ZM245.1,19.6l4.1,3.5c-.3.3-.8.6-1.6.7-.5,9.6-1.4,15-3.5,16.8-1.3,1.1-2.9,1.6-5.5,1.6,0-1.3-.2-2.5-.8-3.1-.8-.7-2.4-1.3-4.3-1.6v-.5c2,.2,5,.4,5.9.4s1.1-.1,1.4-.4c1.2-1,1.8-6.1,2.2-13.8h-6.6c-.7,6.7-3,14.1-15.8,19.3l-.4-.5c9.7-6.1,10.8-13,11.1-18.8h-5.6l-.4-1.1h17.2l2.4-2.4h0ZM245.5,8.6c-.5.5-1.8.8-3.2.9,2,3.9,7,7.6,13,9.2v.5c-1.8.6-3.3,2.3-3.7,4-5-3.1-8.7-8.1-10.3-13.9h-4.2l-.3-1.1h3.6l1.4-2.3,3.8,2.6h0ZM292.8,37s2.5,2,4,3.4c0,.4-.5.6-1,.6h-22l-.3-1.1h9.7v-4.1h-7l-.3-.9c-2.7,1.6-6.5,3.7-12.3,6.5-.2.5-.5.9-1,1l-2.7-4.8c1.3-.2,3.4-.6,5.9-1.1v-11.9h-5l-.3-1.1h5.3v-4.7h-2.5l-.2-.9c-1.1,1.1-2.2,2-3.4,2.8l-.4-.3c2.8-3.7,5.3-10.1,6.1-14.1l5.6,1.8c-.2.5-.5.7-1.5.9,9.7,2.4,5.6,8.4,2.6,6-.5-1.4-1.6-3.3-3.2-5.1-1.3,2.6-3.3,5.5-5.7,7.9h6l2-2.8s2.2,1.9,3.5,3.3c-.1.4-.5.6-1,.6h-4.1v4.7h.8l1.9-2.8s2.2,2,3.5,3.3c0,.4-.5.6-1,.6h-5.2v11.2c2.1-.5,4.2-.9,6.4-1.4v.4h7.1v-3.9h-2.9v1.1c0,.3-1.2,1-3.3,1h-.7v-13.8l4.4,1.7h9.6l1.9-2.2,3.8,2.9c-.2.4-.6.6-1.4.7v9.1c0,.2-1.3.9-3.5.9h-.7v-1.4h-3.1v3.9h2.5l2.1-2.5s2.4,1.8,3.9,3c-.1.4-.5.6-1,.6h-7.4v4.1h3.4l2.2-2.9ZM261.7,26.2c6.4,5.2,2.5,10.9,0,7.8.4-2.5,0-5.5-.5-7.7h.5c0-.1,0-.1,0-.1ZM270.1,33.8c.4-2,.8-5.1,1.1-7.8l4.6,1.4c-.2.5-.7.8-1.5.8-1,2-2.3,4.2-3.5,5.9l-.7-.3ZM275.8,12.3l-.3-1.1h14.4l2.2-2.9s2.5,2,4,3.4c-.1.4-.5.6-1.1.6h-7l4.9,1.2c-.1.5-.6.8-1.4.8-.9.9-2.1,2-3.4,3.1h2.4l2.2-2.7s2.4,1.9,4,3.2c-.1.4-.5.6-1.1.6h-20.3l-.3-1.1h6c-.4-.1-.8-.4-1.2-.8.1-1.6-.3-3.2-.8-4.2h0s-3.3,0-3.3,0ZM286.5,17.3c.3-1.6.7-3.6.9-5.1h-7.5c5.2,1.5,4.5,4.4,2.6,5.1h3.9ZM280.1,22v3.4h2.9v-3.4h-2.9ZM283.1,29.7v-3.3h-2.9v3.3h2.9ZM281.7,6.1c9.2.3,5.1,7.1,1.4,4.3,0-1.5-.9-3.1-1.8-4l.3-.2h0ZM287.2,22v3.4h3.1v-3.4h-3.1ZM290.2,29.7v-3.3h-3.1v3.3h3.1ZM5.4,78.8c.5,2.8-.2,4.7-1.4,5.7-1.1.9-3.1.7-3.8-.8-.5-1.4.3-2.6,1.4-3.3,1.2-.8,2.4-3,2.2-5h.5c.3.8.6,1.6.8,2.3h12.1c-.3-.2-.7-.3-1-.6,0-2-.9-4.2-2.3-5.5l.3-.3c8.2.5,8,5.1,5.6,6.4h9.7l2.4-2.4,4.2,4c-.3.3-.7.4-1.5.5-1.4,1.4-3.8,3.2-5.7,4.3l-.3-.3c.4-1.3.9-3.3,1.1-4.9H5.4ZM31.2,85.6s2.8,2.1,4.6,3.6c-.1.4-.5.6-1.1.6h-7.9c-.9,3.7-2.4,6.9-5,9.6,15,4.1,9.2,10,5,7.8-2-1.6-4.9-3.3-8.5-4.9-3.9,2.5-9.5,4.3-17.4,5.4l-.2-.5c6.4-1.7,11-3.8,14.2-6.4-3-1.2-6.4-2.4-10.1-3.4,1-1.8,2.4-4.7,3.8-7.6H.9l-.4-1.1h8.6c1.5-3.4,2.8-6.7,3.4-8.6l6.3,1.9c-.2.4-.5.8-1.8.8-.7,1.5-1.8,3.6-2.9,5.9h7.6c.2-1.6.4-3.2.5-4.8l6.7,1.3c-.1.6-.6.9-1.5.9-.1.9-.3,1.8-.4,2.7h1.7l2.4-3.1h0ZM13.6,89.8c-1.3,2.6-2.7,5.2-4,7.4,3,.3,5.5.7,7.8,1.2,2.2-2.6,3.4-5.4,4.1-8.6h-7.9,0ZM56,80.9s2.6,2.2,4.1,3.7c0,.4-.5.6-1,.6h-6.3v2.7c9.8,2.9,6.1,9.7,2.6,6.9-.3-2-1.4-4.2-2.6-5.9v17.6c0,.3-1.4,1.3-3.6,1.3h-.8v-14.4c-1.9,3.1-4.4,5.8-7.3,8.2l-.5-.5c3.2-4.2,5.4-10.2,6.6-15.9h-5.7l-.3-1.1h7.2v-6.9c-2.4.3-4.8.5-7.1.6v-.5c4.7-1.4,10.7-4.1,13.7-6.1l4.8,4.4c-.5.3-1.3.4-2.6,0-1.3.3-2.8.6-4.4.9v7.5h1.1l2.2-3.2h0ZM76.5,78.7c-.2.3-.8.7-1.6.8v23.8c0,.3-2.2,1.2-3.8,1.2h-.7v-4.1h-5.6v3.1c0,.5-1.8,1.6-3.8,1.6h-.7v-29.6l4.7,2h5l2.2-2.4,4.4,3.5h0ZM70.3,99.3v-20.6h-5.6v20.6h5.6ZM92.5,100.2c1.9-.4,3.9-.9,5.9-1.3l.2.4c-3.2,1.7-7.8,4.1-14.3,7-.2.5-.6.9-1,1l-1.9-4.8c.6,0,1.3-.2,2.2-.4v-13.9l4.3.4c0,.4-.3.7-.9.7v12.1l1.7-.3v-16.6h-1.1v.5c0,.3-1.2,1.1-3.2,1.1h-.7v-13.9l4.4,1.8h4.1l1.9-2.1,4,3c-.2.3-.7.6-1.5.7v8.9c0,.3-2,1-3.3,1h-.7v5.2h.5l1.9-3s2.2,2.1,3.4,3.5c-.1.4-.5.6-1.1.6h-4.8v8.2h0ZM87.5,83.4h5v-8.2h-5v8.2ZM116.1,77.6c-.3.4-.7.5-1.6.6-1.2,2.8-2.9,5.3-5,7.6,2.6,1.5,5.7,2.7,9.4,3.4v.4c-1.9.7-2.8,1.9-3.2,4.1-.9-.3-1.8-.7-2.5-1.1l2.5,1.9c-.3.3-.6.5-1.4.7v11.3c0,.2-1.4,1-3.7,1h-.8v-2.8h-6.9v1.9c0,.3-1.3,1-3.5,1h-.7v-14.6c-1.2.5-2.5.9-3.8,1.3l-.3-.5c4.3-2.1,7.9-4.9,10.7-8.2-1-1.4-1.8-3-2.6-4.7-1.8,2.1-3.8,3.7-6,5l-.4-.4c2.8-3.3,5.4-8.7,6.6-14.4l5.7,1.9c-.2.5-.7.9-1.5.8-.4.9-.8,1.8-1.2,2.6h4l2.4-2.3,3.9,3.5h0ZM111.5,91.7c-1.7-1.1-3.2-2.3-4.4-3.6-2.1,1.8-4.4,3.3-7.2,4.5l3.4,1.3h6.3l1.9-2.2h0ZM109.8,103.7v-8.7h-6.9v8.7h6.9ZM105.1,77.5c-.5.9-1.1,1.8-1.8,2.6.9,1.4,2,2.6,3.3,3.7,1.4-2,2.4-4.1,3.2-6.3h-4.7ZM136.1,90.8c-.3.3-.6.4-1.4.5-.9,2.8-2.8,5.8-5.4,8.2.2,0,.4.2.7.4,3,2.4,7.8,2.9,16.5,2.9s8.4,0,13-.3v.4c-1.9.4-2.9,2.1-3.1,3.8h-11.4c-8.8,0-12.1-1.4-15.4-5.4-.6-.7-1-.6-1.3,0-.6,1.2-1.4,3.1-2.1,5,.1.3,0,.6-.3.8l-3.1-4.4c1.6-.9,3.9-2.6,5.2-3.2,1.3-2.4,2.3-5.7,2.7-8.6h-2.3l-1.3,1.2-3.3-2.3c.3-.3.9-.5,1.5-.7,1.1-1.9,2.4-4.6,3.3-6.5h-4.7l-.3-1.1h5l1.8-1.8,3.7,3.2c-.4.3-1.1.5-1.9.6-.8,1.7-2.2,4.3-3.3,6.3h1.7l2.1-2.1,3.6,3h0ZM125,71.9c10.1,1.6,6.4,9.1,2.5,6.3-.2-2.1-1.6-4.6-2.9-6.1l.3-.2ZM145.5,82.2c-1.8.7-5.1,2.1-8.7,3.4-.3.4-.6.5-.9.7l-1.6-3.5c.8-.5.9-.8.9-1.6v-9.6l4.2,1.7h2.2l1.6-1.7,3.4,2.6c-.2.2-.7.5-1.3.6v4.1c0,.3-1.7,1-2.8,1h-.6v-1.1h-3.1v3.4c1.9-.2,4.2-.3,6.6-.6v.6s0,0,0,0ZM154.7,90.9s2.6,1.9,4.2,3.3c-.1.4-.5.6-1.1.6h-23.2l-.3-1.1h5.6v-4h-3.6l-.3-1.1h3.9v-3.9l5.1.5c0,.4-.3.7-1,.9v2.6h3.6v-3.9l5.1.5c0,.5-.3.7-1.1.9v2.6h0l1.8-2.4s2.1,1.7,3.5,2.8c0,.4-.5.6-1,.6h-4.3v4h.8l2.2-2.8h0ZM134.5,101.4c2.5-1.6,4.9-4.4,6-6.4l5.3,2.4c-.2.5-.8.7-2,.6-2,1.5-5.5,3.1-9,3.9l-.3-.4h0ZM142.1,77.7v-3.3h-3.1v3.3h3.1ZM144,93.7h3.6v-4h-3.6v4ZM150.3,84.4c-2.9,0-3.4-.7-3.4-2.9v-9.8l4.1,1.6h2.1l1.6-1.8,3.5,2.7c-.2.2-.7.5-1.3.7v3.9c0,.3-1.8,1.1-3,1.1h-.6v-1h-3v2.1c0,.5.1.6.9.6h3.6c.2,0,.6,0,.8,0,.2,0,.6-.1.9-.2h.5c1,.5,1.3.7,1.3,1.3,0,1.3-1.4,1.8-5.7,1.8h-2.5,0ZM147.2,95.5c16.6,1.6,9,9,5.8,5.6-.9-1.6-3-3.6-6.1-5.2l.2-.5ZM150.5,74.4v3.3h3v-3.3h-3ZM198.3,85.2s2.1,2.3,3.1,3.8c-.1.4-.5.6-1,.6h-3.9v12.9c0,3.2-.5,4.9-5.1,5.2,0-1.4-.2-2.6-.5-3.2-.3-.7-.9-1.2-2.2-1.4v-.5s2.1.2,2.7.2.7-.3.7-.7v-12.4h-3.9v16.3c0,.3-1.2,1.2-3.4,1.2h-.7v-17.5h-3.8v16.3c0,.3-1.3,1.2-3.4,1.2h-.8v-17.5h-3.6v16.4c0,.6-1.8,1.7-3.7,1.7h-.8v-18.1h-4l-.3-1.1h4.3v-15.9l4.8,2h18.9l2.1-2.5,4.4,3.5c-.3.3-.8.7-1.6.8v12l1.8-3.2h0ZM176.1,88.5v-12.8h-3.6v12.8h3.6ZM184.1,88.5v-12.8h-3.8v12.8h3.8ZM192.1,88.5v-12.8h-3.9v12.8h3.9ZM242.4,78.6c-.3.3-.7.4-1.5.5-1.3,1.6-3.6,3.7-5.5,4.9l-.4-.3c.4-1.6.8-3.8,1.1-5.6h-25.5c.3,2.8-.7,4.7-2,5.6-1.2.9-3.2.5-3.8-1-.5-1.4.4-2.5,1.6-3.2,1.4-.7,3-2.7,2.9-4.8h.5c.3.8.5,1.5.6,2.2h11.4c-.2-.1-.3-.2-.5-.4.1-1.9-.7-4-1.9-5.2l.3-.2c7.4.5,7.5,4.4,5.6,5.9h10.5l2.4-2.5,4.2,4h0ZM239.1,101.8c1.4.5,1.8,1,1.8,1.9,0,2.1-1.9,2.8-10.3,2.8h-5.2c-4.7,0-6-.7-6-4.2v-8.5h-12.9l-.4-1.1h13.3v-6.7c-3.5.4-7.2.6-10.6.6v-.6c7.4-1.2,16.8-3.9,21.5-6.1l4.4,4.1c-.4.4-1.3.4-2.5,0-2.3.5-5.1,1-8.2,1.4v7.2h8.5l2.6-3.5s3,2.3,4.9,4c0,.4-.5.6-1.1.6h-14.8v7.4c0,.9.4,1.1,2.1,1.1h5.1c1.8,0,3.4,0,4.1-.1.7,0,1-.2,1.3-.6.5-.8,1.2-2.8,2.1-5.6h.4v5.9c.1,0,.1,0,.1,0ZM273.7,98.6l-2.9,8h-24.4v-1.1c7.2-6.6,12.2-11.9,15.2-16.1,2.9-4.1,4.4-7.9,4.4-11.4s-.8-4.8-2.4-6.5c-1.6-1.7-3.5-2.5-5.8-2.5s-3.9.6-5.5,1.8c-1.6,1.2-2.8,2.9-3.6,5.2h-1.1c.5-3.8,1.8-6.7,3.9-8.7,2.1-2,4.7-3,7.9-3s6.1,1.1,8.4,3.2c2.2,2.2,3.4,4.7,3.4,7.6s-.5,4.2-1.5,6.3c-1.5,3.3-3.9,6.8-7.3,10.5-5.1,5.5-8.2,8.9-9.5,10h10.8c2.2,0,3.7,0,4.6-.2.9-.2,1.7-.5,2.4-1s1.3-1.2,1.9-2.1h1.1,0ZM276.2,86h15.2v2.3h-15.2v-2.3ZM298.1,73c1.2-2.8,2.7-4.9,4.5-6.5,1.8-1.5,4-2.3,6.7-2.3s5.9,1.1,7.6,3.2c1.3,1.6,2,3.3,2,5.2,0,3-1.9,6.1-5.7,9.3,2.5,1,4.5,2.4,5.8,4.3,1.3,1.8,2,4,2,6.5,0,3.6-1.1,6.7-3.4,9.3-3,3.4-7.3,5.1-12.9,5.1s-4.7-.3-5.7-1c-1-.7-1.5-1.4-1.5-2.2s.2-1.1.7-1.6c.5-.4,1.1-.7,1.7-.7s1,0,1.6.2c.4,0,1.1.5,2.4,1.1,1.2.6,2.1,1,2.5,1.2.8.2,1.5.3,2.4.3,2.1,0,3.9-.8,5.4-2.4s2.3-3.5,2.3-5.7-.4-3.2-1.1-4.7c-.5-1.1-1.1-2-1.7-2.6-.9-.8-2.1-1.6-3.6-2.2-1.5-.7-3.1-1-4.7-1h-1v-.9c1.6-.2,3.2-.8,4.8-1.7,1.6-1,2.8-2.1,3.5-3.4.7-1.4,1.1-2.8,1.1-4.4s-.7-3.8-2-5.1-2.9-1.9-4.9-1.9c-3.1,0-5.8,1.7-7.9,5.1l-1-.5h0ZM327.5,107.6l-.4-.3c4-6.3,4.4-14.4,4.4-21.6v-11.7l4.2,1.5c7.3-.9,16-2.7,20.7-4.2l4.2,4.3c-.5.4-1.4.4-2.6-.1-5.8.7-14.6,1-22.1.9v2.7h18.9l2.1-2.3,4.4,3.3c-.2.3-.7.6-1.5.8v5c0,.3-2.3,1.1-3.8,1.1h-.8v-1.4h-19.2c0,7-.5,16.1-8.5,22h0ZM358.5,88.1s2.5,1.9,4.1,3.3c-.1.4-.5.6-1.1.6h-14c-.2,1.3-.3,2.6-.6,3.8h7.2l2.3-2.1,4.1,3.3c-.3.3-.7.5-1.5.6-.5,4.7-1.4,7.5-3.1,8.6-1.1.7-2.6,1.1-4.7,1.1,0-1.2-.1-2.3-.7-2.9-.6-.6-1.9-1.1-3.4-1.4v-.5c1.5.1,3.9.3,4.7.3s.9,0,1.2-.2c.7-.5,1.2-2.4,1.5-5.5h-7.8c-1.4,4.1-4.7,7.9-13,10.6l-.4-.5c8.3-4.6,9-9.8,9.2-15.1h-5.6l-.3-1.1h11.5c-.2,0-.4-.2-.6-.3-.3-1.5-1.4-3.1-2.2-4l.3-.2c6.8-.1,6.5,3.7,4.4,4.6h6.3l2.2-2.8h0ZM335.9,80.1v4.4h19.2v-4.4h-19.2Z"/></svg>