<svg width="208" height="29" fill="none" xmlns="http://www.w3.org/2000/svg"><g clip-path="url(#clip0_14_722)"><path d="M39.68 0L39.85 2.48H39.68C39.46 1.74 39.14 1.2 38.73 0.88C38.32 0.55 37.82 0.39 37.24 0.39C36.76 0.39 36.32 0.51 35.93 0.76C35.54 1.01 35.23 1.4 35.01 1.94C34.79 2.48 34.67 3.15 34.67 3.95C34.67 4.61 34.78 5.18 34.99 5.67C35.2 6.15 35.52 6.53 35.95 6.79C36.38 7.05 36.86 7.18 37.41 7.18C37.88 7.18 38.3 7.08 38.66 6.88C39.02 6.68 39.42 6.27 39.86 5.67L40.03 5.78C39.66 6.43 39.24 6.91 38.75 7.21C38.26 7.51 37.68 7.66 37.01 7.66C35.8 7.66 34.86 7.21 34.2 6.31C33.7 5.64 33.46 4.86 33.46 3.95C33.46 3.22 33.62 2.55 33.95 1.94C34.28 1.33 34.73 0.86 35.3 0.52C35.87 0.18 36.5 0.02 37.18 0.02C37.71 0.02 38.23 0.15 38.74 0.41C38.89 0.49 39 0.53 39.06 0.53C39.16 0.53 39.24 0.49 39.31 0.43C39.4 0.33 39.47 0.2 39.51 0.03H39.7L39.68 0Z" fill="white"/><path d="M48.73 7.47016H46.78L44.31 4.06016C44.13 4.06016 43.98 4.07016 43.86 4.07016C43.81 4.07016 43.76 4.07016 43.71 4.07016C43.66 4.07016 43.6 4.07016 43.54 4.07016V6.19016C43.54 6.65016 43.59 6.94016 43.69 7.05016C43.83 7.21016 44.03 7.29016 44.3 7.29016H44.59V7.49016H41.46V7.29016H41.74C42.05 7.29016 42.27 7.19016 42.4 6.99016C42.47 6.88016 42.51 6.61016 42.51 6.20016V1.46016C42.51 1.00016 42.46 0.710156 42.36 0.600156C42.22 0.440156 42.01 0.360156 41.74 0.360156H41.46V0.160156H44.12C44.9 0.160156 45.47 0.220156 45.83 0.330156C46.2 0.440156 46.51 0.650156 46.77 0.950156C47.03 1.25016 47.16 1.62016 47.16 2.03016C47.16 2.48016 47.01 2.87016 46.72 3.20016C46.43 3.53016 45.97 3.76016 45.36 3.90016L46.87 5.99016C47.21 6.47016 47.51 6.79016 47.76 6.95016C48.01 7.11016 48.33 7.21016 48.73 7.25016V7.45016V7.47016ZM43.55 3.72016C43.62 3.72016 43.68 3.72016 43.73 3.72016C43.78 3.72016 43.82 3.72016 43.85 3.72016C44.55 3.72016 45.07 3.57016 45.42 3.27016C45.77 2.97016 45.95 2.58016 45.95 2.12016C45.95 1.66016 45.81 1.29016 45.52 1.01016C45.23 0.730156 44.86 0.580156 44.39 0.580156C44.18 0.580156 43.9 0.610156 43.55 0.680156V3.72016Z" fill="white"/><path d="M51.82 0.570156V3.46016H53.42C53.84 3.46016 54.12 3.40016 54.26 3.27016C54.45 3.10016 54.55 2.81016 54.57 2.40016H54.77V4.94016H54.57C54.52 4.59016 54.47 4.36016 54.42 4.26016C54.36 4.13016 54.25 4.04016 54.1 3.96016C53.95 3.89016 53.73 3.85016 53.42 3.85016H51.82V6.26016C51.82 6.58016 51.83 6.78016 51.86 6.85016C51.89 6.92016 51.94 6.98016 52.01 7.02016C52.08 7.06016 52.22 7.08016 52.42 7.08016H53.66C54.07 7.08016 54.37 7.05016 54.56 6.99016C54.75 6.93016 54.93 6.82016 55.1 6.65016C55.32 6.43016 55.55 6.09016 55.78 5.64016H56L55.37 7.47016H49.74V7.27016H50C50.17 7.27016 50.34 7.23016 50.49 7.15016C50.6 7.09016 50.68 7.01016 50.72 6.89016C50.76 6.78016 50.78 6.54016 50.78 6.18016V1.44016C50.78 0.980156 50.73 0.690156 50.64 0.580156C50.51 0.440156 50.3 0.360156 49.99 0.360156H49.73V0.160156H55.36L55.44 1.76016H55.23C55.15 1.38016 55.07 1.11016 54.98 0.970156C54.89 0.830156 54.75 0.720156 54.57 0.640156C54.43 0.590156 54.17 0.560156 53.81 0.560156H51.81L51.82 0.570156Z" fill="white"/><path d="M62.1802 5.02023H59.3502L58.8502 6.17023C58.7302 6.45023 58.6702 6.67023 58.6702 6.81023C58.6702 6.92023 58.7202 7.02023 58.8302 7.10023C58.9402 7.18023 59.1602 7.24023 59.5202 7.26023V7.46023H57.2202V7.26023C57.5202 7.21023 57.7202 7.14023 57.8102 7.05023C57.9902 6.88023 58.2002 6.53023 58.4202 6.00023L60.9902 -0.00976562H61.1802L63.7202 6.06023C63.9202 6.55023 64.1102 6.87023 64.2802 7.01023C64.4502 7.16023 64.6802 7.24023 64.9802 7.26023V7.46023H62.1002V7.26023C62.3902 7.25023 62.5902 7.20023 62.6902 7.11023C62.7902 7.03023 62.8402 6.93023 62.8402 6.81023C62.8402 6.65023 62.7702 6.40023 62.6202 6.06023L62.1802 5.01023V5.02023ZM62.0302 4.63023L60.7902 1.68023L59.5202 4.63023H62.0302Z" fill="white"/><path d="M71.1398 0.169922L71.2198 1.87992H71.0198C70.9798 1.57992 70.9298 1.35992 70.8598 1.22992C70.7498 1.01992 70.5998 0.869922 70.4198 0.769922C70.2298 0.669922 69.9899 0.619922 69.6898 0.619922H68.6599V6.19992C68.6599 6.64992 68.7099 6.92992 68.7999 7.03992C68.9399 7.18992 69.1498 7.26992 69.4298 7.26992H69.6798V7.46992H66.5798V7.26992H66.8398C67.1498 7.26992 67.3698 7.17992 67.4998 6.98992C67.5798 6.86992 67.6199 6.60992 67.6199 6.19992V0.619922H66.7398C66.3998 0.619922 66.1598 0.649922 66.0098 0.699922C65.8198 0.769922 65.6598 0.899922 65.5298 1.08992C65.3998 1.27992 65.3198 1.54992 65.2898 1.87992H65.0898L65.1798 0.169922H71.1398Z" fill="white"/><path d="M75.7799 7.26992V7.46992H72.6499V7.26992H72.9099C73.2099 7.26992 73.4299 7.17992 73.5699 7.00992C73.6599 6.88992 73.6999 6.61992 73.6999 6.17992V1.45992C73.6999 1.08992 73.6799 0.849922 73.6299 0.729922C73.5899 0.639922 73.5199 0.559922 73.4099 0.499922C73.2499 0.409922 73.0899 0.369922 72.9099 0.369922H72.6499V0.169922H75.7799V0.369922H75.5199C75.2199 0.369922 74.9999 0.459922 74.8699 0.629922C74.7799 0.749922 74.7299 1.01992 74.7299 1.45992V6.17992C74.7299 6.54992 74.7499 6.78992 74.7999 6.90992C74.8399 6.99992 74.9099 7.07992 75.0299 7.13992C75.1799 7.22992 75.3499 7.26992 75.5199 7.26992H75.7799Z" fill="white"/><path d="M76.79 0.170156H78.77L83.23 5.65016V1.43016C83.23 0.980156 83.18 0.700156 83.08 0.590156C82.95 0.440156 82.74 0.360156 82.45 0.360156H82.2V0.160156H84.74V0.360156H84.48C84.17 0.360156 83.95 0.450156 83.82 0.640156C83.74 0.760156 83.7 1.02016 83.7 1.43016V7.58016H83.51L78.7 1.70016V6.20016C78.7 6.65016 78.75 6.93016 78.84 7.04016C78.98 7.19016 79.19 7.27016 79.47 7.27016H79.73V7.47016H77.19V7.27016H77.44C77.75 7.27016 77.97 7.18016 78.1 6.99016C78.18 6.87016 78.22 6.61016 78.22 6.20016V1.13016C78.01 0.880156 77.85 0.720156 77.74 0.640156C77.63 0.560156 77.47 0.490156 77.26 0.420156C77.16 0.390156 77 0.370156 76.79 0.370156V0.170156Z" fill="white"/><path d="M92.5502 0.000234375L92.7402 2.30023H92.5502C92.3602 1.73023 92.1102 1.29023 91.8102 1.00023C91.3802 0.580234 90.8202 0.370234 90.1402 0.370234C89.2102 0.370234 88.5002 0.740234 88.0202 1.47023C87.6102 2.09023 87.4102 2.83023 87.4102 3.69023C87.4102 4.39023 87.5502 5.02023 87.8102 5.60023C88.0802 6.17023 88.4302 6.59023 88.8702 6.86023C89.3102 7.13023 89.7502 7.26023 90.2102 7.26023C90.4802 7.26023 90.7402 7.22023 90.9902 7.16023C91.2402 7.09023 91.4802 6.99023 91.7202 6.86023V4.75023C91.7202 4.38023 91.6902 4.14023 91.6402 4.03023C91.5802 3.92023 91.5002 3.83023 91.3802 3.77023C91.2602 3.71023 91.0602 3.68023 90.7602 3.68023V3.48023H93.5902V3.68023H93.4602C93.1802 3.68023 92.9902 3.77023 92.8802 3.96023C92.8102 4.09023 92.7702 4.36023 92.7702 4.75023V6.99023C92.3602 7.21023 91.9502 7.38023 91.5502 7.48023C91.1502 7.58023 90.7002 7.64023 90.2102 7.64023C88.8002 7.64023 87.7302 7.19023 87.0002 6.28023C86.4502 5.60023 86.1802 4.82023 86.1802 3.93023C86.1802 3.29023 86.3302 2.67023 86.6402 2.08023C87.0102 1.38023 87.5102 0.840234 88.1502 0.460234C88.6902 0.150234 89.3202 -0.00976562 90.0502 -0.00976562C90.3202 -0.00976562 90.5602 0.0102344 90.7702 0.0502344C90.9902 0.0902344 91.2902 0.190234 91.6902 0.340234C91.8902 0.420234 92.0302 0.450234 92.0902 0.450234C92.1502 0.450234 92.2202 0.420234 92.2702 0.360234C92.3202 0.300234 92.3502 0.170234 92.3602 -0.00976562H92.5602L92.5502 0.000234375Z" fill="white"/><path d="M104.59 5.45016L104.77 5.49016L104.15 7.47016H98.4902V7.27016H98.7702C99.0802 7.27016 99.3002 7.17016 99.4302 6.97016C99.5002 6.85016 99.5402 6.59016 99.5402 6.17016V1.46016C99.5402 1.00016 99.4902 0.720156 99.3902 0.600156C99.2502 0.440156 99.0402 0.360156 98.7702 0.360156H98.4902V0.160156H101.8V0.360156C101.41 0.360156 101.14 0.390156 100.98 0.470156C100.82 0.550156 100.72 0.640156 100.66 0.760156C100.6 0.880156 100.57 1.15016 100.57 1.58016V6.17016C100.57 6.47016 100.6 6.67016 100.66 6.78016C100.7 6.86016 100.77 6.91016 100.86 6.95016C100.95 6.99016 101.23 7.00016 101.7 7.00016H102.23C102.79 7.00016 103.18 6.96016 103.41 6.88016C103.64 6.80016 103.84 6.65016 104.03 6.44016C104.22 6.23016 104.4 5.90016 104.59 5.45016Z" fill="white"/><path d="M110.93 5.02023H108.1L107.6 6.17023C107.48 6.45023 107.42 6.67023 107.42 6.81023C107.42 6.92023 107.47 7.02023 107.58 7.10023C107.69 7.18023 107.91 7.24023 108.27 7.26023V7.46023H105.97V7.26023C106.27 7.21023 106.47 7.14023 106.56 7.05023C106.74 6.88023 106.95 6.53023 107.17 6.00023L109.74 -0.00976562H109.93L112.47 6.06023C112.67 6.55023 112.86 6.87023 113.03 7.01023C113.2 7.16023 113.43 7.24023 113.73 7.26023V7.46023H110.85V7.26023C111.14 7.25023 111.34 7.20023 111.44 7.11023C111.54 7.03023 111.59 6.93023 111.59 6.81023C111.59 6.65023 111.52 6.40023 111.37 6.06023L110.93 5.01023V5.02023ZM110.78 4.63023L109.54 1.68023L108.27 4.63023H110.78Z" fill="white"/><path d="M114.59 0.170156H116.57L121.03 5.65016V1.43016C121.03 0.980156 120.98 0.700156 120.88 0.590156C120.75 0.440156 120.54 0.360156 120.25 0.360156H120V0.160156H122.54V0.360156H122.28C121.97 0.360156 121.75 0.450156 121.62 0.640156C121.54 0.760156 121.5 1.02016 121.5 1.43016V7.58016H121.31L116.5 1.70016V6.20016C116.5 6.65016 116.55 6.93016 116.65 7.04016C116.79 7.19016 117 7.27016 117.28 7.27016H117.54V7.47016H115V7.27016H115.25C115.56 7.27016 115.78 7.18016 115.91 6.99016C115.99 6.87016 116.03 6.61016 116.03 6.20016V1.13016C115.82 0.880156 115.66 0.720156 115.55 0.640156C115.44 0.560156 115.28 0.490156 115.07 0.420156C114.97 0.390156 114.81 0.370156 114.6 0.370156V0.170156H114.59Z" fill="white"/><path d="M123.77 7.47016V7.27016H124.05C124.36 7.27016 124.58 7.17016 124.71 6.97016C124.79 6.85016 124.83 6.59016 124.83 6.17016V1.46016C124.83 1.00016 124.78 0.720156 124.68 0.600156C124.54 0.440156 124.33 0.360156 124.06 0.360156H123.78V0.160156H126.75C127.84 0.160156 128.67 0.280156 129.24 0.530156C129.81 0.780156 130.27 1.19016 130.61 1.77016C130.96 2.35016 131.13 3.02016 131.13 3.77016C131.13 4.79016 130.82 5.63016 130.2 6.32016C129.51 7.08016 128.45 7.46016 127.03 7.46016H123.77V7.47016ZM125.85 6.94016C126.31 7.04016 126.69 7.09016 127 7.09016C127.83 7.09016 128.52 6.80016 129.07 6.21016C129.62 5.62016 129.89 4.83016 129.89 3.83016C129.89 2.83016 129.61 2.03016 129.07 1.44016C128.52 0.860156 127.81 0.570156 126.95 0.570156C126.63 0.570156 126.26 0.620156 125.85 0.730156V6.94016Z" fill="white"/><path d="M136.94 7.47016L134.12 1.33016V6.21016C134.12 6.66016 134.17 6.94016 134.27 7.05016C134.4 7.20016 134.61 7.28016 134.9 7.28016H135.16V7.48016H132.62V7.28016H132.88C133.19 7.28016 133.41 7.19016 133.54 7.00016C133.62 6.88016 133.66 6.62016 133.66 6.21016V1.43016C133.66 1.11016 133.62 0.870156 133.55 0.730156C133.5 0.630156 133.41 0.540156 133.27 0.470156C133.14 0.400156 132.92 0.360156 132.62 0.360156V0.160156H134.69L137.34 5.87016L139.95 0.160156H142.02V0.360156H141.77C141.46 0.360156 141.24 0.450156 141.11 0.640156C141.03 0.760156 140.99 1.02016 140.99 1.43016V6.20016C140.99 6.65016 141.04 6.93016 141.14 7.04016C141.27 7.19016 141.48 7.27016 141.77 7.27016H142.02V7.47016H138.92V7.27016H139.18C139.49 7.27016 139.71 7.18016 139.84 6.99016C139.92 6.87016 139.96 6.61016 139.96 6.20016V1.33016L137.14 7.47016H136.96H136.94Z" fill="white"/><path d="M148.16 5.02023H145.33L144.83 6.17023C144.71 6.45023 144.65 6.67023 144.65 6.81023C144.65 6.92023 144.7 7.02023 144.81 7.10023C144.92 7.18023 145.14 7.24023 145.5 7.26023V7.46023H143.2V7.26023C143.51 7.21023 143.7 7.14023 143.79 7.05023C143.97 6.88023 144.18 6.53023 144.4 6.00023L146.97 -0.00976562H147.16L149.7 6.06023C149.9 6.55023 150.09 6.87023 150.26 7.01023C150.43 7.16023 150.66 7.24023 150.96 7.26023V7.46023H148.08V7.26023C148.37 7.25023 148.57 7.20023 148.67 7.11023C148.77 7.03023 148.82 6.93023 148.82 6.81023C148.82 6.65023 148.75 6.40023 148.6 6.06023L148.16 5.01023V5.02023ZM148.01 4.63023L146.77 1.68023L145.5 4.63023H148.01Z" fill="white"/><path d="M159.42 7.47016H157.47L155 4.06016C154.82 4.06016 154.67 4.07016 154.55 4.07016C154.5 4.07016 154.45 4.07016 154.4 4.07016C154.35 4.07016 154.29 4.07016 154.23 4.07016V6.19016C154.23 6.65016 154.28 6.94016 154.38 7.05016C154.52 7.21016 154.72 7.29016 154.99 7.29016H155.28V7.49016H152.15V7.29016H152.43C152.74 7.29016 152.96 7.19016 153.09 6.99016C153.17 6.88016 153.2 6.61016 153.2 6.20016V1.46016C153.2 1.00016 153.15 0.710156 153.05 0.600156C152.91 0.440156 152.7 0.360156 152.43 0.360156H152.15V0.160156H154.81C155.59 0.160156 156.16 0.220156 156.53 0.330156C156.9 0.440156 157.21 0.650156 157.47 0.950156C157.73 1.25016 157.85 1.62016 157.85 2.03016C157.85 2.48016 157.7 2.87016 157.41 3.20016C157.12 3.53016 156.66 3.76016 156.05 3.90016L157.56 5.99016C157.9 6.47016 158.2 6.79016 158.45 6.95016C158.7 7.11016 159.02 7.21016 159.42 7.25016V7.45016V7.47016ZM154.23 3.72016C154.3 3.72016 154.36 3.72016 154.41 3.72016C154.46 3.72016 154.5 3.72016 154.53 3.72016C155.23 3.72016 155.75 3.57016 156.11 3.27016C156.46 2.97016 156.64 2.58016 156.64 2.12016C156.64 1.66016 156.5 1.29016 156.21 1.01016C155.93 0.730156 155.55 0.580156 155.08 0.580156C154.87 0.580156 154.59 0.610156 154.23 0.680156V3.72016Z" fill="white"/><path d="M163.5 3.42039L166.19 6.10039C166.63 6.54039 167.01 6.84039 167.32 7.00039C167.63 7.16039 167.94 7.25039 168.26 7.27039V7.47039H164.79V7.27039C165 7.27039 165.15 7.23039 165.24 7.16039C165.33 7.09039 165.38 7.01039 165.38 6.93039C165.38 6.85039 165.36 6.77039 165.33 6.70039C165.3 6.63039 165.18 6.50039 164.99 6.32039L162.47 3.83039V6.18039C162.47 6.55039 162.49 6.79039 162.54 6.91039C162.58 7.00039 162.65 7.08039 162.77 7.14039C162.92 7.23039 163.09 7.27039 163.26 7.27039H163.51V7.47039H160.4V7.27039H160.66C160.96 7.27039 161.18 7.18039 161.32 7.01039C161.41 6.89039 161.45 6.62039 161.45 6.18039V1.46039C161.45 1.09039 161.43 0.840391 161.38 0.720391C161.34 0.630391 161.27 0.560391 161.16 0.490391C161 0.400391 160.84 0.360391 160.66 0.360391H160.4V0.160391H163.51V0.360391H163.26C163.09 0.360391 162.93 0.400391 162.77 0.480391C162.66 0.540391 162.58 0.620391 162.54 0.740391C162.5 0.850391 162.48 1.09039 162.48 1.45039V3.69039C162.55 3.62039 162.8 3.39039 163.22 3.01039C164.29 2.03039 164.93 1.38039 165.15 1.05039C165.25 0.910391 165.3 0.780391 165.3 0.670391C165.3 0.590391 165.26 0.510391 165.19 0.450391C165.11 0.390391 164.99 0.350391 164.81 0.350391H164.64V0.150391H167.32V0.350391C167.16 0.350391 167.02 0.380391 166.89 0.410391C166.76 0.450391 166.6 0.530391 166.42 0.640391C166.23 0.750391 166 0.940391 165.73 1.19039C165.65 1.26039 165.29 1.63039 164.64 2.29039L163.53 3.40039L163.5 3.42039Z" fill="white"/><path d="M174.11 0V2.53H173.91C173.85 2.05 173.73 1.66 173.56 1.37C173.39 1.08 173.15 0.86 172.85 0.69C172.54 0.52 172.22 0.44 171.89 0.44C171.52 0.44 171.21 0.55 170.96 0.78C170.72 1.01 170.59 1.27 170.59 1.56C170.59 1.78 170.67 1.99 170.82 2.17C171.04 2.44 171.57 2.8 172.41 3.25C173.09 3.62 173.56 3.9 173.81 4.09C174.06 4.28 174.25 4.52 174.39 4.78C174.52 5.05 174.59 5.32 174.59 5.61C174.59 6.16 174.38 6.64 173.95 7.04C173.52 7.44 172.97 7.64 172.29 7.64C172.08 7.64 171.88 7.62 171.69 7.59C171.58 7.57 171.35 7.51 171 7.39C170.65 7.28 170.43 7.22 170.34 7.22C170.25 7.22 170.18 7.25 170.13 7.3C170.08 7.35 170.04 7.47 170.01 7.63H169.81V5.13H170.01C170.1 5.65 170.23 6.05 170.39 6.31C170.55 6.57 170.79 6.79 171.11 6.96C171.43 7.13 171.79 7.22 172.18 7.22C172.63 7.22 172.98 7.1 173.24 6.87C173.5 6.63 173.63 6.35 173.63 6.03C173.63 5.85 173.58 5.67 173.48 5.49C173.38 5.31 173.23 5.14 173.02 4.98C172.88 4.87 172.5 4.64 171.87 4.29C171.25 3.94 170.8 3.66 170.54 3.45C170.28 3.24 170.08 3.01 169.94 2.76C169.8 2.51 169.74 2.23 169.74 1.93C169.74 1.41 169.94 0.95 170.34 0.58C170.74 0.2 171.25 0.01 171.87 0.01C172.26 0.01 172.67 0.11 173.1 0.3C173.3 0.39 173.44 0.44 173.53 0.44C173.62 0.44 173.7 0.41 173.76 0.36C173.82 0.31 173.87 0.19 173.9 0.02H174.1L174.11 0Z" fill="white"/><path d="M4.91 24.6698C5.42 24.7798 5.8 24.9498 6.05 25.1898C6.4 25.5198 6.57 25.9198 6.57 26.3998C6.57 26.7598 6.45 27.1098 6.23 27.4398C6 27.7698 5.69 28.0098 5.29 28.1698C4.89 28.3198 4.28 28.3998 3.46 28.3998H0V28.1998H0.27C0.58 28.1998 0.79 28.0998 0.93 27.9098C1.01 27.7798 1.05 27.5198 1.05 27.1098V22.3898C1.05 21.9398 1 21.6498 0.89 21.5298C0.75 21.3698 0.54 21.2898 0.27 21.2898H0V21.0898H3.16C3.75 21.0898 4.22 21.1298 4.58 21.2198C5.12 21.3498 5.53 21.5798 5.81 21.9098C6.09 22.2398 6.24 22.6198 6.24 23.0398C6.24 23.4098 6.13 23.7298 5.91 24.0198C5.69 24.3098 5.36 24.5198 4.93 24.6598L4.91 24.6698ZM2.09 24.3798C2.22 24.4098 2.37 24.4198 2.55 24.4398C2.72 24.4498 2.91 24.4598 3.11 24.4598C3.63 24.4598 4.03 24.3998 4.29 24.2898C4.55 24.1798 4.76 23.9998 4.9 23.7698C5.04 23.5398 5.11 23.2798 5.11 23.0098C5.11 22.5798 4.94 22.2198 4.59 21.9198C4.24 21.6198 3.73 21.4698 3.07 21.4698C2.71 21.4698 2.39 21.5098 2.1 21.5898V24.3998L2.09 24.3798ZM2.09 27.8698C2.51 27.9698 2.92 28.0098 3.32 28.0098C3.97 28.0098 4.46 27.8598 4.81 27.5698C5.15 27.2798 5.32 26.9198 5.32 26.4898C5.32 26.2098 5.24 25.9298 5.09 25.6698C4.94 25.4098 4.68 25.1998 4.34 25.0498C3.99 24.8998 3.56 24.8198 3.05 24.8198C2.83 24.8198 2.64 24.8198 2.48 24.8298C2.32 24.8298 2.2 24.8498 2.1 24.8698V27.8598L2.09 27.8698Z" fill="white"/><path d="M13.3201 21.2898V21.0898H15.9001V21.2898H15.6301C15.3401 21.2898 15.1201 21.4098 14.9701 21.6498C14.8901 21.7598 14.8601 22.0198 14.8601 22.4298V25.3898C14.8601 26.1198 14.7901 26.6898 14.6401 27.0898C14.5001 27.4898 14.2101 27.8398 13.7801 28.1298C13.3501 28.4198 12.7801 28.5598 12.0401 28.5598C11.2401 28.5598 10.6401 28.4198 10.2301 28.1498C9.82012 27.8698 9.52012 27.4998 9.35012 27.0298C9.24012 26.7098 9.18012 26.1098 9.18012 25.2298V22.3798C9.18012 21.9298 9.12012 21.6398 8.99012 21.4998C8.87012 21.3598 8.67012 21.2898 8.39012 21.2898H8.12012V21.0898H11.2701V21.2898H10.9901C10.6901 21.2898 10.4701 21.3898 10.3401 21.5798C10.2501 21.7098 10.2101 21.9798 10.2101 22.3898V25.5698C10.2101 25.8498 10.2401 26.1798 10.2901 26.5398C10.3401 26.9098 10.4401 27.1898 10.5701 27.3998C10.7101 27.5998 10.9001 27.7698 11.1601 27.9098C11.4201 28.0398 11.7301 28.1098 12.1001 28.1098C12.5801 28.1098 13.0001 28.0098 13.3801 27.7998C13.7601 27.5898 14.0101 27.3298 14.1501 26.9998C14.2901 26.6698 14.3601 26.1198 14.3601 25.3498V22.3898C14.3601 21.9298 14.3101 21.6498 14.2101 21.5298C14.0701 21.3698 13.8601 21.2898 13.5901 21.2898H13.3101H13.3201Z" fill="white"/><path d="M20.3102 28.1996V28.3996H17.1802V28.1996H17.4402C17.7402 28.1996 17.9602 28.1096 18.1002 27.9396C18.1902 27.8196 18.2302 27.5496 18.2302 27.1096V22.3896C18.2302 22.0196 18.2102 21.7796 18.1602 21.6596C18.1202 21.5696 18.0502 21.4896 17.9402 21.4296C17.7802 21.3396 17.6202 21.2996 17.4402 21.2996H17.1802V21.0996H20.3102V21.2996H20.0502C19.7502 21.2996 19.5302 21.3896 19.4002 21.5596C19.3102 21.6796 19.2602 21.9496 19.2602 22.3896V27.1096C19.2602 27.4796 19.2802 27.7196 19.3302 27.8396C19.3702 27.9296 19.4402 28.0096 19.5602 28.0696C19.7102 28.1596 19.8802 28.1996 20.0502 28.1996H20.3102Z" fill="white"/><path d="M27.7799 26.3701L27.9599 26.4101L27.3399 28.3901H21.6899V28.1901H21.9699C22.2799 28.1901 22.4999 28.0901 22.6299 27.8901C22.7099 27.7701 22.7399 27.5101 22.7399 27.0901V22.3801C22.7399 21.9201 22.6899 21.6401 22.5899 21.5201C22.4499 21.3601 22.2399 21.2801 21.9699 21.2801H21.6899V21.0801H24.9999V21.2801C24.6099 21.2801 24.3399 21.3101 24.1799 21.3901C24.0199 21.4701 23.9199 21.5601 23.8599 21.6801C23.7999 21.8001 23.7699 22.0701 23.7699 22.5001V27.0901C23.7699 27.3901 23.7999 27.5901 23.8599 27.7001C23.8999 27.7801 23.9699 27.8301 24.0599 27.8701C24.1499 27.9101 24.4299 27.9201 24.8999 27.9201H25.4299C25.9899 27.9201 26.3799 27.8801 26.6099 27.8001C26.8399 27.7201 27.0399 27.5701 27.2299 27.3601C27.4199 27.1501 27.5999 26.8201 27.7899 26.3701H27.7799Z" fill="white"/><path d="M29.27 28.3903V28.1903H29.55C29.86 28.1903 30.08 28.0903 30.21 27.8903C30.29 27.7703 30.33 27.5103 30.33 27.0903V22.3703C30.33 21.9103 30.28 21.6303 30.18 21.5103C30.04 21.3503 29.83 21.2703 29.56 21.2703H29.28V21.0703H32.25C33.34 21.0703 34.17 21.1903 34.74 21.4403C35.31 21.6903 35.77 22.1003 36.11 22.6803C36.46 23.2603 36.63 23.9303 36.63 24.6803C36.63 25.7003 36.32 26.5403 35.7 27.2303C35.01 27.9903 33.95 28.3703 32.53 28.3703H29.27V28.3903ZM31.35 27.8703C31.81 27.9703 32.19 28.0203 32.5 28.0203C33.33 28.0203 34.02 27.7303 34.57 27.1403C35.12 26.5503 35.39 25.7603 35.39 24.7603C35.39 23.7603 35.12 22.9603 34.57 22.3703C34.02 21.7903 33.32 21.5003 32.45 21.5003C32.13 21.5003 31.76 21.5503 31.35 21.6603V27.8703Z" fill="white"/><path d="M41.3302 28.1996V28.3996H38.2002V28.1996H38.4602C38.7602 28.1996 38.9802 28.1096 39.1202 27.9396C39.2102 27.8196 39.2502 27.5496 39.2502 27.1096V22.3896C39.2502 22.0196 39.2302 21.7796 39.1802 21.6596C39.1402 21.5696 39.0702 21.4896 38.9602 21.4296C38.8002 21.3396 38.6402 21.2996 38.4602 21.2996H38.2002V21.0996H41.3302V21.2996H41.0702C40.7702 21.2996 40.5602 21.3896 40.4202 21.5596C40.3302 21.6796 40.2902 21.9496 40.2902 22.3896V27.1096C40.2902 27.4796 40.3102 27.7196 40.3602 27.8396C40.4002 27.9296 40.4702 28.0096 40.5902 28.0696C40.7402 28.1596 40.9102 28.1996 41.0802 28.1996H41.3402H41.3302Z" fill="white"/><path d="M42.3301 21.0898H44.3101L48.7701 26.5698V22.3598C48.7701 21.9098 48.7201 21.6298 48.6201 21.5198C48.4901 21.3698 48.2801 21.2898 47.9901 21.2898H47.7401V21.0898H50.2801V21.2898H50.0201C49.7101 21.2898 49.4901 21.3798 49.3601 21.5698C49.2801 21.6898 49.2401 21.9498 49.2401 22.3598V28.5098H49.0501L44.2401 22.6298V27.1298C44.2401 27.5798 44.2901 27.8598 44.3901 27.9698C44.5301 28.1198 44.7401 28.1998 45.0201 28.1998H45.2801V28.3998H42.7401V28.1998H42.9901C43.3001 28.1998 43.5201 28.1098 43.6501 27.9198C43.7301 27.7998 43.7701 27.5398 43.7701 27.1298V22.0498C43.5601 21.7998 43.4001 21.6398 43.2901 21.5598C43.1801 21.4798 43.0201 21.4098 42.8101 21.3398C42.7101 21.3098 42.5501 21.2898 42.3401 21.2898V21.0898H42.3301Z" fill="white"/><path d="M58.0899 20.9199L58.2799 23.2299H58.0899C57.8999 22.6599 57.6499 22.2199 57.3499 21.9299C56.9199 21.5099 56.3599 21.2999 55.6699 21.2999C54.7399 21.2999 54.0299 21.6699 53.5499 22.3999C53.1399 23.0199 52.9399 23.7599 52.9399 24.6199C52.9399 25.3199 53.0699 25.9499 53.3399 26.5299C53.6099 27.0999 53.9599 27.5199 54.3999 27.7899C54.8399 28.0599 55.2799 28.1899 55.7399 28.1899C56.0099 28.1899 56.2699 28.1499 56.5199 28.0899C56.7699 28.0199 57.0099 27.9199 57.2499 27.7899V25.6799C57.2499 25.3099 57.2199 25.0699 57.1699 24.9599C57.1099 24.8499 57.0299 24.7599 56.9099 24.6999C56.7899 24.6399 56.5899 24.6099 56.2899 24.6099V24.4099H59.1199V24.6099H58.9799C58.6999 24.6099 58.5099 24.6999 58.3999 24.8899C58.3299 25.0199 58.2899 25.2899 58.2899 25.6799V27.9199C57.8799 28.1399 57.4699 28.3099 57.0699 28.4099C56.6699 28.5099 56.2199 28.5699 55.7299 28.5699C54.3199 28.5699 53.2499 28.1199 52.5099 27.2099C51.9599 26.5299 51.6899 25.7499 51.6899 24.8599C51.6899 24.2199 51.8399 23.5999 52.1499 23.0099C52.5199 22.3099 53.0199 21.7699 53.6599 21.3899C54.1899 21.0799 54.8299 20.9199 55.5599 20.9199C55.8299 20.9199 56.0699 20.9399 56.2799 20.9799C56.4999 21.0199 56.8099 21.1199 57.1999 21.2699C57.3999 21.3499 57.5299 21.3799 57.5999 21.3799C57.6699 21.3799 57.7299 21.3499 57.7799 21.2899C57.8299 21.2299 57.8599 21.0999 57.8699 20.9199H58.0699H58.0899Z" fill="white"/><path d="M73.9398 21.0898V21.2898C73.7498 21.2898 73.5998 21.3298 73.4798 21.3898C73.3598 21.4598 73.2498 21.5898 73.1398 21.7698C73.0698 21.8998 72.9498 22.1898 72.7998 22.6698L70.7698 28.5598H70.5498L68.8898 23.8898L67.2398 28.5598H67.0498L64.8798 22.4998C64.7198 22.0498 64.6198 21.7798 64.5698 21.6998C64.4998 21.5598 64.3998 21.4598 64.2798 21.3998C64.1598 21.3298 63.9898 21.2998 63.7798 21.2998V21.0998H66.4798V21.2998H66.3498C66.1598 21.2998 66.0198 21.3398 65.9098 21.4298C65.7998 21.5198 65.7598 21.6198 65.7598 21.7398C65.7598 21.8598 65.8398 22.1498 65.9998 22.6098L67.4398 26.7098L68.6498 23.2298L68.4298 22.6198L68.2598 22.1298C68.1798 21.9498 68.0998 21.7898 68.0098 21.6598C67.9598 21.5898 67.9098 21.5298 67.8398 21.4898C67.7498 21.4298 67.6598 21.3798 67.5698 21.3498C67.4998 21.3298 67.3898 21.3198 67.2498 21.3198V21.1198H70.0898V21.3198H69.8998C69.6998 21.3198 69.5498 21.3598 69.4598 21.4498C69.3698 21.5398 69.3198 21.6498 69.3198 21.7998C69.3198 21.9798 69.3998 22.2998 69.5598 22.7598L70.9598 26.7298L72.3498 22.7098C72.5098 22.2698 72.5898 21.9598 72.5898 21.7798C72.5898 21.6998 72.5598 21.6198 72.5098 21.5498C72.4598 21.4798 72.3898 21.4298 72.3098 21.3998C72.1698 21.3498 71.9898 21.3198 71.7798 21.3198V21.1198H73.9598L73.9398 21.0898Z" fill="white"/><path d="M78.94 20.9199C79.89 20.9199 80.71 21.2799 81.4 21.9999C82.09 22.7199 82.44 23.6199 82.44 24.6999C82.44 25.7799 82.09 26.7299 81.39 27.4599C80.69 28.1899 79.84 28.5599 78.85 28.5599C77.86 28.5599 77 28.1999 76.32 27.4899C75.64 26.7799 75.29 25.8499 75.29 24.7199C75.29 23.5899 75.68 22.6099 76.47 21.8799C77.16 21.2399 77.98 20.9299 78.93 20.9299L78.94 20.9199ZM78.84 21.3199C78.19 21.3199 77.66 21.5599 77.27 22.0499C76.78 22.6499 76.53 23.5399 76.53 24.6999C76.53 25.8599 76.79 26.8099 77.29 27.4499C77.68 27.9399 78.2 28.1799 78.84 28.1799C79.53 28.1799 80.09 27.9099 80.54 27.3799C80.99 26.8399 81.21 25.9999 81.21 24.8499C81.21 23.5999 80.96 22.6699 80.47 22.0599C80.07 21.5699 79.53 21.3299 78.83 21.3299L78.84 21.3199Z" fill="white"/><path d="M83.6099 21.0898H85.5899L90.0499 26.5698V22.3598C90.0499 21.9098 89.9999 21.6298 89.8999 21.5198C89.7699 21.3698 89.5599 21.2898 89.2699 21.2898H89.0199V21.0898H91.5599V21.2898H91.2999C90.9899 21.2898 90.7699 21.3798 90.6399 21.5698C90.5599 21.6898 90.5199 21.9498 90.5199 22.3598V28.5098H90.3299L85.5199 22.6298V27.1298C85.5199 27.5798 85.5699 27.8598 85.6699 27.9698C85.8099 28.1198 86.0199 28.1998 86.2999 28.1998H86.5599V28.3998H84.0199V28.1998H84.2699C84.5799 28.1998 84.7999 28.1098 84.9299 27.9198C85.0099 27.7998 85.0499 27.5398 85.0499 27.1298V22.0498C84.8399 21.7998 84.6799 21.6398 84.5699 21.5598C84.4599 21.4798 84.2999 21.4098 84.0899 21.3398C83.9899 21.3098 83.8299 21.2898 83.6199 21.2898V21.0898H83.6099Z" fill="white"/><path d="M92.79 28.3903V28.1903H93.06C93.37 28.1903 93.59 28.0903 93.72 27.8903C93.8 27.7703 93.84 27.5103 93.84 27.0903V22.3703C93.84 21.9103 93.79 21.6303 93.69 21.5103C93.55 21.3503 93.34 21.2703 93.07 21.2703H92.8V21.0703H95.77C96.86 21.0703 97.69 21.1903 98.26 21.4403C98.83 21.6903 99.29 22.1003 99.63 22.6803C99.98 23.2603 100.15 23.9303 100.15 24.6803C100.15 25.7003 99.84 26.5403 99.22 27.2303C98.53 27.9903 97.47 28.3703 96.05 28.3703H92.79V28.3903ZM94.87 27.8703C95.33 27.9703 95.71 28.0203 96.02 28.0203C96.85 28.0203 97.54 27.7303 98.09 27.1403C98.64 26.5503 98.91 25.7603 98.91 24.7603C98.91 23.7603 98.64 22.9603 98.09 22.3703C97.54 21.7903 96.84 21.5003 95.97 21.5003C95.65 21.5003 95.28 21.5503 94.87 21.6603V27.8703Z" fill="white"/><path d="M103.75 21.4901V24.3801H105.36C105.78 24.3801 106.05 24.3201 106.19 24.1901C106.38 24.0201 106.48 23.7301 106.5 23.3201H106.7V25.8601H106.5C106.45 25.5101 106.4 25.2801 106.35 25.1801C106.29 25.0501 106.18 24.9601 106.03 24.8801C105.88 24.8101 105.66 24.7701 105.35 24.7701H103.74V27.1801C103.74 27.5001 103.75 27.7001 103.78 27.7701C103.81 27.8401 103.86 27.9001 103.93 27.9401C104 27.9801 104.14 28.0001 104.34 28.0001H105.58C105.99 28.0001 106.29 27.9701 106.48 27.9101C106.67 27.8501 106.85 27.7401 107.02 27.5701C107.24 27.3501 107.47 27.0101 107.7 26.5601H107.92L107.29 28.3901H101.66V28.1901H101.92C102.09 28.1901 102.25 28.1501 102.41 28.0701C102.52 28.0101 102.6 27.9301 102.64 27.8101C102.68 27.7001 102.7 27.4601 102.7 27.1001V22.3601C102.7 21.9001 102.65 21.6101 102.56 21.5001C102.43 21.3601 102.22 21.2801 101.91 21.2801H101.65V21.0801H107.28L107.36 22.6801H107.15C107.07 22.3001 106.99 22.0301 106.9 21.8901C106.81 21.7501 106.67 21.6401 106.49 21.5601C106.35 21.5101 106.09 21.4801 105.73 21.4801H103.73L103.75 21.4901Z" fill="white"/><path d="M116.52 28.3896H114.57L112.1 24.9796C111.92 24.9796 111.77 24.9896 111.65 24.9896C111.6 24.9896 111.55 24.9896 111.5 24.9896C111.45 24.9896 111.39 24.9896 111.33 24.9896V27.1096C111.33 27.5696 111.38 27.8596 111.48 27.9696C111.62 28.1296 111.82 28.2096 112.09 28.2096H112.37V28.4096H109.24V28.2096H109.51C109.82 28.2096 110.04 28.1096 110.17 27.9096C110.25 27.7996 110.28 27.5296 110.28 27.1196V22.3996C110.28 21.9396 110.23 21.6496 110.13 21.5396C109.99 21.3796 109.78 21.2996 109.51 21.2996H109.24V21.0996H111.9C112.68 21.0996 113.25 21.1596 113.62 21.2696C113.99 21.3796 114.3 21.5896 114.56 21.8896C114.82 22.1896 114.95 22.5596 114.95 22.9696C114.95 23.4196 114.8 23.8096 114.51 24.1396C114.22 24.4696 113.76 24.6996 113.15 24.8396L114.66 26.9296C115 27.4096 115.3 27.7296 115.55 27.8896C115.8 28.0496 116.12 28.1496 116.52 28.1896V28.3896ZM111.33 24.6396C111.4 24.6396 111.46 24.6396 111.51 24.6396C111.56 24.6396 111.6 24.6396 111.63 24.6396C112.33 24.6396 112.85 24.4896 113.2 24.1896C113.55 23.8896 113.73 23.4996 113.73 23.0396C113.73 22.5796 113.59 22.2096 113.3 21.9296C113.02 21.6496 112.64 21.4996 112.17 21.4996C111.96 21.4996 111.68 21.5296 111.32 21.5996V24.6396H111.33Z" fill="white"/><path d="M119.56 21.4898V24.3598H120.89C121.2 24.3598 121.42 24.2898 121.56 24.1598C121.7 24.0298 121.8 23.7598 121.84 23.3598H122.04V25.8298H121.84C121.84 25.5498 121.8 25.3398 121.73 25.2098C121.66 25.0798 121.56 24.9798 121.44 24.9098C121.32 24.8398 121.13 24.8098 120.89 24.8098H119.56V27.0998C119.56 27.4698 119.58 27.7098 119.63 27.8298C119.67 27.9198 119.74 27.9998 119.86 28.0598C120.02 28.1498 120.18 28.1898 120.36 28.1898H120.62V28.3898H117.49V28.1898H117.75C118.05 28.1898 118.27 28.0998 118.41 27.9298C118.5 27.8098 118.54 27.5398 118.54 27.0998V22.3798C118.54 22.0098 118.52 21.7698 118.47 21.6498C118.43 21.5598 118.36 21.4798 118.25 21.4198C118.1 21.3298 117.93 21.2898 117.75 21.2898H117.49V21.0898H122.92L122.99 22.6898H122.8C122.71 22.3498 122.6 22.0998 122.47 21.9398C122.35 21.7798 122.19 21.6598 122.01 21.5898C121.83 21.5198 121.55 21.4798 121.17 21.4798H119.56V21.4898Z" fill="white"/><path d="M129.58 21.2898V21.0898H132.16V21.2898H131.88C131.59 21.2898 131.37 21.4098 131.22 21.6498C131.15 21.7598 131.11 22.0198 131.11 22.4298V25.3898C131.11 26.1198 131.04 26.6898 130.89 27.0898C130.75 27.4898 130.46 27.8398 130.03 28.1298C129.6 28.4198 129.03 28.5598 128.29 28.5598C127.49 28.5598 126.89 28.4198 126.47 28.1498C126.06 27.8698 125.77 27.4998 125.59 27.0298C125.47 26.7098 125.42 26.1098 125.42 25.2298V22.3798C125.42 21.9298 125.36 21.6398 125.23 21.4998C125.11 21.3598 124.91 21.2898 124.63 21.2898H124.35V21.0898H127.51V21.2898H127.23C126.93 21.2898 126.71 21.3898 126.58 21.5798C126.49 21.7098 126.44 21.9798 126.44 22.3898V25.5698C126.44 25.8498 126.47 26.1798 126.52 26.5398C126.57 26.9098 126.67 27.1898 126.8 27.3998C126.94 27.5998 127.13 27.7698 127.39 27.9098C127.65 28.0398 127.96 28.1098 128.33 28.1098C128.81 28.1098 129.23 28.0098 129.61 27.7998C129.99 27.5898 130.24 27.3298 130.38 26.9998C130.52 26.6698 130.59 26.1198 130.59 25.3498V22.3898C130.59 21.9298 130.54 21.6498 130.44 21.5298C130.3 21.3698 130.09 21.2898 129.82 21.2898H129.55H129.58Z" fill="white"/><path d="M139.49 26.3701L139.67 26.4101L139.05 28.3901H133.4V28.1901H133.68C133.99 28.1901 134.21 28.0901 134.34 27.8901C134.42 27.7701 134.45 27.5101 134.45 27.0901V22.3801C134.45 21.9201 134.4 21.6401 134.3 21.5201C134.16 21.3601 133.95 21.2801 133.68 21.2801H133.4V21.0801H136.71V21.2801C136.32 21.2801 136.05 21.3101 135.89 21.3901C135.73 21.4701 135.63 21.5601 135.57 21.6801C135.51 21.8001 135.48 22.0701 135.48 22.5001V27.0901C135.48 27.3901 135.51 27.5901 135.57 27.7001C135.61 27.7801 135.68 27.8301 135.77 27.8701C135.86 27.9101 136.14 27.9201 136.61 27.9201H137.14C137.7 27.9201 138.09 27.8801 138.32 27.8001C138.55 27.7201 138.75 27.5701 138.94 27.3601C139.13 27.1501 139.31 26.8201 139.5 26.3701H139.49Z" fill="white"/><path d="M148.53 28.3898L145.71 22.2498V27.1298C145.71 27.5798 145.76 27.8598 145.86 27.9698C145.99 28.1198 146.2 28.1998 146.49 28.1998H146.75V28.3998H144.21V28.1998H144.47C144.78 28.1998 145 28.1098 145.13 27.9198C145.21 27.7998 145.25 27.5398 145.25 27.1298V22.3598C145.25 22.0398 145.21 21.7998 145.14 21.6598C145.09 21.5598 145 21.4698 144.86 21.3998C144.72 21.3298 144.51 21.2898 144.21 21.2898V21.0898H146.28L148.93 26.7998L151.54 21.0898H153.61V21.2898H153.36C153.05 21.2898 152.83 21.3798 152.7 21.5698C152.62 21.6898 152.58 21.9498 152.58 22.3598V27.1298C152.58 27.5798 152.63 27.8598 152.73 27.9698C152.86 28.1198 153.07 28.1998 153.36 28.1998H153.61V28.3998H150.51V28.1998H150.77C151.08 28.1998 151.3 28.1098 151.43 27.9198C151.51 27.7998 151.55 27.5398 151.55 27.1298V22.2498L148.73 28.3898H148.55H148.53Z" fill="white"/><path d="M157.01 21.4901V24.3801H158.61C159.03 24.3801 159.31 24.3201 159.44 24.1901C159.63 24.0201 159.73 23.7301 159.75 23.3201H159.95V25.8601H159.75C159.7 25.5101 159.65 25.2801 159.6 25.1801C159.54 25.0501 159.43 24.9601 159.28 24.8801C159.13 24.8101 158.91 24.7701 158.6 24.7701H157V27.1801C157 27.5001 157.01 27.7001 157.04 27.7701C157.07 27.8401 157.12 27.9001 157.19 27.9401C157.26 27.9801 157.4 28.0001 157.6 28.0001H158.84C159.25 28.0001 159.55 27.9701 159.74 27.9101C159.93 27.8501 160.11 27.7401 160.28 27.5701C160.5 27.3501 160.73 27.0101 160.96 26.5601H161.18L160.55 28.3901H154.92V28.1901H155.18C155.35 28.1901 155.52 28.1501 155.67 28.0701C155.79 28.0101 155.86 27.9301 155.91 27.8101C155.95 27.7001 155.97 27.4601 155.97 27.1001V22.3601C155.97 21.9001 155.92 21.6101 155.83 21.5001C155.7 21.3601 155.49 21.2801 155.18 21.2801H154.92V21.0801H160.55L160.63 22.6801H160.42C160.34 22.3001 160.26 22.0301 160.17 21.8901C160.08 21.7501 159.94 21.6401 159.76 21.5601C159.62 21.5101 159.36 21.4801 159 21.4801H157L157.01 21.4901Z" fill="white"/><path d="M166.84 28.3898L164.02 22.2498V27.1298C164.02 27.5798 164.07 27.8598 164.16 27.9698C164.29 28.1198 164.5 28.1998 164.79 28.1998H165.05V28.3998H162.51V28.1998H162.77C163.08 28.1998 163.3 28.1098 163.43 27.9198C163.51 27.7998 163.55 27.5398 163.55 27.1298V22.3598C163.55 22.0398 163.51 21.7998 163.44 21.6598C163.39 21.5598 163.3 21.4698 163.16 21.3998C163.03 21.3298 162.81 21.2898 162.51 21.2898V21.0898H164.58L167.23 26.7998L169.84 21.0898H171.91V21.2898H171.66C171.35 21.2898 171.13 21.3798 171 21.5698C170.92 21.6898 170.88 21.9498 170.88 22.3598V27.1298C170.88 27.5798 170.93 27.8598 171.03 27.9698C171.16 28.1198 171.37 28.1998 171.66 28.1998H171.91V28.3998H168.81V28.1998H169.07C169.38 28.1998 169.6 28.1098 169.73 27.9198C169.81 27.7998 169.85 27.5398 169.85 27.1298V22.2498L167.03 28.3898H166.85H166.84Z" fill="white"/><path d="M177.05 20.9199C178 20.9199 178.82 21.2799 179.51 21.9999C180.2 22.7199 180.55 23.6199 180.55 24.6999C180.55 25.7799 180.2 26.7299 179.5 27.4599C178.8 28.1899 177.95 28.5599 176.96 28.5599C175.97 28.5599 175.11 28.1999 174.43 27.4899C173.75 26.7799 173.4 25.8499 173.4 24.7199C173.4 23.5899 173.79 22.6099 174.58 21.8799C175.27 21.2399 176.09 20.9299 177.04 20.9299L177.05 20.9199ZM176.94 21.3199C176.29 21.3199 175.76 21.5599 175.37 22.0499C174.88 22.6499 174.63 23.5399 174.63 24.6999C174.63 25.8599 174.88 26.8099 175.39 27.4499C175.78 27.9399 176.3 28.1799 176.94 28.1799C177.63 28.1799 178.19 27.9099 178.64 27.3799C179.09 26.8399 179.31 25.9999 179.31 24.8499C179.31 23.5999 179.06 22.6699 178.57 22.0599C178.18 21.5699 177.63 21.3299 176.93 21.3299L176.94 21.3199Z" fill="white"/><path d="M189.31 28.3896H187.36L184.89 24.9796C184.71 24.9796 184.56 24.9896 184.44 24.9896C184.39 24.9896 184.34 24.9896 184.29 24.9896C184.24 24.9896 184.18 24.9896 184.12 24.9896V27.1096C184.12 27.5696 184.17 27.8596 184.27 27.9696C184.41 28.1296 184.61 28.2096 184.88 28.2096H185.17V28.4096H182.04V28.2096H182.32C182.63 28.2096 182.85 28.1096 182.98 27.9096C183.06 27.7996 183.09 27.5296 183.09 27.1196V22.3996C183.09 21.9396 183.04 21.6496 182.94 21.5396C182.8 21.3796 182.59 21.2996 182.32 21.2996H182.04V21.0996H184.7C185.48 21.0996 186.05 21.1596 186.42 21.2696C186.79 21.3796 187.1 21.5896 187.36 21.8896C187.62 22.1896 187.74 22.5596 187.74 22.9696C187.74 23.4196 187.59 23.8096 187.3 24.1396C187.01 24.4696 186.55 24.6996 185.94 24.8396L187.45 26.9296C187.79 27.4096 188.09 27.7296 188.34 27.8896C188.59 28.0496 188.91 28.1496 189.31 28.1896V28.3896ZM184.13 24.6396C184.2 24.6396 184.26 24.6396 184.31 24.6396C184.36 24.6396 184.4 24.6396 184.43 24.6396C185.13 24.6396 185.65 24.4896 186.01 24.1896C186.36 23.8896 186.54 23.4996 186.54 23.0396C186.54 22.5796 186.4 22.2096 186.11 21.9296C185.82 21.6496 185.45 21.4996 184.98 21.4996C184.77 21.4996 184.49 21.5296 184.13 21.5996V24.6396Z" fill="white"/><path d="M193.5 28.1996V28.3996H190.37V28.1996H190.63C190.93 28.1996 191.15 28.1096 191.29 27.9396C191.38 27.8196 191.42 27.5496 191.42 27.1096V22.3896C191.42 22.0196 191.4 21.7796 191.35 21.6596C191.31 21.5696 191.24 21.4896 191.13 21.4296C190.97 21.3396 190.81 21.2996 190.63 21.2996H190.37V21.0996H193.5V21.2996H193.24C192.94 21.2996 192.72 21.3896 192.59 21.5596C192.5 21.6796 192.45 21.9496 192.45 22.3896V27.1096C192.45 27.4796 192.47 27.7196 192.52 27.8396C192.56 27.9296 192.63 28.0096 192.75 28.0696C192.9 28.1596 193.07 28.1996 193.24 28.1996H193.5Z" fill="white"/><path d="M196.96 21.4901V24.3801H198.56C198.98 24.3801 199.26 24.3201 199.39 24.1901C199.58 24.0201 199.68 23.7301 199.7 23.3201H199.9V25.8601H199.7C199.65 25.5101 199.6 25.2801 199.55 25.1801C199.49 25.0501 199.38 24.9601 199.23 24.8801C199.08 24.8101 198.86 24.7701 198.55 24.7701H196.95V27.1801C196.95 27.5001 196.96 27.7001 196.99 27.7701C197.02 27.8401 197.07 27.9001 197.14 27.9401C197.21 27.9801 197.35 28.0001 197.55 28.0001H198.79C199.2 28.0001 199.5 27.9701 199.69 27.9101C199.88 27.8501 200.06 27.7401 200.23 27.5701C200.45 27.3501 200.68 27.0101 200.91 26.5601H201.13L200.5 28.3901H194.87V28.1901H195.13C195.3 28.1901 195.47 28.1501 195.62 28.0701C195.74 28.0101 195.81 27.9301 195.85 27.8101C195.89 27.7001 195.91 27.4601 195.91 27.1001V22.3601C195.91 21.9001 195.86 21.6101 195.77 21.5001C195.64 21.3601 195.43 21.2801 195.12 21.2801H194.86V21.0801H200.49L200.57 22.6801H200.36C200.28 22.3001 200.2 22.0301 200.11 21.8901C200.02 21.7501 199.88 21.6401 199.7 21.5601C199.56 21.5101 199.3 21.4801 198.94 21.4801H196.94L196.96 21.4901Z" fill="white"/><path d="M207.33 20.9199V23.4499H207.13C207.07 22.9699 206.95 22.5799 206.78 22.2899C206.61 21.9999 206.38 21.7799 206.07 21.6099C205.76 21.4399 205.44 21.3599 205.11 21.3599C204.74 21.3599 204.43 21.4699 204.18 21.6999C203.94 21.9299 203.81 22.1899 203.81 22.4799C203.81 22.6999 203.89 22.9099 204.04 23.0899C204.26 23.3599 204.79 23.7199 205.63 24.1699C206.31 24.5399 206.78 24.8199 207.03 25.0099C207.28 25.1999 207.47 25.4399 207.61 25.6999C207.74 25.9699 207.81 26.2399 207.81 26.5299C207.81 27.0799 207.6 27.5599 207.17 27.9599C206.74 28.3599 206.19 28.5599 205.51 28.5599C205.3 28.5599 205.1 28.5399 204.91 28.5099C204.8 28.4899 204.57 28.4299 204.22 28.3099C203.87 28.1999 203.65 28.1399 203.56 28.1399C203.47 28.1399 203.4 28.1699 203.35 28.2199C203.3 28.2699 203.26 28.3899 203.23 28.5499H203.03V26.0499H203.23C203.32 26.5699 203.45 26.9699 203.61 27.2299C203.77 27.4899 204.01 27.7099 204.33 27.8799C204.66 28.0499 205.01 28.1399 205.4 28.1399C205.85 28.1399 206.2 28.0199 206.46 27.7899C206.72 27.5499 206.85 27.2699 206.85 26.9499C206.85 26.7699 206.8 26.5899 206.7 26.4099C206.6 26.2299 206.45 26.0599 206.24 25.8999C206.1 25.7899 205.72 25.5599 205.09 25.2099C204.47 24.8599 204.02 24.5799 203.76 24.3699C203.5 24.1599 203.3 23.9299 203.16 23.6799C203.02 23.4299 202.96 23.1499 202.96 22.8499C202.96 22.3299 203.16 21.8699 203.56 21.4999C203.96 21.1199 204.47 20.9299 205.09 20.9299C205.48 20.9299 205.89 21.0299 206.32 21.2199C206.52 21.3099 206.66 21.3599 206.74 21.3599C206.83 21.3599 206.91 21.3299 206.97 21.2799C207.03 21.2299 207.08 21.1099 207.11 20.9399H207.31L207.33 20.9199Z" fill="white"/></g><defs><clipPath id="clip0_14_722"><rect width="207.81" height="28.57" fill="white"/></clipPath></defs></svg>