<svg width="217" height="35" fill="none" xmlns="http://www.w3.org/2000/svg"><path d="M57.1602 27.53L54.8302 33.93H35.2202V33.02C40.9902 27.76 45.0502 23.46 47.4002 20.13C49.7502 16.8 50.9302 13.75 50.9302 10.99C50.9302 8.88 50.2902 7.15 48.9902 5.79C47.7002 4.43 46.1502 3.76 44.3602 3.76C42.7302 3.76 41.2602 4.24 39.9602 5.19C38.6602 6.15 37.7002 7.55 37.0802 9.39H36.1702C36.5802 6.37 37.6302 4.05 39.3202 2.43C41.0102 0.81 43.1202 0 45.6602 0C48.3602 0 50.6102 0.87 52.4102 2.6C54.2102 4.33 55.1202 6.37 55.1202 8.73C55.1202 10.41 54.7302 12.1 53.9402 13.78C52.7302 16.43 50.7702 19.23 48.0602 22.19C43.9902 26.63 41.4502 29.31 40.4402 30.23H49.1202C50.8802 30.23 52.1202 30.17 52.8302 30.03C53.5402 29.9 54.1802 29.63 54.7502 29.23C55.3202 28.83 55.8202 28.26 56.2402 27.53H57.1502H57.1602Z" fill="white"/><path d="M80.6801 0.0100098V0.92001C78.5201 1.13001 76.7601 1.56001 75.4001 2.21001C74.0401 2.85001 72.6901 3.84001 71.3601 5.16001C70.0301 6.48001 68.9301 7.96001 68.0501 9.58001C67.1801 11.21 66.4401 13.14 65.8601 15.38C68.2101 13.76 70.5701 12.95 72.9401 12.95C75.3101 12.95 77.1801 13.87 78.8401 15.7C80.5101 17.53 81.3401 19.88 81.3401 22.76C81.3401 25.64 80.5001 28.07 78.8101 30.36C76.7801 33.14 74.1101 34.53 70.7701 34.53C68.5001 34.53 66.5701 33.78 64.9901 32.28C61.8901 29.35 60.3301 25.57 60.3301 20.91C60.3301 17.94 60.9301 15.11 62.1201 12.43C63.3101 9.75001 65.0201 7.37001 67.2301 5.30001C69.4401 3.23001 71.5601 1.83001 73.5901 1.11001C75.6201 0.39001 77.5001 0.0300098 79.2501 0.0300098H80.6701L80.6801 0.0100098ZM65.4401 17.16C65.1501 19.37 65.0001 21.15 65.0001 22.5C65.0001 24.07 65.2901 25.77 65.8701 27.61C66.4501 29.45 67.3101 30.91 68.4601 31.98C69.2901 32.75 70.3101 33.13 71.5001 33.13C72.9201 33.13 74.1901 32.46 75.3101 31.12C76.4301 29.78 76.9901 27.87 76.9901 25.39C76.9901 22.6 76.4301 20.18 75.3201 18.14C74.2101 16.1 72.6301 15.08 70.5901 15.08C69.9701 15.08 69.3001 15.21 68.5901 15.47C67.8801 15.73 66.8301 16.29 65.4401 17.16Z" fill="white"/><path d="M105.24 27.53L102.91 33.93H83.2998V33.02C89.0698 27.76 93.1298 23.46 95.4798 20.13C97.8298 16.8 99.0098 13.75 99.0098 10.99C99.0098 8.88 98.3698 7.15 97.0698 5.79C95.7798 4.43 94.2298 3.76 92.4398 3.76C90.8098 3.76 89.3398 4.24 88.0398 5.19C86.7398 6.15 85.7798 7.55 85.1598 9.39H84.2498C84.6598 6.37 85.7098 4.05 87.3998 2.43C89.0898 0.81 91.1998 0 93.7398 0C96.4398 0 98.6898 0.87 100.49 2.6C102.29 4.33 103.2 6.37 103.2 8.73C103.2 10.41 102.81 12.1 102.02 13.78C100.81 16.43 98.8498 19.23 96.1398 22.19C92.0698 26.63 89.5298 29.31 88.5198 30.23H97.1998C98.9598 30.23 100.2 30.17 100.91 30.03C101.62 29.9 102.26 29.63 102.83 29.23C103.4 28.83 103.9 28.26 104.32 27.53H105.23H105.24Z" fill="white"/><path d="M120.66 19.15H107.08V16.76H120.66V19.15Z" fill="white"/><path d="M132.14 17.19C129.51 15.03 127.82 13.3 127.06 11.99C126.3 10.68 125.92 9.33 125.92 7.92C125.92 5.76 126.75 3.9 128.42 2.34C130.09 0.78 132.3 0 135.06 0C137.82 0 139.9 0.73 141.53 2.18C143.16 3.63 143.98 5.29 143.98 7.16C143.98 8.4 143.54 9.67 142.66 10.96C141.78 12.25 139.94 13.77 137.15 15.52C140.03 17.74 141.93 19.49 142.86 20.76C144.1 22.43 144.72 24.18 144.72 26.03C144.72 28.37 143.83 30.36 142.05 32.02C140.27 33.68 137.93 34.51 135.04 34.51C131.89 34.51 129.43 33.52 127.66 31.54C126.25 29.96 125.55 28.22 125.55 26.34C125.55 24.87 126.04 23.41 127.03 21.97C128.02 20.52 129.72 18.93 132.14 17.18V17.19ZM133.29 18.12C131.93 19.26 130.93 20.51 130.28 21.86C129.63 23.21 129.3 24.67 129.3 26.23C129.3 28.34 129.88 30.02 131.03 31.29C132.18 32.56 133.65 33.19 135.43 33.19C137.21 33.19 138.61 32.69 139.67 31.7C140.73 30.7 141.26 29.49 141.26 28.07C141.26 26.89 140.95 25.84 140.33 24.91C139.17 23.18 136.83 20.92 133.3 18.12H133.29ZM135.99 14.57C137.95 12.81 139.19 11.41 139.71 10.39C140.23 9.37 140.49 8.21 140.49 6.92C140.49 5.2 140.01 3.86 139.04 2.89C138.08 1.92 136.76 1.43 135.09 1.43C133.42 1.43 132.07 1.91 131.02 2.88C129.97 3.84 129.45 4.97 129.45 6.26C129.45 7.11 129.67 7.96 130.1 8.81C130.53 9.66 131.15 10.47 131.95 11.24L135.97 14.57H135.99Z" fill="white"/><path d="M156.18 17.19C153.55 15.03 151.85 13.3 151.1 11.99C150.34 10.68 149.96 9.33 149.96 7.92C149.96 5.76 150.79 3.9 152.46 2.34C154.13 0.78 156.34 0 159.1 0C161.86 0 163.94 0.73 165.57 2.18C167.2 3.63 168.02 5.29 168.02 7.16C168.02 8.4 167.58 9.67 166.7 10.96C165.82 12.25 163.98 13.77 161.19 15.52C164.07 17.74 165.97 19.49 166.9 20.76C168.14 22.43 168.76 24.18 168.76 26.03C168.76 28.37 167.87 30.36 166.09 32.02C164.31 33.68 161.97 34.51 159.08 34.51C155.93 34.51 153.47 33.52 151.7 31.54C150.29 29.96 149.59 28.22 149.59 26.34C149.59 24.87 150.08 23.41 151.07 21.97C152.06 20.52 153.76 18.93 156.18 17.18V17.19ZM157.33 18.12C155.97 19.26 154.97 20.51 154.32 21.86C153.67 23.21 153.34 24.67 153.34 26.23C153.34 28.34 153.92 30.02 155.07 31.29C156.22 32.56 157.69 33.19 159.47 33.19C161.25 33.19 162.65 32.69 163.71 31.7C164.77 30.7 165.3 29.49 165.3 28.07C165.3 26.89 164.99 25.84 164.37 24.91C163.21 23.18 160.87 20.92 157.34 18.12H157.33ZM160.02 14.57C161.98 12.81 163.22 11.41 163.75 10.39C164.27 9.37 164.53 8.21 164.53 6.92C164.53 5.2 164.05 3.86 163.08 2.89C162.12 1.92 160.8 1.43 159.13 1.43C157.46 1.43 156.11 1.91 155.06 2.88C154.01 3.84 153.49 4.97 153.49 6.26C153.49 7.11 153.71 7.96 154.14 8.81C154.57 9.66 155.19 10.47 155.99 11.24L160.01 14.57H160.02Z" fill="white"/><path d="M180.22 17.19C177.59 15.03 175.89 13.3 175.14 11.99C174.38 10.68 174 9.33 174 7.92C174 5.76 174.83 3.9 176.5 2.34C178.17 0.78 180.38 0 183.14 0C185.9 0 187.98 0.73 189.61 2.18C191.24 3.63 192.06 5.29 192.06 7.16C192.06 8.4 191.62 9.67 190.74 10.96C189.86 12.25 188.02 13.77 185.23 15.52C188.11 17.74 190.01 19.49 190.94 20.76C192.18 22.43 192.8 24.18 192.8 26.03C192.8 28.37 191.91 30.36 190.13 32.02C188.35 33.68 186.01 34.51 183.12 34.51C179.97 34.51 177.51 33.52 175.74 31.54C174.33 29.96 173.63 28.22 173.63 26.34C173.63 24.87 174.12 23.41 175.11 21.97C176.1 20.52 177.8 18.93 180.22 17.18V17.19ZM181.37 18.12C180.01 19.26 179.01 20.51 178.36 21.86C177.71 23.21 177.38 24.67 177.38 26.23C177.38 28.34 177.96 30.02 179.11 31.29C180.26 32.56 181.73 33.19 183.51 33.19C185.29 33.19 186.69 32.69 187.75 31.7C188.81 30.7 189.34 29.49 189.34 28.07C189.34 26.89 189.03 25.84 188.41 24.91C187.25 23.18 184.91 20.92 181.38 18.12H181.37ZM184.07 14.57C186.03 12.81 187.27 11.41 187.79 10.39C188.31 9.37 188.57 8.21 188.57 6.92C188.57 5.2 188.09 3.86 187.12 2.89C186.16 1.92 184.84 1.43 183.17 1.43C181.5 1.43 180.15 1.91 179.1 2.88C178.05 3.84 177.53 4.97 177.53 6.26C177.53 7.11 177.75 7.96 178.18 8.81C178.61 9.66 179.23 10.47 180.03 11.24L184.05 14.57H184.07Z" fill="white"/><path d="M204.26 17.19C201.63 15.03 199.93 13.3 199.18 11.99C198.42 10.68 198.04 9.33 198.04 7.92C198.04 5.76 198.87 3.9 200.54 2.34C202.21 0.78 204.42 0 207.18 0C209.94 0 212.02 0.73 213.65 2.18C215.28 3.63 216.1 5.29 216.1 7.16C216.1 8.4 215.66 9.67 214.78 10.96C213.9 12.25 212.06 13.77 209.27 15.52C212.15 17.74 214.05 19.49 214.98 20.76C216.22 22.43 216.84 24.18 216.84 26.03C216.84 28.37 215.95 30.36 214.17 32.02C212.39 33.68 210.05 34.51 207.16 34.51C204.01 34.51 201.55 33.52 199.78 31.54C198.37 29.96 197.67 28.22 197.67 26.34C197.67 24.87 198.16 23.41 199.15 21.97C200.14 20.52 201.84 18.93 204.26 17.18V17.19ZM205.41 18.12C204.05 19.26 203.05 20.51 202.4 21.86C201.75 23.21 201.42 24.67 201.42 26.23C201.42 28.34 202 30.02 203.15 31.29C204.3 32.56 205.77 33.19 207.55 33.19C209.33 33.19 210.73 32.69 211.79 31.7C212.85 30.7 213.38 29.49 213.38 28.07C213.38 26.89 213.07 25.84 212.45 24.91C211.29 23.18 208.95 20.92 205.42 18.12H205.41ZM208.11 14.57C210.07 12.81 211.31 11.41 211.84 10.39C212.36 9.37 212.62 8.21 212.62 6.92C212.62 5.2 212.14 3.86 211.17 2.89C210.21 1.92 208.89 1.43 207.22 1.43C205.55 1.43 204.2 1.91 203.15 2.88C202.1 3.84 201.58 4.97 201.58 6.26C201.58 7.11 201.8 7.96 202.23 8.81C202.66 9.66 203.28 10.47 204.08 11.24L208.1 14.57H208.11Z" fill="white"/><path d="M0 22.82C0 20.48 0.35 18.46 1.06 16.77C1.77 15.08 2.71 13.82 3.88 12.99C4.79 12.33 5.73 12 6.7 12C8.28 12 9.69 12.8 10.94 14.41C12.51 16.4 13.29 19.1 13.29 22.5C13.29 24.88 12.95 26.91 12.26 28.58C11.57 30.25 10.7 31.46 9.63 32.21C8.56 32.96 7.54 33.34 6.55 33.34C4.59 33.34 2.96 32.18 1.66 29.87C0.56 27.92 0.01 25.57 0.01 22.82H0ZM2.97 23.19C2.97 26.02 3.32 28.33 4.01 30.12C4.59 31.62 5.44 32.38 6.59 32.38C7.14 32.38 7.7 32.14 8.29 31.64C8.88 31.15 9.32 30.33 9.62 29.18C10.08 27.44 10.32 24.99 10.32 21.83C10.32 19.49 10.08 17.53 9.59 15.97C9.23 14.81 8.76 13.98 8.18 13.5C7.77 13.17 7.27 13 6.68 13C5.99 13 5.38 13.31 4.85 13.93C4.12 14.77 3.63 16.09 3.37 17.88C3.11 19.68 2.98 21.45 2.98 23.2L2.97 23.19Z" fill="white"/><path d="M28.2702 12V12.56C26.9402 12.69 25.8502 12.96 25.0002 13.36C24.1602 13.76 23.3202 14.37 22.5002 15.19C21.6802 16.01 20.9902 16.92 20.4502 17.93C19.9102 18.94 19.4602 20.13 19.0902 21.51C20.5402 20.51 22.0002 20.01 23.4702 20.01C24.9402 20.01 26.0902 20.58 27.1202 21.71C28.1502 22.84 28.6702 24.3 28.6702 26.08C28.6702 27.86 28.1502 29.36 27.1102 30.78C25.8602 32.5 24.2002 33.36 22.1402 33.36C20.7402 33.36 19.5402 32.9 18.5602 31.97C16.6402 30.16 15.6802 27.82 15.6802 24.94C15.6802 23.1 16.0502 21.35 16.7902 19.7C17.5302 18.04 18.5802 16.57 19.9502 15.29C21.3202 14.01 22.6302 13.14 23.8802 12.7C25.1302 12.26 26.3002 12.03 27.3802 12.03H28.2602L28.2702 12ZM18.8502 22.6C18.6702 23.96 18.5802 25.07 18.5802 25.9C18.5802 26.87 18.7602 27.92 19.1202 29.06C19.4802 30.2 20.0102 31.1 20.7202 31.76C21.2402 32.23 21.8602 32.47 22.6002 32.47C23.4802 32.47 24.2602 32.06 24.9602 31.23C25.6502 30.4 26.0002 29.22 26.0002 27.68C26.0002 25.95 25.6602 24.46 24.9702 23.2C24.2802 21.94 23.3102 21.31 22.0502 21.31C21.6702 21.31 21.2502 21.39 20.8202 21.55C20.3802 21.71 19.7302 22.06 18.8702 22.59L18.8502 22.6Z" fill="white"/></svg>