<svg width="124" height="93" fill="none" xmlns="http://www.w3.org/2000/svg"><path opacity="0.65" d="M0 92.065H123.41" stroke="white" stroke-width="1.23" stroke-miterlimit="10"/><path d="M12.108 19.415C12.9733 19.4297 13.6553 19.5323 14.154 19.723C14.6527 19.9137 15.0047 20.1483 15.21 20.427C15.43 20.7057 15.5327 20.9917 15.518 21.285C15.5033 21.5637 15.4007 21.8057 15.21 22.011C15.034 22.2163 14.7993 22.341 14.506 22.385C14.2127 22.429 13.8973 22.3483 13.56 22.143C13.4867 21.659 13.2887 21.1823 12.966 20.713C12.658 20.229 12.3133 19.8477 11.932 19.569L12.108 19.415ZM20.93 22.385L22.074 21.241L24.12 23.177C24.032 23.2503 23.922 23.3017 23.79 23.331C23.6727 23.3603 23.504 23.3823 23.284 23.397C22.9907 23.7197 22.6167 24.0717 22.162 24.453C21.722 24.8197 21.304 25.1277 20.908 25.377L20.688 25.223C20.7467 24.959 20.8053 24.651 20.864 24.299C20.9373 23.947 21.0033 23.6023 21.062 23.265C21.1207 22.913 21.1573 22.6197 21.172 22.385H20.93ZM6.696 21.241C6.97467 22.0477 7.09933 22.7663 7.07 23.397C7.04067 24.0277 6.90867 24.5557 6.674 24.981C6.454 25.4063 6.19 25.7217 5.882 25.927C5.67667 26.059 5.44933 26.1397 5.2 26.169C4.95067 26.1983 4.716 26.1617 4.496 26.059C4.29067 25.9563 4.13667 25.795 4.034 25.575C3.91667 25.2523 3.93867 24.9663 4.1 24.717C4.26133 24.453 4.48867 24.2477 4.782 24.101C5.06067 23.9543 5.31733 23.7417 5.552 23.463C5.80133 23.1697 5.99933 22.8323 6.146 22.451C6.30733 22.0697 6.37333 21.6663 6.344 21.241H6.696ZM22.052 22.385V23.023H6.366V22.385H22.052ZM22.624 28.611C22.536 28.7137 22.4333 28.7797 22.316 28.809C22.1987 28.8237 22.0227 28.7943 21.788 28.721C21.2013 29.029 20.4973 29.3443 19.676 29.667C18.8547 29.9897 17.9893 30.2977 17.08 30.591C16.1707 30.8843 15.276 31.141 14.396 31.361L14.198 31.075C14.9167 30.679 15.6647 30.2317 16.442 29.733C17.2193 29.2197 17.9453 28.7063 18.62 28.193C19.3093 27.665 19.874 27.1957 20.314 26.785L22.624 28.611ZM16.486 29.865C16.8967 31.009 17.4907 32.0063 18.268 32.857C19.06 33.7077 19.9693 34.4263 20.996 35.013C22.0227 35.585 23.1007 36.0543 24.23 36.421L24.186 36.663C23.3207 36.8097 22.734 37.4037 22.426 38.445C21.3847 37.873 20.4533 37.1983 19.632 36.421C18.8107 35.6437 18.1067 34.7343 17.52 33.693C16.948 32.637 16.4933 31.4197 16.156 30.041L16.486 29.865ZM15.342 33.275C14.506 34.0377 13.494 34.771 12.306 35.475C11.1327 36.1643 9.85667 36.7803 8.478 37.323C7.09933 37.8657 5.706 38.3057 4.298 38.643L4.144 38.291C5.43467 37.8217 6.70333 37.2203 7.95 36.487C9.21133 35.7537 10.37 34.9397 11.426 34.045C12.482 33.1357 13.34 32.2043 14 31.251L15.342 33.275ZM13.956 30.459C13.2373 31.0017 12.372 31.5517 11.36 32.109C10.3627 32.6663 9.29933 33.1797 8.17 33.649C7.04067 34.1183 5.91867 34.507 4.804 34.815L4.672 34.507C5.66933 34.0523 6.66667 33.5023 7.664 32.857C8.676 32.2117 9.61467 31.515 10.48 30.767C11.36 30.0043 12.0787 29.2637 12.636 28.545L13.956 30.459ZM11.734 27.533C12.702 28.1783 13.494 28.9263 14.11 29.777C14.7407 30.613 15.21 31.4857 15.518 32.395C15.8407 33.3043 16.0313 34.1917 16.09 35.057C16.1487 35.9223 16.0973 36.6997 15.936 37.389C15.7747 38.0783 15.5253 38.621 15.188 39.017C14.924 39.325 14.55 39.545 14.066 39.677C13.582 39.8237 12.988 39.8897 12.284 39.875C12.2693 39.2883 12.1007 38.8483 11.778 38.555C11.646 38.423 11.4113 38.291 11.074 38.159C10.7367 38.0417 10.3553 37.939 9.93 37.851L9.908 37.543C10.216 37.5723 10.5607 37.6017 10.942 37.631C11.338 37.6603 11.712 37.6823 12.064 37.697C12.416 37.7117 12.68 37.719 12.856 37.719C13.0173 37.719 13.1493 37.7043 13.252 37.675C13.3547 37.6457 13.4353 37.587 13.494 37.499C13.6993 37.2203 13.8533 36.8097 13.956 36.267C14.0587 35.7243 14.0953 35.101 14.066 34.397C14.0367 33.6783 13.9267 32.9303 13.736 32.153C13.56 31.361 13.2813 30.5837 12.9 29.821C12.5333 29.0583 12.064 28.3617 11.492 27.731L11.734 27.533ZM15.078 25.883C14.3447 26.6457 13.4427 27.357 12.372 28.017C11.316 28.677 10.1647 29.2637 8.918 29.777C7.67133 30.2757 6.388 30.7083 5.068 31.075L4.892 30.767C5.904 30.327 6.872 29.821 7.796 29.249C8.73467 28.6623 9.6 28.0537 10.392 27.423C11.1987 26.7923 11.888 26.1617 12.46 25.531H15.078V25.883ZM19.126 24.035C19.126 24.035 19.192 24.0937 19.324 24.211C19.4707 24.3283 19.654 24.475 19.874 24.651C20.1087 24.827 20.3507 25.025 20.6 25.245C20.864 25.4503 21.0987 25.641 21.304 25.817C21.2893 25.9343 21.2233 26.0223 21.106 26.081C21.0033 26.1397 20.8713 26.169 20.71 26.169H7.224L7.048 25.531H17.916L19.126 24.035ZM42.204 29.007C42.1307 29.2123 41.9033 29.3517 41.522 29.425V39.215C41.522 39.2737 41.434 39.347 41.258 39.435C41.082 39.5377 40.862 39.6257 40.598 39.699C40.3487 39.787 40.0847 39.831 39.806 39.831H39.388V29.469L40.29 28.303L42.204 29.007ZM50.146 25.707C50.1313 25.8537 50.0727 25.9783 49.97 26.081C49.882 26.169 49.706 26.235 49.442 26.279V38.291H47.308V25.443L50.146 25.707ZM46.78 20.229C46.736 20.361 46.6553 20.4637 46.538 20.537C46.4207 20.6103 46.2153 20.6543 45.922 20.669C45.526 21.7837 45.0273 22.935 44.426 24.123C43.8393 25.311 43.1353 26.477 42.314 27.621C41.4927 28.765 40.5393 29.8357 39.454 30.833C38.3687 31.8303 37.1367 32.703 35.758 33.451L35.538 33.231C36.638 32.3363 37.6207 31.339 38.486 30.239C39.366 29.1243 40.136 27.951 40.796 26.719C41.4707 25.487 42.0427 24.2477 42.512 23.001C42.9813 21.7543 43.348 20.5517 43.612 19.393L46.78 20.229ZM53.732 36.289C53.732 36.289 53.8053 36.355 53.952 36.487C54.1133 36.6043 54.3187 36.7583 54.568 36.949C54.8173 37.1397 55.074 37.345 55.338 37.565C55.6167 37.785 55.8733 37.9977 56.108 38.203C56.0493 38.4377 55.844 38.555 55.492 38.555H42.16L41.984 37.917H52.434L53.732 36.289ZM52.412 29.029C52.412 29.029 52.4853 29.0877 52.632 29.205C52.7933 29.3223 52.9913 29.4763 53.226 29.667C53.4607 29.843 53.7027 30.0337 53.952 30.239C54.2013 30.4443 54.4287 30.6497 54.634 30.855C54.6193 30.9723 54.5607 31.0603 54.458 31.119C54.3553 31.1777 54.2233 31.207 54.062 31.207H43.128L42.952 30.569H51.202L52.412 29.029ZM53.358 22.121C53.358 22.121 53.4387 22.187 53.6 22.319C53.7613 22.451 53.9667 22.6197 54.216 22.825C54.4653 23.0157 54.7293 23.2283 55.008 23.463C55.3013 23.683 55.5653 23.8957 55.8 24.101C55.7413 24.3357 55.536 24.453 55.184 24.453H36.33L36.132 23.815H51.994L53.358 22.121ZM83.762 26.873C83.718 27.0343 83.6153 27.159 83.454 27.247C83.3073 27.335 83.124 27.379 82.904 27.379C82.7427 28.6697 82.486 29.8797 82.134 31.009C81.782 32.1237 81.2687 33.1503 80.594 34.089C79.934 35.0277 79.0613 35.871 77.976 36.619C76.9053 37.367 75.5707 38.0123 73.972 38.555C72.3733 39.0977 70.4667 39.5303 68.252 39.853L68.12 39.545C70.1293 39.061 71.838 38.489 73.246 37.829C74.654 37.1543 75.8127 36.4063 76.722 35.585C77.646 34.7637 78.372 33.869 78.9 32.901C79.4427 31.9183 79.8313 30.8697 80.066 29.755C80.3153 28.6403 80.4693 27.467 80.528 26.235L83.762 26.873ZM71.508 33.781C73.7227 34.0743 75.6293 34.4043 77.228 34.771C78.8267 35.123 80.154 35.497 81.21 35.893C82.266 36.2743 83.0947 36.6557 83.696 37.037C84.312 37.4183 84.7373 37.7703 84.972 38.093C85.2213 38.4303 85.3313 38.731 85.302 38.995C85.2727 39.259 85.148 39.4643 84.928 39.611C84.7227 39.7577 84.4587 39.831 84.136 39.831C83.828 39.8457 83.5127 39.765 83.19 39.589C82.398 38.9877 81.3933 38.3717 80.176 37.741C78.9587 37.0957 77.5727 36.465 76.018 35.849C74.4633 35.233 72.7547 34.661 70.892 34.133L71.508 33.781ZM70.892 34.133C71.156 33.6637 71.4493 33.099 71.772 32.439C72.0947 31.779 72.4173 31.075 72.74 30.327C73.0773 29.579 73.3927 28.831 73.686 28.083C73.994 27.335 74.2653 26.6457 74.5 26.015C74.7493 25.3697 74.9327 24.8343 75.05 24.409L78.086 25.355C78.042 25.487 77.932 25.597 77.756 25.685C77.5947 25.773 77.272 25.7877 76.788 25.729L77.272 25.443C77.0667 25.927 76.7953 26.543 76.458 27.291C76.1353 28.0243 75.7687 28.8237 75.358 29.689C74.9473 30.5397 74.5293 31.3757 74.104 32.197C73.6787 33.0183 73.2753 33.7517 72.894 34.397L70.892 34.133ZM85.456 27.445C85.456 27.445 85.5293 27.5037 85.676 27.621C85.8373 27.7383 86.0353 27.8923 86.27 28.083C86.5193 28.259 86.776 28.457 87.04 28.677C87.304 28.8823 87.546 29.0877 87.766 29.293C87.722 29.5277 87.524 29.645 87.172 29.645H68.142L67.944 29.007H84.18L85.456 27.445ZM75.908 19.371C76.8613 19.503 77.6093 19.7083 78.152 19.987C78.6947 20.2657 79.0687 20.581 79.274 20.933C79.494 21.2703 79.582 21.6003 79.538 21.923C79.5087 22.2457 79.3767 22.5097 79.142 22.715C78.922 22.9203 78.6507 23.0303 78.328 23.045C78.0053 23.0597 77.6607 22.9203 77.294 22.627C77.2793 22.2603 77.1913 21.8863 77.03 21.505C76.8833 21.109 76.6927 20.7423 76.458 20.405C76.238 20.053 75.996 19.7597 75.732 19.525L75.908 19.371ZM84.598 23.001L85.83 21.813L87.942 23.837C87.854 23.9103 87.744 23.9617 87.612 23.991C87.4947 24.0203 87.326 24.0423 87.106 24.057C86.8713 24.3063 86.5927 24.585 86.27 24.893C85.9473 25.1863 85.61 25.4723 85.258 25.751C84.9207 26.015 84.5907 26.2497 84.268 26.455L84.07 26.301C84.1727 25.993 84.2753 25.641 84.378 25.245C84.4807 24.849 84.576 24.453 84.664 24.057C84.752 23.6463 84.818 23.2943 84.862 23.001H84.598ZM70.078 21.769C70.4153 22.5903 70.5987 23.331 70.628 23.991C70.6573 24.6363 70.584 25.1863 70.408 25.641C70.2467 26.0957 70.0193 26.4403 69.726 26.675C69.5353 26.8363 69.308 26.939 69.044 26.983C68.78 27.0123 68.538 26.983 68.318 26.895C68.098 26.7923 67.9293 26.6163 67.812 26.367C67.6947 26.0443 67.7093 25.7437 67.856 25.465C68.0027 25.1863 68.23 24.959 68.538 24.783C68.7727 24.6217 68.9853 24.387 69.176 24.079C69.3813 23.771 69.5353 23.419 69.638 23.023C69.7553 22.6123 69.7847 22.2017 69.726 21.791L70.078 21.769ZM86.006 23.001V23.639H69.902V23.001H86.006ZM105.718 28.633C106.627 28.9263 107.353 29.2563 107.896 29.623C108.439 29.9897 108.835 30.3637 109.084 30.745C109.333 31.1117 109.458 31.4563 109.458 31.779C109.473 32.087 109.399 32.3437 109.238 32.549C109.091 32.7397 108.886 32.8497 108.622 32.879C108.373 32.8937 108.101 32.791 107.808 32.571C107.705 32.1457 107.529 31.7057 107.28 31.251C107.031 30.7963 106.745 30.3563 106.422 29.931C106.099 29.491 105.791 29.1097 105.498 28.787L105.718 28.633ZM105.85 39.237C105.85 39.281 105.777 39.3543 105.63 39.457C105.483 39.5597 105.285 39.6477 105.036 39.721C104.787 39.809 104.493 39.853 104.156 39.853H103.804V22.099L105.85 21.307V39.237ZM112.472 37.807C112.472 37.895 112.391 37.9977 112.23 38.115C112.083 38.2323 111.878 38.335 111.614 38.423C111.35 38.511 111.071 38.555 110.778 38.555H110.404V22.979V22.033L112.582 22.979H117.774V23.617H112.472V37.807ZM116.168 22.979L117.224 21.791L119.468 23.529C119.409 23.6317 119.292 23.727 119.116 23.815C118.94 23.8883 118.735 23.9543 118.5 24.013V37.609C118.485 37.653 118.383 37.7263 118.192 37.829C118.001 37.917 117.774 37.9977 117.51 38.071C117.246 38.1443 116.989 38.181 116.74 38.181H116.41V22.979H116.168ZM117.818 35.255V35.893H111.306V35.255H117.818ZM105.454 26.939C104.97 28.8017 104.237 30.525 103.254 32.109C102.271 33.6783 101.054 35.0717 99.602 36.289L99.316 36.025C99.976 35.1743 100.563 34.2357 101.076 33.209C101.604 32.1677 102.051 31.0823 102.418 29.953C102.785 28.8237 103.085 27.7017 103.32 26.587H105.454V26.939ZM109.854 21.549C109.737 21.6517 109.568 21.703 109.348 21.703C109.128 21.703 108.864 21.6517 108.556 21.549C107.808 21.7543 106.935 21.9597 105.938 22.165C104.941 22.3557 103.892 22.5317 102.792 22.693C101.707 22.8543 100.643 22.9717 99.602 23.045L99.514 22.715C100.438 22.4657 101.406 22.1503 102.418 21.769C103.445 21.3877 104.413 20.999 105.322 20.603C106.231 20.1923 106.979 19.811 107.566 19.459L109.854 21.549ZM108.072 24.981C108.072 24.981 108.145 25.047 108.292 25.179C108.439 25.2963 108.622 25.4503 108.842 25.641C109.062 25.8317 109.289 26.037 109.524 26.257C109.773 26.4623 109.993 26.6677 110.184 26.873C110.14 27.1077 109.942 27.225 109.59 27.225H99.756L99.58 26.587H106.928L108.072 24.981ZM15.408 68.529C16.948 68.6903 18.2313 68.947 19.258 69.299C20.2847 69.6363 21.106 70.025 21.722 70.465C22.3527 70.8903 22.7927 71.3157 23.042 71.741C23.306 72.1663 23.416 72.5477 23.372 72.885C23.328 73.2223 23.174 73.4717 22.91 73.633C22.646 73.7943 22.294 73.8163 21.854 73.699C21.5167 73.259 21.084 72.8043 20.556 72.335C20.0427 71.8803 19.478 71.433 18.862 70.993C18.2607 70.553 17.6447 70.1423 17.014 69.761C16.398 69.365 15.8113 69.035 15.254 68.771L15.408 68.529ZM15.672 64.613C15.6427 64.7597 15.562 64.8917 15.43 65.009C15.3127 65.1117 15.1293 65.1777 14.88 65.207C14.7773 65.9697 14.6307 66.703 14.44 67.407C14.264 68.0963 13.9707 68.7563 13.56 69.387C13.164 70.003 12.5847 70.5823 11.822 71.125C11.0593 71.653 10.062 72.1443 8.83 72.599C7.598 73.0537 6.058 73.4717 4.21 73.853L4.056 73.479C5.552 72.995 6.79867 72.4963 7.796 71.983C8.79333 71.455 9.6 70.9123 10.216 70.355C10.832 69.783 11.294 69.1817 11.602 68.551C11.9247 67.9057 12.1447 67.2383 12.262 66.549C12.394 65.845 12.482 65.097 12.526 64.305L15.672 64.613ZM21.502 65.119C21.502 65.119 21.5827 65.185 21.744 65.317C21.9053 65.4343 22.1033 65.5883 22.338 65.779C22.5873 65.9697 22.844 66.175 23.108 66.395C23.3867 66.615 23.636 66.8203 23.856 67.011C23.8267 67.1283 23.7607 67.2163 23.658 67.275C23.5553 67.3337 23.4233 67.363 23.262 67.363H4.804L4.606 66.725H20.226L21.502 65.119ZM19.874 54.163C19.83 54.295 19.742 54.3977 19.61 54.471C19.478 54.5443 19.2873 54.581 19.038 54.581C18.774 54.8743 18.4587 55.1897 18.092 55.527C17.7253 55.8643 17.3367 56.1943 16.926 56.517C16.5153 56.8397 16.112 57.1403 15.716 57.419H15.342C15.5473 57.0377 15.7453 56.6197 15.936 56.165C16.1267 55.6957 16.31 55.219 16.486 54.735C16.662 54.251 16.8087 53.8183 16.926 53.437L19.874 54.163ZM8.72 53.525C9.61467 53.657 10.3113 53.8623 10.81 54.141C11.3233 54.405 11.6827 54.6983 11.888 55.021C12.108 55.3437 12.2033 55.659 12.174 55.967C12.1593 56.275 12.0567 56.5317 11.866 56.737C11.6753 56.9277 11.4333 57.0377 11.14 57.067C10.8613 57.0963 10.5533 56.9863 10.216 56.737C10.172 56.385 10.062 56.0183 9.886 55.637C9.71 55.2557 9.49733 54.8963 9.248 54.559C9.01333 54.207 8.77133 53.9137 8.522 53.679L8.72 53.525ZM15.012 57.177V63.623H12.746V57.177H15.012ZM19.676 58.673C19.676 58.673 19.7493 58.7317 19.896 58.849C20.0427 58.9517 20.226 59.091 20.446 59.267C20.666 59.443 20.9007 59.6337 21.15 59.839C21.414 60.0297 21.6487 60.2203 21.854 60.411C21.7953 60.6457 21.5973 60.763 21.26 60.763H6.564L6.388 60.125H18.488L19.676 58.673ZM21.018 55.527C21.018 55.527 21.0913 55.5857 21.238 55.703C21.3993 55.8203 21.5973 55.9743 21.832 56.165C22.0667 56.341 22.316 56.5317 22.58 56.737C22.844 56.9423 23.086 57.1477 23.306 57.353C23.2473 57.5877 23.042 57.705 22.69 57.705H5.354L5.178 57.067H19.764L21.018 55.527ZM21.722 61.665C21.722 61.665 21.7953 61.731 21.942 61.863C22.1033 61.9803 22.3013 62.1343 22.536 62.325C22.7853 62.5157 23.042 62.721 23.306 62.941C23.57 63.161 23.812 63.3663 24.032 63.557C24.0027 63.6743 23.9293 63.7623 23.812 63.821C23.7093 63.8797 23.5847 63.909 23.438 63.909H4.474L4.298 63.271H20.468L21.722 61.665ZM36.902 57.089C36.858 57.2797 36.7627 57.419 36.616 57.507C36.484 57.595 36.2933 57.6537 36.044 57.683C35.956 59.3403 35.7727 60.961 35.494 62.545C35.23 64.1143 34.7973 65.603 34.196 67.011C33.6093 68.419 32.788 69.7097 31.732 70.883C30.676 72.0563 29.3193 73.0537 27.662 73.875L27.42 73.677C28.784 72.6797 29.8913 71.5357 30.742 70.245C31.6073 68.9543 32.2673 67.5683 32.722 66.087C33.1913 64.591 33.5067 63.0363 33.668 61.423C33.844 59.8097 33.9247 58.1963 33.91 56.583L36.902 57.089ZM27.288 59.333C27.7867 59.333 28.4247 59.3183 29.202 59.289C29.9793 59.2597 30.8373 59.2157 31.776 59.157C32.7293 59.0983 33.7193 59.0323 34.746 58.959C35.7727 58.871 36.7847 58.7757 37.782 58.673L37.826 59.003C36.6673 59.3403 35.3327 59.6923 33.822 60.059C32.3113 60.4257 30.5293 60.785 28.476 61.137C28.3293 61.4157 28.1313 61.577 27.882 61.621L27.288 59.333ZM28.542 65.427C30.038 65.9257 31.292 66.4243 32.304 66.923C33.316 67.4217 34.1227 67.913 34.724 68.397C35.3253 68.8663 35.758 69.3137 36.022 69.739C36.3007 70.1497 36.4473 70.5163 36.462 70.839C36.4767 71.147 36.4033 71.3963 36.242 71.587C36.0807 71.763 35.868 71.8657 35.604 71.895C35.34 71.9243 35.0687 71.851 34.79 71.675C34.4673 71.1763 34.0493 70.6557 33.536 70.113C33.0373 69.5557 32.4727 69.013 31.842 68.485C31.226 67.957 30.5953 67.4583 29.95 66.989C29.3193 66.5197 28.7107 66.109 28.124 65.757L28.542 65.427ZM28.124 65.757C28.3 65.1703 28.4833 64.459 28.674 63.623C28.8647 62.7723 29.0553 61.863 29.246 60.895C29.4367 59.927 29.6127 58.9663 29.774 58.013C29.95 57.0597 30.0967 56.1723 30.214 55.351C30.346 54.5297 30.4413 53.8403 30.5 53.283L33.294 53.767C33.2647 53.9137 33.1767 54.0383 33.03 54.141C32.898 54.2437 32.6193 54.3023 32.194 54.317L32.502 53.965C32.414 54.5077 32.2967 55.1603 32.15 55.923C32.018 56.6857 31.864 57.5143 31.688 58.409C31.512 59.289 31.3213 60.191 31.116 61.115C30.9107 62.039 30.698 62.941 30.478 63.821C30.258 64.6863 30.038 65.4783 29.818 66.197L28.124 65.757ZM44.206 55.483L45.438 54.295L47.506 56.187C47.4033 56.275 47.286 56.3337 47.154 56.363C47.022 56.3923 46.8313 56.4143 46.582 56.429C46.23 56.781 45.812 57.1843 45.328 57.639C44.844 58.079 44.338 58.519 43.81 58.959C43.282 59.399 42.776 59.7803 42.292 60.103H41.962C42.2553 59.6923 42.5633 59.1937 42.886 58.607C43.2087 58.0203 43.5093 57.4483 43.788 56.891C44.0667 56.319 44.294 55.8497 44.47 55.483H44.206ZM43.546 59.795C43.5167 59.9417 43.4433 60.0663 43.326 60.169C43.2087 60.2717 43.018 60.3377 42.754 60.367V71.235C42.754 71.7483 42.6953 72.1883 42.578 72.555C42.4607 72.9217 42.1967 73.215 41.786 73.435C41.39 73.655 40.774 73.8017 39.938 73.875C39.9087 73.5523 39.8573 73.2663 39.784 73.017C39.7253 72.7677 39.6153 72.5623 39.454 72.401C39.2927 72.225 39.0653 72.0783 38.772 71.961C38.4933 71.8437 38.09 71.7483 37.562 71.675V71.345C37.562 71.345 37.6793 71.3523 37.914 71.367C38.1487 71.3817 38.4273 71.4037 38.75 71.433C39.0727 71.4477 39.3733 71.4623 39.652 71.477C39.9453 71.4917 40.1507 71.499 40.268 71.499C40.444 71.499 40.5613 71.4697 40.62 71.411C40.6933 71.3377 40.73 71.235 40.73 71.103V59.509L43.546 59.795ZM45.988 61.599C45.988 61.599 46.0613 61.6577 46.208 61.775C46.3547 61.8923 46.538 62.0463 46.758 62.237C46.978 62.4277 47.2127 62.633 47.462 62.853C47.7113 63.0583 47.9313 63.2563 48.122 63.447C48.078 63.6817 47.8873 63.799 47.55 63.799H36.33L36.154 63.161H44.822L45.988 61.599ZM45.218 55.483V56.121H37.034L36.836 55.483H45.218ZM54.238 72.401C54.238 72.4743 54.1647 72.5623 54.018 72.665C53.8713 72.7823 53.6733 72.885 53.424 72.973C53.1893 73.061 52.9253 73.105 52.632 73.105H52.302V57.529V56.605L54.326 57.529H58.814V58.167H54.238V72.401ZM58.374 54.207C58.286 54.5297 58 54.691 57.516 54.691C57.3107 55.0137 57.0687 55.373 56.79 55.769C56.526 56.165 56.262 56.561 55.998 56.957C55.734 57.3383 55.492 57.683 55.272 57.991H54.634C54.7073 57.6097 54.788 57.155 54.876 56.627C54.964 56.099 55.0447 55.5563 55.118 54.999C55.206 54.4417 55.2793 53.9357 55.338 53.481L58.374 54.207ZM68.494 57.485L69.66 56.231L71.75 58.057C71.662 58.145 71.5447 58.2257 71.398 58.299C71.2513 58.3577 71.0533 58.4017 70.804 58.431C70.76 60.5723 70.7013 62.457 70.628 64.085C70.5693 65.713 70.474 67.1137 70.342 68.287C70.2247 69.4457 70.0707 70.3917 69.88 71.125C69.6893 71.8437 69.4547 72.3643 69.176 72.687C68.824 73.083 68.406 73.369 67.922 73.545C67.4527 73.7357 66.8953 73.831 66.25 73.831C66.25 73.479 66.2207 73.171 66.162 72.907C66.1033 72.6577 65.9787 72.4523 65.788 72.291C65.612 72.115 65.3187 71.9537 64.908 71.807C64.4973 71.6603 64.0353 71.543 63.522 71.455L63.544 71.103C63.896 71.1323 64.2773 71.169 64.688 71.213C65.0987 71.2423 65.4873 71.2717 65.854 71.301C66.2207 71.3157 66.492 71.323 66.668 71.323C66.8733 71.323 67.0347 71.3083 67.152 71.279C67.2693 71.235 67.3867 71.1543 67.504 71.037C67.7827 70.7583 68.0027 70.0543 68.164 68.925C68.3253 67.781 68.45 66.2483 68.538 64.327C68.626 62.391 68.692 60.1103 68.736 57.485H68.494ZM57.89 57.529L58.902 56.385L61.014 58.057C60.9553 58.145 60.838 58.233 60.662 58.321C60.5007 58.3943 60.31 58.453 60.09 58.497V71.763C60.09 71.8217 59.9947 71.9023 59.804 72.005C59.628 72.093 59.408 72.181 59.144 72.269C58.8947 72.357 58.6527 72.401 58.418 72.401H58.11V57.529H57.89ZM62.356 61.973C63.3387 62.325 64.116 62.721 64.688 63.161C65.2747 63.601 65.6927 64.0483 65.942 64.503C66.206 64.943 66.3307 65.3537 66.316 65.735C66.316 66.1163 66.2207 66.4317 66.03 66.681C65.8393 66.9157 65.59 67.0477 65.282 67.077C64.9887 67.0917 64.6733 66.9597 64.336 66.681C64.2773 66.1677 64.1307 65.6397 63.896 65.097C63.676 64.5397 63.4047 64.0043 63.082 63.491C62.774 62.9777 62.4587 62.523 62.136 62.127L62.356 61.973ZM69.968 57.485V58.123H63.082L63.346 57.485H69.968ZM66.47 54.339C66.426 54.4563 66.338 54.559 66.206 54.647C66.074 54.735 65.8833 54.779 65.634 54.779C65.018 56.407 64.2847 57.9103 63.434 59.289C62.5833 60.6677 61.6373 61.8263 60.596 62.765L60.31 62.567C60.75 61.819 61.168 60.9537 61.564 59.971C61.9747 58.9883 62.3487 57.9397 62.686 56.825C63.038 55.7103 63.3167 54.5883 63.522 53.459L66.47 54.339ZM59.166 63.645V64.283H53.336V63.645H59.166ZM59.166 70.069V70.707H53.336V70.069H59.166ZM92.782 59.333C92.7233 59.4503 92.6207 59.5457 92.474 59.619C92.3273 59.6777 92.1367 59.6777 91.902 59.619C91.2273 60.7043 90.428 61.599 89.504 62.303C88.58 63.007 87.612 63.5497 86.6 63.931L86.358 63.645C87.194 63.117 88.008 62.391 88.8 61.467C89.592 60.543 90.2447 59.4943 90.758 58.321L92.782 59.333ZM90.692 54.009C90.648 54.1703 90.5527 54.295 90.406 54.383C90.2593 54.4563 90.0687 54.493 89.834 54.493C89.5553 54.7717 89.218 55.0943 88.822 55.461C88.4407 55.813 88.096 56.1283 87.788 56.407H87.128C87.26 56.0257 87.3993 55.5417 87.546 54.955C87.7073 54.3683 87.8393 53.855 87.942 53.415L90.692 54.009ZM93.75 64.151V64.789H84.73V64.151H93.75ZM83.828 55.197L85.852 56.033H92.672L93.574 54.955L95.466 56.407C95.3927 56.5097 95.29 56.5903 95.158 56.649C95.026 56.7077 94.8427 56.759 94.608 56.803V65.097C94.608 65.1557 94.4613 65.251 94.168 65.383C93.8893 65.515 93.5227 65.581 93.068 65.581H92.782V56.671H85.61V65.493C85.61 65.5663 85.478 65.669 85.214 65.801C84.95 65.933 84.5907 65.999 84.136 65.999H83.828V56.033V55.197ZM86.204 58.145C87.568 58.7023 88.6607 59.267 89.482 59.839C90.3033 60.411 90.9047 60.9463 91.286 61.445C91.6673 61.9437 91.88 62.369 91.924 62.721C91.968 63.073 91.8873 63.3223 91.682 63.469C91.4913 63.601 91.2273 63.5717 90.89 63.381C90.6847 62.9997 90.3913 62.589 90.01 62.149C89.6287 61.6943 89.196 61.2397 88.712 60.785C88.2427 60.3157 87.766 59.8757 87.282 59.465C86.8127 59.0543 86.3727 58.6877 85.962 58.365L86.204 58.145ZM90.406 57.595C90.362 57.7123 90.274 57.8077 90.142 57.881C90.01 57.9543 89.8267 57.9763 89.592 57.947C89.152 58.7537 88.6313 59.4577 88.03 60.059C87.4433 60.6603 86.82 61.1517 86.16 61.533L85.852 61.269C86.336 60.7557 86.798 60.1103 87.238 59.333C87.678 58.541 88.0373 57.6977 88.316 56.803L90.406 57.595ZM84.334 67.187C84.6713 68.2723 84.7667 69.1963 84.62 69.959C84.488 70.7217 84.2533 71.279 83.916 71.631C83.7547 71.7923 83.564 71.9023 83.344 71.961C83.124 72.005 82.904 71.9977 82.684 71.939C82.4787 71.8803 82.3173 71.7557 82.2 71.565C82.0827 71.2863 82.0827 71.0223 82.2 70.773C82.3173 70.509 82.5007 70.2963 82.75 70.135C82.9553 69.9737 83.1533 69.7317 83.344 69.409C83.5493 69.0863 83.7107 68.7343 83.828 68.353C83.9453 67.957 83.9893 67.5683 83.96 67.187H84.334ZM88.162 66.593C88.118 66.8863 87.898 67.0623 87.502 67.121V71.147C87.502 71.279 87.5387 71.3743 87.612 71.433C87.7 71.477 87.8907 71.499 88.184 71.499H89.79C90.1273 71.499 90.428 71.499 90.692 71.499C90.956 71.499 91.1393 71.4917 91.242 71.477C91.4473 71.4623 91.594 71.3743 91.682 71.213C91.77 71.0517 91.8727 70.7437 91.99 70.289C92.122 69.8343 92.2613 69.3283 92.408 68.771H92.672L92.738 71.301C93.002 71.4037 93.178 71.521 93.266 71.653C93.354 71.7703 93.398 71.9097 93.398 72.071C93.398 72.335 93.288 72.555 93.068 72.731C92.8627 72.907 92.4887 73.0317 91.946 73.105C91.4033 73.1783 90.6333 73.215 89.636 73.215H87.722C87.1353 73.215 86.688 73.1637 86.38 73.061C86.072 72.973 85.8667 72.8043 85.764 72.555C85.676 72.3057 85.632 71.9683 85.632 71.543V66.351L88.162 66.593ZM92.65 66.725C93.4713 67.0623 94.1167 67.4363 94.586 67.847C95.0553 68.2577 95.3853 68.661 95.576 69.057C95.7813 69.453 95.8767 69.8197 95.862 70.157C95.8473 70.4797 95.7593 70.7437 95.598 70.949C95.4367 71.1543 95.224 71.2717 94.96 71.301C94.7107 71.3157 94.4467 71.2057 94.168 70.971C94.124 70.5017 94.0067 70.025 93.816 69.541C93.64 69.0423 93.4273 68.5657 93.178 68.111C92.9287 67.6417 92.672 67.231 92.408 66.879L92.65 66.725ZM88.382 65.471C89.1447 65.7937 89.7387 66.1383 90.164 66.505C90.5893 66.8717 90.8827 67.2457 91.044 67.627C91.2053 67.9937 91.2567 68.331 91.198 68.639C91.154 68.9323 91.044 69.1743 90.868 69.365C90.692 69.541 90.472 69.629 90.208 69.629C89.9587 69.629 89.702 69.5043 89.438 69.255C89.4527 68.8443 89.394 68.419 89.262 67.979C89.1447 67.539 88.9833 67.1137 88.778 66.703C88.5873 66.2923 88.3747 65.933 88.14 65.625L88.382 65.471ZM83.564 58.695C83.4907 58.827 83.3367 58.9223 83.102 58.981C82.882 59.025 82.6033 58.959 82.266 58.783L82.904 58.629C82.5813 59.1277 82.1633 59.685 81.65 60.301C81.1513 60.9023 80.594 61.5257 79.978 62.171C79.3767 62.8017 78.7533 63.4103 78.108 63.997C77.4627 64.569 76.832 65.0677 76.216 65.493L76.172 65.229H77.184C77.1107 65.8303 76.9713 66.2997 76.766 66.637C76.5607 66.9743 76.3333 67.187 76.084 67.275L75.248 64.921C75.248 64.921 75.3433 64.899 75.534 64.855C75.7247 64.7963 75.864 64.7377 75.952 64.679C76.4067 64.2977 76.8907 63.799 77.404 63.183C77.9173 62.5523 78.4233 61.8703 78.922 61.137C79.4207 60.4037 79.868 59.6923 80.264 59.003C80.66 58.299 80.968 57.6757 81.188 57.133L83.564 58.695ZM81.584 54.735C81.5253 54.867 81.386 54.9697 81.166 55.043C80.9607 55.1017 80.6747 55.065 80.308 54.933L80.946 54.779C80.6233 55.3217 80.198 55.9377 79.67 56.627C79.142 57.3017 78.5773 57.9617 77.976 58.607C77.3747 59.2377 76.788 59.7803 76.216 60.235L76.194 59.993H77.228C77.184 60.565 77.0667 61.0197 76.876 61.357C76.6853 61.6943 76.4727 61.9143 76.238 62.017L75.314 59.685C75.314 59.685 75.3873 59.663 75.534 59.619C75.6953 59.575 75.8127 59.5237 75.886 59.465C76.1793 59.157 76.48 58.7537 76.788 58.255C77.096 57.7563 77.3967 57.2137 77.69 56.627C77.9833 56.0403 78.2473 55.4683 78.482 54.911C78.7167 54.3537 78.8927 53.8623 79.01 53.437L81.584 54.735ZM77.118 67.693C77.514 68.8517 77.6607 69.849 77.558 70.685C77.4553 71.5063 77.2353 72.1077 76.898 72.489C76.7367 72.6503 76.5387 72.7677 76.304 72.841C76.084 72.9143 75.864 72.9143 75.644 72.841C75.424 72.7823 75.2553 72.6503 75.138 72.445C75.006 72.1663 74.9987 71.895 75.116 71.631C75.2333 71.3523 75.424 71.1177 75.688 70.927C75.8787 70.7363 76.062 70.4723 76.238 70.135C76.414 69.783 76.5533 69.3943 76.656 68.969C76.7733 68.529 76.8027 68.1037 76.744 67.693H77.118ZM80.858 66.813C81.6207 67.0623 82.178 67.363 82.53 67.715C82.882 68.0523 83.0873 68.3823 83.146 68.705C83.2193 69.0277 83.1827 69.3063 83.036 69.541C82.904 69.7757 82.706 69.915 82.442 69.959C82.178 70.003 81.9067 69.915 81.628 69.695C81.628 69.2257 81.518 68.7343 81.298 68.221C81.0927 67.7077 80.8653 67.2823 80.616 66.945L80.858 66.813ZM78.922 67.341C79.5527 67.913 79.9927 68.4777 80.242 69.035C80.506 69.5777 80.6233 70.0763 80.594 70.531C80.5647 70.971 80.4473 71.323 80.242 71.587C80.0367 71.851 79.7947 71.9903 79.516 72.005C79.2373 72.005 78.9733 71.8437 78.724 71.521C78.856 70.8463 78.9 70.135 78.856 69.387C78.812 68.639 78.7313 67.979 78.614 67.407L78.922 67.341ZM80.682 62.347C81.518 62.8163 82.134 63.3003 82.53 63.799C82.926 64.283 83.1607 64.745 83.234 65.185C83.322 65.625 83.2927 65.9917 83.146 66.285C83.014 66.5637 82.8087 66.7323 82.53 66.791C82.2513 66.835 81.9653 66.7177 81.672 66.439C81.6573 65.999 81.584 65.5443 81.452 65.075C81.32 64.591 81.1587 64.1217 80.968 63.667C80.792 63.2123 80.6087 62.8163 80.418 62.479L80.682 62.347ZM75.6 64.987C75.996 64.9723 76.546 64.943 77.25 64.899C77.954 64.855 78.7533 64.8037 79.648 64.745C80.5427 64.6717 81.452 64.6057 82.376 64.547L82.398 64.855C81.782 65.075 80.924 65.383 79.824 65.779C78.724 66.1603 77.5287 66.5343 76.238 66.901L75.6 64.987ZM75.578 59.751C75.9153 59.7657 76.37 59.7803 76.942 59.795C77.5287 59.795 78.174 59.795 78.878 59.795C79.582 59.7803 80.2933 59.7657 81.012 59.751V60.059C80.572 60.235 79.9193 60.477 79.054 60.785C78.2033 61.0783 77.294 61.3717 76.326 61.665L75.578 59.751ZM105.058 62.633C105.967 62.9263 106.693 63.2563 107.236 63.623C107.779 63.9897 108.175 64.3637 108.424 64.745C108.673 65.1117 108.798 65.4563 108.798 65.779C108.813 66.087 108.739 66.3437 108.578 66.549C108.431 66.7397 108.226 66.8497 107.962 66.879C107.713 66.8937 107.441 66.791 107.148 66.571C107.045 66.1457 106.869 65.7057 106.62 65.251C106.371 64.7963 106.085 64.3563 105.762 63.931C105.439 63.491 105.131 63.1097 104.838 62.787L105.058 62.633ZM105.19 73.237C105.19 73.281 105.117 73.3543 104.97 73.457C104.823 73.5597 104.625 73.6477 104.376 73.721C104.127 73.809 103.833 73.853 103.496 73.853H103.144V56.099L105.19 55.307V73.237ZM111.812 71.807C111.812 71.895 111.731 71.9977 111.57 72.115C111.423 72.2323 111.218 72.335 110.954 72.423C110.69 72.511 110.411 72.555 110.118 72.555H109.744V56.979V56.033L111.922 56.979H117.114V57.617H111.812V71.807ZM115.508 56.979L116.564 55.791L118.808 57.529C118.749 57.6317 118.632 57.727 118.456 57.815C118.28 57.8883 118.075 57.9543 117.84 58.013V71.609C117.825 71.653 117.723 71.7263 117.532 71.829C117.341 71.917 117.114 71.9977 116.85 72.071C116.586 72.1443 116.329 72.181 116.08 72.181H115.75V56.979H115.508ZM117.158 69.255V69.893H110.646V69.255H117.158ZM104.794 60.939C104.31 62.8017 103.577 64.525 102.594 66.109C101.611 67.6783 100.394 69.0717 98.942 70.289L98.656 70.025C99.316 69.1743 99.9027 68.2357 100.416 67.209C100.944 66.1677 101.391 65.0823 101.758 63.953C102.125 62.8237 102.425 61.7017 102.66 60.587H104.794V60.939ZM109.194 55.549C109.077 55.6517 108.908 55.703 108.688 55.703C108.468 55.703 108.204 55.6517 107.896 55.549C107.148 55.7543 106.275 55.9597 105.278 56.165C104.281 56.3557 103.232 56.5317 102.132 56.693C101.047 56.8543 99.9833 56.9717 98.942 57.045L98.854 56.715C99.778 56.4657 100.746 56.1503 101.758 55.769C102.785 55.3877 103.753 54.999 104.662 54.603C105.571 54.1923 106.319 53.811 106.906 53.459L109.194 55.549ZM107.412 58.981C107.412 58.981 107.485 59.047 107.632 59.179C107.779 59.2963 107.962 59.4503 108.182 59.641C108.402 59.8317 108.629 60.037 108.864 60.257C109.113 60.4623 109.333 60.6677 109.524 60.873C109.48 61.1077 109.282 61.225 108.93 61.225H99.096L98.92 60.587H106.268L107.412 58.981Z" fill="white"/><path opacity="0.65" d="M0 0.61499H123.41" stroke="white" stroke-width="1.23" stroke-miterlimit="10"/></svg>