<svg width="421" height="243" fill="none" xmlns="http://www.w3.org/2000/svg"><g style="mix-blend-mode:multiply"><path d="M42.2598 42.25C44.1298 41.45 40.4598 37.99 39.7098 37.42C38.8898 36.81 37.0798 35.59 35.8798 35.86C35.6098 37.06 36.8298 38.87 37.4398 39.69C38.0098 40.44 41.4698 44.12 42.2698 42.24L42.2598 42.25ZM9.30977 42.25C10.1098 44.12 13.5698 40.45 14.1398 39.7C14.7498 38.88 15.9698 37.07 15.6998 35.87C14.4998 35.6 12.6898 36.82 11.8698 37.43C11.1198 38 7.43977 41.46 9.31977 42.26L9.30977 42.25ZM9.30977 9.3C7.43977 10.1 11.1098 13.56 11.8598 14.13C12.6798 14.74 14.4898 15.96 15.6898 15.69C15.9598 14.49 14.7398 12.68 14.1298 11.86C13.5598 11.11 10.1098 7.43 9.29977 9.31L9.30977 9.3ZM42.2598 9.3C41.4598 7.43 37.9998 11.1 37.4298 11.85C36.8198 12.67 35.5998 14.48 35.8698 15.68C37.0698 15.95 38.8798 14.73 39.6998 14.12C40.4498 13.55 44.1298 10.1 42.2498 9.29L42.2598 9.3ZM26.6998 26.69C26.3998 26.75 26.0998 26.79 25.7798 26.79C25.4598 26.79 25.1598 26.75 24.8598 26.69C24.7998 26.39 24.7598 26.09 24.7598 25.77C24.7598 25.45 24.7998 25.15 24.8598 24.85C25.1598 24.79 25.4598 24.75 25.7798 24.75C26.0998 24.75 26.3998 24.79 26.6998 24.85C26.7598 25.15 26.7998 25.45 26.7998 25.77C26.7998 26.09 26.7598 26.39 26.6998 26.69ZM48.9298 21.26C48.2698 19.67 47.7698 18.02 47.4398 16.35C47.4198 16.24 47.3798 16.07 47.3398 15.87C46.7698 13.22 47.0498 11.38 46.7698 11.14C46.4898 10.88 46.0598 10.9 45.7998 11.18C41.2498 16.07 36.8998 18.64 32.5798 18.98C32.9198 14.66 35.4898 10.31 40.3798 5.76C40.6598 5.5 40.6698 5.07 40.4198 4.79C40.1798 4.52 38.3398 4.79 35.6898 4.22C35.4898 4.18 35.3298 4.14 35.2098 4.12C33.5398 3.8 31.8798 3.29 30.2898 2.63C28.6698 1.95 27.1898 1.02 25.7798 0C24.3698 1.02 22.8798 1.96 21.2698 2.63C19.6798 3.29 18.0298 3.8 16.3598 4.12C16.2498 4.14 16.0798 4.18 15.8798 4.22C13.2298 4.79 11.3898 4.51 11.1498 4.79C10.8898 5.07 10.9098 5.5 11.1898 5.76C16.0798 10.31 18.6498 14.66 18.9898 18.98C14.6698 18.64 10.3198 16.07 5.76977 11.18C5.50977 10.9 5.07977 10.89 4.79977 11.14C4.52977 11.38 4.79977 13.22 4.22977 15.87C4.18977 16.07 4.14977 16.23 4.12977 16.35C3.80977 18.02 3.29977 19.68 2.63977 21.26C1.96977 22.88 1.02977 24.36 0.00976562 25.77C1.02977 27.18 1.96977 28.67 2.63977 30.28C3.29977 31.87 3.80977 33.52 4.12977 35.2C4.14977 35.31 4.18977 35.48 4.22977 35.68C4.79977 38.33 4.51977 40.17 4.79977 40.41C5.07977 40.67 5.50977 40.65 5.76977 40.37C10.3198 35.48 14.6698 32.91 18.9898 32.57C18.6498 36.89 16.0798 41.24 11.1898 45.79C10.9098 46.05 10.8998 46.48 11.1498 46.76C11.3898 47.04 13.2298 46.76 15.8798 47.33C16.0798 47.37 16.2398 47.41 16.3598 47.43C18.0298 47.75 19.6898 48.26 21.2698 48.92C22.8898 49.6 24.3698 50.53 25.7798 51.55C27.1898 50.53 28.6798 49.59 30.2898 48.92C31.8798 48.26 33.5298 47.75 35.2098 47.43C35.3198 47.41 35.4898 47.37 35.6898 47.33C38.3398 46.76 40.1798 47.04 40.4198 46.76C40.6798 46.48 40.6598 46.05 40.3798 45.79C35.4898 41.24 32.9198 36.89 32.5798 32.57C36.8998 32.91 41.2498 35.48 45.7998 40.37C46.0598 40.65 46.4898 40.66 46.7698 40.41C47.0398 40.17 46.7698 38.33 47.3398 35.68C47.3798 35.48 47.4198 35.32 47.4398 35.2C47.7598 33.53 48.2698 31.87 48.9298 30.28C49.6098 28.66 50.5398 27.18 51.5598 25.77C50.5398 24.36 49.5998 22.87 48.9298 21.26ZM45.5098 13.44C45.5898 14.14 45.7598 15.02 45.9998 16.16C46.0398 16.35 46.0698 16.5 46.0898 16.61C46.4298 18.37 46.9598 20.12 47.6598 21.79C48.2498 23.2 49.0098 24.5 49.8498 25.73C48.8798 24.98 47.9598 24.3 46.9498 23.71C44.2598 22.15 41.4298 21.34 38.7598 21.39C36.8398 21.42 34.8198 21.9 32.9098 22.79C32.7198 21.99 32.5998 21.18 32.5598 20.36C36.8398 20.04 41.1798 17.73 45.5198 13.45L45.5098 13.44ZM33.2898 24.12C33.3398 24.09 33.3898 24.06 33.4498 24.04C35.1998 23.23 37.0398 22.79 38.7798 22.76C41.1998 22.72 43.7898 23.46 46.2698 24.9C46.7398 25.17 47.1898 25.46 47.6398 25.78C47.1898 26.1 46.7398 26.39 46.2698 26.66C43.7898 28.1 41.2098 28.84 38.7798 28.8C37.0398 28.77 35.1998 28.33 33.4498 27.52C33.3998 27.5 33.3498 27.46 33.2898 27.44C33.4798 26.89 33.6998 26.33 33.9598 25.78C33.6998 25.23 33.4798 24.68 33.2898 24.12ZM29.7698 3.9C31.4398 4.6 33.1898 5.13 34.9498 5.47C35.0598 5.49 35.2098 5.52 35.3998 5.56C36.5298 5.8 37.4198 5.96 38.1198 6.05C33.8398 10.39 31.5298 14.74 31.2098 19.01C30.3898 18.96 29.5798 18.85 28.7798 18.66C29.6598 16.75 30.1498 14.73 30.1798 12.81C30.2198 10.14 29.4198 7.31 27.8598 4.61C27.2698 3.6 26.5898 2.67 25.8398 1.71C27.0698 2.55 28.3698 3.31 29.7798 3.9H29.7698ZM32.3898 25.78C32.3898 27.56 31.2298 29.07 29.6298 29.62C29.0798 31.22 27.5698 32.38 25.7898 32.38C24.0098 32.38 22.4998 31.22 21.9498 29.62C20.3498 29.07 19.1898 27.56 19.1898 25.78C19.1898 24 20.3498 22.49 21.9498 21.94C22.4998 20.34 24.0098 19.18 25.7898 19.18C27.5698 19.18 29.0798 20.34 29.6298 21.94C31.2298 22.49 32.3898 24 32.3898 25.78ZM26.6598 5.3C28.0998 7.78 28.8398 10.36 28.7998 12.79C28.7698 14.53 28.3298 16.37 27.5198 18.12C27.4998 18.17 27.4598 18.22 27.4398 18.28C26.8898 18.09 26.3298 17.87 25.7798 17.61C25.2298 17.87 24.6798 18.09 24.1198 18.28C24.0898 18.23 24.0598 18.18 24.0398 18.12C23.2298 16.37 22.7898 14.53 22.7598 12.79C22.7198 10.37 23.4598 7.78 24.8998 5.3C25.1698 4.83 25.4598 4.38 25.7798 3.93C26.0998 4.38 26.3898 4.83 26.6598 5.3ZM13.4498 6.05C14.1498 5.97 15.0398 5.8 16.1698 5.56C16.3598 5.52 16.5098 5.49 16.6198 5.47C18.3798 5.13 20.1298 4.6 21.7998 3.9C23.2098 3.31 24.4998 2.55 25.7398 1.71C24.9898 2.68 24.3098 3.6 23.7198 4.61C22.1598 7.3 21.3498 10.13 21.3998 12.81C21.4298 14.73 21.9098 16.75 22.7998 18.66C21.9998 18.85 21.1898 18.97 20.3698 19.01C20.0498 14.73 17.7398 10.39 13.4598 6.05H13.4498ZM3.90977 21.79C4.60977 20.12 5.13977 18.37 5.47977 16.61C5.49977 16.5 5.52977 16.35 5.56977 16.16C5.80977 15.03 5.97977 14.14 6.05977 13.44C10.3998 17.72 14.7498 20.03 19.0198 20.35C18.9698 21.17 18.8598 21.98 18.6698 22.78C16.7598 21.9 14.7398 21.41 12.8198 21.38C10.1498 21.34 7.31977 22.14 4.61977 23.7C3.60977 24.29 2.67977 24.96 1.71977 25.72C2.55977 24.49 3.31977 23.19 3.90977 21.78V21.79ZM18.2798 27.43C18.2298 27.46 18.1798 27.49 18.1198 27.51C16.3698 28.32 14.5298 28.76 12.7898 28.79C10.3698 28.83 7.77977 28.09 5.29977 26.65C4.82977 26.38 4.37977 26.09 3.92977 25.77C4.37977 25.45 4.82977 25.16 5.29977 24.89C7.77977 23.45 10.3598 22.71 12.7898 22.75C14.5298 22.78 16.3698 23.22 18.1198 24.03C18.1698 24.05 18.2198 24.08 18.2798 24.11C18.0898 24.66 17.8698 25.22 17.6098 25.77C17.8698 26.32 18.0898 26.87 18.2798 27.43ZM6.05977 38.1C5.97977 37.4 5.80977 36.51 5.56977 35.38C5.52977 35.19 5.49977 35.04 5.47977 34.93C5.13977 33.17 4.60977 31.42 3.90977 29.75C3.31977 28.34 2.55977 27.04 1.71977 25.81C2.68977 26.56 3.60977 27.24 4.61977 27.83C7.30977 29.39 10.1398 30.2 12.8198 30.15C14.7398 30.12 16.7598 29.64 18.6698 28.75C18.8598 29.55 18.9798 30.36 19.0198 31.18C14.7398 31.5 10.3998 33.81 6.05977 38.09V38.1ZM21.7998 47.65C20.1298 46.95 18.3798 46.42 16.6198 46.08C16.5098 46.06 16.3598 46.03 16.1698 45.99C15.0398 45.75 14.1498 45.59 13.4498 45.5C17.7298 41.16 20.0398 36.81 20.3598 32.54C21.1798 32.59 21.9898 32.7 22.7898 32.89C21.9098 34.8 21.4198 36.82 21.3898 38.74C21.3498 41.41 22.1498 44.24 23.7098 46.93C24.2998 47.94 24.9698 48.87 25.7298 49.83C24.4998 48.99 23.1998 48.23 21.7898 47.64L21.7998 47.65ZM24.8998 46.25C23.4598 43.77 22.7198 41.19 22.7598 38.76C22.7898 37.02 23.2298 35.18 24.0398 33.43C24.0698 33.38 24.0998 33.33 24.1198 33.27C24.6698 33.46 25.2298 33.68 25.7798 33.94C26.3298 33.68 26.8798 33.46 27.4398 33.27C27.4698 33.32 27.4998 33.37 27.5198 33.43C28.3298 35.18 28.7698 37.02 28.7998 38.76C28.8398 41.18 28.0998 43.77 26.6598 46.25C26.3898 46.72 26.0998 47.17 25.7798 47.62C25.4598 47.17 25.1698 46.72 24.8998 46.25ZM38.1198 45.5C37.4198 45.58 36.5298 45.75 35.3998 45.99C35.2098 46.03 35.0598 46.06 34.9498 46.08C33.1898 46.42 31.4398 46.95 29.7698 47.65C28.3598 48.24 27.0598 49 25.8298 49.84C26.5798 48.87 27.2598 47.95 27.8498 46.94C29.4098 44.25 30.2198 41.42 30.1698 38.75C30.1398 36.83 29.6598 34.81 28.7698 32.9C29.5698 32.71 30.3798 32.59 31.1998 32.55C31.5198 36.83 33.8298 41.17 38.1098 45.51L38.1198 45.5ZM47.6598 29.76C46.9598 31.43 46.4298 33.18 46.0898 34.94C46.0698 35.05 46.0398 35.2 45.9998 35.39C45.7598 36.52 45.5998 37.41 45.5098 38.11C41.1698 33.83 36.8198 31.52 32.5498 31.2C32.5998 30.38 32.7098 29.57 32.8998 28.77C34.8098 29.65 36.8298 30.14 38.7498 30.17C41.4198 30.21 44.2498 29.41 46.9398 27.85C47.9498 27.26 48.8798 26.58 49.8398 25.83C48.9998 27.06 48.2398 28.36 47.6498 29.77L47.6598 29.76ZM36.8198 25.77C39.1198 24.54 41.8198 24.17 44.3898 25.36C44.6498 25.48 44.9098 25.62 45.1498 25.77C44.8998 25.92 44.6498 26.06 44.3898 26.18C41.8198 27.37 39.1198 27 36.8198 25.77ZM23.2698 21.69C23.1398 21.69 23.0198 21.72 22.8898 21.73C23.4398 20.69 24.5298 19.97 25.7898 19.97C27.0498 19.97 28.1298 20.69 28.6898 21.73C28.5598 21.72 28.4398 21.69 28.3098 21.69C27.3598 21.69 26.4898 22.03 25.7898 22.58C25.0898 22.03 24.2298 21.69 23.2698 21.69ZM28.2998 22.48C28.5398 22.48 28.7698 22.51 28.9898 22.56C29.0398 22.78 29.0698 23.02 29.0698 23.26C29.0698 23.99 28.8198 24.66 28.4198 25.21C28.0398 24.88 27.5898 24.62 27.1098 24.46C26.9398 23.97 26.6898 23.53 26.3598 23.15C26.9098 22.75 27.5798 22.5 28.3098 22.5L28.2998 22.48ZM25.3698 7.17C25.4898 6.91 25.6298 6.65 25.7798 6.41C25.9298 6.66 26.0698 6.91 26.1898 7.17C27.3798 9.74 27.0098 12.44 25.7798 14.74C24.5498 12.44 24.1798 9.74 25.3698 7.17ZM31.5898 25.78C31.5898 27.04 30.8698 28.12 29.8298 28.68C29.8398 28.55 29.8698 28.43 29.8698 28.3C29.8698 27.35 29.5298 26.48 28.9798 25.78C29.5298 25.08 29.8698 24.22 29.8698 23.26C29.8698 23.13 29.8398 23.01 29.8298 22.88C30.8698 23.43 31.5898 24.52 31.5898 25.78ZM23.1498 25.2C22.7498 24.65 22.4998 23.99 22.4998 23.26C22.4998 23.02 22.5298 22.79 22.5798 22.56C22.7998 22.51 23.0398 22.48 23.2798 22.48C24.0098 22.48 24.6798 22.73 25.2198 23.13C24.8898 23.51 24.6298 23.96 24.4698 24.44C23.9798 24.61 23.5398 24.87 23.1598 25.19L23.1498 25.2ZM28.4198 26.35C28.8198 26.9 29.0698 27.56 29.0698 28.29C29.0698 28.53 29.0398 28.76 28.9898 28.99C28.7698 29.04 28.5298 29.07 28.2998 29.07C27.5698 29.07 26.8998 28.82 26.3498 28.42C26.6798 28.04 26.9298 27.59 27.0998 27.11C27.5898 26.94 28.0298 26.69 28.4098 26.36L28.4198 26.35ZM26.1998 44.38C26.0798 44.64 25.9398 44.9 25.7898 45.14C25.6398 44.89 25.4998 44.64 25.3798 44.38C24.1898 41.81 24.5598 39.11 25.7898 36.81C27.0198 39.11 27.3898 41.81 26.1998 44.38ZM22.5898 25.77C22.0398 26.47 21.6998 27.33 21.6998 28.29C21.6998 28.42 21.7298 28.54 21.7398 28.67C20.6998 28.12 19.9798 27.03 19.9798 25.77C19.9798 24.51 20.6998 23.43 21.7398 22.87C21.7298 23 21.6998 23.12 21.6998 23.25C21.6998 24.2 22.0398 25.07 22.5898 25.77ZM14.7498 25.77C12.4498 27 9.74977 27.37 7.17977 26.18C6.91977 26.06 6.65977 25.92 6.41977 25.77C6.66977 25.62 6.91977 25.48 7.17977 25.36C9.74977 24.17 12.4498 24.54 14.7498 25.77ZM23.2698 29.06C23.0298 29.06 22.7998 29.03 22.5698 28.98C22.5198 28.76 22.4898 28.52 22.4898 28.28C22.4898 27.55 22.7398 26.88 23.1398 26.34C23.5198 26.67 23.9698 26.92 24.4498 27.09C24.6198 27.58 24.8798 28.02 25.1998 28.4C24.6498 28.8 23.9798 29.05 23.2598 29.05L23.2698 29.06ZM28.2998 29.86C28.4298 29.86 28.5498 29.83 28.6798 29.82C28.1298 30.86 27.0398 31.58 25.7798 31.58C24.5198 31.58 23.4398 30.86 22.8798 29.82C23.0098 29.83 23.1298 29.86 23.2598 29.86C24.2098 29.86 25.0798 29.52 25.7798 28.97C26.4798 29.52 27.3398 29.86 28.2998 29.86Z" fill="#3B8281"/></g><path d="M15.9 69.25V69.56C15.6 69.56 15.36 69.61 15.18 69.72C15 69.83 14.82 70.03 14.65 70.32C14.54 70.52 14.36 70.98 14.12 71.72L10.94 80.91H10.6L8 73.62L5.42 80.91H5.12L1.73 71.44C1.48 70.73 1.32 70.32 1.25 70.19C1.14 69.98 0.98 69.82 0.79 69.71C0.6 69.61 0.33 69.55 0 69.55V69.24H4.22V69.55H4.02C3.72 69.55 3.5 69.62 3.34 69.75C3.18 69.88 3.1 70.05 3.1 70.24C3.1 70.43 3.22 70.89 3.47 71.59L5.72 77.99L7.61 72.55L7.27 71.59L7 70.82C6.88 70.54 6.75 70.29 6.6 70.08C6.53 69.97 6.44 69.88 6.33 69.81C6.19 69.71 6.05 69.64 5.91 69.59C5.8 69.56 5.64 69.54 5.41 69.54V69.23H9.85V69.54H9.55C9.24 69.54 9.01 69.61 8.86 69.74C8.71 69.87 8.64 70.06 8.64 70.29C8.64 70.58 8.77 71.07 9.02 71.79L11.21 77.99L13.38 71.71C13.63 71.01 13.75 70.53 13.75 70.26C13.75 70.13 13.71 70.01 13.63 69.9C13.55 69.79 13.45 69.71 13.32 69.66C13.11 69.58 12.83 69.54 12.49 69.54V69.23H15.9V69.25Z" fill="#738C9A"/><path d="M20.9599 74.5398H26.2599V71.2798C26.2599 70.6998 26.2199 70.3098 26.1499 70.1298C26.0899 69.9898 25.9799 69.8698 25.7999 69.7698C25.5599 69.6398 25.2999 69.5698 25.0299 69.5698H24.6299V69.2598H29.5099V69.5698H29.1099C28.8399 69.5698 28.5899 69.6298 28.3399 69.7598C28.1599 69.8498 28.0399 69.9898 27.9699 70.1698C27.9099 70.3498 27.8699 70.7198 27.8699 71.2798V78.6398C27.8699 79.2198 27.9099 79.5998 27.9799 79.7798C28.0399 79.9198 28.1499 80.0398 28.3199 80.1398C28.5699 80.2698 28.8199 80.3398 29.0899 80.3398H29.4899V80.6498H24.6099V80.3398H25.0099C25.4799 80.3398 25.8099 80.1998 26.0299 79.9298C26.1699 79.7498 26.2399 79.3198 26.2399 78.6398V75.1698H20.9399V78.6398C20.9399 79.2198 20.9799 79.5998 21.0499 79.7798C21.1099 79.9198 21.2199 80.0398 21.3999 80.1398C21.6399 80.2698 21.8999 80.3398 22.1699 80.3398H22.5799V80.6498H17.6899V80.3398H18.0899C18.5599 80.3398 18.8999 80.1998 19.1199 79.9298C19.2499 79.7498 19.3199 79.3198 19.3199 78.6398V71.2798C19.3199 70.6998 19.2799 70.3098 19.2099 70.1298C19.1499 69.9898 19.0399 69.8698 18.8699 69.7698C18.6199 69.6398 18.3699 69.5698 18.0999 69.5698H17.6999V69.2598H22.5899V69.5698H22.1799C21.9099 69.5698 21.6599 69.6298 21.4099 69.7598C21.2399 69.8498 21.1199 69.9898 21.0499 70.1698C20.9799 70.3498 20.9499 70.7198 20.9499 71.2798V74.5398H20.9599Z" fill="#738C9A"/><path d="M34.8301 69.87V74.38H37.3401C37.9901 74.38 38.4201 74.28 38.6401 74.09C38.9301 73.83 39.0901 73.38 39.1301 72.73H39.4401V76.7H39.1301C39.0501 76.14 38.9701 75.79 38.8901 75.63C38.7901 75.43 38.6201 75.28 38.3901 75.17C38.1601 75.06 37.8101 75 37.3301 75H34.8201V78.76C34.8201 79.26 34.8401 79.57 34.8901 79.68C34.9301 79.79 35.0101 79.88 35.1301 79.94C35.2401 80 35.4501 80.04 35.7701 80.04H37.7001C38.3401 80.04 38.8101 80 39.1001 79.91C39.3901 79.82 39.6701 79.64 39.9401 79.38C40.2901 79.03 40.6401 78.51 41.0101 77.81H41.3501L40.3701 80.67H31.5801V80.36H31.9801C32.2501 80.36 32.5001 80.3 32.7501 80.17C32.9301 80.08 33.0501 79.95 33.1201 79.77C33.1801 79.59 33.2201 79.22 33.2201 78.67V71.26C33.2201 70.54 33.1501 70.09 33.0001 69.92C32.8001 69.7 32.4601 69.58 31.9901 69.58H31.5901V69.27H40.3801L40.5101 71.77H40.1801C40.0601 71.17 39.9301 70.76 39.7901 70.53C39.6501 70.31 39.4401 70.13 39.1601 70.02C38.9401 69.94 38.5401 69.89 37.9701 69.89H34.8401L34.8301 69.87Z" fill="#738C9A"/><path d="M54.7699 80.65H51.7299L47.8699 75.32C47.5799 75.33 47.3499 75.34 47.1699 75.34C47.0999 75.34 47.0199 75.34 46.9299 75.34C46.8499 75.34 46.7599 75.34 46.6699 75.33V78.64C46.6699 79.36 46.7499 79.8 46.9099 79.98C47.1199 80.23 47.4399 80.35 47.8699 80.35H48.3199V80.66H43.4299V80.35H43.8599C44.3399 80.35 44.6899 80.19 44.8899 79.88C45.0099 79.71 45.0699 79.29 45.0699 78.64V71.27C45.0699 70.55 44.9899 70.11 44.8299 69.93C44.6099 69.68 44.2899 69.56 43.8499 69.56H43.4199V69.25H47.5699C48.7799 69.25 49.6699 69.34 50.2499 69.51C50.8199 69.69 51.3099 70.01 51.7099 70.49C52.1099 70.96 52.3099 71.53 52.3099 72.18C52.3099 72.88 52.0799 73.49 51.6199 74C51.1599 74.52 50.4599 74.88 49.4999 75.09L51.8499 78.36C52.3899 79.11 52.8499 79.61 53.2399 79.86C53.6299 80.11 54.1299 80.26 54.7499 80.33V80.64L54.7699 80.65ZM46.6699 74.79C46.7799 74.79 46.8699 74.79 46.9499 74.79C47.0299 74.79 47.0899 74.79 47.1399 74.79C48.2299 74.79 49.0499 74.55 49.5999 74.08C50.1499 73.61 50.4299 73.01 50.4299 72.28C50.4299 71.55 50.2099 70.99 49.7599 70.54C49.3099 70.09 48.7199 69.87 47.9899 69.87C47.6599 69.87 47.2199 69.92 46.6699 70.03V74.77V74.79Z" fill="#738C9A"/><path d="M59.5898 69.87V74.38H62.0998C62.7498 74.38 63.1798 74.28 63.3998 74.09C63.6898 73.83 63.8498 73.38 63.8898 72.73H64.1998V76.7H63.8898C63.8098 76.14 63.7298 75.79 63.6498 75.63C63.5498 75.43 63.3798 75.28 63.1498 75.17C62.9198 75.06 62.5698 75 62.0898 75H59.5798V78.76C59.5798 79.26 59.5998 79.57 59.6498 79.68C59.6998 79.79 59.7698 79.88 59.8898 79.94C59.9998 80 60.2098 80.04 60.5298 80.04H62.4598C63.0998 80.04 63.5698 80 63.8598 79.91C64.1498 79.82 64.4298 79.64 64.6998 79.38C65.0498 79.03 65.3998 78.51 65.7698 77.81H66.1098L65.1298 80.67H56.3398V80.36H56.7398C57.0098 80.36 57.2598 80.3 57.5098 80.17C57.6898 80.08 57.8098 79.95 57.8798 79.77C57.9398 79.59 57.9798 79.22 57.9798 78.67V71.26C57.9798 70.54 57.9098 70.09 57.7598 69.92C57.5598 69.7 57.2198 69.58 56.7498 69.58H56.3498V69.27H65.1398L65.2698 71.77H64.9398C64.8198 71.17 64.6898 70.76 64.5498 70.53C64.4098 70.3 64.1998 70.13 63.9198 70.02C63.6998 69.94 63.2998 69.89 62.7298 69.89H59.5998L59.5898 69.87Z" fill="#738C9A"/><path d="M73.8701 80.65V80.34H74.3001C74.7801 80.34 75.1201 80.19 75.3301 79.88C75.4501 79.69 75.5101 79.28 75.5101 78.64V71.27C75.5101 70.56 75.4301 70.11 75.2701 69.93C75.0501 69.68 74.7301 69.56 74.2901 69.56H73.8601V69.25H78.5001C80.2001 69.25 81.5001 69.44 82.3901 69.83C83.2801 70.22 83.9901 70.86 84.5301 71.76C85.0701 72.66 85.3401 73.71 85.3401 74.89C85.3401 76.48 84.8601 77.8 83.8901 78.87C82.8101 80.06 81.1601 80.65 78.9501 80.65H73.8501H73.8701ZM77.1301 79.83C77.8401 79.99 78.4401 80.07 78.9201 80.07C80.2201 80.07 81.3001 79.61 82.1601 78.7C83.0201 77.79 83.4501 76.55 83.4501 74.98C83.4501 73.41 83.0201 72.16 82.1601 71.25C81.3001 70.34 80.2001 69.89 78.8601 69.89C78.3601 69.89 77.7801 69.97 77.1401 70.13V79.83H77.1301Z" fill="#738C9A"/><path d="M99.0302 80.65H95.9902L92.1302 75.32C91.8402 75.33 91.6102 75.34 91.4302 75.34C91.3602 75.34 91.2802 75.34 91.1902 75.34C91.1102 75.34 91.0202 75.34 90.9302 75.33V78.64C90.9302 79.36 91.0102 79.8 91.1702 79.98C91.3802 80.23 91.7002 80.35 92.1302 80.35H92.5802V80.66H87.6902V80.35H88.1202C88.6002 80.35 88.9502 80.19 89.1502 79.88C89.2702 79.71 89.3302 79.29 89.3302 78.64V71.27C89.3302 70.55 89.2502 70.11 89.0902 69.93C88.8702 69.68 88.5502 69.56 88.1102 69.56H87.6802V69.25H91.8302C93.0402 69.25 93.9302 69.34 94.5102 69.51C95.0802 69.69 95.5702 70.01 95.9702 70.49C96.3702 70.96 96.5702 71.53 96.5702 72.18C96.5702 72.88 96.3402 73.49 95.8802 74C95.4202 74.52 94.7202 74.88 93.7602 75.09L96.1102 78.36C96.6502 79.11 97.1102 79.61 97.5002 79.86C97.8902 80.11 98.3902 80.26 99.0102 80.33V80.64L99.0302 80.65ZM90.9302 74.79C91.0402 74.79 91.1302 74.79 91.2102 74.79C91.2902 74.79 91.3502 74.79 91.4002 74.79C92.4902 74.79 93.3102 74.55 93.8602 74.08C94.4102 73.61 94.6902 73.01 94.6902 72.28C94.6902 71.55 94.4702 70.99 94.0202 70.54C93.5702 70.09 92.9802 69.87 92.2502 69.87C91.9202 69.87 91.4802 69.92 90.9302 70.03V74.77V74.79Z" fill="#738C9A"/><path d="M103.86 69.87V74.38H106.37C107.02 74.38 107.45 74.28 107.67 74.09C107.96 73.83 108.12 73.38 108.16 72.73H108.47V76.7H108.16C108.08 76.14 108 75.79 107.92 75.63C107.82 75.43 107.65 75.28 107.42 75.17C107.19 75.06 106.84 75 106.36 75H103.85V78.76C103.85 79.26 103.87 79.57 103.92 79.68C103.96 79.79 104.04 79.88 104.16 79.94C104.27 80 104.48 80.04 104.8 80.04H106.73C107.37 80.04 107.84 80 108.13 79.91C108.42 79.82 108.7 79.64 108.97 79.38C109.32 79.03 109.67 78.51 110.04 77.81H110.38L109.4 80.67H100.61V80.36H101.01C101.28 80.36 101.53 80.3 101.78 80.17C101.96 80.08 102.08 79.95 102.15 79.77C102.21 79.59 102.25 79.22 102.25 78.67V71.26C102.25 70.54 102.18 70.09 102.03 69.92C101.83 69.7 101.49 69.58 101.02 69.58H100.62V69.27H109.41L109.54 71.77H109.21C109.09 71.17 108.96 70.76 108.82 70.53C108.68 70.31 108.47 70.13 108.19 70.02C107.97 69.94 107.57 69.89 107 69.89H103.87L103.86 69.87Z" fill="#738C9A"/><path d="M120.04 76.8302H115.62L114.85 78.6302C114.66 79.0702 114.56 79.4002 114.56 79.6202C114.56 79.7902 114.64 79.9502 114.81 80.0802C114.98 80.2102 115.33 80.3002 115.88 80.3402V80.6502H112.29V80.3402C112.77 80.2602 113.07 80.1502 113.22 80.0102C113.51 79.7402 113.82 79.1902 114.17 78.3702L118.18 68.9902H118.47L122.44 78.4802C122.76 79.2402 123.05 79.7402 123.31 79.9602C123.57 80.1902 123.93 80.3102 124.4 80.3402V80.6502H119.9V80.3402C120.35 80.3202 120.66 80.2402 120.82 80.1102C120.98 79.9802 121.06 79.8202 121.06 79.6402C121.06 79.3902 120.95 79.0002 120.72 78.4702L120.03 76.8302H120.04ZM119.8 76.2102L117.87 71.6002L115.89 76.2102H119.81H119.8Z" fill="#738C9A"/><path d="M133.02 80.6502L128.61 71.0502V78.6702C128.61 79.3702 128.69 79.8102 128.84 79.9802C129.05 80.2202 129.38 80.3302 129.82 80.3302H130.22V80.6402H126.25V80.3302H126.65C127.13 80.3302 127.47 80.1802 127.68 79.8902C127.8 79.7102 127.86 79.3002 127.86 78.6602V71.2102C127.86 70.7102 127.8 70.3402 127.69 70.1202C127.61 69.9602 127.47 69.8202 127.26 69.7102C127.05 69.6002 126.71 69.5502 126.25 69.5502V69.2402H129.48L133.62 78.1602L137.69 69.2402H140.92V69.5502H140.52C140.03 69.5502 139.69 69.7002 139.49 69.9902C139.37 70.1702 139.3 70.5802 139.3 71.2202V78.6702C139.3 79.3702 139.38 79.8102 139.54 79.9802C139.75 80.2202 140.08 80.3302 140.52 80.3302H140.92V80.6402H136.08V80.3302H136.48C136.97 80.3302 137.31 80.1802 137.51 79.8902C137.63 79.7102 137.69 79.3002 137.69 78.6602V71.0402L133.29 80.6402H133.01L133.02 80.6502Z" fill="#738C9A"/><path d="M150.56 68.9902V72.9302H150.25C150.15 72.1702 149.97 71.5702 149.71 71.1202C149.45 70.6702 149.08 70.3202 148.6 70.0502C148.12 69.7902 147.62 69.6502 147.1 69.6502C146.52 69.6502 146.03 69.8302 145.65 70.1802C145.27 70.5402 145.08 70.9402 145.08 71.4002C145.08 71.7502 145.2 72.0602 145.44 72.3502C145.79 72.7702 146.61 73.3302 147.92 74.0302C148.99 74.6002 149.71 75.0402 150.1 75.3502C150.49 75.6602 150.79 76.0202 151 76.4302C151.21 76.8402 151.32 77.2802 151.32 77.7302C151.32 78.5902 150.98 79.3402 150.31 79.9602C149.64 80.5902 148.78 80.9002 147.72 80.9002C147.39 80.9002 147.08 80.8702 146.79 80.8202C146.62 80.7902 146.26 80.6902 145.71 80.5102C145.16 80.3302 144.82 80.2502 144.67 80.2502C144.52 80.2502 144.42 80.2902 144.34 80.3802C144.26 80.4602 144.2 80.6402 144.16 80.9002H143.85V76.9902H144.16C144.31 77.8102 144.5 78.4202 144.75 78.8302C145 79.2402 145.37 79.5702 145.88 79.8402C146.39 80.1102 146.94 80.2402 147.55 80.2402C148.25 80.2402 148.8 80.0602 149.21 79.6902C149.62 79.3202 149.82 78.8802 149.82 78.3802C149.82 78.1002 149.74 77.8202 149.59 77.5302C149.44 77.2402 149.2 76.9802 148.87 76.7302C148.65 76.5602 148.05 76.2002 147.08 75.6602C146.1 75.1102 145.41 74.6802 145 74.3502C144.59 74.0202 144.28 73.6702 144.06 73.2702C143.85 72.8802 143.74 72.4502 143.74 71.9702C143.74 71.1502 144.05 70.4502 144.68 69.8602C145.31 69.2702 146.11 68.9702 147.08 68.9702C147.69 68.9702 148.33 69.1202 149.01 69.4202C149.32 69.5602 149.55 69.6302 149.67 69.6302C149.82 69.6302 149.93 69.5902 150.03 69.5002C150.12 69.4102 150.2 69.2402 150.25 68.9702H150.56V68.9902Z" fill="#738C9A"/><path d="M169.17 77.5L169.45 77.56L168.47 80.65H159.64V80.34H160.07C160.55 80.34 160.9 80.18 161.1 79.87C161.22 79.69 161.28 79.28 161.28 78.63V71.27C161.28 70.56 161.2 70.11 161.04 69.93C160.82 69.68 160.5 69.56 160.06 69.56H159.63V69.25H164.79V69.56C164.18 69.56 163.76 69.61 163.52 69.73C163.28 69.85 163.11 70 163.02 70.18C162.93 70.36 162.89 70.79 162.89 71.47V78.63C162.89 79.1 162.93 79.41 163.02 79.59C163.09 79.71 163.19 79.79 163.33 79.85C163.47 79.91 163.91 79.93 164.64 79.93H165.47C166.34 79.93 166.96 79.87 167.31 79.74C167.66 79.61 167.99 79.38 168.28 79.05C168.57 78.72 168.86 78.2 169.15 77.5H169.17Z" fill="#738C9A"/><path d="M176.51 80.3398V80.6498H171.62V80.3398H172.02C172.49 80.3398 172.83 80.1998 173.05 79.9298C173.18 79.7498 173.25 79.3198 173.25 78.6398V71.2698C173.25 70.6898 173.21 70.3098 173.14 70.1298C173.08 69.9898 172.97 69.8698 172.8 69.7698C172.55 69.6398 172.3 69.5698 172.03 69.5698H171.63V69.2598H176.52V69.5698H176.11C175.64 69.5698 175.31 69.7098 175.09 69.9798C174.95 70.1598 174.88 70.5898 174.88 71.2798V78.6498C174.88 79.2298 174.92 79.6098 174.99 79.7898C175.05 79.9298 175.16 80.0498 175.34 80.1498C175.58 80.2798 175.84 80.3498 176.11 80.3498H176.52L176.51 80.3398Z" fill="#738C9A"/><path d="M190.54 69.2502V69.5602C190.14 69.6302 189.83 69.7602 189.62 69.9502C189.32 70.2202 189.06 70.6502 188.83 71.2102L184.85 80.9102H184.54L180.27 71.0802C180.05 70.5802 179.9 70.2702 179.81 70.1502C179.67 69.9802 179.5 69.8402 179.29 69.7402C179.09 69.6402 178.81 69.5802 178.46 69.5502V69.2402H183.12V69.5502C182.59 69.6002 182.25 69.6902 182.09 69.8202C181.93 69.9502 181.85 70.1102 181.85 70.3202C181.85 70.6002 181.98 71.0402 182.24 71.6302L185.14 78.3202L187.83 71.7202C188.09 71.0702 188.23 70.6202 188.23 70.3702C188.23 70.2102 188.15 70.0502 187.99 69.9002C187.83 69.7502 187.55 69.6502 187.17 69.5802C187.14 69.5802 187.09 69.5702 187.03 69.5502V69.2402H190.55L190.54 69.2502Z" fill="#738C9A"/><path d="M195.73 69.87V74.38H198.24C198.89 74.38 199.32 74.28 199.54 74.09C199.83 73.83 199.99 73.38 200.03 72.73H200.34V76.7H200.03C199.95 76.14 199.87 75.79 199.79 75.63C199.69 75.43 199.52 75.28 199.29 75.17C199.06 75.06 198.71 75 198.23 75H195.72V78.76C195.72 79.26 195.74 79.57 195.79 79.68C195.83 79.79 195.91 79.88 196.03 79.94C196.14 80 196.35 80.04 196.67 80.04H198.6C199.24 80.04 199.71 80 200 79.91C200.29 79.82 200.57 79.64 200.84 79.38C201.19 79.03 201.54 78.51 201.91 77.81H202.25L201.27 80.67H192.48V80.36H192.88C193.15 80.36 193.4 80.3 193.65 80.17C193.83 80.08 193.95 79.95 194.02 79.77C194.08 79.59 194.12 79.22 194.12 78.67V71.26C194.12 70.54 194.05 70.09 193.9 69.92C193.7 69.7 193.36 69.58 192.89 69.58H192.49V69.27H201.28L201.41 71.77H201.08C200.96 71.17 200.83 70.76 200.69 70.53C200.55 70.31 200.34 70.13 200.06 70.02C199.84 69.94 199.44 69.89 198.87 69.89H195.74L195.73 69.87Z" fill="#738C9A"/><path d="M420.31 155.42H27.0098V95.5601" stroke="#3B8281" stroke-width="0.75" stroke-miterlimit="10"/><path d="M413.66 242.41H420.31V155.42H413.66V242.41Z" fill="#3B8281"/></svg>