<svg width="333" height="236" fill="none" xmlns="http://www.w3.org/2000/svg"><g style="mix-blend-mode:multiply"><path d="M323.02 42.25C324.89 41.45 321.22 37.99 320.47 37.42C319.65 36.81 317.84 35.59 316.64 35.86C316.37 37.06 317.59 38.87 318.2 39.69C318.77 40.44 322.23 44.12 323.03 42.24L323.02 42.25ZM290.06 42.25C290.86 44.12 294.32 40.45 294.89 39.7C295.5 38.88 296.72 37.07 296.45 35.87C295.25 35.6 293.44 36.82 292.62 37.43C291.87 38 288.19 41.46 290.07 42.26L290.06 42.25ZM290.06 9.3C288.19 10.1 291.86 13.56 292.61 14.13C293.43 14.74 295.24 15.96 296.44 15.69C296.71 14.49 295.49 12.68 294.88 11.86C294.31 11.11 290.86 7.43 290.05 9.31L290.06 9.3ZM323.02 9.3C322.22 7.43 318.76 11.1 318.19 11.85C317.58 12.67 316.36 14.48 316.63 15.68C317.83 15.95 319.64 14.73 320.46 14.12C321.21 13.55 324.89 10.1 323.01 9.29L323.02 9.3ZM307.46 26.69C307.16 26.75 306.86 26.79 306.54 26.79C306.22 26.79 305.92 26.75 305.62 26.69C305.56 26.39 305.52 26.09 305.52 25.77C305.52 25.45 305.56 25.15 305.62 24.85C305.92 24.79 306.22 24.75 306.54 24.75C306.86 24.75 307.16 24.79 307.46 24.85C307.52 25.15 307.56 25.45 307.56 25.77C307.56 26.09 307.52 26.39 307.46 26.69ZM329.68 21.26C329.02 19.67 328.51 18.02 328.19 16.35C328.17 16.24 328.13 16.07 328.09 15.87C327.52 13.22 327.8 11.38 327.52 11.14C327.24 10.88 326.81 10.9 326.55 11.18C322 16.07 317.65 18.64 313.33 18.98C313.67 14.66 316.24 10.31 321.13 5.76C321.41 5.5 321.42 5.07 321.17 4.79C320.93 4.52 319.09 4.79 316.44 4.22C316.24 4.18 316.08 4.14 315.96 4.12C314.29 3.8 312.63 3.29 311.04 2.63C309.42 1.95 307.94 1.02 306.53 0C305.12 1.02 303.63 1.96 302.02 2.63C300.43 3.29 298.78 3.8 297.11 4.12C297 4.14 296.83 4.18 296.63 4.22C293.98 4.79 292.14 4.51 291.9 4.79C291.64 5.07 291.66 5.5 291.94 5.76C296.83 10.31 299.4 14.66 299.74 18.98C295.42 18.64 291.07 16.07 286.52 11.18C286.26 10.9 285.83 10.89 285.55 11.14C285.28 11.38 285.55 13.22 284.98 15.87C284.94 16.07 284.9 16.23 284.88 16.35C284.56 18.02 284.05 19.68 283.39 21.26C282.72 22.88 281.78 24.36 280.76 25.77C281.78 27.18 282.72 28.67 283.39 30.28C284.05 31.87 284.56 33.52 284.88 35.2C284.9 35.31 284.94 35.48 284.98 35.68C285.55 38.33 285.27 40.17 285.55 40.41C285.83 40.67 286.26 40.65 286.52 40.37C291.07 35.48 295.42 32.91 299.74 32.57C299.4 36.89 296.83 41.24 291.94 45.79C291.66 46.05 291.65 46.48 291.9 46.76C292.14 47.04 293.98 46.76 296.63 47.33C296.83 47.37 296.99 47.41 297.11 47.43C298.78 47.75 300.44 48.26 302.02 48.92C303.64 49.6 305.12 50.53 306.53 51.55C307.94 50.53 309.43 49.59 311.04 48.92C312.63 48.26 314.28 47.75 315.96 47.43C316.07 47.41 316.24 47.37 316.44 47.33C319.09 46.76 320.93 47.04 321.17 46.76C321.43 46.48 321.41 46.05 321.13 45.79C316.24 41.24 313.67 36.89 313.33 32.57C317.65 32.91 322.01 35.48 326.55 40.37C326.81 40.65 327.24 40.66 327.52 40.41C327.79 40.17 327.52 38.33 328.09 35.68C328.13 35.48 328.17 35.32 328.19 35.2C328.52 33.53 329.02 31.87 329.68 30.28C330.36 28.66 331.29 27.18 332.31 25.77C331.29 24.36 330.35 22.87 329.68 21.26ZM326.26 13.44C326.34 14.14 326.51 15.02 326.75 16.16C326.79 16.35 326.82 16.5 326.84 16.61C327.18 18.37 327.71 20.12 328.41 21.79C329 23.2 329.76 24.5 330.6 25.73C329.63 24.98 328.71 24.3 327.7 23.71C325.01 22.15 322.18 21.34 319.51 21.39C317.59 21.42 315.57 21.9 313.66 22.79C313.47 21.99 313.35 21.18 313.31 20.36C317.59 20.04 321.93 17.73 326.27 13.45L326.26 13.44ZM314.04 24.12C314.09 24.09 314.14 24.06 314.2 24.04C315.95 23.23 317.79 22.79 319.53 22.76C321.95 22.72 324.54 23.46 327.02 24.9C327.49 25.17 327.94 25.46 328.39 25.78C327.94 26.1 327.49 26.39 327.02 26.66C324.54 28.1 321.96 28.84 319.53 28.8C317.79 28.77 315.95 28.33 314.2 27.52C314.15 27.5 314.1 27.46 314.04 27.44C314.23 26.89 314.45 26.33 314.71 25.78C314.45 25.23 314.23 24.68 314.04 24.12ZM310.52 3.9C312.19 4.6 313.94 5.13 315.7 5.47C315.81 5.49 315.96 5.52 316.15 5.56C317.28 5.8 318.17 5.96 318.87 6.05C314.59 10.39 312.28 14.74 311.96 19.01C311.14 18.96 310.33 18.85 309.53 18.66C310.41 16.75 310.9 14.73 310.93 12.81C310.97 10.14 310.17 7.31 308.61 4.61C308.02 3.6 307.34 2.67 306.59 1.71C307.82 2.55 309.12 3.31 310.53 3.9H310.52ZM313.14 25.77C313.14 27.55 311.98 29.06 310.38 29.61C309.83 31.21 308.32 32.37 306.54 32.37C304.76 32.37 303.25 31.21 302.7 29.61C301.1 29.06 299.94 27.55 299.94 25.77C299.94 23.99 301.1 22.48 302.7 21.93C303.25 20.33 304.76 19.17 306.54 19.17C308.32 19.17 309.83 20.33 310.38 21.93C311.98 22.48 313.14 23.99 313.14 25.77ZM307.42 5.3C308.86 7.78 309.6 10.36 309.56 12.79C309.53 14.53 309.09 16.37 308.28 18.12C308.26 18.17 308.22 18.22 308.2 18.28C307.65 18.09 307.09 17.87 306.54 17.61C305.99 17.87 305.44 18.09 304.88 18.28C304.85 18.23 304.82 18.18 304.8 18.12C303.99 16.37 303.55 14.53 303.52 12.79C303.48 10.37 304.22 7.78 305.66 5.3C305.93 4.83 306.22 4.38 306.54 3.93C306.86 4.38 307.15 4.83 307.42 5.3ZM294.21 6.05C294.91 5.97 295.8 5.8 296.93 5.56C297.12 5.52 297.27 5.49 297.38 5.47C299.14 5.13 300.89 4.6 302.56 3.9C303.97 3.31 305.26 2.55 306.5 1.71C305.75 2.68 305.07 3.6 304.48 4.61C302.92 7.3 302.11 10.13 302.16 12.81C302.19 14.73 302.67 16.75 303.56 18.66C302.76 18.85 301.95 18.97 301.13 19.01C300.81 14.73 298.5 10.39 294.22 6.05H294.21ZM284.66 21.79C285.36 20.12 285.89 18.37 286.23 16.61C286.25 16.5 286.28 16.35 286.32 16.16C286.56 15.03 286.73 14.14 286.81 13.44C291.15 17.72 295.5 20.03 299.77 20.35C299.72 21.17 299.61 21.98 299.42 22.78C297.51 21.9 295.49 21.41 293.57 21.38C290.9 21.34 288.07 22.14 285.37 23.7C284.36 24.29 283.43 24.96 282.47 25.72C283.31 24.49 284.07 23.19 284.66 21.78V21.79ZM299.04 27.43C298.99 27.46 298.94 27.49 298.88 27.51C297.13 28.32 295.29 28.76 293.55 28.79C291.13 28.83 288.54 28.09 286.06 26.65C285.59 26.38 285.14 26.09 284.69 25.77C285.14 25.45 285.59 25.16 286.06 24.89C288.54 23.45 291.12 22.71 293.55 22.75C295.29 22.78 297.13 23.22 298.88 24.03C298.93 24.05 298.98 24.08 299.04 24.11C298.85 24.66 298.63 25.22 298.37 25.77C298.63 26.32 298.85 26.87 299.04 27.43ZM286.81 38.1C286.73 37.4 286.56 36.51 286.32 35.38C286.28 35.19 286.25 35.04 286.23 34.93C285.89 33.17 285.36 31.42 284.66 29.75C284.07 28.34 283.31 27.04 282.47 25.81C283.44 26.56 284.36 27.24 285.37 27.83C288.06 29.39 290.89 30.2 293.57 30.15C295.49 30.12 297.51 29.64 299.42 28.75C299.61 29.55 299.73 30.36 299.77 31.18C295.49 31.5 291.15 33.81 286.81 38.09V38.1ZM302.55 47.65C300.88 46.95 299.13 46.42 297.37 46.08C297.26 46.06 297.11 46.03 296.92 45.99C295.79 45.75 294.9 45.59 294.2 45.5C298.48 41.16 300.79 36.81 301.11 32.54C301.93 32.59 302.74 32.7 303.54 32.89C302.66 34.8 302.17 36.82 302.14 38.74C302.1 41.41 302.9 44.24 304.46 46.93C305.05 47.94 305.72 48.87 306.48 49.83C305.25 48.99 303.95 48.23 302.54 47.64L302.55 47.65ZM305.66 46.25C304.22 43.77 303.48 41.19 303.52 38.76C303.55 37.02 303.99 35.18 304.8 33.43C304.83 33.38 304.86 33.33 304.88 33.27C305.43 33.46 305.99 33.68 306.54 33.94C307.09 33.68 307.64 33.46 308.2 33.27C308.23 33.32 308.26 33.37 308.28 33.43C309.09 35.18 309.53 37.02 309.56 38.76C309.6 41.18 308.86 43.77 307.42 46.25C307.15 46.72 306.86 47.17 306.54 47.62C306.22 47.17 305.93 46.72 305.66 46.25ZM318.87 45.5C318.17 45.58 317.28 45.75 316.15 45.99C315.96 46.03 315.81 46.06 315.7 46.08C313.94 46.42 312.19 46.95 310.52 47.65C309.11 48.24 307.81 49 306.58 49.84C307.33 48.87 308.01 47.95 308.6 46.94C310.16 44.25 310.97 41.42 310.92 38.75C310.89 36.83 310.41 34.81 309.52 32.9C310.32 32.71 311.13 32.59 311.95 32.55C312.27 36.83 314.58 41.17 318.86 45.51L318.87 45.5ZM328.42 29.76C327.72 31.43 327.19 33.18 326.85 34.94C326.83 35.05 326.8 35.2 326.76 35.39C326.52 36.52 326.36 37.41 326.27 38.11C321.93 33.83 317.58 31.52 313.31 31.2C313.36 30.38 313.47 29.57 313.66 28.77C315.57 29.65 317.59 30.14 319.51 30.17C322.18 30.21 325.01 29.41 327.7 27.85C328.71 27.26 329.64 26.58 330.6 25.83C329.76 27.06 329 28.36 328.41 29.77L328.42 29.76ZM317.57 25.77C319.87 24.54 322.57 24.17 325.14 25.36C325.4 25.48 325.66 25.62 325.9 25.77C325.65 25.92 325.4 26.06 325.14 26.18C322.57 27.37 319.87 27 317.57 25.77ZM304.02 21.69C303.89 21.69 303.77 21.72 303.64 21.73C304.19 20.69 305.28 19.97 306.54 19.97C307.8 19.97 308.88 20.69 309.44 21.73C309.31 21.72 309.19 21.69 309.06 21.69C308.11 21.69 307.24 22.03 306.54 22.58C305.84 22.03 304.98 21.69 304.02 21.69ZM309.06 22.48C309.3 22.48 309.53 22.51 309.75 22.56C309.8 22.78 309.83 23.02 309.83 23.26C309.83 23.99 309.58 24.66 309.18 25.21C308.8 24.88 308.35 24.62 307.87 24.46C307.7 23.97 307.45 23.53 307.12 23.15C307.67 22.75 308.34 22.5 309.07 22.5L309.06 22.48ZM306.13 7.17C306.25 6.91 306.39 6.65 306.54 6.4C306.69 6.65 306.83 6.9 306.95 7.17C308.14 9.74 307.77 12.44 306.54 14.74C305.31 12.44 304.94 9.74 306.13 7.17ZM312.35 25.77C312.35 27.03 311.63 28.11 310.59 28.67C310.6 28.54 310.63 28.42 310.63 28.29C310.63 27.34 310.29 26.47 309.74 25.77C310.29 25.07 310.63 24.21 310.63 23.25C310.63 23.12 310.6 23 310.59 22.87C311.63 23.42 312.35 24.51 312.35 25.77ZM303.9 25.2C303.5 24.65 303.25 23.99 303.25 23.25C303.25 23.01 303.28 22.78 303.33 22.55C303.55 22.5 303.79 22.47 304.03 22.47C304.76 22.47 305.43 22.72 305.97 23.12C305.64 23.5 305.38 23.95 305.22 24.43C304.73 24.6 304.29 24.86 303.91 25.18L303.9 25.2ZM309.18 26.35C309.58 26.9 309.83 27.56 309.83 28.29C309.83 28.53 309.8 28.76 309.75 28.99C309.53 29.04 309.29 29.07 309.06 29.07C308.33 29.07 307.66 28.82 307.11 28.42C307.44 28.04 307.69 27.59 307.86 27.11C308.35 26.94 308.79 26.69 309.17 26.36L309.18 26.35ZM306.95 44.38C306.83 44.64 306.69 44.9 306.54 45.14C306.39 44.9 306.25 44.64 306.13 44.38C304.94 41.81 305.31 39.11 306.54 36.81C307.77 39.11 308.14 41.81 306.95 44.38ZM303.35 25.77C302.8 26.47 302.46 27.33 302.46 28.29C302.46 28.42 302.49 28.54 302.5 28.67C301.46 28.12 300.74 27.03 300.74 25.77C300.74 24.51 301.46 23.43 302.5 22.87C302.49 23 302.46 23.12 302.46 23.25C302.46 24.2 302.8 25.07 303.35 25.77ZM295.51 25.77C293.21 27 290.51 27.37 287.94 26.18C287.68 26.06 287.42 25.92 287.18 25.77C287.43 25.62 287.68 25.48 287.94 25.36C290.51 24.17 293.21 24.54 295.51 25.77ZM304.02 29.06C303.78 29.06 303.55 29.03 303.32 28.98C303.27 28.76 303.24 28.52 303.24 28.28C303.24 27.55 303.49 26.88 303.89 26.34C304.27 26.67 304.72 26.92 305.2 27.09C305.37 27.58 305.63 28.02 305.95 28.4C305.4 28.8 304.73 29.05 304.01 29.05L304.02 29.06ZM309.06 29.86C309.19 29.86 309.31 29.83 309.44 29.82C308.89 30.86 307.8 31.58 306.54 31.58C305.28 31.58 304.2 30.86 303.64 29.82C303.77 29.83 303.89 29.86 304.02 29.86C304.97 29.86 305.84 29.52 306.54 28.97C307.24 29.52 308.1 29.86 309.06 29.86Z" fill="#3B8281"/></g><path d="M145.96 62.48V62.79C145.66 62.79 145.42 62.84 145.24 62.95C145.06 63.06 144.88 63.26 144.71 63.55C144.6 63.75 144.42 64.21 144.18 64.95L141 74.14H140.66L138.06 66.85L135.48 74.14H135.18L131.79 64.67C131.54 63.96 131.38 63.55 131.31 63.42C131.2 63.21 131.05 63.05 130.85 62.94C130.66 62.84 130.39 62.78 130.06 62.78V62.47H134.28V62.78H134.08C133.78 62.78 133.56 62.85 133.4 62.98C133.24 63.11 133.16 63.28 133.16 63.47C133.16 63.66 133.28 64.12 133.53 64.82L135.78 71.22L137.67 65.78L137.33 64.82L137.06 64.05C136.94 63.77 136.81 63.52 136.66 63.31C136.59 63.2 136.5 63.11 136.39 63.04C136.25 62.94 136.11 62.87 135.97 62.82C135.86 62.79 135.7 62.77 135.47 62.77V62.46H139.91V62.77H139.61C139.3 62.77 139.07 62.84 138.92 62.97C138.77 63.1 138.7 63.29 138.7 63.52C138.7 63.81 138.83 64.3 139.08 65.02L141.27 71.22L143.44 64.94C143.69 64.24 143.81 63.76 143.81 63.49C143.81 63.36 143.77 63.24 143.69 63.13C143.61 63.02 143.51 62.94 143.38 62.89C143.17 62.81 142.89 62.77 142.55 62.77V62.46H145.96V62.48Z" fill="#738C9A"/><path d="M151.02 67.77H156.32V64.51C156.32 63.93 156.28 63.54 156.21 63.36C156.15 63.22 156.04 63.1 155.86 63C155.62 62.87 155.36 62.8 155.09 62.8H154.69V62.49H159.57V62.8H159.17C158.9 62.8 158.65 62.86 158.4 62.99C158.22 63.08 158.1 63.22 158.03 63.4C157.97 63.58 157.93 63.95 157.93 64.51V71.87C157.93 72.45 157.97 72.83 158.04 73.01C158.1 73.15 158.21 73.27 158.38 73.37C158.63 73.5 158.88 73.57 159.15 73.57H159.55V73.88H154.67V73.57H155.07C155.54 73.57 155.87 73.43 156.09 73.16C156.23 72.98 156.3 72.55 156.3 71.86V68.39H151V71.86C151 72.44 151.04 72.82 151.11 73C151.17 73.14 151.28 73.26 151.46 73.36C151.7 73.49 151.96 73.56 152.23 73.56H152.64V73.87H147.75V73.56H148.15C148.62 73.56 148.96 73.42 149.18 73.15C149.31 72.97 149.38 72.54 149.38 71.85V64.49C149.38 63.91 149.34 63.52 149.27 63.34C149.21 63.2 149.1 63.08 148.93 62.98C148.68 62.85 148.43 62.78 148.16 62.78H147.76V62.47H152.65V62.78H152.24C151.97 62.78 151.72 62.84 151.47 62.97C151.3 63.06 151.18 63.2 151.11 63.38C151.04 63.56 151.01 63.93 151.01 64.49V67.75L151.02 67.77Z" fill="#738C9A"/><path d="M164.89 63.1V67.61H167.4C168.05 67.61 168.48 67.51 168.7 67.32C168.99 67.06 169.15 66.61 169.19 65.96H169.5V69.93H169.19C169.11 69.37 169.03 69.02 168.95 68.86C168.85 68.66 168.68 68.51 168.45 68.4C168.22 68.29 167.87 68.23 167.39 68.23H164.88V71.99C164.88 72.49 164.9 72.8 164.95 72.91C165 73.02 165.07 73.11 165.19 73.17C165.3 73.23 165.51 73.27 165.83 73.27H167.76C168.4 73.27 168.87 73.23 169.16 73.14C169.45 73.05 169.73 72.87 170 72.61C170.35 72.26 170.7 71.74 171.07 71.04H171.41L170.43 73.9H161.64V73.59H162.04C162.31 73.59 162.56 73.53 162.81 73.4C162.99 73.31 163.11 73.18 163.18 73C163.24 72.82 163.28 72.45 163.28 71.9V64.49C163.28 63.77 163.21 63.32 163.06 63.15C162.86 62.93 162.52 62.81 162.05 62.81H161.65V62.5H170.44L170.57 65H170.24C170.12 64.4 169.99 63.99 169.85 63.76C169.71 63.54 169.5 63.36 169.22 63.25C169 63.17 168.6 63.12 168.03 63.12H164.9L164.89 63.1Z" fill="#738C9A"/><path d="M184.83 73.88H181.79L177.93 68.55C177.64 68.56 177.41 68.57 177.23 68.57C177.16 68.57 177.08 68.57 176.99 68.57C176.91 68.57 176.82 68.57 176.73 68.56V71.87C176.73 72.59 176.81 73.03 176.97 73.21C177.18 73.46 177.5 73.58 177.93 73.58H178.38V73.89H173.49V73.58H173.92C174.4 73.58 174.75 73.42 174.95 73.11C175.07 72.94 175.13 72.52 175.13 71.87V64.5C175.13 63.78 175.05 63.34 174.89 63.16C174.67 62.91 174.35 62.79 173.91 62.79H173.48V62.48H177.63C178.84 62.48 179.73 62.57 180.31 62.74C180.88 62.92 181.37 63.24 181.77 63.72C182.17 64.19 182.37 64.76 182.37 65.41C182.37 66.11 182.14 66.72 181.68 67.23C181.22 67.75 180.52 68.11 179.56 68.32L181.91 71.59C182.45 72.34 182.91 72.84 183.3 73.09C183.69 73.34 184.19 73.49 184.81 73.56V73.87L184.83 73.88ZM176.73 68.02C176.84 68.02 176.93 68.02 177.01 68.02C177.09 68.02 177.15 68.02 177.2 68.02C178.29 68.02 179.11 67.78 179.66 67.31C180.21 66.84 180.49 66.24 180.49 65.51C180.49 64.78 180.27 64.22 179.82 63.77C179.37 63.32 178.78 63.1 178.05 63.1C177.72 63.1 177.28 63.15 176.73 63.26V68V68.02Z" fill="#738C9A"/><path d="M189.65 63.1V67.61H192.16C192.81 67.61 193.24 67.51 193.46 67.32C193.75 67.06 193.91 66.61 193.95 65.96H194.26V69.93H193.95C193.87 69.37 193.79 69.02 193.71 68.86C193.61 68.66 193.44 68.51 193.21 68.4C192.98 68.29 192.63 68.23 192.15 68.23H189.64V71.99C189.64 72.49 189.66 72.8 189.71 72.91C189.75 73.02 189.83 73.11 189.95 73.17C190.06 73.23 190.28 73.27 190.59 73.27H192.52C193.16 73.27 193.63 73.23 193.92 73.14C194.21 73.05 194.49 72.87 194.76 72.61C195.11 72.26 195.46 71.74 195.83 71.04H196.17L195.19 73.9H186.4V73.59H186.8C187.07 73.59 187.32 73.53 187.57 73.4C187.75 73.31 187.87 73.18 187.94 73C188 72.82 188.04 72.45 188.04 71.9V64.49C188.04 63.77 187.97 63.32 187.82 63.15C187.62 62.93 187.28 62.81 186.81 62.81H186.41V62.5H195.2L195.33 65H195C194.88 64.4 194.75 63.99 194.61 63.76C194.47 63.54 194.26 63.36 193.98 63.25C193.76 63.17 193.36 63.12 192.79 63.12H189.66L189.65 63.1Z" fill="#738C9A"/><path d="M203.93 73.88V73.57H204.36C204.84 73.57 205.18 73.42 205.39 73.11C205.51 72.92 205.57 72.51 205.57 71.87V64.5C205.57 63.79 205.49 63.34 205.33 63.16C205.11 62.91 204.79 62.79 204.35 62.79H203.92V62.48H208.56C210.26 62.48 211.56 62.67 212.45 63.06C213.34 63.45 214.05 64.09 214.59 64.99C215.13 65.89 215.4 66.94 215.4 68.12C215.4 69.71 214.92 71.03 213.95 72.1C212.87 73.29 211.22 73.88 209.01 73.88H203.91H203.93ZM207.19 73.06C207.9 73.22 208.5 73.3 208.98 73.3C210.28 73.3 211.36 72.84 212.22 71.93C213.08 71.02 213.51 69.78 213.51 68.21C213.51 66.64 213.08 65.39 212.22 64.48C211.36 63.57 210.26 63.12 208.92 63.12C208.42 63.12 207.84 63.2 207.2 63.36V73.06H207.19Z" fill="#738C9A"/><path d="M229.09 73.88H226.05L222.19 68.55C221.9 68.56 221.67 68.57 221.49 68.57C221.42 68.57 221.34 68.57 221.25 68.57C221.17 68.57 221.08 68.57 220.99 68.56V71.87C220.99 72.59 221.07 73.03 221.23 73.21C221.44 73.46 221.76 73.58 222.19 73.58H222.64V73.89H217.75V73.58H218.18C218.66 73.58 219.01 73.42 219.21 73.11C219.33 72.94 219.39 72.52 219.39 71.87V64.5C219.39 63.78 219.31 63.34 219.15 63.16C218.93 62.91 218.61 62.79 218.17 62.79H217.74V62.48H221.89C223.1 62.48 223.99 62.57 224.57 62.74C225.14 62.92 225.63 63.24 226.03 63.72C226.43 64.19 226.63 64.76 226.63 65.41C226.63 66.11 226.4 66.72 225.94 67.23C225.48 67.75 224.78 68.11 223.82 68.32L226.17 71.59C226.71 72.34 227.17 72.84 227.56 73.09C227.95 73.34 228.45 73.49 229.07 73.56V73.87L229.09 73.88ZM220.99 68.02C221.1 68.02 221.19 68.02 221.27 68.02C221.35 68.02 221.41 68.02 221.46 68.02C222.55 68.02 223.37 67.78 223.92 67.31C224.47 66.84 224.75 66.24 224.75 65.51C224.75 64.78 224.53 64.22 224.08 63.77C223.63 63.32 223.04 63.1 222.31 63.1C221.98 63.1 221.54 63.15 220.99 63.26V68V68.02Z" fill="#738C9A"/><path d="M233.92 63.1V67.61H236.43C237.08 67.61 237.51 67.51 237.73 67.32C238.02 67.06 238.18 66.61 238.22 65.96H238.53V69.93H238.22C238.14 69.37 238.06 69.02 237.98 68.86C237.88 68.66 237.71 68.51 237.48 68.4C237.25 68.29 236.9 68.23 236.42 68.23H233.91V71.99C233.91 72.49 233.93 72.8 233.98 72.91C234.03 73.02 234.1 73.11 234.22 73.17C234.33 73.23 234.54 73.27 234.86 73.27H236.79C237.43 73.27 237.9 73.23 238.19 73.14C238.48 73.05 238.76 72.87 239.03 72.61C239.38 72.26 239.73 71.74 240.1 71.04H240.44L239.46 73.9H230.67V73.59H231.07C231.34 73.59 231.59 73.53 231.84 73.4C232.02 73.31 232.14 73.18 232.21 73C232.27 72.82 232.31 72.45 232.31 71.9V64.49C232.31 63.77 232.24 63.32 232.09 63.15C231.89 62.93 231.55 62.81 231.08 62.81H230.68V62.5H239.47L239.6 65H239.27C239.15 64.4 239.02 63.99 238.88 63.76C238.74 63.53 238.53 63.36 238.25 63.25C238.03 63.17 237.63 63.12 237.06 63.12H233.93L233.92 63.1Z" fill="#738C9A"/><path d="M250.1 70.06H245.68L244.91 71.86C244.72 72.3 244.62 72.63 244.62 72.85C244.62 73.02 244.7 73.18 244.87 73.31C245.04 73.44 245.39 73.53 245.94 73.57V73.88H242.35V73.57C242.83 73.49 243.13 73.38 243.28 73.24C243.57 72.97 243.88 72.42 244.23 71.6L248.24 62.22H248.53L252.5 71.71C252.82 72.47 253.11 72.97 253.37 73.19C253.63 73.42 253.99 73.54 254.46 73.57V73.88H249.96V73.57C250.41 73.55 250.72 73.47 250.88 73.34C251.04 73.21 251.12 73.05 251.12 72.87C251.12 72.62 251.01 72.23 250.78 71.7L250.09 70.06H250.1ZM249.86 69.44L247.93 64.83L245.95 69.44H249.87H249.86Z" fill="#738C9A"/><path d="M263.08 73.88L258.67 64.28V71.9C258.67 72.6 258.75 73.04 258.9 73.21C259.11 73.45 259.44 73.56 259.88 73.56H260.28V73.87H256.31V73.56H256.71C257.19 73.56 257.53 73.41 257.74 73.12C257.86 72.94 257.92 72.53 257.92 71.89V64.44C257.92 63.94 257.86 63.57 257.75 63.35C257.67 63.19 257.53 63.05 257.32 62.94C257.11 62.83 256.77 62.78 256.31 62.78V62.47H259.54L263.68 71.39L267.75 62.47H270.98V62.78H270.58C270.09 62.78 269.75 62.93 269.55 63.22C269.43 63.4 269.36 63.81 269.36 64.45V71.9C269.36 72.6 269.44 73.04 269.6 73.21C269.81 73.45 270.14 73.56 270.58 73.56H270.98V73.87H266.14V73.56H266.54C267.03 73.56 267.37 73.41 267.57 73.12C267.69 72.94 267.76 72.53 267.76 71.89V64.27L263.36 73.87H263.08V73.88Z" fill="#738C9A"/><path d="M280.62 62.22V66.16H280.31C280.21 65.4 280.03 64.8 279.77 64.35C279.51 63.9 279.14 63.55 278.66 63.28C278.18 63.02 277.68 62.88 277.16 62.88C276.58 62.88 276.09 63.06 275.71 63.41C275.33 63.77 275.14 64.17 275.14 64.63C275.14 64.98 275.26 65.29 275.5 65.58C275.85 66 276.67 66.56 277.98 67.26C279.05 67.83 279.77 68.27 280.16 68.58C280.55 68.89 280.85 69.25 281.06 69.66C281.27 70.07 281.38 70.51 281.38 70.96C281.38 71.82 281.04 72.57 280.37 73.19C279.7 73.82 278.84 74.13 277.78 74.13C277.45 74.13 277.14 74.1 276.85 74.05C276.68 74.02 276.32 73.92 275.77 73.74C275.22 73.56 274.88 73.48 274.73 73.48C274.58 73.48 274.48 73.52 274.4 73.61C274.32 73.69 274.26 73.87 274.22 74.13H273.91V70.22H274.22C274.37 71.04 274.56 71.65 274.81 72.06C275.06 72.47 275.43 72.8 275.94 73.07C276.45 73.34 277 73.47 277.61 73.47C278.31 73.47 278.86 73.29 279.27 72.92C279.68 72.55 279.88 72.11 279.88 71.61C279.88 71.33 279.8 71.05 279.65 70.76C279.5 70.47 279.26 70.21 278.93 69.96C278.71 69.79 278.11 69.43 277.14 68.89C276.16 68.34 275.47 67.91 275.06 67.58C274.65 67.25 274.34 66.9 274.12 66.5C273.9 66.1 273.8 65.68 273.8 65.2C273.8 64.38 274.11 63.68 274.74 63.09C275.37 62.5 276.17 62.2 277.14 62.2C277.75 62.2 278.39 62.35 279.07 62.65C279.38 62.79 279.61 62.86 279.73 62.86C279.88 62.86 279.99 62.82 280.09 62.73C280.18 62.64 280.26 62.47 280.31 62.2H280.62V62.22Z" fill="#738C9A"/><path d="M299.24 70.73L299.52 70.79L298.54 73.88H289.71V73.57H290.14C290.62 73.57 290.97 73.41 291.17 73.1C291.29 72.92 291.35 72.51 291.35 71.86V64.5C291.35 63.79 291.27 63.34 291.11 63.16C290.89 62.91 290.57 62.79 290.13 62.79H289.7V62.48H294.86V62.79C294.25 62.79 293.83 62.84 293.59 62.96C293.35 63.08 293.18 63.23 293.09 63.41C293 63.59 292.96 64.02 292.96 64.7V71.86C292.96 72.33 293 72.64 293.09 72.82C293.16 72.94 293.26 73.02 293.4 73.08C293.54 73.14 293.98 73.16 294.71 73.16H295.54C296.41 73.16 297.03 73.1 297.38 72.97C297.73 72.84 298.06 72.61 298.35 72.28C298.64 71.95 298.93 71.43 299.22 70.73H299.24Z" fill="#738C9A"/><path d="M306.58 73.57V73.88H301.69V73.57H302.09C302.56 73.57 302.9 73.43 303.12 73.16C303.25 72.98 303.32 72.55 303.32 71.86V64.49C303.32 63.91 303.28 63.53 303.21 63.35C303.15 63.21 303.04 63.09 302.87 62.99C302.62 62.86 302.37 62.79 302.1 62.79H301.7V62.48H306.59V62.79H306.18C305.71 62.79 305.38 62.93 305.16 63.2C305.02 63.38 304.95 63.81 304.95 64.5V71.87C304.95 72.45 304.99 72.83 305.06 73.01C305.12 73.15 305.23 73.27 305.41 73.37C305.65 73.5 305.91 73.57 306.18 73.57H306.59H306.58Z" fill="#738C9A"/><path d="M320.6 62.48V62.79C320.2 62.86 319.89 62.99 319.68 63.18C319.38 63.45 319.12 63.88 318.89 64.44L314.91 74.14H314.6L310.33 64.31C310.11 63.81 309.96 63.5 309.87 63.38C309.73 63.21 309.56 63.07 309.35 62.97C309.15 62.87 308.87 62.81 308.52 62.78V62.47H313.18V62.78C312.65 62.83 312.31 62.92 312.15 63.05C311.99 63.18 311.91 63.34 311.91 63.55C311.91 63.83 312.04 64.27 312.3 64.86L315.2 71.55L317.89 64.95C318.15 64.3 318.29 63.85 318.29 63.6C318.29 63.44 318.21 63.28 318.05 63.13C317.89 62.98 317.61 62.88 317.23 62.81C317.2 62.81 317.15 62.8 317.09 62.78V62.47H320.61L320.6 62.48Z" fill="#738C9A"/><path d="M325.79 63.1V67.61H328.3C328.95 67.61 329.38 67.51 329.6 67.32C329.89 67.06 330.05 66.61 330.09 65.96H330.4V69.93H330.09C330.01 69.37 329.93 69.02 329.85 68.86C329.75 68.66 329.58 68.51 329.35 68.4C329.12 68.29 328.77 68.23 328.29 68.23H325.78V71.99C325.78 72.49 325.8 72.8 325.85 72.91C325.89 73.02 325.97 73.11 326.09 73.17C326.2 73.23 326.41 73.27 326.73 73.27H328.66C329.3 73.27 329.77 73.23 330.06 73.14C330.35 73.05 330.63 72.87 330.9 72.61C331.25 72.26 331.6 71.74 331.97 71.04H332.31L331.33 73.9H322.54V73.59H322.94C323.21 73.59 323.46 73.53 323.71 73.4C323.89 73.31 324.01 73.18 324.08 73C324.14 72.82 324.18 72.45 324.18 71.9V64.49C324.18 63.77 324.11 63.32 323.96 63.15C323.76 62.93 323.42 62.81 322.95 62.81H322.55V62.5H331.34L331.47 65H331.14C331.02 64.4 330.89 63.99 330.75 63.76C330.61 63.53 330.4 63.36 330.12 63.25C329.9 63.17 329.5 63.12 328.93 63.12H325.8L325.79 63.1Z" fill="#738C9A"/><path d="M0 148.65H307.31V88.79" stroke="#3B8281" stroke-width="0.75" stroke-miterlimit="10"/><path d="M6.65 148.65H0V235.64H6.65V148.65Z" fill="#3B8281"/></svg>