<?xml version="1.0" encoding="UTF-8"?>
<svg id="_圖層_1" data-name="圖層_1" xmlns="http://www.w3.org/2000/svg" version="1.1" viewBox="0 0 156 41">
  <!-- Generator: Adobe Illustrator 30.0.0, SVG Export Plug-In . SVG Version: 2.1.1 Build 123)  -->
  <defs>
    <style>
      .st0 {
        fill: #738c9a;
      }

      .st1 {
        fill: #3b8281;
      }
    </style>
  </defs>
  <path class="st0" d="M53.9,34.2v.2c-.2,0-.3,0-.4,0,0,0-.2.2-.3.3,0,.1-.2.4-.3.8l-1.7,5h-.2l-1.4-4-1.4,4h-.2l-1.9-5.2c-.1-.4-.2-.6-.3-.7,0-.1-.1-.2-.2-.3-.1,0-.2,0-.4,0v-.2h2.3v.2h-.1c-.2,0-.3,0-.4.1,0,0-.1.2-.1.3s0,.4.2.7l1.2,3.5,1-3-.2-.5-.2-.4c0-.1-.1-.3-.2-.4,0,0,0-.1-.2-.1,0,0-.2-.1-.2-.1,0,0-.2,0-.3,0v-.2h2.4v.2h-.2c-.2,0-.3,0-.4.1,0,0-.1.2-.1.3s0,.4.2.8l1.2,3.4,1.2-3.4c.1-.4.2-.6.2-.8s0-.1,0-.2c0,0,0,0-.2-.1-.1,0-.3,0-.5,0v-.2h1.9ZM56.7,37.1h2.9v-1.8c0-.3,0-.5,0-.6,0,0,0-.1-.2-.2-.1,0-.3-.1-.4-.1h-.2v-.2h2.7v.2h-.2c-.2,0-.3,0-.4.1,0,0-.2.1-.2.2,0,.1,0,.3,0,.6v4c0,.3,0,.5,0,.6,0,0,0,.1.2.2.1,0,.3.1.4.1h.2v.2h-2.7v-.2h.2c.2,0,.4,0,.6-.2,0-.1.1-.3.1-.7v-1.9h-2.9v1.9c0,.3,0,.5,0,.6,0,0,.1.1.2.2.1,0,.3.1.4.1h.2v.2h-2.7v-.2h.2c.3,0,.5,0,.6-.2,0-.1.1-.3.1-.7v-4c0-.3,0-.5,0-.6,0,0,0-.1-.2-.2-.1,0-.3-.1-.4-.1h-.2v-.2h2.7v.2h-.2c-.1,0-.3,0-.4.1-.1,0-.2.1-.2.2,0,.1,0,.3,0,.6v1.8ZM64.3,34.6v2.5h1.4c.4,0,.6,0,.7-.2.2-.1.2-.4.3-.8h.2v2.2h-.2c0-.3,0-.5-.1-.6,0-.1-.2-.2-.3-.2-.1,0-.3,0-.6,0h-1.4v2.1c0,.3,0,.4,0,.5,0,0,0,.1.1.1,0,0,.2,0,.3,0h1.1c.3,0,.6,0,.8,0,.2,0,.3-.1.5-.3.2-.2.4-.5.6-.9h.2l-.5,1.6h-4.8v-.2h.2c.1,0,.3,0,.4-.1.1,0,.2-.1.2-.2,0-.1,0-.3,0-.6v-4.1c0-.4,0-.6-.1-.7-.1-.1-.3-.2-.5-.2h-.2v-.2h4.8v1.4c0,0-.1,0-.1,0,0-.3-.1-.5-.2-.7,0-.1-.2-.2-.3-.3-.1,0-.3,0-.7,0h-1.7ZM75.2,40.5h-1.7l-2.1-2.9h-.7v1.8c0,.4,0,.6.1.7.1.1.3.2.5.2h.2v.2h-2.7v-.2h.2c.3,0,.4,0,.6-.3,0,0,0-.3,0-.7v-4c0-.4,0-.6-.1-.7-.1-.1-.3-.2-.5-.2h-.2v-.2h2.3c.7,0,1.2,0,1.5.2.3,0,.6.3.8.5s.3.6.3.9-.1.7-.4,1-.6.5-1.2.6l1.3,1.8c.3.4.5.7.8.8.2.1.5.2.8.3v.2h0ZM70.8,37.3h.3c.6,0,1-.1,1.3-.4.3-.3.4-.6.4-1s-.1-.7-.4-.9c-.2-.2-.6-.4-1-.4s-.4,0-.7,0v2.6h0ZM77.8,34.6v2.5h1.4c.4,0,.6,0,.7-.2.2-.1.2-.4.3-.8h.2v2.2h-.2c0-.3,0-.5-.1-.6,0-.1-.2-.2-.3-.2-.1,0-.3,0-.6,0h-1.4v2.1c0,.3,0,.4,0,.5,0,0,0,.1.1.1,0,0,.2,0,.4,0h1.1c.3,0,.6,0,.8,0,.2,0,.3-.1.5-.3.2-.2.4-.5.6-.9h.2l-.5,1.6h-4.8v-.2h.2c.2,0,.3,0,.4-.1,0,0,.2-.1.2-.2,0-.1,0-.3,0-.6v-4.1c0-.4,0-.6-.1-.7-.1-.1-.3-.2-.5-.2h-.2v-.2h4.8v1.4c0,0-.1,0-.1,0,0-.3-.1-.5-.2-.7,0-.1-.2-.2-.3-.3-.1,0-.3,0-.7,0h-1.7ZM85.7,40.5v-.2h.2c.3,0,.4,0,.6-.2,0-.1,0-.3,0-.7v-4c0-.4,0-.6-.1-.7-.1-.1-.3-.2-.5-.2h-.2v-.2h2.5c.9,0,1.6.1,2.1.3.5.2.9.6,1.2,1.1.3.5.4,1.1.4,1.7s-.3,1.6-.8,2.2c-.6.7-1.5,1-2.7,1h-2.8,0ZM87.4,40c.4,0,.7.1,1,.1.7,0,1.3-.2,1.8-.8s.7-1.2.7-2-.2-1.5-.7-2-1.1-.8-1.8-.8-.6,0-.9.1v5.3h0ZM99.4,40.5h-1.7l-2.1-2.9h-.7v1.8c0,.4,0,.6.1.7.1.1.3.2.5.2h.2v.2h-2.7v-.2h.2c.3,0,.5,0,.6-.3,0,0,0-.3,0-.7v-4c0-.4,0-.6-.1-.7-.1-.1-.3-.2-.5-.2h-.2v-.2h2.3c.7,0,1.2,0,1.5.2.3,0,.6.3.8.5s.3.6.3.9-.1.7-.4,1-.6.5-1.2.6l1.3,1.8c.3.4.5.7.8.8.2.1.5.2.8.3v.2h0ZM95,37.3h.3c.6,0,1-.1,1.3-.4.3-.3.4-.6.4-1s-.1-.7-.4-.9c-.2-.2-.6-.4-1-.4s-.4,0-.7,0v2.6h0ZM102.1,34.6v2.5h1.4c.4,0,.6,0,.7-.2.2-.1.2-.4.3-.8h.2v2.2h-.2c0-.3,0-.5-.1-.6,0-.1-.1-.2-.3-.2-.1,0-.3,0-.6,0h-1.4v2.1c0,.3,0,.4,0,.5,0,0,0,.1.1.1,0,0,.2,0,.3,0h1.1c.3,0,.6,0,.8,0,.2,0,.3-.1.5-.3.2-.2.4-.5.6-.9h.2l-.5,1.6h-4.8v-.2h.2c.2,0,.3,0,.4-.1,0,0,.2-.1.2-.2,0-.1,0-.3,0-.6v-4.1c0-.4,0-.6-.1-.7-.1-.1-.3-.2-.5-.2h-.2v-.2h4.8v1.4c0,0-.1,0-.1,0,0-.3-.1-.5-.2-.7,0-.1-.2-.2-.3-.3-.1,0-.3,0-.7,0h-1.7ZM110.9,38.4h-2.4l-.4,1c0,.2-.2.4-.2.5s0,.2.1.2c0,0,.3.1.6.1v.2h-2v-.2c.3,0,.4-.1.5-.2.2-.1.3-.4.5-.9l2.2-5.1h.2l2.2,5.2c.2.4.3.7.5.8s.3.2.6.2v.2h-2.5v-.2c.2,0,.4,0,.5-.1,0,0,.1-.2.1-.3s0-.4-.2-.6l-.4-.9ZM110.8,38l-1.1-2.5-1.1,2.5h2.2ZM118.1,40.5l-2.4-5.3v4.2c0,.4,0,.6.1.7.1.1.3.2.5.2h.2v.2h-2.2v-.2h.2c.3,0,.4,0,.6-.2,0-.1,0-.3,0-.7v-4.1c0-.3,0-.5,0-.6,0,0-.1-.2-.2-.2s-.3,0-.6,0v-.2h1.8l2.3,4.9,2.2-4.9h1.8v.2h-.2c-.3,0-.5,0-.6.2,0,.1,0,.3,0,.7v4.1c0,.4,0,.6.1.7.1.1.3.2.5.2h.2v.2h-2.7v-.2h.2c.3,0,.5,0,.6-.2,0-.1.1-.3.1-.7v-4.2l-2.4,5.3h-.2ZM127.7,34.1v2.2h-.2c0-.4-.2-.7-.3-1-.1-.2-.3-.4-.6-.6-.3-.1-.5-.2-.8-.2s-.6.1-.8.3c-.2.2-.3.4-.3.7s0,.4.2.5c.2.2.6.5,1.4.9.6.3,1,.5,1.2.7.2.2.4.4.5.6.1.2.2.5.2.7,0,.5-.2.9-.5,1.2-.4.3-.8.5-1.4.5s-.4,0-.5,0c0,0-.3,0-.6-.2-.3-.1-.5-.2-.6-.2s-.1,0-.2,0c0,0,0,.1,0,.3h-.2v-2.1h.2c0,.5.2.8.3,1,.1.2.3.4.6.6.3.2.6.2.9.2s.7-.1.9-.3c.2-.2.3-.4.3-.7s0-.3-.1-.5c0-.2-.2-.3-.4-.4-.1,0-.4-.3-1-.6-.5-.3-.9-.5-1.1-.7-.2-.2-.4-.4-.5-.6-.1-.2-.2-.5-.2-.7,0-.5.2-.8.5-1.2.3-.3.8-.5,1.3-.5s.7,0,1.1.2c.2,0,.3.1.4.1s.2,0,.2,0c0,0,0-.1.1-.3h.2ZM137.9,38.8h.2s-.5,1.7-.5,1.7h-4.8v-.2h.2c.3,0,.4,0,.6-.3,0,0,0-.3,0-.7v-4c0-.4,0-.6-.1-.7-.1-.1-.3-.2-.5-.2h-.2v-.2h2.8v.2c-.3,0-.6,0-.7,0s-.2.2-.3.2c0,0,0,.3,0,.7v3.9c0,.3,0,.4,0,.5,0,0,0,.1.2.1,0,0,.3,0,.7,0h.5c.5,0,.8,0,1-.1s.4-.2.5-.4.3-.5.5-.8h0ZM141.9,40.3v.2h-2.7v-.2h.2c.3,0,.5,0,.6-.2,0-.1.1-.3.1-.7v-4c0-.3,0-.5,0-.6,0,0,0-.1-.2-.2-.1,0-.3-.1-.4-.1h-.2v-.2h2.7v.2h-.2c-.3,0-.4,0-.6.2,0,.1-.1.3-.1.7v4c0,.3,0,.5,0,.6,0,0,.1.1.2.2.1,0,.3.1.4.1h.2ZM149.6,34.2v.2c-.2,0-.4.1-.5.2-.2.1-.3.4-.4.7l-2.2,5.3h-.2l-2.3-5.4c-.1-.3-.2-.5-.2-.5,0-.1-.2-.2-.3-.2-.1,0-.3,0-.4,0v-.2h2.6v.2c-.3,0-.5,0-.6.1,0,0-.1.2-.1.3s0,.4.2.7l1.6,3.7,1.5-3.6c.1-.4.2-.6.2-.7s0-.2-.1-.3c0,0-.2-.1-.4-.2,0,0,0,0,0,0v-.2h1.9,0ZM152.4,34.6v2.5h1.4c.4,0,.6,0,.7-.2.2-.1.2-.4.3-.8h.2v2.2h-.2c0-.3,0-.5-.1-.6,0-.1-.1-.2-.3-.2-.1,0-.3,0-.6,0h-1.4v2.1c0,.3,0,.4,0,.5,0,0,0,.1.1.1,0,0,.2,0,.4,0h1.1c.4,0,.6,0,.8,0,.2,0,.3-.1.5-.3.2-.2.4-.5.6-.9h.2l-.5,1.6h-4.8v-.2h.2c.2,0,.3,0,.4-.1.1,0,.2-.1.2-.2,0-.1,0-.3,0-.6v-4.1c0-.4,0-.6-.1-.7-.1-.1-.3-.2-.6-.2h-.2v-.2h4.8v1.4c0,0-.1,0-.1,0,0-.3-.1-.5-.2-.7,0-.1-.2-.2-.4-.3-.1,0-.3,0-.6,0h-1.7Z"/>
  <path class="st1" d="M68.3,23.1c1-.4-1-2.3-1.4-2.6-.5-.3-1.4-1-2.1-.9-.1.7.5,1.6.9,2.1.3.4,2.2,2.4,2.6,1.4h0ZM50.3,23.1c.4,1,2.3-1,2.6-1.4.3-.5,1-1.4.9-2.1-.7-.1-1.7.5-2.1.9-.4.3-2.4,2.2-1.4,2.6h0ZM50.3,5.1c-1,.4,1,2.3,1.4,2.6.5.3,1.4,1,2.1.9.2-.7-.5-1.7-.8-2.1-.3-.4-2.2-2.4-2.6-1.4h0ZM68.3,5.1c-.4-1-2.3,1-2.6,1.4-.3.5-1,1.4-.8,2.1.7.1,1.7-.5,2.1-.8.4-.3,2.4-2.2,1.4-2.6h0ZM59.8,14.6c-.2,0-.3,0-.5,0s-.3,0-.5,0c0-.2,0-.3,0-.5s0-.3,0-.5c.2,0,.3,0,.5,0s.3,0,.5,0c0,.2,0,.3,0,.5s0,.3,0,.5ZM72,11.6c-.4-.9-.6-1.8-.8-2.7,0,0,0-.2,0-.3-.3-1.5-.2-2.5-.3-2.6-.1-.1-.4-.1-.5,0-2.5,2.7-4.9,4.1-7.2,4.3.2-2.4,1.6-4.8,4.3-7.2.2-.1.2-.4,0-.5-.1-.2-1.1,0-2.6-.3-.1,0-.2,0-.3,0-.9-.2-1.8-.5-2.7-.8-.9-.4-1.7-.9-2.5-1.4-.8.6-1.6,1.1-2.5,1.4-.9.4-1.8.6-2.7.8,0,0-.2,0-.3,0-1.5.3-2.5.2-2.6.3-.1.1-.1.4,0,.5,2.7,2.5,4.1,4.9,4.3,7.2-2.4-.2-4.8-1.6-7.2-4.3-.1-.2-.4-.2-.5,0-.2.1,0,1.1-.3,2.6,0,.1,0,.2,0,.3-.2.9-.5,1.8-.8,2.7-.4.9-.9,1.7-1.4,2.5.6.8,1.1,1.6,1.4,2.5.4.9.6,1.8.8,2.7,0,0,0,.1,0,.3.3,1.4.2,2.5.3,2.6.1.1.4.1.5,0,2.5-2.7,4.9-4.1,7.2-4.3-.2,2.4-1.6,4.8-4.3,7.2-.2.1-.2.4,0,.5.1.1,1.1,0,2.6.3.1,0,.2,0,.3,0,.9.2,1.8.5,2.7.8.9.4,1.7.9,2.5,1.4.8-.6,1.6-1.1,2.5-1.4.9-.4,1.8-.6,2.7-.8,0,0,.1,0,.3,0,1.5-.3,2.5-.2,2.6-.3.1-.2.1-.4,0-.5-2.7-2.5-4.1-4.9-4.3-7.2,2.4.2,4.8,1.6,7.2,4.3.1.1.4.2.5,0,.2-.1,0-1.1.3-2.6,0-.1,0-.2,0-.3.2-.9.5-1.8.8-2.7.4-.9.9-1.7,1.4-2.5-.6-.8-1.1-1.6-1.4-2.5ZM70.1,7.4c0,.4.1.9.3,1.5,0,.1,0,.2,0,.2.2,1,.5,1.9.9,2.8.3.8.7,1.5,1.2,2.2-.5-.4-1-.8-1.6-1.1-1.5-.9-3-1.3-4.5-1.3-1,0-2.2.3-3.2.8,0-.4-.2-.9-.2-1.3,2.3-.2,4.7-1.4,7.1-3.8h0ZM63.4,13.2s0,0,0,0c1-.4,2-.7,2.9-.7,1.3,0,2.7.4,4.1,1.2.3.1.5.3.8.5-.2.2-.5.3-.8.5-1.4.8-2.8,1.2-4.1,1.2-.9,0-2-.3-2.9-.7,0,0,0,0,0,0,.1-.3.2-.6.4-.9-.1-.3-.3-.6-.4-.9ZM61.5,2.1c.9.4,1.9.7,2.8.9,0,0,.1,0,.2,0,.6.1,1.1.2,1.5.3-2.3,2.4-3.6,4.8-3.8,7.1-.5,0-.9,0-1.3-.2.5-1.1.8-2.1.8-3.2,0-1.5-.4-3-1.3-4.5-.3-.5-.7-1.1-1.1-1.6.7.5,1.4.9,2.2,1.2h0ZM62.9,14.1c0,1-.6,1.8-1.5,2.1-.3.9-1.1,1.5-2.1,1.5s-1.8-.6-2.1-1.5c-.9-.3-1.5-1.1-1.5-2.1s.6-1.8,1.5-2.1c.3-.9,1.1-1.5,2.1-1.5s1.8.6,2.1,1.5c.9.3,1.5,1.1,1.5,2.1ZM59.8,2.9c.8,1.4,1.2,2.8,1.2,4.1,0,.9-.3,2-.7,2.9,0,0,0,0,0,0-.3,0-.6-.2-.9-.4-.3.1-.6.3-.9.4,0,0,0,0,0,0-.4-1-.7-2-.7-2.9,0-1.3.4-2.7,1.2-4.1.1-.3.3-.5.5-.8.2.2.3.5.5.8ZM52.5,3.3c.4,0,.9-.1,1.5-.3,0,0,.2,0,.2,0,1-.2,1.9-.5,2.8-.9.8-.3,1.5-.7,2.2-1.2-.4.5-.8,1-1.1,1.6-.9,1.5-1.3,3-1.3,4.5,0,1.1.3,2.2.8,3.2-.4,0-.9.2-1.3.2-.2-2.3-1.4-4.7-3.8-7.1h0ZM47.3,11.9c.4-.9.7-1.9.9-2.8,0,0,0-.1,0-.2.1-.6.2-1.1.3-1.5,2.4,2.3,4.8,3.6,7.1,3.8,0,.4,0,.9-.2,1.3-1-.5-2.2-.8-3.2-.8-1.5,0-3,.4-4.5,1.3-.5.3-1.1.7-1.6,1.1.5-.7.9-1.4,1.2-2.2h0ZM55.2,15s0,0,0,0c-1,.4-2,.7-2.9.7-1.3,0-2.7-.4-4.1-1.2-.3-.2-.5-.3-.8-.5.2-.2.5-.3.8-.5,1.4-.8,2.8-1.2,4.1-1.2,1,0,2,.3,2.9.7,0,0,0,0,0,0-.1.3-.2.6-.4.9.1.3.3.6.4.9ZM48.5,20.9c0-.4-.1-.9-.3-1.5,0,0,0-.2,0-.2-.2-1-.5-1.9-.9-2.8-.3-.8-.7-1.5-1.2-2.2.5.4,1,.8,1.6,1.1,1.5.9,3,1.3,4.5,1.3,1,0,2.2-.3,3.2-.8,0,.4.2.9.2,1.3-2.3.2-4.7,1.4-7.1,3.8h0ZM57.1,26.1c-.9-.4-1.9-.7-2.8-.9,0,0-.1,0-.2,0-.6-.1-1.1-.2-1.5-.3,2.3-2.4,3.6-4.8,3.8-7.1.4,0,.9,0,1.3.2-.5,1-.8,2.1-.8,3.2,0,1.5.4,3,1.3,4.5.3.6.7,1.1,1.1,1.6-.7-.5-1.4-.9-2.2-1.2h0ZM58.8,25.3c-.8-1.4-1.2-2.8-1.2-4.1,0-.9.3-2,.7-2.9,0,0,0,0,0,0,.3.1.6.2.9.4.3-.1.6-.3.9-.4,0,0,0,0,0,0,.4,1,.7,2,.7,2.9,0,1.3-.4,2.7-1.2,4.1-.2.3-.3.5-.5.8-.2-.2-.3-.5-.5-.8ZM66.1,24.9c-.4,0-.9.1-1.5.3,0,0-.2,0-.2,0-1,.2-1.9.5-2.8.9-.8.3-1.5.7-2.2,1.2.4-.5.8-1,1.1-1.6.9-1.5,1.3-3,1.3-4.5,0-1-.3-2.2-.8-3.2.4-.1.9-.2,1.3-.2.2,2.3,1.4,4.7,3.8,7.1h0ZM71.3,16.3c-.4.9-.7,1.9-.9,2.8,0,0,0,.1,0,.2-.1.6-.2,1.1-.3,1.5-2.4-2.3-4.8-3.6-7.1-3.8,0-.5,0-.9.2-1.3,1.1.5,2.2.8,3.2.8,1.5,0,3-.4,4.5-1.3.5-.3,1.1-.7,1.6-1.1-.5.7-.9,1.4-1.2,2.2h0ZM65.3,14.1c1.3-.7,2.7-.9,4.2-.2.1,0,.3.1.4.2-.1,0-.3.2-.4.2-1.4.6-2.9.4-4.2-.2ZM57.9,11.9c0,0-.1,0-.2,0,.3-.6.9-1,1.6-1s1.3.4,1.6,1c0,0-.1,0-.2,0-.5,0-1,.2-1.4.5-.4-.3-.9-.5-1.4-.5ZM60.7,12.3c.1,0,.3,0,.4,0,0,.1,0,.2,0,.4,0,.4-.1.8-.4,1.1-.2-.2-.5-.3-.7-.4,0-.3-.2-.5-.4-.7.3-.2.7-.4,1.1-.4ZM59.1,3.9c0-.2.1-.3.2-.4,0,.1.2.3.2.4.6,1.4.5,2.9-.2,4.1-.7-1.3-.9-2.7-.2-4.1ZM62.5,14.1c0,.7-.4,1.3-1,1.6,0,0,0-.1,0-.2,0-.5-.2-1-.5-1.4.3-.4.5-.9.5-1.4s0-.1,0-.2c.6.3,1,.9,1,1.6ZM57.9,13.8c-.2-.3-.4-.7-.4-1.1s0-.3,0-.4c.1,0,.2,0,.4,0,.4,0,.8.1,1.1.4-.2.2-.3.4-.4.7-.3,0-.5.2-.7.4ZM60.8,14.4c.2.3.4.7.4,1.1s0,.3,0,.4c-.1,0-.2,0-.4,0-.4,0-.8-.1-1.1-.4.2-.2.3-.5.4-.7.3,0,.5-.2.7-.4ZM59.5,24.3c0,.1-.1.3-.2.4,0-.1-.2-.3-.2-.4-.7-1.4-.5-2.9.2-4.1.7,1.3.9,2.7.2,4.1ZM57.6,14.1c-.3.4-.5.9-.5,1.4s0,.1,0,.2c-.6-.3-1-.9-1-1.6s.4-1.3,1-1.6c0,0,0,.1,0,.2,0,.5.2,1,.5,1.4ZM53.3,14.1c-1.3.7-2.7.9-4.2.2-.1,0-.3-.1-.4-.2.1,0,.3-.2.4-.2,1.4-.7,2.9-.5,4.2.2ZM57.9,15.9c-.1,0-.3,0-.4,0,0-.1,0-.2,0-.4,0-.4.1-.8.4-1.1.2.2.5.3.7.4,0,.3.2.5.4.7-.3.2-.7.4-1.1.4ZM60.7,16.4c0,0,.1,0,.2,0-.3.6-.9,1-1.6,1s-1.3-.4-1.6-1c0,0,.1,0,.2,0,.5,0,1-.2,1.4-.5.4.3.9.5,1.4.5ZM35.1,40.1v-2.7H0v2.7h35.1Z"/>
</svg>