<svg width="322" height="373" viewBox="0 0 322 373" fill="none" xmlns="http://www.w3.org/2000/svg">
<path d="M35.2199 371.76H0.149902V0.149994H321.13V371.76H164.7" stroke="#3B8281" stroke-width="0.5" stroke-miterlimit="10"/>
<g style="mix-blend-mode:multiply">
<path d="M68.4899 354.86C69.5199 354.42 67.4999 352.53 67.0899 352.22C66.6399 351.89 65.6499 351.22 64.9899 351.37C64.8399 352.03 65.5099 353.02 65.8399 353.47C66.1499 353.88 68.0499 355.9 68.4799 354.87L68.4899 354.86ZM50.4299 354.86C50.8699 355.89 52.7599 353.87 53.0699 353.46C53.3999 353.01 54.0699 352.02 53.9199 351.36C53.2599 351.21 52.2699 351.88 51.8199 352.21C51.4099 352.52 49.3899 354.42 50.4199 354.85L50.4299 354.86ZM50.4299 336.8C49.3999 337.24 51.4199 339.13 51.8299 339.44C52.2799 339.77 53.2699 340.44 53.9299 340.29C54.0799 339.63 53.4099 338.64 53.0799 338.19C52.7699 337.78 50.8699 335.76 50.4399 336.79L50.4299 336.8ZM68.4899 336.8C68.0499 335.77 66.1599 337.79 65.8499 338.2C65.5199 338.65 64.8499 339.64 64.9999 340.3C65.6599 340.45 66.6499 339.78 67.0999 339.45C67.5099 339.14 69.5299 337.24 68.4999 336.81L68.4899 336.8ZM59.9599 346.33C59.7999 346.37 59.6299 346.39 59.4599 346.39C59.2899 346.39 59.1199 346.37 58.9599 346.33C58.9199 346.17 58.8999 346 58.8999 345.83C58.8999 345.66 58.9199 345.49 58.9599 345.33C59.1199 345.29 59.2899 345.27 59.4599 345.27C59.6299 345.27 59.7999 345.29 59.9599 345.33C59.9999 345.49 60.0199 345.66 60.0199 345.83C60.0199 346 59.9999 346.17 59.9599 346.33ZM72.1399 343.36C71.7799 342.49 71.4999 341.58 71.3199 340.67C71.3099 340.61 71.2899 340.52 71.2699 340.41C70.9599 338.96 71.1099 337.95 70.9599 337.82C70.8099 337.68 70.5699 337.69 70.4299 337.84C67.9399 340.52 65.5499 341.93 63.1799 342.12C63.3699 339.75 64.7799 337.37 67.4599 334.87C67.6099 334.73 67.6199 334.49 67.4799 334.34C67.3499 334.19 66.3399 334.34 64.8899 334.03C64.7799 334.01 64.6899 333.99 64.6299 333.97C63.7099 333.79 62.8099 333.52 61.9399 333.15C61.0499 332.78 60.2399 332.27 59.4699 331.71C58.6899 332.27 57.8799 332.78 56.9999 333.15C56.1299 333.51 55.2199 333.79 54.3099 333.97C54.2499 333.98 54.1599 334 54.0499 334.03C52.5999 334.34 51.5899 334.19 51.4599 334.34C51.3199 334.49 51.3299 334.73 51.4799 334.87C54.1599 337.36 55.5699 339.75 55.7599 342.12C53.3899 341.93 51.0099 340.53 48.5099 337.84C48.3699 337.69 48.1299 337.68 47.9799 337.82C47.8299 337.95 47.9799 338.96 47.6699 340.41C47.6499 340.52 47.6299 340.61 47.6199 340.67C47.4399 341.59 47.1699 342.49 46.7999 343.36C46.4299 344.25 45.9199 345.06 45.3599 345.83C45.9199 346.6 46.4299 347.42 46.7999 348.3C47.1599 349.17 47.4399 350.08 47.6199 350.99C47.6299 351.05 47.6499 351.14 47.6699 351.25C47.9799 352.7 47.8299 353.71 47.9799 353.84C48.1299 353.98 48.3699 353.97 48.5099 353.82C50.9999 351.14 53.3899 349.73 55.7599 349.54C55.5699 351.91 54.1699 354.29 51.4799 356.79C51.3299 356.93 51.3199 357.17 51.4599 357.32C51.5899 357.47 52.5999 357.32 54.0499 357.63C54.1599 357.65 54.2499 357.67 54.3099 357.69C55.2299 357.87 56.1299 358.14 56.9999 358.51C57.8899 358.88 58.6999 359.39 59.4699 359.95C60.2499 359.39 61.0599 358.88 61.9399 358.51C62.8099 358.15 63.7199 357.87 64.6299 357.69C64.6899 357.68 64.7799 357.66 64.8899 357.63C66.3399 357.32 67.3499 357.47 67.4799 357.32C67.6199 357.17 67.6099 356.93 67.4599 356.79C64.7799 354.3 63.3699 351.91 63.1799 349.54C65.5499 349.73 67.9299 351.13 70.4299 353.82C70.5699 353.97 70.8099 353.98 70.9599 353.84C71.1099 353.71 70.9599 352.7 71.2699 351.25C71.2899 351.14 71.3099 351.05 71.3199 350.99C71.4999 350.07 71.7699 349.17 72.1399 348.3C72.5099 347.41 73.0199 346.6 73.5799 345.83C73.0199 345.05 72.5099 344.24 72.1399 343.36ZM70.2699 339.07C70.3199 339.45 70.3999 339.94 70.5399 340.56C70.5599 340.66 70.5799 340.75 70.5899 340.81C70.7799 341.78 71.0699 342.73 71.4499 343.65C71.7699 344.42 72.1899 345.13 72.6499 345.81C72.1199 345.4 71.6099 345.03 71.0599 344.7C69.5899 343.84 68.0299 343.4 66.5699 343.43C65.5199 343.45 64.4099 343.71 63.3599 344.19C63.2599 343.75 63.1899 343.31 63.1699 342.86C65.5099 342.69 67.8899 341.42 70.2699 339.08V339.07ZM63.5699 344.92C63.5699 344.92 63.6299 344.89 63.6599 344.88C64.6199 344.44 65.6299 344.19 66.5799 344.18C67.9099 344.16 69.3199 344.56 70.6799 345.35C70.9399 345.5 71.1799 345.66 71.4299 345.83C71.1799 346 70.9399 346.16 70.6799 346.31C69.3199 347.1 67.9099 347.5 66.5799 347.48C65.6299 347.46 64.6199 347.22 63.6599 346.78C63.6299 346.77 63.5999 346.75 63.5699 346.74C63.6699 346.44 63.7899 346.13 63.9399 345.83C63.7999 345.53 63.6799 345.23 63.5699 344.92ZM61.6399 333.84C62.5599 334.22 63.5099 334.51 64.4799 334.7C64.5399 334.71 64.6199 334.73 64.7299 334.75C65.3499 334.88 65.8399 334.97 66.2199 335.02C63.8799 337.4 62.6099 339.78 62.4399 342.12C61.9899 342.09 61.5499 342.03 61.1099 341.93C61.5899 340.88 61.8599 339.78 61.8699 338.72C61.8899 337.26 61.4499 335.7 60.5999 334.23C60.2799 333.68 59.9099 333.17 59.4899 332.64C60.1699 333.1 60.8799 333.52 61.6499 333.84H61.6399ZM63.0799 345.83C63.0799 346.81 62.4399 347.63 61.5699 347.94C61.2699 348.82 60.4399 349.45 59.4599 349.45C58.4799 349.45 57.6599 348.82 57.3499 347.94C56.4699 347.64 55.8399 346.81 55.8399 345.83C55.8399 344.85 56.4699 344.03 57.3499 343.72C57.6499 342.84 58.4799 342.21 59.4599 342.21C60.4399 342.21 61.2599 342.84 61.5699 343.72C62.4499 344.02 63.0799 344.85 63.0799 345.83ZM59.9399 334.61C60.7299 335.97 61.1299 337.38 61.1099 338.71C61.0899 339.66 60.8499 340.67 60.4099 341.63C60.3999 341.66 60.3799 341.69 60.3699 341.72C60.0699 341.62 59.7599 341.5 59.4599 341.35C59.1599 341.49 58.8599 341.61 58.5499 341.72C58.5399 341.69 58.5199 341.66 58.5099 341.63C58.0699 340.67 57.8199 339.66 57.8099 338.71C57.7899 337.38 58.1899 335.97 58.9799 334.61C59.1299 334.35 59.2899 334.11 59.4599 333.86C59.6299 334.11 59.7899 334.35 59.9399 334.61ZM52.6999 335.02C53.0799 334.97 53.5699 334.89 54.1899 334.75C54.2899 334.73 54.3799 334.71 54.4399 334.7C55.4099 334.51 56.3599 334.22 57.2799 333.84C58.0499 333.52 58.7599 333.1 59.4399 332.64C59.0299 333.17 58.6599 333.68 58.3299 334.23C57.4699 335.7 57.0299 337.26 57.0599 338.72C57.0799 339.77 57.3399 340.88 57.8199 341.93C57.3799 342.03 56.9399 342.1 56.4899 342.12C56.3199 339.78 55.0499 337.4 52.7099 335.02H52.6999ZM47.4699 343.64C47.8499 342.72 48.1399 341.77 48.3299 340.8C48.3399 340.74 48.3599 340.66 48.3799 340.55C48.5099 339.93 48.5999 339.45 48.6499 339.06C51.0299 341.4 53.4099 342.67 55.7499 342.84C55.7199 343.29 55.6599 343.73 55.5599 344.17C54.5099 343.69 53.4099 343.42 52.3499 343.41C50.8899 343.39 49.3299 343.83 47.8599 344.68C47.3099 345 46.7999 345.37 46.2699 345.79C46.7299 345.12 47.1499 344.4 47.4699 343.63V343.64ZM55.3499 346.73C55.3499 346.73 55.2899 346.76 55.2599 346.77C54.2999 347.21 53.2899 347.46 52.3399 347.47C51.0099 347.49 49.5999 347.09 48.2399 346.3C47.9799 346.15 47.7399 345.99 47.4899 345.82C47.7399 345.65 47.9799 345.49 48.2399 345.34C49.5999 344.55 51.0099 344.15 52.3399 344.17C53.2899 344.19 54.2999 344.43 55.2599 344.87C55.2899 344.88 55.3199 344.9 55.3499 344.91C55.2499 345.21 55.1299 345.52 54.9799 345.82C55.1199 346.12 55.2399 346.42 55.3499 346.73ZM48.6499 352.58C48.5999 352.2 48.5199 351.71 48.3799 351.09C48.3599 350.99 48.3399 350.9 48.3299 350.84C48.1399 349.87 47.8499 348.92 47.4699 348C47.1499 347.23 46.7299 346.52 46.2699 345.84C46.7999 346.25 47.3099 346.62 47.8599 346.95C49.3299 347.81 50.8899 348.25 52.3499 348.22C53.3999 348.2 54.5099 347.94 55.5599 347.46C55.6599 347.9 55.7299 348.34 55.7499 348.79C53.4099 348.96 51.0299 350.23 48.6499 352.57V352.58ZM57.2799 357.81C56.3599 357.43 55.4099 357.14 54.4399 356.95C54.3799 356.94 54.2999 356.92 54.1899 356.9C53.5699 356.77 53.0899 356.68 52.6999 356.63C55.0399 354.25 56.3099 351.87 56.4799 349.53C56.9299 349.56 57.3699 349.62 57.8099 349.72C57.3299 350.77 57.0599 351.87 57.0499 352.93C57.0299 354.39 57.4699 355.95 58.3199 357.42C58.6399 357.97 59.0099 358.48 59.4299 359.01C58.7499 358.55 58.0399 358.13 57.2699 357.81H57.2799ZM58.9799 357.05C58.1899 355.69 57.7899 354.28 57.8099 352.95C57.8299 352 58.0699 350.99 58.5099 350.03C58.5199 350 58.5399 349.97 58.5499 349.94C58.8499 350.04 59.1599 350.16 59.4599 350.31C59.7599 350.17 60.0599 350.05 60.3699 349.94C60.3799 349.97 60.3999 350 60.4099 350.03C60.8499 350.99 61.0999 352 61.1099 352.95C61.1299 354.28 60.7299 355.69 59.9399 357.05C59.7899 357.31 59.6299 357.55 59.4599 357.8C59.2899 357.55 59.1299 357.31 58.9799 357.05ZM66.2199 356.63C65.8399 356.68 65.3499 356.76 64.7299 356.9C64.6299 356.92 64.5399 356.94 64.4799 356.95C63.5099 357.14 62.5599 357.43 61.6399 357.81C60.8699 358.13 60.1599 358.55 59.4799 359.01C59.8899 358.48 60.2599 357.97 60.5899 357.42C61.4499 355.95 61.8899 354.39 61.8599 352.93C61.8399 351.88 61.5799 350.77 61.0999 349.72C61.5399 349.62 61.9799 349.55 62.4299 349.53C62.5999 351.87 63.8699 354.25 66.2099 356.63H66.2199ZM71.4499 348.01C71.0699 348.93 70.7799 349.88 70.5899 350.85C70.5799 350.91 70.5599 350.99 70.5399 351.1C70.4099 351.72 70.3199 352.2 70.2699 352.59C67.8899 350.25 65.5099 348.98 63.1699 348.81C63.1999 348.36 63.2599 347.92 63.3599 347.48C64.4099 347.96 65.5099 348.23 66.5699 348.24C68.0299 348.26 69.5899 347.82 71.0599 346.97C71.6099 346.65 72.1199 346.28 72.6499 345.86C72.1899 346.54 71.7699 347.25 71.4499 348.02V348.01ZM65.4999 345.83C66.7599 345.16 68.2399 344.96 69.6499 345.6C69.7899 345.67 69.9299 345.74 70.0699 345.83C69.9399 345.91 69.7999 345.99 69.6499 346.06C68.2399 346.71 66.7599 346.51 65.4999 345.83ZM58.0799 343.59C58.0099 343.59 57.9399 343.6 57.8699 343.61C58.1699 343.04 58.7699 342.64 59.4599 342.64C60.1499 342.64 60.7399 343.03 61.0499 343.61C60.9799 343.61 60.9099 343.59 60.8399 343.59C60.3199 343.59 59.8399 343.78 59.4599 344.08C59.0799 343.78 58.5999 343.59 58.0799 343.59ZM60.8399 344.02C60.9699 344.02 61.0999 344.04 61.2199 344.06C61.2499 344.18 61.2599 344.31 61.2599 344.44C61.2599 344.84 61.1199 345.21 60.8999 345.51C60.6899 345.33 60.4499 345.19 60.1799 345.1C60.0899 344.83 59.9499 344.59 59.7699 344.38C60.0699 344.16 60.4399 344.02 60.8399 344.02ZM59.2299 335.64C59.2999 335.49 59.3699 335.36 59.4599 335.22C59.5399 335.35 59.6199 335.49 59.6899 335.64C60.3399 337.05 60.1399 338.53 59.4599 339.79C58.7899 338.53 58.5899 337.05 59.2299 335.64ZM62.6399 345.83C62.6399 346.52 62.2499 347.11 61.6699 347.42C61.6699 347.35 61.6899 347.28 61.6899 347.21C61.6899 346.69 61.4999 346.21 61.1999 345.83C61.4999 345.45 61.6899 344.97 61.6899 344.45C61.6899 344.38 61.6799 344.31 61.6699 344.24C62.2399 344.54 62.6399 345.14 62.6399 345.83ZM58.0099 345.51C57.7899 345.21 57.6499 344.84 57.6499 344.44C57.6499 344.31 57.6699 344.18 57.6899 344.06C57.8099 344.03 57.9399 344.02 58.0699 344.02C58.4699 344.02 58.8399 344.16 59.1399 344.38C58.9599 344.59 58.8199 344.83 58.7299 345.1C58.4599 345.19 58.2199 345.33 58.0099 345.51ZM60.9099 346.14C61.1299 346.44 61.2699 346.81 61.2699 347.21C61.2699 347.34 61.2499 347.47 61.2299 347.59C61.1099 347.62 60.9799 347.63 60.8499 347.63C60.4499 347.63 60.0799 347.49 59.7799 347.27C59.9599 347.06 60.0999 346.82 60.1899 346.55C60.4599 346.46 60.6999 346.32 60.9099 346.14ZM59.6899 356.02C59.6199 356.16 59.5499 356.3 59.4599 356.44C59.3799 356.31 59.2999 356.17 59.2299 356.02C58.5799 354.61 58.7799 353.13 59.4599 351.87C60.1299 353.13 60.3299 354.61 59.6899 356.02ZM57.7099 345.83C57.4099 346.21 57.2199 346.69 57.2199 347.21C57.2199 347.28 57.2299 347.35 57.2399 347.42C56.6699 347.12 56.2699 346.52 56.2699 345.83C56.2699 345.14 56.6599 344.55 57.2399 344.24C57.2399 344.31 57.2199 344.38 57.2199 344.45C57.2199 344.97 57.4099 345.45 57.7099 345.83ZM53.4199 345.83C52.1599 346.5 50.6799 346.7 49.2699 346.06C49.1299 345.99 48.9899 345.92 48.8499 345.83C48.9799 345.75 49.1199 345.67 49.2699 345.6C50.6799 344.95 52.1599 345.15 53.4199 345.83ZM58.0799 347.63C57.9499 347.63 57.8199 347.61 57.6999 347.59C57.6699 347.47 57.6599 347.34 57.6599 347.21C57.6599 346.81 57.7999 346.44 58.0199 346.14C58.2299 346.32 58.4699 346.46 58.7399 346.55C58.8299 346.82 58.9699 347.06 59.1499 347.27C58.8499 347.49 58.4799 347.63 58.0799 347.63ZM60.8399 348.06C60.9099 348.06 60.9799 348.05 61.0499 348.04C60.7499 348.61 60.1499 349.01 59.4599 349.01C58.7699 349.01 58.1799 348.62 57.8699 348.04C57.9399 348.04 58.0099 348.06 58.0799 348.06C58.5999 348.06 59.0799 347.87 59.4599 347.57C59.8399 347.87 60.3199 348.06 60.8399 348.06Z" fill="#3B8281"/>
</g>
<path d="M54.0501 365.94V366.11C53.8901 366.11 53.7601 366.14 53.6501 366.2C53.5501 366.26 53.4501 366.37 53.3601 366.53C53.3001 366.64 53.2001 366.89 53.0701 367.3L51.3301 372.34H51.1501L49.7301 368.35L48.3201 372.34H48.1501L46.2901 367.15C46.1501 366.76 46.0601 366.53 46.0301 366.46C45.9701 366.34 45.8801 366.26 45.7801 366.2C45.6701 366.14 45.5301 366.11 45.3501 366.11V365.94H47.6601V366.11H47.5501C47.3901 366.11 47.2601 366.15 47.1801 366.22C47.0901 366.29 47.0501 366.38 47.0501 366.49C47.0501 366.6 47.1201 366.84 47.2501 367.23L48.4801 370.74L49.5201 367.76L49.3401 367.23L49.1901 366.81C49.1301 366.66 49.0501 366.52 48.9701 366.4C48.9301 366.34 48.8801 366.29 48.8201 366.25C48.7401 366.19 48.6701 366.15 48.5901 366.13C48.5301 366.11 48.4401 366.1 48.3101 366.1V365.93H50.7401V366.1H50.5701C50.4001 366.1 50.2701 366.14 50.1901 366.21C50.1101 366.28 50.0701 366.38 50.0701 366.51C50.0701 366.67 50.1401 366.94 50.2801 367.33L51.4801 370.73L52.6701 367.29C52.8101 366.91 52.8701 366.65 52.8701 366.5C52.8701 366.43 52.8501 366.36 52.8001 366.3C52.7601 366.24 52.7001 366.2 52.6301 366.17C52.5101 366.13 52.3601 366.11 52.1701 366.11V365.94H54.0401H54.0501Z" fill="#738C9A"/>
<path d="M56.8198 368.84H59.7198V367.05C59.7198 366.73 59.6998 366.52 59.6598 366.42C59.6298 366.34 59.5598 366.28 59.4698 366.22C59.3398 366.15 59.1998 366.11 59.0498 366.11H58.8298V365.94H61.4998V366.11H61.2798C61.1298 366.11 60.9898 366.15 60.8598 366.22C60.7598 366.27 60.6898 366.34 60.6598 366.44C60.6198 366.54 60.6098 366.74 60.6098 367.05V371.08C60.6098 371.4 60.6298 371.61 60.6698 371.71C60.6998 371.79 60.7598 371.85 60.8598 371.91C60.9998 371.98 61.1398 372.02 61.2798 372.02H61.4998V372.19H58.8298V372.02H59.0498C59.2998 372.02 59.4898 371.94 59.6098 371.79C59.6898 371.69 59.7298 371.46 59.7298 371.08V369.18H56.8298V371.08C56.8298 371.4 56.8498 371.61 56.8898 371.71C56.9198 371.79 56.9898 371.85 57.0798 371.91C57.2098 371.98 57.3498 372.02 57.4998 372.02H57.7298V372.19H55.0498V372.02H55.2698C55.5298 372.02 55.7198 371.94 55.8298 371.79C55.8998 371.69 55.9398 371.46 55.9398 371.08V367.05C55.9398 366.73 55.9198 366.52 55.8798 366.42C55.8498 366.34 55.7898 366.28 55.6898 366.22C55.5498 366.15 55.4098 366.11 55.2698 366.11H55.0498V365.94H57.7298V366.11H57.4998C57.3498 366.11 57.2098 366.15 57.0798 366.22C56.9798 366.27 56.9198 366.34 56.8798 366.44C56.8398 366.54 56.8198 366.74 56.8198 367.05V368.84Z" fill="#738C9A"/>
<path d="M64.4199 366.28V368.75H65.7899C66.1499 368.75 66.3799 368.7 66.4999 368.59C66.6599 368.45 66.7499 368.2 66.7699 367.84H66.9399V370.01H66.7699C66.7299 369.71 66.6799 369.51 66.6399 369.42C66.5799 369.31 66.4899 369.23 66.3699 369.17C66.2399 369.11 66.0499 369.08 65.7899 369.08H64.4199V371.14C64.4199 371.42 64.4299 371.58 64.4599 371.64C64.4799 371.7 64.5299 371.75 64.5899 371.78C64.6499 371.82 64.7699 371.83 64.9399 371.83H65.9999C66.3499 371.83 66.6099 371.81 66.7699 371.76C66.9299 371.71 67.0799 371.61 67.2299 371.47C67.4199 371.28 67.6199 370.99 67.8199 370.61H67.9999L67.4599 372.18H62.6499V372.01H62.8699C63.0199 372.01 63.1599 371.97 63.2899 371.9C63.3899 371.85 63.4599 371.78 63.4899 371.68C63.5299 371.58 63.5399 371.38 63.5399 371.08V367.02C63.5399 366.62 63.4999 366.38 63.4199 366.29C63.3099 366.17 63.1299 366.11 62.8699 366.11H62.6499V365.94H67.4599L67.5299 367.31H67.3499C67.2899 366.98 67.2099 366.76 67.1399 366.63C67.0599 366.51 66.9499 366.41 66.7899 366.35C66.6699 366.3 66.4499 366.28 66.1399 366.28H64.4299H64.4199Z" fill="#738C9A"/>
<path d="M75.3399 372.19H73.6699L71.5599 369.27C71.3999 369.27 71.2799 369.27 71.1799 369.27C71.1399 369.27 71.0999 369.27 71.0499 369.27C70.9999 369.27 70.9599 369.27 70.9099 369.27V371.09C70.9099 371.48 70.9499 371.73 71.0399 371.82C71.1599 371.96 71.3299 372.02 71.5699 372.02H71.8099V372.19H69.1299V372.02H69.3699C69.6299 372.02 69.8199 371.93 69.9399 371.76C69.9999 371.66 70.0399 371.44 70.0399 371.08V367.04C70.0399 366.65 69.9999 366.4 69.9099 366.31C69.7899 366.17 69.6099 366.11 69.3799 366.11H69.1399V365.94H71.4199C72.0799 365.94 72.5699 365.99 72.8899 366.09C73.2099 366.19 73.4699 366.36 73.6899 366.62C73.9099 366.88 74.0199 367.19 74.0199 367.55C74.0199 367.93 73.8899 368.27 73.6399 368.55C73.3899 368.83 72.9999 369.03 72.4799 369.15L73.7699 370.94C74.0599 371.35 74.3199 371.63 74.5299 371.76C74.7399 371.9 75.0199 371.98 75.3599 372.02V372.19H75.3399ZM70.8999 368.97C70.9599 368.97 71.0099 368.97 71.0499 368.97C71.0899 368.97 71.1299 368.97 71.1599 368.97C71.7599 368.97 72.2099 368.84 72.5099 368.58C72.8099 368.32 72.9599 367.99 72.9599 367.59C72.9599 367.19 72.8399 366.88 72.5899 366.64C72.3399 366.4 72.0199 366.27 71.6199 366.27C71.4399 366.27 71.1999 366.3 70.8999 366.36V368.96V368.97Z" fill="#738C9A"/>
<path d="M77.9797 366.28V368.75H79.3497C79.7097 368.75 79.9397 368.7 80.0597 368.59C80.2197 368.45 80.3097 368.2 80.3297 367.84H80.4997V370.01H80.3297C80.2897 369.71 80.2397 369.51 80.1997 369.42C80.1397 369.31 80.0497 369.23 79.9297 369.17C79.7997 369.11 79.6097 369.08 79.3497 369.08H77.9797V371.14C77.9797 371.42 77.9897 371.58 78.0197 371.64C78.0397 371.7 78.0897 371.75 78.1497 371.78C78.2097 371.81 78.3297 371.83 78.4997 371.83H79.5597C79.9097 371.83 80.1697 371.81 80.3297 371.76C80.4897 371.71 80.6397 371.61 80.7897 371.47C80.9797 371.28 81.1797 370.99 81.3797 370.61H81.5597L81.0197 372.18H76.1997V372.01H76.4197C76.5697 372.01 76.7097 371.97 76.8397 371.9C76.9397 371.85 77.0097 371.78 77.0397 371.68C77.0797 371.58 77.0897 371.38 77.0897 371.08V367.02C77.0897 366.62 77.0497 366.38 76.9697 366.29C76.8597 366.17 76.6797 366.11 76.4197 366.11H76.1997V365.94H81.0197L81.0897 367.31H80.9097C80.8497 366.98 80.7697 366.76 80.6997 366.63C80.6197 366.51 80.5097 366.41 80.3497 366.35C80.2297 366.3 80.0097 366.28 79.6997 366.28H77.9897H77.9797Z" fill="#738C9A"/>
<path d="M85.8098 372.19V372.02H86.0398C86.2998 372.02 86.4898 371.94 86.5998 371.77C86.6698 371.67 86.6998 371.44 86.6998 371.09V367.05C86.6998 366.66 86.6598 366.42 86.5698 366.32C86.4498 366.18 86.2698 366.12 86.0398 366.12H85.8098V365.95H88.3498C89.2798 365.95 89.9898 366.06 90.4798 366.27C90.9698 366.48 91.3598 366.84 91.6498 367.33C91.9498 367.82 92.0898 368.4 92.0898 369.04C92.0898 369.91 91.8298 370.64 91.2998 371.22C90.7098 371.87 89.7998 372.2 88.5898 372.2H85.7998L85.8098 372.19ZM87.5898 371.73C87.9798 371.82 88.3098 371.86 88.5698 371.86C89.2798 371.86 89.8698 371.61 90.3398 371.11C90.8098 370.61 91.0398 369.93 91.0398 369.07C91.0398 368.21 90.7998 367.53 90.3398 367.03C89.8798 366.53 89.2698 366.28 88.5298 366.28C88.2498 366.28 87.9398 366.32 87.5898 366.41V371.72V371.73Z" fill="#738C9A"/>
<path d="M99.5899 372.19H97.9199L95.8099 369.27C95.6499 369.27 95.5299 369.27 95.4299 369.27C95.3899 369.27 95.3499 369.27 95.2999 369.27C95.2499 369.27 95.2099 369.27 95.1599 369.27V371.09C95.1599 371.48 95.1999 371.73 95.2899 371.82C95.4099 371.96 95.5799 372.02 95.8199 372.02H96.0599V372.19H93.3799V372.02H93.6099C93.8699 372.02 94.0599 371.93 94.1799 371.76C94.2399 371.66 94.2799 371.44 94.2799 371.08V367.04C94.2799 366.65 94.2399 366.4 94.1499 366.31C94.0299 366.17 93.8499 366.11 93.6199 366.11H93.3899V365.94H95.6699C96.3299 365.94 96.8199 365.99 97.1399 366.09C97.4499 366.19 97.7199 366.36 97.9399 366.62C98.1599 366.88 98.2699 367.19 98.2699 367.55C98.2699 367.93 98.1399 368.27 97.8899 368.55C97.6399 368.83 97.2499 369.03 96.7299 369.15L98.0199 370.94C98.3099 371.35 98.5699 371.63 98.7799 371.76C98.9899 371.9 99.2699 371.98 99.6099 372.02V372.19H99.5899ZM95.1499 368.97C95.2099 368.97 95.2599 368.97 95.2999 368.97C95.3399 368.97 95.3799 368.97 95.4099 368.97C96.0099 368.97 96.4599 368.84 96.7599 368.58C97.0599 368.32 97.2099 367.99 97.2099 367.59C97.2099 367.19 97.0899 366.88 96.8399 366.64C96.5899 366.4 96.2699 366.27 95.8699 366.27C95.6899 366.27 95.4499 366.3 95.1499 366.36V368.96V368.97Z" fill="#738C9A"/>
<path d="M102.24 366.28V368.75H103.61C103.97 368.75 104.2 368.7 104.32 368.59C104.48 368.45 104.57 368.2 104.59 367.84H104.76V370.01H104.59C104.55 369.71 104.5 369.51 104.46 369.42C104.4 369.31 104.31 369.23 104.19 369.17C104.06 369.11 103.87 369.08 103.61 369.08H102.24V371.14C102.24 371.42 102.25 371.58 102.28 371.64C102.3 371.7 102.35 371.75 102.41 371.78C102.47 371.82 102.59 371.83 102.76 371.83H103.82C104.17 371.83 104.43 371.81 104.59 371.76C104.75 371.71 104.9 371.61 105.05 371.47C105.24 371.28 105.44 370.99 105.64 370.61H105.82L105.28 372.18H100.47V372.01H100.69C100.84 372.01 100.98 371.97 101.11 371.9C101.21 371.85 101.28 371.78 101.31 371.68C101.35 371.58 101.36 371.38 101.36 371.08V367.02C101.36 366.62 101.32 366.38 101.24 366.29C101.13 366.17 100.95 366.11 100.69 366.11H100.47V365.94H105.28L105.35 367.31H105.17C105.11 366.98 105.03 366.76 104.96 366.63C104.88 366.51 104.77 366.41 104.61 366.35C104.49 366.3 104.27 366.28 103.96 366.28H102.25H102.24Z" fill="#738C9A"/>
<path d="M111.1 370.09H108.68L108.26 371.08C108.16 371.32 108.1 371.5 108.1 371.62C108.1 371.72 108.15 371.8 108.24 371.87C108.33 371.94 108.53 371.99 108.83 372.01V372.18H106.86V372.01C107.12 371.96 107.29 371.9 107.37 371.83C107.53 371.68 107.7 371.38 107.89 370.93L110.09 365.79H110.25L112.42 370.99C112.6 371.41 112.75 371.68 112.9 371.8C113.05 371.92 113.24 371.99 113.5 372.01V372.18H111.03V372.01C111.28 372 111.45 371.96 111.53 371.89C111.62 371.82 111.66 371.73 111.66 371.63C111.66 371.49 111.6 371.28 111.48 370.99L111.1 370.09ZM110.97 369.75L109.91 367.23L108.82 369.75H110.97Z" fill="#738C9A"/>
<path d="M118.21 372.19L115.8 366.93V371.1C115.8 371.48 115.84 371.72 115.92 371.82C116.03 371.95 116.21 372.01 116.46 372.01H116.68V372.18H114.51V372.01H114.73C114.99 372.01 115.18 371.93 115.29 371.77C115.36 371.67 115.39 371.45 115.39 371.1V367.02C115.39 366.74 115.36 366.54 115.3 366.42C115.26 366.33 115.18 366.26 115.06 366.2C114.94 366.14 114.76 366.11 114.5 366.11V365.94H116.27L118.54 370.83L120.77 365.94H122.54V366.11H122.32C122.05 366.11 121.86 366.19 121.75 366.35C121.68 366.45 121.65 366.67 121.65 367.02V371.1C121.65 371.48 121.69 371.72 121.78 371.82C121.89 371.95 122.07 372.01 122.32 372.01H122.54V372.18H119.89V372.01H120.11C120.38 372.01 120.56 371.93 120.67 371.77C120.74 371.67 120.77 371.45 120.77 371.1V366.93L118.36 372.19H118.21Z" fill="#738C9A"/>
<path d="M127.82 365.79V367.95H127.65C127.59 367.54 127.5 367.21 127.35 366.96C127.2 366.71 127 366.52 126.74 366.37C126.48 366.23 126.2 366.15 125.92 366.15C125.6 366.15 125.34 366.25 125.13 366.44C124.92 366.64 124.82 366.86 124.82 367.11C124.82 367.3 124.89 367.47 125.02 367.63C125.21 367.86 125.66 368.17 126.38 368.55C126.96 368.86 127.36 369.1 127.58 369.27C127.79 369.44 127.96 369.63 128.07 369.86C128.18 370.09 128.24 370.33 128.24 370.57C128.24 371.04 128.06 371.45 127.69 371.79C127.32 372.13 126.85 372.3 126.27 372.3C126.09 372.3 125.92 372.29 125.76 372.26C125.66 372.24 125.47 372.19 125.17 372.09C124.87 371.99 124.68 371.94 124.6 371.94C124.52 371.94 124.46 371.96 124.42 372.01C124.38 372.06 124.34 372.15 124.32 372.3H124.15V370.16H124.32C124.4 370.61 124.51 370.94 124.64 371.17C124.78 371.39 124.98 371.58 125.26 371.73C125.54 371.88 125.84 371.95 126.17 371.95C126.55 371.95 126.86 371.85 127.08 371.65C127.3 371.45 127.41 371.21 127.41 370.93C127.41 370.78 127.37 370.62 127.28 370.46C127.2 370.3 127.06 370.16 126.89 370.02C126.77 369.93 126.44 369.73 125.91 369.43C125.38 369.13 125 368.89 124.77 368.71C124.54 368.53 124.37 368.34 124.26 368.12C124.14 367.9 124.08 367.67 124.08 367.41C124.08 366.96 124.25 366.58 124.6 366.25C124.94 365.93 125.38 365.76 125.91 365.76C126.24 365.76 126.59 365.84 126.97 366C127.14 366.08 127.26 366.12 127.33 366.12C127.41 366.12 127.48 366.1 127.53 366.05C127.58 366 127.62 365.91 127.65 365.76H127.82V365.79Z" fill="#738C9A"/>
<path d="M138.02 370.46L138.17 370.49L137.64 372.19H132.8V372.02H133.04C133.3 372.02 133.49 371.93 133.61 371.76C133.67 371.66 133.71 371.43 133.71 371.08V367.05C133.71 366.66 133.67 366.42 133.58 366.32C133.46 366.18 133.28 366.12 133.05 366.12H132.81V365.95H135.64V366.12C135.31 366.12 135.08 366.15 134.94 366.21C134.8 366.27 134.71 366.36 134.67 366.45C134.62 366.55 134.6 366.78 134.6 367.15V371.08C134.6 371.34 134.62 371.51 134.67 371.61C134.71 371.67 134.76 371.72 134.84 371.75C134.92 371.78 135.16 371.8 135.56 371.8H136.02C136.5 371.8 136.84 371.76 137.03 371.69C137.22 371.62 137.4 371.49 137.56 371.31C137.72 371.13 137.88 370.85 138.04 370.46H138.02Z" fill="#738C9A"/>
<path d="M142.04 372.02V372.19H139.36V372.02H139.58C139.84 372.02 140.03 371.94 140.14 371.79C140.21 371.69 140.25 371.46 140.25 371.08V367.04C140.25 366.72 140.23 366.51 140.19 366.41C140.16 366.33 140.1 366.27 140 366.21C139.86 366.14 139.72 366.1 139.58 366.1H139.36V365.93H142.04V366.1H141.81C141.55 366.1 141.37 366.18 141.25 366.33C141.17 366.43 141.13 366.66 141.13 367.04V371.08C141.13 371.4 141.15 371.61 141.19 371.71C141.22 371.79 141.29 371.85 141.38 371.91C141.51 371.98 141.65 372.02 141.8 372.02H142.03H142.04Z" fill="#738C9A"/>
<path d="M149.73 365.94V366.11C149.51 366.15 149.34 366.22 149.23 366.32C149.07 366.47 148.92 366.7 148.8 367.01L146.62 372.33H146.45L144.11 366.94C143.99 366.66 143.91 366.49 143.86 366.43C143.78 366.33 143.69 366.26 143.58 366.21C143.47 366.16 143.32 366.12 143.13 366.11V365.94H145.68V366.11C145.39 366.14 145.2 366.19 145.12 366.26C145.03 366.33 144.99 366.42 144.99 366.53C144.99 366.68 145.06 366.92 145.2 367.25L146.79 370.91L148.26 367.29C148.4 366.93 148.48 366.69 148.48 366.55C148.48 366.46 148.44 366.38 148.35 366.29C148.26 366.21 148.11 366.15 147.9 366.12C147.88 366.12 147.86 366.12 147.82 366.11V365.94H149.75H149.73Z" fill="#738C9A"/>
<path d="M152.57 366.28V368.75H153.94C154.3 368.75 154.53 368.7 154.65 368.59C154.81 368.45 154.9 368.2 154.92 367.84H155.09V370.01H154.92C154.88 369.71 154.83 369.51 154.79 369.42C154.73 369.31 154.64 369.23 154.52 369.17C154.39 369.11 154.2 369.08 153.94 369.08H152.57V371.14C152.57 371.42 152.58 371.58 152.61 371.64C152.63 371.7 152.68 371.75 152.74 371.78C152.8 371.82 152.92 371.83 153.09 371.83H154.15C154.5 371.83 154.76 371.81 154.92 371.76C155.08 371.71 155.23 371.61 155.38 371.47C155.57 371.28 155.77 370.99 155.97 370.61H156.15L155.61 372.18H150.8V372.01H151.02C151.17 372.01 151.31 371.97 151.44 371.9C151.54 371.85 151.61 371.78 151.64 371.68C151.68 371.58 151.69 371.38 151.69 371.08V367.02C151.69 366.62 151.65 366.38 151.57 366.29C151.46 366.17 151.28 366.11 151.02 366.11H150.8V365.94H155.61L155.68 367.31H155.5C155.44 366.98 155.36 366.76 155.29 366.63C155.21 366.51 155.1 366.41 154.94 366.35C154.82 366.3 154.6 366.28 154.29 366.28H152.58H152.57Z" fill="#738C9A"/>
<path d="M35.2197 371.77V369.11H0.149719V371.77H35.2197Z" fill="#3B8281"/>
</svg>
