<svg width="1723" height="900" viewBox="0 0 1723 900" fill="none" xmlns="http://www.w3.org/2000/svg">
<g clip-path="url(#clip0_6_162)">
<g style="mix-blend-mode:multiply">
<path d="M43.6501 151.9C45.5201 151.1 41.8501 147.64 41.1001 147.07C40.2801 146.46 38.4701 145.24 37.2701 145.51C37.0001 146.71 38.2201 148.52 38.8301 149.34C39.4001 150.09 42.8601 153.77 43.6601 151.89L43.6501 151.9ZM10.6901 151.9C11.4901 153.77 14.9501 150.1 15.5201 149.35C16.1301 148.53 17.3501 146.72 17.0801 145.52C15.8801 145.25 14.0701 146.47 13.2501 147.08C12.5001 147.65 8.82014 151.11 10.7001 151.91L10.6901 151.9ZM10.6901 118.95C8.82014 119.75 12.4901 123.21 13.2401 123.78C14.0601 124.39 15.8701 125.61 17.0701 125.34C17.3401 124.14 16.1201 122.33 15.5101 121.51C14.9401 120.76 11.4901 117.08 10.6801 118.96L10.6901 118.95ZM43.6501 118.95C42.8501 117.08 39.3901 120.75 38.8201 121.5C38.2101 122.32 36.9901 124.13 37.2601 125.33C38.4601 125.6 40.2701 124.38 41.0901 123.77C41.8401 123.2 45.5201 119.75 43.6401 118.94L43.6501 118.95ZM28.0901 136.35C27.7901 136.41 27.4901 136.45 27.1701 136.45C26.8501 136.45 26.5501 136.41 26.2501 136.35C26.1901 136.05 26.1501 135.75 26.1501 135.43C26.1501 135.11 26.1901 134.81 26.2501 134.51C26.5501 134.45 26.8501 134.41 27.1701 134.41C27.4901 134.41 27.7901 134.45 28.0901 134.51C28.1501 134.81 28.1901 135.11 28.1901 135.43C28.1901 135.75 28.1501 136.05 28.0901 136.35ZM50.3101 130.91C49.6501 129.32 49.1501 127.67 48.8201 126C48.8001 125.89 48.7601 125.72 48.7201 125.52C48.1501 122.87 48.4301 121.03 48.1501 120.79C47.8701 120.53 47.4401 120.55 47.1801 120.83C42.6301 125.72 38.2801 128.29 33.9601 128.63C34.3001 124.31 36.8701 119.96 41.7601 115.41C42.0401 115.15 42.0501 114.72 41.8001 114.44C41.5601 114.17 39.7201 114.44 37.0701 113.87C36.8701 113.83 36.7101 113.79 36.5901 113.77C34.9201 113.45 33.2601 112.94 31.6701 112.28C30.0501 111.6 28.5701 110.67 27.1601 109.65C25.7501 110.67 24.2601 111.61 22.6501 112.28C21.0601 112.94 19.4101 113.45 17.7401 113.77C17.6301 113.79 17.4601 113.83 17.2601 113.87C14.6101 114.44 12.7701 114.16 12.5301 114.44C12.2701 114.72 12.2901 115.15 12.5701 115.41C17.4601 119.96 20.0301 124.31 20.3701 128.63C16.0501 128.29 11.7001 125.72 7.15014 120.83C6.89014 120.55 6.46014 120.54 6.18014 120.79C5.91014 121.03 6.18014 122.87 5.61014 125.52C5.57014 125.72 5.53014 125.88 5.51014 126C5.19014 127.67 4.68014 129.33 4.02014 130.91C3.35014 132.53 2.41014 134.01 1.39014 135.42C2.41014 136.83 3.35014 138.32 4.02014 139.93C4.68014 141.52 5.19014 143.17 5.51014 144.85C5.53014 144.96 5.57014 145.13 5.61014 145.33C6.18014 147.98 5.90014 149.82 6.18014 150.06C6.46014 150.32 6.89014 150.3 7.15014 150.02C11.7001 145.13 16.0501 142.56 20.3701 142.22C20.0301 146.54 17.4601 150.89 12.5701 155.44C12.2901 155.7 12.2801 156.13 12.5301 156.41C12.7701 156.69 14.6101 156.41 17.2601 156.98C17.4601 157.02 17.6201 157.06 17.7401 157.08C19.4101 157.4 21.0701 157.91 22.6501 158.57C24.2701 159.25 25.7501 160.18 27.1601 161.2C28.5701 160.18 30.0601 159.24 31.6701 158.57C33.2601 157.91 34.9101 157.4 36.5901 157.08C36.7001 157.06 36.8701 157.02 37.0701 156.98C39.7201 156.41 41.5601 156.69 41.8001 156.41C42.0601 156.13 42.0401 155.7 41.7601 155.44C36.8701 150.89 34.3001 146.54 33.9601 142.22C38.2801 142.56 42.6401 145.13 47.1801 150.02C47.4401 150.3 47.8701 150.31 48.1501 150.06C48.4201 149.82 48.1501 147.98 48.7201 145.33C48.7601 145.13 48.8001 144.97 48.8201 144.85C49.1401 143.18 49.6501 141.52 50.3101 139.93C50.9901 138.31 51.9201 136.83 52.9401 135.42C51.9201 134.01 50.9801 132.52 50.3101 130.91ZM46.8901 123.1C46.9701 123.8 47.1401 124.68 47.3801 125.82C47.4201 126.01 47.4501 126.16 47.4701 126.27C47.8101 128.03 48.3401 129.78 49.0401 131.45C49.6301 132.86 50.3901 134.16 51.2301 135.39C50.2601 134.64 49.3401 133.96 48.3301 133.37C45.6401 131.81 42.8101 131 40.1401 131.05C38.2201 131.08 36.2001 131.56 34.2901 132.45C34.1001 131.65 33.9801 130.84 33.9401 130.02C38.2201 129.7 42.5601 127.39 46.9001 123.11L46.8901 123.1ZM34.6701 133.77C34.7201 133.74 34.7701 133.71 34.8301 133.69C36.5801 132.88 38.4201 132.44 40.1601 132.41C42.5801 132.37 45.1701 133.11 47.6501 134.55C48.1201 134.82 48.5701 135.11 49.0201 135.43C48.5701 135.75 48.1201 136.04 47.6501 136.31C45.1701 137.75 42.5901 138.49 40.1601 138.45C38.4201 138.42 36.5801 137.98 34.8301 137.17C34.7801 137.15 34.7301 137.11 34.6701 137.09C34.8601 136.54 35.0801 135.98 35.3401 135.43C35.0801 134.88 34.8601 134.33 34.6701 133.77ZM31.1501 113.55C32.8201 114.25 34.5701 114.78 36.3301 115.12C36.4401 115.14 36.5901 115.17 36.7801 115.21C37.9101 115.45 38.8001 115.61 39.5001 115.7C35.2201 120.04 32.9101 124.39 32.5901 128.66C31.7701 128.61 30.9601 128.5 30.1601 128.31C31.0401 126.4 31.5301 124.38 31.5601 122.46C31.6001 119.79 30.8001 116.96 29.2401 114.26C28.6501 113.25 27.9701 112.32 27.2201 111.36C28.4501 112.2 29.7501 112.96 31.1601 113.55H31.1501ZM33.7701 135.43C33.7701 137.21 32.6101 138.72 31.0101 139.27C30.4601 140.87 28.9501 142.03 27.1701 142.03C25.3901 142.03 23.8801 140.87 23.3301 139.27C21.7301 138.72 20.5701 137.21 20.5701 135.43C20.5701 133.65 21.7301 132.14 23.3301 131.59C23.8801 129.99 25.3901 128.83 27.1701 128.83C28.9501 128.83 30.4601 129.99 31.0101 131.59C32.6101 132.14 33.7701 133.65 33.7701 135.43ZM28.0501 114.95C29.4901 117.43 30.2301 120.01 30.1901 122.44C30.1601 124.18 29.7201 126.02 28.9101 127.77C28.8901 127.82 28.8501 127.87 28.8301 127.93C28.2801 127.74 27.7201 127.52 27.1701 127.26C26.6201 127.52 26.0701 127.74 25.5101 127.93C25.4801 127.88 25.4501 127.83 25.4301 127.77C24.6201 126.02 24.1801 124.18 24.1501 122.44C24.1101 120.02 24.8501 117.43 26.2901 114.95C26.5601 114.48 26.8501 114.03 27.1701 113.58C27.4901 114.03 27.7801 114.48 28.0501 114.95ZM14.8401 115.7C15.5401 115.62 16.4301 115.45 17.5601 115.21C17.7501 115.17 17.9001 115.14 18.0101 115.12C19.7701 114.78 21.5201 114.25 23.1901 113.55C24.6001 112.96 25.8901 112.2 27.1301 111.36C26.3801 112.33 25.7001 113.25 25.1101 114.26C23.5501 116.95 22.7401 119.79 22.7901 122.46C22.8201 124.38 23.3001 126.4 24.1901 128.31C23.3901 128.5 22.5801 128.62 21.7601 128.66C21.4401 124.38 19.1301 120.04 14.8501 115.7H14.8401ZM5.29014 131.44C5.99014 129.77 6.52014 128.02 6.86014 126.26C6.88014 126.15 6.91014 126 6.95014 125.81C7.19014 124.68 7.36014 123.79 7.44014 123.09C11.7801 127.37 16.1301 129.68 20.4001 130C20.3501 130.82 20.2401 131.63 20.0501 132.43C18.1401 131.55 16.1201 131.06 14.2001 131.03C11.5301 130.99 8.70014 131.79 6.00014 133.35C4.99014 133.94 4.06014 134.61 3.10014 135.37C3.94014 134.14 4.70014 132.84 5.29014 131.43V131.44ZM19.6601 137.08C19.6101 137.11 19.5601 137.14 19.5001 137.16C17.7501 137.97 15.9101 138.41 14.1701 138.44C11.7501 138.48 9.16014 137.74 6.68014 136.3C6.21014 136.03 5.76014 135.74 5.31014 135.42C5.76014 135.1 6.21014 134.81 6.68014 134.54C9.16014 133.1 11.7401 132.36 14.1701 132.4C15.9101 132.43 17.7501 132.87 19.5001 133.68C19.5501 133.7 19.6001 133.73 19.6601 133.76C19.4701 134.31 19.2501 134.87 18.9901 135.42C19.2501 135.97 19.4701 136.52 19.6601 137.08ZM7.44014 147.76C7.36014 147.06 7.19014 146.17 6.95014 145.04C6.91014 144.85 6.88014 144.7 6.86014 144.59C6.52014 142.83 5.99014 141.08 5.29014 139.41C4.70014 138 3.94014 136.7 3.10014 135.47C4.07014 136.22 4.99014 136.9 6.00014 137.49C8.69014 139.05 11.5301 139.86 14.2001 139.81C16.1201 139.78 18.1401 139.3 20.0501 138.41C20.2401 139.21 20.3601 140.02 20.4001 140.84C16.1201 141.16 11.7801 143.47 7.44014 147.75V147.76ZM23.1801 157.31C21.5101 156.61 19.7601 156.08 18.0001 155.74C17.8901 155.72 17.7401 155.69 17.5501 155.65C16.4201 155.41 15.5301 155.25 14.8301 155.16C19.1101 150.82 21.4201 146.47 21.7401 142.2C22.5601 142.25 23.3701 142.36 24.1701 142.55C23.2901 144.46 22.8001 146.48 22.7701 148.4C22.7301 151.07 23.5301 153.9 25.0901 156.59C25.6801 157.6 26.3501 158.53 27.1101 159.49C25.8801 158.65 24.5801 157.89 23.1701 157.3L23.1801 157.31ZM26.2901 155.9C24.8501 153.42 24.1101 150.84 24.1501 148.41C24.1801 146.67 24.6201 144.83 25.4301 143.08C25.4501 143.03 25.4901 142.98 25.5101 142.92C26.0601 143.11 26.6201 143.33 27.1701 143.59C27.7201 143.33 28.2701 143.11 28.8301 142.92C28.8601 142.97 28.8901 143.02 28.9101 143.08C29.7201 144.83 30.1601 146.67 30.1901 148.41C30.2301 150.83 29.4901 153.42 28.0501 155.9C27.7801 156.37 27.4901 156.82 27.1701 157.27C26.8501 156.82 26.5601 156.37 26.2901 155.9ZM39.5001 155.15C38.8001 155.23 37.9101 155.4 36.7801 155.64C36.5901 155.68 36.4401 155.71 36.3301 155.73C34.5701 156.07 32.8201 156.6 31.1501 157.3C29.7401 157.89 28.4401 158.65 27.2101 159.49C27.9601 158.52 28.6401 157.6 29.2301 156.59C30.7901 153.9 31.6001 151.07 31.5501 148.4C31.5201 146.48 31.0401 144.46 30.1501 142.55C30.9501 142.36 31.7601 142.24 32.5801 142.2C32.9001 146.48 35.2101 150.82 39.4901 155.16L39.5001 155.15ZM49.0501 139.41C48.3501 141.08 47.8201 142.83 47.4801 144.59C47.4601 144.7 47.4301 144.85 47.3901 145.04C47.1501 146.17 46.9901 147.06 46.9001 147.76C42.5601 143.48 38.2101 141.17 33.9401 140.85C33.9901 140.03 34.1001 139.22 34.2901 138.42C36.2001 139.3 38.2201 139.79 40.1401 139.82C42.8101 139.86 45.6401 139.06 48.3301 137.5C49.3401 136.91 50.2701 136.23 51.2301 135.48C50.3901 136.71 49.6301 138.01 49.0401 139.42L49.0501 139.41ZM38.2001 135.43C40.5001 134.2 43.2001 133.83 45.7701 135.02C46.0301 135.14 46.2901 135.28 46.5301 135.43C46.2801 135.58 46.0301 135.72 45.7701 135.84C43.2001 137.03 40.5001 136.66 38.2001 135.43ZM24.6501 131.34C24.5201 131.34 24.4001 131.37 24.2701 131.38C24.8201 130.34 25.9101 129.62 27.1701 129.62C28.4301 129.62 29.5101 130.34 30.0701 131.38C29.9401 131.37 29.8201 131.34 29.6901 131.34C28.7401 131.34 27.8701 131.68 27.1701 132.23C26.4701 131.68 25.6101 131.34 24.6501 131.34ZM29.6901 132.14C29.9301 132.14 30.1601 132.17 30.3801 132.22C30.4301 132.44 30.4601 132.68 30.4601 132.92C30.4601 133.65 30.2101 134.32 29.8101 134.87C29.4301 134.54 28.9801 134.28 28.5001 134.12C28.3301 133.63 28.0801 133.19 27.7501 132.81C28.3001 132.41 28.9701 132.16 29.7001 132.16L29.6901 132.14ZM26.7601 116.83C26.8801 116.57 27.0201 116.31 27.1701 116.07C27.3201 116.32 27.4601 116.57 27.5801 116.83C28.7701 119.4 28.4001 122.1 27.1701 124.4C25.9401 122.1 25.5701 119.4 26.7601 116.83ZM32.9801 135.43C32.9801 136.69 32.2601 137.77 31.2201 138.33C31.2301 138.2 31.2601 138.08 31.2601 137.95C31.2601 137 30.9201 136.13 30.3701 135.43C30.9201 134.73 31.2601 133.87 31.2601 132.91C31.2601 132.78 31.2301 132.66 31.2201 132.53C32.2601 133.08 32.9801 134.17 32.9801 135.43ZM24.5301 134.85C24.1301 134.3 23.8801 133.64 23.8801 132.9C23.8801 132.66 23.9101 132.43 23.9601 132.2C24.1801 132.15 24.4201 132.12 24.6601 132.12C25.3901 132.12 26.0601 132.37 26.6101 132.77C26.2801 133.15 26.0201 133.6 25.8601 134.08C25.3701 134.25 24.9301 134.51 24.5501 134.83L24.5301 134.85ZM29.8101 136C30.2101 136.55 30.4601 137.21 30.4601 137.94C30.4601 138.18 30.4301 138.41 30.3801 138.64C30.1601 138.69 29.9201 138.72 29.6901 138.72C28.9601 138.72 28.2901 138.47 27.7401 138.07C28.0701 137.69 28.3201 137.24 28.4901 136.76C28.9801 136.59 29.4201 136.34 29.8001 136.01L29.8101 136ZM27.5801 154.03C27.4601 154.29 27.3201 154.55 27.1701 154.79C27.0201 154.55 26.8801 154.29 26.7601 154.03C25.5701 151.46 25.9401 148.76 27.1701 146.46C28.4001 148.76 28.7701 151.46 27.5801 154.03ZM23.9801 135.43C23.4301 136.13 23.0901 136.99 23.0901 137.95C23.0901 138.08 23.1201 138.2 23.1301 138.33C22.0901 137.78 21.3701 136.69 21.3701 135.43C21.3701 134.17 22.0901 133.09 23.1301 132.53C23.1201 132.66 23.0901 132.78 23.0901 132.91C23.0901 133.86 23.4301 134.73 23.9801 135.43ZM16.1401 135.43C13.8401 136.66 11.1401 137.03 8.57014 135.84C8.31014 135.72 8.05014 135.58 7.81014 135.43C8.06014 135.28 8.31014 135.14 8.57014 135.02C11.1401 133.83 13.8401 134.2 16.1401 135.43ZM24.6501 138.72C24.4101 138.72 24.1801 138.69 23.9501 138.64C23.9001 138.42 23.8701 138.18 23.8701 137.94C23.8701 137.21 24.1201 136.54 24.5201 136C24.9001 136.33 25.3501 136.58 25.8301 136.75C26.0001 137.24 26.2601 137.68 26.5801 138.06C26.0301 138.46 25.3601 138.71 24.6301 138.71L24.6501 138.72ZM29.6901 139.51C29.8201 139.51 29.9401 139.48 30.0701 139.47C29.5201 140.51 28.4301 141.23 27.1701 141.23C25.9101 141.23 24.8301 140.51 24.2701 139.47C24.4001 139.48 24.5201 139.51 24.6501 139.51C25.6001 139.51 26.4701 139.17 27.1701 138.62C27.8701 139.17 28.7301 139.51 29.6901 139.51Z" fill="#3B8281"/>
</g>
<path d="M15.8902 178.9V179.21C15.5902 179.21 15.3502 179.26 15.1702 179.37C14.9902 179.48 14.8102 179.68 14.6402 179.97C14.5302 180.17 14.3502 180.63 14.1102 181.37L10.9302 190.56H10.5902L7.99023 183.27L5.41023 190.56H5.11023L1.72023 181.09C1.47023 180.38 1.31023 179.97 1.24023 179.84C1.13023 179.63 0.980234 179.47 0.780234 179.36C0.590234 179.26 0.320234 179.2 -0.00976562 179.2V178.89H4.21023V179.2H4.01023C3.71023 179.2 3.49023 179.27 3.33023 179.4C3.17023 179.53 3.09023 179.7 3.09023 179.89C3.09023 180.08 3.21023 180.54 3.46023 181.24L5.71023 187.64L7.60023 182.2L7.26023 181.24L6.99023 180.47C6.87023 180.19 6.74023 179.94 6.59023 179.73C6.52023 179.62 6.43023 179.53 6.32023 179.46C6.18023 179.36 6.04023 179.29 5.90023 179.24C5.79023 179.21 5.63023 179.19 5.40023 179.19V178.88H9.84023V179.19H9.54023C9.23023 179.19 9.00023 179.26 8.85023 179.39C8.70024 179.52 8.63023 179.71 8.63023 179.94C8.63023 180.23 8.76023 180.73 9.01023 181.44L11.2002 187.64L13.3702 181.36C13.6202 180.66 13.7402 180.18 13.7402 179.91C13.7402 179.78 13.7002 179.66 13.6202 179.55C13.5402 179.44 13.4402 179.36 13.3102 179.31C13.1002 179.23 12.8202 179.19 12.4802 179.19V178.88H15.8902V178.9Z" fill="#738C9A"/>
<path d="M20.9502 184.19H26.2502V180.93C26.2502 180.35 26.2102 179.96 26.1402 179.78C26.0802 179.64 25.9702 179.52 25.7902 179.42C25.5502 179.29 25.2902 179.22 25.0202 179.22H24.6202V178.91H29.5002V179.22H29.1002C28.8302 179.22 28.5802 179.28 28.3302 179.41C28.1502 179.5 28.0302 179.64 27.9602 179.82C27.9002 180 27.8602 180.37 27.8602 180.93V188.29C27.8602 188.87 27.9002 189.25 27.9702 189.43C28.0302 189.57 28.1402 189.69 28.3102 189.79C28.5602 189.92 28.8102 189.99 29.0802 189.99H29.4802V190.3H24.6002V189.99H25.0002C25.4702 189.99 25.8002 189.85 26.0202 189.58C26.1602 189.4 26.2302 188.97 26.2302 188.29V184.82H20.9302V188.29C20.9302 188.87 20.9702 189.25 21.0402 189.43C21.1002 189.57 21.2102 189.69 21.3902 189.79C21.6302 189.92 21.8902 189.99 22.1602 189.99H22.5702V190.3H17.6802V189.99H18.0802C18.5502 189.99 18.8902 189.85 19.1102 189.58C19.2402 189.4 19.3102 188.97 19.3102 188.29V180.93C19.3102 180.35 19.2702 179.96 19.2002 179.78C19.1402 179.64 19.0302 179.52 18.8602 179.42C18.6102 179.29 18.3602 179.22 18.0902 179.22H17.6902V178.91H22.5802V179.22H22.1702C21.9002 179.22 21.6502 179.28 21.4002 179.41C21.2302 179.5 21.1102 179.64 21.0402 179.82C20.9702 180 20.9402 180.37 20.9402 180.93V184.19H20.9502Z" fill="#738C9A"/>
<path d="M34.8203 179.52V184.03H37.3303C37.9803 184.03 38.4103 183.93 38.6303 183.74C38.9203 183.48 39.0803 183.03 39.1203 182.38H39.4303V186.35H39.1203C39.0403 185.79 38.9603 185.44 38.8803 185.28C38.7803 185.08 38.6103 184.93 38.3803 184.82C38.1503 184.71 37.8003 184.65 37.3203 184.65H34.8103V188.41C34.8103 188.91 34.8303 189.22 34.8803 189.33C34.9203 189.44 35.0003 189.53 35.1203 189.59C35.2303 189.65 35.4403 189.69 35.7603 189.69H37.6903C38.3303 189.69 38.8003 189.65 39.0903 189.56C39.3803 189.47 39.6603 189.29 39.9303 189.03C40.2803 188.68 40.6303 188.16 41.0003 187.46H41.3403L40.3603 190.32H31.5703V190.01H31.9703C32.2403 190.01 32.4903 189.95 32.7403 189.82C32.9203 189.73 33.0403 189.6 33.1103 189.42C33.1703 189.24 33.2103 188.87 33.2103 188.32V180.91C33.2103 180.19 33.1403 179.74 32.9903 179.57C32.7903 179.35 32.4503 179.23 31.9803 179.23H31.5803V178.92H40.3703L40.5003 181.42H40.1703C40.0503 180.82 39.9203 180.41 39.7803 180.18C39.6403 179.96 39.4303 179.78 39.1503 179.67C38.9303 179.59 38.5303 179.54 37.9603 179.54H34.8303L34.8203 179.52Z" fill="#738C9A"/>
<path d="M54.7602 190.3H51.7202L47.8602 184.97C47.5702 184.98 47.3402 184.99 47.1602 184.99C47.0902 184.99 47.0102 184.99 46.9202 184.99C46.8402 184.99 46.7502 184.99 46.6602 184.98V188.29C46.6602 189.01 46.7402 189.45 46.9002 189.63C47.1102 189.88 47.4302 190 47.8602 190H48.3102V190.31H43.4202V190H43.8502C44.3302 190 44.6802 189.84 44.8802 189.53C45.0002 189.36 45.0602 188.94 45.0602 188.29V180.92C45.0602 180.2 44.9802 179.76 44.8202 179.58C44.6002 179.33 44.2802 179.21 43.8402 179.21H43.4102V178.9H47.5602C48.7702 178.9 49.6602 178.99 50.2402 179.16C50.8102 179.34 51.3002 179.66 51.7002 180.14C52.1002 180.61 52.3002 181.18 52.3002 181.83C52.3002 182.53 52.0702 183.14 51.6102 183.65C51.1502 184.17 50.4502 184.53 49.4902 184.74L51.8402 188.01C52.3802 188.76 52.8402 189.26 53.2302 189.51C53.6202 189.76 54.1202 189.91 54.7402 189.98V190.29L54.7602 190.3ZM46.6602 184.44C46.7702 184.44 46.8602 184.44 46.9402 184.44C47.0202 184.44 47.0802 184.44 47.1302 184.44C48.2202 184.44 49.0402 184.2 49.5902 183.73C50.1402 183.26 50.4202 182.66 50.4202 181.93C50.4202 181.2 50.2002 180.64 49.7502 180.19C49.3002 179.74 48.7102 179.52 47.9802 179.52C47.6502 179.52 47.2102 179.57 46.6602 179.68V184.42V184.44Z" fill="#738C9A"/>
<path d="M59.5801 179.52V184.03H62.0901C62.7401 184.03 63.1701 183.93 63.3901 183.74C63.6801 183.48 63.8401 183.03 63.8801 182.38H64.1901V186.35H63.8801C63.8001 185.79 63.7201 185.44 63.6401 185.28C63.5401 185.08 63.3701 184.93 63.1401 184.82C62.9101 184.71 62.5601 184.65 62.0801 184.65H59.5701V188.41C59.5701 188.91 59.5901 189.22 59.6401 189.33C59.6901 189.44 59.7601 189.53 59.8801 189.59C59.9901 189.65 60.2001 189.69 60.5201 189.69H62.4501C63.0901 189.69 63.5601 189.65 63.8501 189.56C64.1401 189.47 64.4201 189.29 64.6901 189.03C65.0401 188.68 65.3901 188.16 65.7601 187.46H66.1001L65.1201 190.32H56.3301V190.01H56.7301C57.0001 190.01 57.2501 189.95 57.5001 189.82C57.6801 189.73 57.8001 189.6 57.8701 189.42C57.9301 189.24 57.9701 188.87 57.9701 188.32V180.91C57.9701 180.19 57.9001 179.74 57.7501 179.57C57.5501 179.35 57.2101 179.23 56.7401 179.23H56.3401V178.92H65.1301L65.2601 181.42H64.9301C64.8101 180.82 64.6801 180.41 64.5401 180.18C64.4001 179.95 64.1901 179.78 63.9101 179.67C63.6901 179.59 63.2901 179.54 62.7201 179.54H59.5901L59.5801 179.52Z" fill="#738C9A"/>
<path d="M73.8603 190.3V189.99H74.2903C74.7703 189.99 75.1103 189.84 75.3203 189.53C75.4403 189.34 75.5003 188.93 75.5003 188.29V180.92C75.5003 180.21 75.4203 179.76 75.2603 179.58C75.0403 179.33 74.7203 179.21 74.2803 179.21H73.8503V178.9H78.4903C80.1903 178.9 81.4903 179.09 82.3803 179.48C83.2703 179.87 83.9803 180.51 84.5203 181.41C85.0603 182.31 85.3303 183.36 85.3303 184.54C85.3303 186.13 84.8503 187.45 83.8803 188.52C82.8003 189.71 81.1503 190.3 78.9403 190.3H73.8403H73.8603ZM77.1203 189.48C77.8303 189.64 78.4303 189.72 78.9103 189.72C80.2103 189.72 81.2903 189.26 82.1503 188.35C83.0103 187.44 83.4403 186.2 83.4403 184.63C83.4403 183.06 83.0103 181.81 82.1503 180.9C81.2903 179.99 80.1903 179.54 78.8503 179.54C78.3503 179.54 77.7703 179.62 77.1303 179.78V189.48H77.1203Z" fill="#738C9A"/>
<path d="M99.0204 190.3H95.9804L92.1204 184.97C91.8304 184.98 91.6004 184.99 91.4204 184.99C91.3504 184.99 91.2704 184.99 91.1804 184.99C91.1004 184.99 91.0104 184.99 90.9204 184.98V188.29C90.9204 189.01 91.0004 189.45 91.1604 189.63C91.3704 189.88 91.6904 190 92.1204 190H92.5704V190.31H87.6804V190H88.1104C88.5904 190 88.9404 189.84 89.1404 189.53C89.2604 189.36 89.3204 188.94 89.3204 188.29V180.92C89.3204 180.2 89.2404 179.76 89.0804 179.58C88.8604 179.33 88.5404 179.21 88.1004 179.21H87.6704V178.9H91.8204C93.0304 178.9 93.9204 178.99 94.5004 179.16C95.0704 179.34 95.5604 179.66 95.9604 180.14C96.3604 180.61 96.5604 181.18 96.5604 181.83C96.5604 182.53 96.3304 183.14 95.8704 183.65C95.4104 184.17 94.7104 184.53 93.7504 184.74L96.1004 188.01C96.6404 188.76 97.1004 189.26 97.4904 189.51C97.8804 189.76 98.3804 189.91 99.0004 189.98V190.29L99.0204 190.3ZM90.9204 184.44C91.0304 184.44 91.1204 184.44 91.2004 184.44C91.2804 184.44 91.3404 184.44 91.3904 184.44C92.4804 184.44 93.3004 184.2 93.8504 183.73C94.4004 183.26 94.6804 182.66 94.6804 181.93C94.6804 181.2 94.4604 180.64 94.0104 180.19C93.5604 179.74 92.9704 179.52 92.2404 179.52C91.9104 179.52 91.4704 179.57 90.9204 179.68V184.42V184.44Z" fill="#738C9A"/>
<path d="M103.85 179.52V184.03H106.36C107.01 184.03 107.44 183.93 107.66 183.74C107.95 183.48 108.11 183.03 108.15 182.38H108.46V186.35H108.15C108.07 185.79 107.99 185.44 107.91 185.28C107.81 185.08 107.64 184.93 107.41 184.82C107.18 184.71 106.83 184.65 106.35 184.65H103.84V188.41C103.84 188.91 103.86 189.22 103.91 189.33C103.95 189.44 104.03 189.53 104.15 189.59C104.26 189.65 104.48 189.69 104.79 189.69H106.72C107.36 189.69 107.83 189.65 108.12 189.56C108.41 189.47 108.69 189.29 108.96 189.03C109.31 188.68 109.66 188.16 110.03 187.46H110.37L109.39 190.32H100.6V190.01H101C101.27 190.01 101.52 189.95 101.77 189.82C101.95 189.73 102.07 189.6 102.14 189.42C102.2 189.24 102.24 188.87 102.24 188.32V180.91C102.24 180.19 102.17 179.74 102.02 179.57C101.82 179.35 101.48 179.23 101.01 179.23H100.61V178.92H109.4L109.53 181.42H109.2C109.08 180.82 108.95 180.41 108.81 180.18C108.67 179.96 108.46 179.78 108.18 179.67C107.96 179.59 107.56 179.54 106.99 179.54H103.86L103.85 179.52Z" fill="#738C9A"/>
<path d="M120.03 186.48H115.61L114.84 188.28C114.65 188.72 114.55 189.05 114.55 189.27C114.55 189.44 114.63 189.6 114.8 189.73C114.97 189.86 115.32 189.95 115.87 189.99V190.3H112.28V189.99C112.76 189.91 113.06 189.8 113.2 189.66C113.49 189.39 113.8 188.84 114.15 188.02L118.16 178.64H118.45L122.42 188.13C122.74 188.89 123.03 189.39 123.29 189.61C123.55 189.84 123.91 189.96 124.38 189.99V190.3H119.88V189.99C120.33 189.97 120.64 189.89 120.8 189.76C120.96 189.63 121.04 189.47 121.04 189.29C121.04 189.04 120.93 188.65 120.7 188.12L120.01 186.48H120.03ZM119.79 185.86L117.86 181.25L115.88 185.86H119.8H119.79Z" fill="#738C9A"/>
<path d="M133.01 190.3L128.6 180.7V188.32C128.6 189.02 128.68 189.46 128.83 189.63C129.04 189.87 129.37 189.98 129.81 189.98H130.21V190.29H126.24V189.98H126.64C127.12 189.98 127.46 189.83 127.67 189.54C127.79 189.36 127.85 188.95 127.85 188.31V180.86C127.85 180.36 127.79 179.99 127.68 179.77C127.6 179.61 127.46 179.47 127.25 179.36C127.04 179.25 126.7 179.2 126.24 179.2V178.89H129.47L133.61 187.81L137.68 178.89H140.91V179.2H140.51C140.02 179.2 139.68 179.35 139.48 179.64C139.36 179.82 139.29 180.23 139.29 180.87V188.32C139.29 189.02 139.37 189.46 139.53 189.63C139.74 189.87 140.07 189.98 140.51 189.98H140.91V190.29H136.07V189.98H136.47C136.96 189.98 137.3 189.83 137.5 189.54C137.62 189.36 137.69 188.95 137.69 188.31V180.69L133.29 190.29H133.01V190.3Z" fill="#738C9A"/>
<path d="M150.55 178.64V182.58H150.24C150.14 181.82 149.96 181.22 149.7 180.77C149.44 180.32 149.07 179.97 148.59 179.7C148.11 179.44 147.61 179.3 147.09 179.3C146.51 179.3 146.02 179.48 145.64 179.83C145.26 180.19 145.07 180.59 145.07 181.05C145.07 181.4 145.19 181.71 145.43 182C145.78 182.42 146.6 182.98 147.91 183.68C148.98 184.25 149.7 184.69 150.09 185C150.48 185.31 150.78 185.67 150.99 186.08C151.2 186.49 151.31 186.93 151.31 187.38C151.31 188.24 150.97 188.99 150.31 189.61C149.64 190.24 148.78 190.55 147.72 190.55C147.39 190.55 147.08 190.52 146.79 190.47C146.62 190.44 146.26 190.34 145.71 190.16C145.16 189.98 144.82 189.9 144.67 189.9C144.52 189.9 144.42 189.94 144.34 190.03C144.26 190.11 144.2 190.29 144.16 190.55H143.85V186.64H144.16C144.31 187.46 144.5 188.07 144.75 188.48C145 188.89 145.37 189.22 145.88 189.49C146.39 189.76 146.94 189.89 147.55 189.89C148.25 189.89 148.8 189.71 149.21 189.34C149.62 188.97 149.82 188.53 149.82 188.03C149.82 187.75 149.74 187.47 149.59 187.18C149.44 186.89 149.2 186.63 148.87 186.38C148.65 186.21 148.05 185.85 147.08 185.31C146.1 184.76 145.41 184.33 145 184C144.59 183.67 144.28 183.32 144.06 182.92C143.85 182.53 143.74 182.1 143.74 181.62C143.74 180.8 144.05 180.1 144.68 179.51C145.31 178.92 146.11 178.62 147.08 178.62C147.69 178.62 148.33 178.77 149.01 179.07C149.32 179.21 149.55 179.28 149.67 179.28C149.82 179.28 149.93 179.24 150.03 179.15C150.12 179.06 150.2 178.89 150.25 178.62H150.56L150.55 178.64Z" fill="#738C9A"/>
<path d="M169.16 187.15L169.44 187.21L168.46 190.3H159.63V189.99H160.06C160.54 189.99 160.89 189.83 161.09 189.52C161.21 189.34 161.27 188.93 161.27 188.28V180.92C161.27 180.21 161.19 179.76 161.03 179.58C160.81 179.33 160.49 179.21 160.05 179.21H159.62V178.9H164.78V179.21C164.17 179.21 163.75 179.26 163.51 179.38C163.27 179.5 163.1 179.65 163.01 179.83C162.92 180.01 162.88 180.44 162.88 181.12V188.28C162.88 188.75 162.92 189.07 163.01 189.24C163.08 189.36 163.18 189.44 163.32 189.5C163.46 189.56 163.9 189.58 164.63 189.58H165.46C166.33 189.58 166.95 189.52 167.3 189.39C167.65 189.26 167.98 189.03 168.27 188.7C168.56 188.37 168.85 187.85 169.14 187.15H169.16Z" fill="#738C9A"/>
<path d="M176.5 189.99V190.3H171.61V189.99H172.01C172.48 189.99 172.82 189.85 173.04 189.58C173.17 189.4 173.24 188.97 173.24 188.29V180.92C173.24 180.34 173.2 179.96 173.13 179.78C173.07 179.64 172.96 179.52 172.79 179.42C172.54 179.29 172.29 179.22 172.02 179.22H171.62V178.91H176.51V179.22H176.1C175.63 179.22 175.3 179.36 175.08 179.63C174.94 179.81 174.87 180.24 174.87 180.93V188.3C174.87 188.88 174.91 189.26 174.98 189.44C175.04 189.58 175.15 189.7 175.33 189.8C175.57 189.93 175.83 190 176.1 190H176.51L176.5 189.99Z" fill="#738C9A"/>
<path d="M190.53 178.9V179.21C190.13 179.28 189.82 179.41 189.61 179.6C189.31 179.87 189.05 180.3 188.82 180.86L184.84 190.56H184.53L180.26 180.73C180.04 180.23 179.89 179.92 179.8 179.8C179.66 179.63 179.49 179.49 179.28 179.39C179.08 179.29 178.8 179.23 178.45 179.2V178.89H183.11V179.2C182.58 179.25 182.24 179.34 182.08 179.47C181.92 179.6 181.84 179.76 181.84 179.97C181.84 180.25 181.97 180.69 182.23 181.28L185.13 187.97L187.82 181.37C188.08 180.72 188.22 180.27 188.22 180.02C188.22 179.86 188.14 179.7 187.98 179.55C187.82 179.4 187.54 179.3 187.16 179.23C187.13 179.23 187.08 179.22 187.02 179.2V178.89H190.54L190.53 178.9Z" fill="#738C9A"/>
<path d="M195.72 179.52V184.03H198.23C198.88 184.03 199.31 183.93 199.53 183.74C199.82 183.48 199.98 183.03 200.02 182.38H200.33V186.35H200.02C199.94 185.79 199.86 185.44 199.78 185.28C199.68 185.08 199.51 184.93 199.28 184.82C199.05 184.71 198.7 184.65 198.22 184.65H195.71V188.41C195.71 188.91 195.73 189.22 195.78 189.33C195.83 189.44 195.9 189.53 196.02 189.59C196.13 189.65 196.34 189.69 196.66 189.69H198.59C199.23 189.69 199.7 189.65 199.99 189.56C200.28 189.47 200.56 189.29 200.83 189.03C201.18 188.68 201.53 188.16 201.9 187.46H202.24L201.26 190.32H192.47V190.01H192.87C193.14 190.01 193.39 189.95 193.64 189.82C193.82 189.73 193.94 189.6 194.01 189.42C194.07 189.24 194.11 188.87 194.11 188.32V180.91C194.11 180.19 194.04 179.74 193.89 179.57C193.69 179.35 193.35 179.23 192.88 179.23H192.48V178.92H201.27L201.4 181.42H201.07C200.95 180.82 200.82 180.41 200.68 180.18C200.54 179.96 200.33 179.78 200.05 179.67C199.83 179.59 199.43 179.54 198.86 179.54H195.73L195.72 179.52Z" fill="#738C9A"/>
<path d="M23.8403 60.23V0.380005H1722.13V898.7H23.8403V621.96" stroke="#3B8281" stroke-width="0.75" stroke-miterlimit="10"/>
<path d="M23.85 87.36H30.5L30.5 0.36998H23.85L23.85 87.36Z" fill="#3B8281"/>
</g>
<defs>
<clipPath id="clip0_6_162">
<rect width="1722.51" height="899.08" fill="white"/>
</clipPath>
</defs>
</svg>
