<svg width="303" height="261" viewBox="0 0 303 261" fill="none" xmlns="http://www.w3.org/2000/svg">
<path d="M22.7508 85.09C22.1408 87.07 21.4908 89.08 20.8708 91.02C20.3508 92.64 19.8108 94.32 19.2908 95.97C19.1308 96.48 19.0408 97.05 19.0408 97.6C19.0308 113.2 19.0308 129.05 19.0308 144.39V151.79C19.0308 152.73 18.2708 153.49 17.3308 153.49H11.7308C10.7908 153.49 10.0308 152.73 10.0308 151.79V113.95C10.0308 113.68 9.67081 113.59 9.55081 113.83L7.23081 120.65C7.14081 120.81 6.97081 120.91 6.80081 120.91C6.72081 120.91 6.65081 120.89 6.58081 120.86L0.27081 117.61C0.15081 117.55 0.0608104 117.44 0.0208104 117.31C-0.0191896 117.18 0.00081037 117.04 0.0608104 116.93C6.61081 105.46 11.7008 92.3 15.6408 76.69C15.7008 76.47 15.9008 76.32 16.1208 76.32C16.1508 76.32 16.1908 76.32 16.2208 76.32C16.9008 76.46 17.5808 76.6 18.2608 76.73C20.0808 77.1 21.8008 77.45 23.5608 77.79C23.9208 77.86 24.1708 78.01 24.3208 78.25C24.5408 78.61 24.4308 79 24.3608 79.28V79.33C24.2208 79.79 24.1008 80.25 23.9808 80.71C23.6008 82.15 23.2108 83.64 22.7608 85.09H22.7508ZM69.6308 146.79H54.7408C52.6408 146.79 50.9408 145.09 50.9408 142.99V128.81H66.5108C67.0508 128.81 67.4908 128.37 67.4908 127.83V126.45C67.4908 125.91 67.0508 125.47 66.5108 125.47H54.6708C52.5708 125.47 50.8708 123.77 50.8708 121.67V114.94C50.8708 114.67 50.6508 114.45 50.3808 114.45H42.3008C42.0308 114.45 41.8108 114.67 41.8108 114.94V125.52H26.8008C26.2608 125.52 25.8208 125.96 25.8208 126.5V127.89C25.8208 128.43 26.2608 128.87 26.8008 128.87H41.8108V146.83H23.3208C22.7808 146.83 22.3408 147.27 22.3408 147.81V150.32C22.3408 150.86 22.7808 151.3 23.3208 151.3H69.6308C70.1708 151.3 70.6108 150.86 70.6108 150.32V147.77C70.6108 147.23 70.1708 146.79 69.6308 146.79ZM27.0008 91.13H41.7908V106.01H24.6808C24.1408 106.01 23.7008 106.45 23.7008 106.99V109.58C23.7008 110.12 24.1408 110.56 24.6808 110.56H68.3508C68.8908 110.56 69.3308 110.12 69.3308 109.58V106.95C69.3308 106.41 68.8908 105.97 68.3508 105.97H54.7308C52.6308 105.97 50.9308 104.27 50.9308 102.17V91.11H65.8508C66.3908 91.11 66.8308 90.67 66.8308 90.13V88.7C66.8308 88.16 66.3908 87.72 65.8508 87.72H54.6708C52.5708 87.72 50.8708 86.02 50.8708 83.92V76.37C50.8708 76.1 50.6508 75.88 50.3808 75.88H42.3208C42.0508 75.88 41.8308 76.1 41.8308 76.37V87.76H27.0108C26.4708 87.76 26.0308 88.2 26.0308 88.74V90.16C26.0308 90.7 26.4708 91.14 27.0108 91.14L27.0008 91.13ZM140.971 151.3C140.091 150.42 115.001 123.01 114.951 123.01H109.291V141.6C109.291 143.31 110.901 144.58 112.561 144.17L121.161 142.07C121.161 142.07 121.241 142.06 121.281 142.06C121.501 142.06 121.701 142.21 121.761 142.43L122.481 145.16L122.801 146.39C122.831 146.52 122.811 146.65 122.751 146.77C122.681 146.88 122.571 146.97 122.441 147L97.6708 153.13C97.6708 153.13 97.5908 153.14 97.5508 153.14C97.3308 153.14 97.1308 152.99 97.0708 152.77L96.0308 148.68C96.0008 148.55 96.0208 148.42 96.0808 148.31C96.1508 148.2 96.2608 148.12 96.3808 148.08L98.6908 147.51L100.121 147.15V123.08H92.7108C91.8008 131.49 90.0808 141.72 87.9408 150.28C87.7908 150.88 87.2508 151.3 86.6208 151.3H80.0908C79.2008 151.3 78.5508 150.46 78.7708 149.59V149.57C80.2708 143.84 82.3508 132.98 83.0908 127.63C83.9208 121.57 84.3208 115.05 84.3608 106.46C84.3908 100.27 84.3808 93.97 84.3808 87.88C84.3808 85.21 84.3808 82.53 84.3808 79.86C84.3808 79.02 85.0608 78.34 85.9008 78.34H142.351C144.281 78.34 145.841 79.9 145.841 81.83V91.9C145.841 93.83 144.281 95.39 142.351 95.39H93.5008L93.3008 109.77L93.2208 116.31C93.2008 118.05 94.6008 119.47 96.3408 119.47H104.531V109.34H95.8708C95.6008 109.34 95.3808 109.12 95.3808 108.85V106.36C95.3808 106.09 95.6008 105.87 95.8708 105.87H104.571V99.18C104.571 98.91 104.791 98.69 105.061 98.69H113.081C113.351 98.69 113.571 98.91 113.571 99.18V103.09C113.571 104.59 114.781 105.8 116.281 105.8H127.221V99.19C127.221 98.92 127.441 98.7 127.711 98.7H135.681C135.951 98.7 136.171 98.92 136.171 99.19V103.1C136.171 104.6 137.381 105.81 138.881 105.81H144.831C145.461 105.81 145.971 106.32 145.971 106.95V108.19C145.971 108.82 145.461 109.33 144.831 109.33H136.231V116.81C136.231 118.31 137.441 119.52 138.941 119.52H147.341C147.971 119.52 148.481 120.03 148.481 120.66V121.87C148.481 122.5 147.971 123.01 147.341 123.01H126.911C130.061 126.96 131.651 129.02 134.241 131.96L138.221 128.52L142.011 125.23C142.101 125.15 142.211 125.11 142.331 125.11C142.341 125.11 142.351 125.11 142.371 125.11C142.501 125.12 142.621 125.18 142.711 125.28L144.821 127.61L146.651 129.76C146.831 129.97 146.801 130.27 146.601 130.45L144.391 132.37L141.261 135.07C140.091 136.09 140.191 137.83 141.321 138.9C143.941 141.38 147.851 144.91 153.471 149.68C154.131 150.24 153.741 151.31 152.871 151.31H140.931L140.971 151.3ZM93.4908 88.65C93.4908 90.41 94.9108 91.83 96.6708 91.83H136.761V81.78H93.4908V88.65ZM127.231 119.49V109.39H113.661V116.78C113.661 118.28 114.871 119.49 116.371 119.49H127.231ZM302.741 84.53V148.06C302.741 148.33 302.521 148.55 302.251 148.55H279.791C276.161 148.55 273.221 145.61 273.221 141.98V80.4C273.221 80.13 273.441 79.91 273.711 79.91H298.111C300.671 79.91 302.741 81.98 302.741 84.54V84.53ZM288.301 145.17H293.751V83.32H282.221V139.09C282.221 142.45 284.941 145.17 288.301 145.17ZM271.831 124.42C271.721 124.26 271.611 124.11 271.501 123.95L268.291 119.55C265.191 115.31 262.101 111.06 259.001 106.81C258.961 106.76 258.921 106.7 258.871 106.65C258.801 106.57 258.691 106.43 258.681 106.37C258.651 105.4 258.661 104.42 258.661 103.38C258.661 103.06 258.931 102.79 259.251 102.79H268.801C269.461 102.79 269.991 102.26 269.991 101.6V100.47C269.991 99.81 269.461 99.28 268.801 99.28H264.041C261.091 99.28 258.701 96.89 258.701 93.94V82.75L268.291 81.04C268.421 81.02 268.541 80.94 268.621 80.83C268.691 80.72 268.721 80.58 268.691 80.45L268.101 77.95L267.771 76.54C267.721 76.32 267.521 76.16 267.291 76.16C267.271 76.16 267.241 76.16 267.221 76.16L250.811 78.65L238.191 80.57C237.931 80.61 237.751 80.85 237.771 81.11L237.951 82.85L238.191 85.1C238.201 85.23 238.271 85.35 238.371 85.44C238.461 85.51 238.561 85.55 238.671 85.55C238.691 85.55 238.711 85.55 238.741 85.55L247.871 84.34L249.611 84.11V99.33H236.861C236.201 99.33 235.671 99.86 235.671 100.52V101.64C235.671 102.3 236.201 102.83 236.861 102.83H245.431C247.001 102.83 248.101 104.39 247.571 105.87C243.871 116.3 239.631 125.49 234.671 133.85C234.601 133.96 234.581 134.1 234.621 134.23C234.651 134.36 234.741 134.47 234.851 134.53L239.621 137.22L240.401 137.66C240.481 137.7 240.561 137.72 240.641 137.72C240.811 137.72 240.971 137.64 241.061 137.49C243.341 133.79 246.731 126.97 248.491 123.36C248.771 122.78 249.651 122.98 249.651 123.63V149.21C249.651 150.64 250.811 151.8 252.241 151.8H256.091C257.521 151.8 258.681 150.64 258.681 149.21V119.58C258.681 118.79 259.691 118.46 260.161 119.1L266.851 128.29C266.951 128.42 267.101 128.49 267.251 128.49C267.351 128.49 267.451 128.46 267.531 128.4L269.131 127.27L271.871 125.34C271.981 125.26 272.051 125.15 272.071 125.02C272.091 124.89 272.071 124.76 271.991 124.65L271.821 124.41L271.831 124.42ZM164.501 99.09H167.411C169.091 99.09 170.461 97.73 170.461 96.04V87.92H217.011V96.03C217.011 97.71 218.371 99.08 220.061 99.08H222.851C224.531 99.08 225.901 97.72 225.901 96.03V85.66C225.901 84.33 224.821 83.26 223.501 83.26H198.611V78.02C198.611 76.19 197.131 74.71 195.301 74.71H192.881C191.051 74.71 189.571 76.19 189.571 78.02V83.29H163.871C162.541 83.29 161.471 84.37 161.471 85.69V96.04C161.471 97.72 162.831 99.09 164.521 99.09H164.501ZM197.091 140.05C202.181 136.45 206.921 132.09 210.611 127.04C212.641 124.25 214.411 121.27 215.861 118.14C216.441 116.89 215.501 115.45 214.121 115.45H208.321C207.621 115.45 206.971 115.84 206.641 116.46C206.561 116.61 206.481 116.77 206.391 116.92C203.791 121.61 200.321 125.82 196.091 129.43C196.041 129.47 195.881 129.53 195.751 129.53C195.711 129.53 195.701 129.53 195.701 129.53C191.311 127.67 186.851 125.75 182.541 123.89C181.841 123.59 181.521 122.77 181.831 122.08C182.961 119.56 185.631 114.03 186.781 111.74C186.971 111.37 187.011 111.35 187.231 111.35C191.281 111.36 195.381 111.36 199.421 111.35H218.471C218.471 111.35 218.471 111.34 218.471 111.33H226.291C226.971 111.33 227.531 110.78 227.531 110.09V109.09C227.531 108.41 226.981 107.85 226.291 107.85H191.771C190.531 107.85 189.681 106.6 190.141 105.45L194.501 94.48C194.551 94.36 194.551 94.22 194.501 94.1C194.451 93.98 194.351 93.88 194.231 93.83L186.721 90.74C186.661 90.71 186.601 90.7 186.531 90.7C186.341 90.7 186.171 90.81 186.081 90.98L185.991 91.17C185.931 91.29 185.891 91.39 185.841 91.49C185.841 91.49 181.071 103.56 179.411 107.42C179.251 107.79 179.131 107.87 178.701 107.87C175.191 107.86 171.691 107.85 169.021 107.85H165.111H161.201H160.891C160.211 107.85 159.651 108.4 159.651 109.09V110.14C159.651 110.82 160.201 111.38 160.891 111.38H177.091L171.141 121.99L168.101 127.41C168.031 127.53 168.021 127.68 168.061 127.81C168.111 127.94 168.211 128.05 168.341 128.1L182.851 134.06C184.481 134.73 184.541 137.04 182.941 137.76C176.391 140.71 169.081 142.55 160.401 143.44C159.561 143.53 158.941 144.26 159.011 145.09L159.581 152.06C159.601 152.32 159.821 152.51 160.081 152.51C160.181 152.51 160.271 152.51 160.351 152.51C160.431 152.51 160.511 152.51 160.581 152.51C160.701 152.51 160.801 152.51 160.891 152.49C161.831 152.36 162.781 152.24 163.701 152.12C165.851 151.85 168.071 151.56 170.241 151.16C179.861 149.38 189.081 145.66 197.051 140.02L197.091 140.05ZM229.151 146.76C230.111 145.84 229.821 144.24 228.601 143.71L209.991 135.61C209.431 135.37 208.791 135.48 208.361 135.9C206.601 137.58 204.411 139.63 202.571 141.27C202.201 141.6 202.301 142.21 202.761 142.4C206.481 143.97 210.211 145.55 213.851 147.08L216.761 148.31C217.441 148.6 219.981 149.71 223.041 151.05C223.731 151.35 224.541 151.21 225.081 150.69L229.161 146.76H229.151Z" fill="url(#paint0_linear_14_679)"/>
<path d="M171.771 52.3C174.091 51.31 169.541 47.03 168.611 46.33C167.601 45.57 165.351 44.07 163.871 44.4C163.541 45.88 165.041 48.13 165.801 49.14C166.501 50.07 170.781 54.62 171.771 52.3ZM130.981 52.3C131.971 54.62 136.251 50.07 136.951 49.14C137.711 48.13 139.211 45.88 138.881 44.4C137.401 44.07 135.151 45.57 134.141 46.33C133.211 47.03 128.661 51.31 130.981 52.3ZM130.981 11.51C128.661 12.5 133.211 16.78 134.141 17.48C135.151 18.24 137.401 19.74 138.881 19.41C139.211 17.93 137.711 15.68 136.951 14.67C136.251 13.74 131.971 9.19 130.981 11.51ZM171.771 11.51C170.781 9.19 166.501 13.74 165.801 14.67C165.041 15.68 163.541 17.93 163.871 19.41C165.351 19.74 167.601 18.24 168.611 17.48C169.541 16.78 174.091 12.5 171.771 11.51ZM152.511 33.04C152.141 33.12 151.761 33.17 151.371 33.17C150.981 33.17 150.601 33.12 150.231 33.04C150.151 32.67 150.101 32.29 150.101 31.9C150.101 31.51 150.151 31.13 150.231 30.76C150.601 30.68 150.981 30.63 151.371 30.63C151.761 30.63 152.141 30.68 152.511 30.76C152.591 31.13 152.641 31.51 152.641 31.9C152.641 32.29 152.591 32.67 152.511 33.04ZM180.021 26.32C179.201 24.35 178.581 22.31 178.181 20.24C178.151 20.1 178.111 19.9 178.061 19.65C177.351 16.36 177.701 14.09 177.361 13.79C177.021 13.47 176.481 13.49 176.161 13.83C170.531 19.89 165.141 23.07 159.791 23.49C160.211 18.14 163.391 12.75 169.451 7.12C169.791 6.8 169.811 6.27 169.491 5.92C169.191 5.58 166.921 5.92 163.631 5.22C163.381 5.17 163.181 5.12 163.041 5.1C160.971 4.7 158.921 4.08 156.961 3.26C154.961 2.42 153.121 1.27 151.371 0C149.621 1.27 147.781 2.42 145.781 3.26C143.811 4.08 141.771 4.7 139.701 5.1C139.561 5.13 139.361 5.17 139.111 5.22C135.821 5.93 133.551 5.58 133.251 5.92C132.931 6.26 132.951 6.8 133.291 7.12C139.351 12.75 142.531 18.14 142.951 23.49C137.601 23.07 132.211 19.89 126.581 13.83C126.261 13.49 125.731 13.47 125.381 13.79C125.041 14.09 125.381 16.36 124.681 19.65C124.631 19.9 124.581 20.1 124.561 20.24C124.161 22.31 123.541 24.36 122.721 26.32C121.881 28.32 120.731 30.16 119.461 31.91C120.731 33.66 121.881 35.5 122.721 37.5C123.541 39.47 124.161 41.51 124.561 43.58C124.591 43.72 124.631 43.92 124.681 44.17C125.391 47.46 125.041 49.73 125.381 50.03C125.721 50.35 126.261 50.33 126.581 49.99C132.211 43.93 137.601 40.75 142.951 40.33C142.531 45.68 139.351 51.07 133.291 56.7C132.951 57.02 132.931 57.55 133.251 57.9C133.551 58.24 135.821 57.9 139.111 58.6C139.361 58.65 139.561 58.7 139.701 58.72C141.771 59.12 143.821 59.74 145.781 60.56C147.781 61.4 149.621 62.55 151.371 63.82C153.121 62.55 154.961 61.4 156.961 60.56C158.931 59.74 160.971 59.12 163.041 58.72C163.181 58.69 163.381 58.65 163.631 58.6C166.921 57.89 169.191 58.24 169.491 57.9C169.811 57.56 169.791 57.02 169.451 56.7C163.391 51.07 160.211 45.68 159.791 40.33C165.141 40.75 170.531 43.93 176.161 49.99C176.481 50.33 177.021 50.35 177.361 50.03C177.701 49.73 177.361 47.46 178.061 44.17C178.111 43.92 178.161 43.72 178.181 43.58C178.581 41.51 179.201 39.46 180.021 37.5C180.861 35.5 182.011 33.66 183.281 31.91C182.011 30.16 180.861 28.32 180.021 26.32ZM175.791 16.64C175.891 17.5 176.091 18.6 176.391 20C176.441 20.23 176.481 20.42 176.511 20.56C176.931 22.74 177.591 24.9 178.461 26.97C179.191 28.71 180.131 30.32 181.171 31.84C179.971 30.91 178.831 30.07 177.581 29.34C174.251 27.41 170.741 26.41 167.441 26.46C165.061 26.5 162.561 27.1 160.191 28.19C159.951 27.2 159.811 26.19 159.751 25.18C165.051 24.79 170.421 21.93 175.801 16.63L175.791 16.64ZM160.671 29.86C160.741 29.83 160.801 29.79 160.861 29.76C163.021 28.76 165.301 28.21 167.461 28.17C170.461 28.12 173.661 29.04 176.731 30.82C177.311 31.15 177.871 31.52 178.421 31.91C177.871 32.3 177.311 32.66 176.731 33C173.671 34.78 170.461 35.69 167.461 35.65C165.311 35.61 163.021 35.07 160.861 34.06C160.791 34.03 160.731 33.99 160.671 33.96C160.901 33.27 161.181 32.59 161.501 31.91C161.181 31.23 160.911 30.55 160.671 29.86ZM156.311 4.82C158.381 5.69 160.541 6.34 162.721 6.77C162.851 6.79 163.041 6.84 163.281 6.89C164.681 7.19 165.781 7.39 166.641 7.49C161.341 12.87 158.481 18.24 158.091 23.54C157.081 23.48 156.071 23.34 155.081 23.1C156.171 20.74 156.771 18.23 156.811 15.86C156.861 12.55 155.871 9.05 153.931 5.71C153.201 4.46 152.361 3.31 151.431 2.12C152.961 3.16 154.561 4.1 156.301 4.83L156.311 4.82ZM159.551 31.91C159.551 34.12 158.121 35.98 156.141 36.67C155.451 38.65 153.591 40.08 151.381 40.08C149.171 40.08 147.311 38.65 146.621 36.67C144.641 35.98 143.211 34.12 143.211 31.91C143.211 29.7 144.641 27.84 146.621 27.15C147.311 25.17 149.171 23.74 151.381 23.74C153.591 23.74 155.451 25.17 156.141 27.15C158.121 27.84 159.551 29.7 159.551 31.91ZM152.461 6.56C154.241 9.63 155.161 12.83 155.111 15.83C155.071 17.98 154.531 20.27 153.521 22.43C153.491 22.5 153.451 22.56 153.421 22.62C152.731 22.39 152.051 22.11 151.371 21.79C150.691 22.11 150.011 22.38 149.321 22.62C149.291 22.55 149.251 22.49 149.221 22.43C148.221 20.27 147.671 17.99 147.631 15.83C147.581 12.83 148.501 9.63 150.281 6.56C150.611 5.98 150.981 5.42 151.371 4.87C151.761 5.42 152.131 5.98 152.461 6.56ZM136.111 7.49C136.971 7.39 138.071 7.19 139.471 6.89C139.701 6.84 139.891 6.8 140.031 6.77C142.211 6.35 144.371 5.69 146.441 4.82C148.181 4.09 149.791 3.15 151.311 2.11C150.381 3.31 149.541 4.45 148.811 5.7C146.881 9.03 145.881 12.54 145.931 15.85C145.971 18.23 146.571 20.73 147.661 23.09C146.671 23.33 145.661 23.47 144.651 23.53C144.261 18.23 141.401 12.86 136.101 7.48L136.111 7.49ZM124.291 26.97C125.161 24.9 125.811 22.74 126.241 20.56C126.271 20.43 126.311 20.24 126.361 20C126.661 18.6 126.861 17.5 126.971 16.64C132.351 21.94 137.721 24.8 143.021 25.19C142.961 26.21 142.821 27.21 142.581 28.2C140.221 27.11 137.711 26.51 135.341 26.47C132.031 26.42 128.531 27.41 125.191 29.35C123.941 30.08 122.791 30.92 121.601 31.85C122.641 30.33 123.581 28.72 124.311 26.98L124.291 26.97ZM142.091 33.96C142.021 33.99 141.961 34.03 141.901 34.06C139.741 35.06 137.461 35.61 135.301 35.65C132.301 35.7 129.101 34.78 126.031 33C125.451 32.67 124.901 32.3 124.341 31.91C124.901 31.52 125.451 31.15 126.031 30.82C129.101 29.04 132.301 28.12 135.301 28.17C137.451 28.2 139.741 28.75 141.901 29.76C141.971 29.79 142.031 29.83 142.091 29.86C141.861 30.55 141.581 31.23 141.261 31.91C141.581 32.59 141.851 33.27 142.091 33.96ZM126.961 47.17C126.861 46.3 126.661 45.21 126.351 43.81C126.301 43.58 126.261 43.39 126.231 43.25C125.811 41.07 125.151 38.91 124.281 36.84C123.551 35.1 122.611 33.49 121.571 31.97C122.771 32.9 123.911 33.74 125.161 34.47C128.491 36.4 132.001 37.4 135.311 37.35C137.691 37.31 140.191 36.71 142.551 35.62C142.791 36.61 142.931 37.62 142.991 38.63C137.691 39.02 132.321 41.88 126.941 47.18L126.961 47.17ZM146.441 58.99C144.371 58.12 142.211 57.47 140.031 57.05C139.901 57.02 139.711 56.98 139.471 56.93C138.071 56.63 136.971 56.43 136.111 56.33C141.411 50.95 144.271 45.58 144.661 40.28C145.681 40.34 146.681 40.48 147.671 40.72C146.581 43.08 145.981 45.59 145.941 47.97C145.891 51.28 146.881 54.78 148.821 58.12C149.551 59.37 150.391 60.52 151.321 61.71C149.801 60.67 148.191 59.73 146.451 59L146.441 58.99ZM150.291 57.25C148.511 54.18 147.601 50.98 147.641 47.98C147.681 45.83 148.221 43.54 149.231 41.38C149.261 41.31 149.301 41.25 149.331 41.19C150.021 41.42 150.701 41.7 151.381 42.02C152.061 41.7 152.741 41.43 153.431 41.19C153.461 41.26 153.501 41.32 153.531 41.38C154.531 43.54 155.081 45.82 155.121 47.98C155.171 50.98 154.251 54.18 152.471 57.25C152.141 57.83 151.771 58.39 151.381 58.94C150.991 58.38 150.631 57.83 150.291 57.25ZM166.641 56.33C165.781 56.43 164.681 56.63 163.281 56.93C163.051 56.98 162.861 57.02 162.721 57.05C160.541 57.47 158.381 58.13 156.311 58.99C154.571 59.72 152.961 60.66 151.441 61.7C152.371 60.5 153.211 59.36 153.941 58.11C155.871 54.78 156.871 51.27 156.821 47.96C156.781 45.58 156.181 43.08 155.091 40.71C156.081 40.47 157.091 40.33 158.101 40.27C158.491 45.57 161.351 50.94 166.651 56.32L166.641 56.33ZM178.461 36.84C177.591 38.91 176.941 41.07 176.511 43.25C176.491 43.38 176.441 43.57 176.391 43.81C176.091 45.21 175.891 46.31 175.791 47.17C170.421 41.87 165.041 39.01 159.741 38.62C159.801 37.6 159.941 36.6 160.181 35.61C162.541 36.7 165.051 37.3 167.431 37.34C170.741 37.39 174.241 36.4 177.571 34.46C178.821 33.73 179.971 32.89 181.161 31.96C180.121 33.48 179.181 35.09 178.451 36.83L178.461 36.84ZM165.031 31.91C167.881 30.39 171.221 29.93 174.401 31.4C174.731 31.55 175.041 31.72 175.351 31.91C175.051 32.1 174.731 32.27 174.401 32.42C171.221 33.89 167.881 33.43 165.031 31.91ZM148.261 26.85C148.101 26.85 147.951 26.88 147.791 26.9C148.471 25.61 149.821 24.72 151.381 24.72C152.941 24.72 154.281 25.61 154.961 26.9C154.801 26.89 154.651 26.85 154.491 26.85C153.311 26.85 152.231 27.27 151.371 27.96C150.511 27.28 149.431 26.85 148.251 26.85H148.261ZM154.491 27.83C154.791 27.83 155.071 27.87 155.351 27.93C155.411 28.21 155.451 28.5 155.451 28.79C155.451 29.69 155.141 30.52 154.641 31.2C154.161 30.79 153.621 30.48 153.011 30.27C152.801 29.67 152.481 29.12 152.081 28.64C152.761 28.14 153.581 27.83 154.491 27.83ZM150.871 8.88C151.021 8.55 151.191 8.24 151.381 7.93C151.571 8.23 151.741 8.55 151.891 8.88C153.361 12.06 152.901 15.4 151.381 18.25C149.861 15.4 149.401 12.06 150.871 8.88ZM158.561 31.91C158.561 33.47 157.671 34.81 156.381 35.5C156.391 35.34 156.431 35.19 156.431 35.03C156.431 33.85 156.011 32.78 155.321 31.91C156.001 31.05 156.431 29.97 156.431 28.79C156.431 28.63 156.401 28.48 156.381 28.32C157.671 29 158.561 30.35 158.561 31.91ZM148.111 31.2C147.611 30.52 147.301 29.7 147.301 28.79C147.301 28.49 147.341 28.21 147.401 27.93C147.681 27.87 147.961 27.83 148.261 27.83C149.161 27.83 149.991 28.14 150.671 28.64C150.261 29.12 149.951 29.66 149.741 30.27C149.141 30.48 148.591 30.8 148.111 31.2ZM154.641 32.62C155.141 33.3 155.451 34.12 155.451 35.03C155.451 35.33 155.411 35.61 155.351 35.89C155.071 35.95 154.791 35.99 154.491 35.99C153.591 35.99 152.761 35.68 152.081 35.18C152.491 34.7 152.801 34.16 153.011 33.55C153.611 33.34 154.161 33.02 154.641 32.62ZM151.881 54.93C151.731 55.26 151.561 55.57 151.371 55.88C151.181 55.58 151.011 55.26 150.861 54.93C149.391 51.75 149.851 48.41 151.371 45.56C152.891 48.41 153.351 51.75 151.881 54.93ZM147.431 31.91C146.751 32.77 146.321 33.84 146.321 35.03C146.321 35.19 146.351 35.34 146.371 35.5C145.081 34.82 144.191 33.47 144.191 31.92C144.191 30.37 145.081 29.02 146.371 28.33C146.361 28.49 146.321 28.64 146.321 28.8C146.321 29.98 146.741 31.05 147.431 31.92V31.91ZM137.721 31.91C134.871 33.43 131.531 33.89 128.351 32.42C128.021 32.27 127.711 32.1 127.401 31.91C127.701 31.72 128.021 31.55 128.351 31.4C131.531 29.93 134.871 30.39 137.721 31.91ZM148.261 35.98C147.961 35.98 147.681 35.94 147.401 35.88C147.341 35.6 147.301 35.31 147.301 35.02C147.301 34.12 147.611 33.29 148.111 32.61C148.591 33.02 149.131 33.33 149.741 33.54C149.951 34.14 150.271 34.69 150.671 35.17C149.991 35.67 149.171 35.98 148.261 35.98ZM154.491 36.96C154.651 36.96 154.801 36.93 154.961 36.91C154.281 38.2 152.931 39.09 151.381 39.09C149.831 39.09 148.481 38.2 147.791 36.91C147.951 36.93 148.101 36.96 148.261 36.96C149.441 36.96 150.511 36.54 151.381 35.85C152.241 36.53 153.321 36.96 154.501 36.96H154.491Z" fill="url(#paint1_linear_14_679)"/>
<path d="M125.001 209V209.52C124.501 209.52 124.101 209.61 123.791 209.79C123.481 209.97 123.191 210.3 122.911 210.79C122.721 211.12 122.431 211.9 122.031 213.13L116.721 228.47H116.161L111.821 216.3L107.511 228.47H107.001L101.341 212.67C100.921 211.49 100.651 210.79 100.541 210.58C100.351 210.22 100.101 209.96 99.7807 209.79C99.4607 209.62 99.0207 209.53 98.4707 209.53V209.01H105.521V209.53H105.181C104.681 209.53 104.301 209.64 104.041 209.87C103.781 210.09 103.651 210.37 103.651 210.68C103.651 210.99 103.861 211.76 104.271 212.94L108.021 223.62L111.181 214.54L110.621 212.94L110.171 211.66C109.971 211.19 109.751 210.78 109.511 210.42C109.391 210.24 109.241 210.09 109.061 209.97C108.831 209.8 108.591 209.68 108.361 209.61C108.181 209.55 107.901 209.53 107.521 209.53V209.01H114.931V209.53H114.431C113.911 209.53 113.521 209.64 113.281 209.87C113.041 210.09 112.921 210.4 112.921 210.78C112.921 211.26 113.131 212.09 113.551 213.28L117.201 223.62L120.821 213.14C121.231 211.98 121.441 211.18 121.441 210.73C121.441 210.51 121.371 210.31 121.241 210.13C121.101 209.94 120.931 209.81 120.731 209.74C120.371 209.61 119.911 209.54 119.341 209.54V209.02H125.021L125.001 209ZM132.281 217.83H141.121V212.38C141.121 211.41 141.061 210.77 140.941 210.46C140.851 210.23 140.651 210.03 140.351 209.86C139.951 209.63 139.521 209.52 139.071 209.52H138.401V209H146.541V209.52H145.871C145.421 209.52 144.991 209.63 144.591 209.84C144.291 209.99 144.091 210.22 143.981 210.52C143.871 210.82 143.821 211.45 143.821 212.38V224.66C143.821 225.62 143.881 226.26 144.001 226.57C144.091 226.8 144.291 227.01 144.581 227.17C144.991 227.4 145.421 227.51 145.871 227.51H146.541V228.03H138.401V227.51H139.071C139.851 227.51 140.411 227.28 140.771 226.82C141.001 226.52 141.121 225.8 141.121 224.66V218.86H132.281V224.66C132.281 225.62 132.341 226.26 132.461 226.57C132.551 226.8 132.751 227.01 133.051 227.17C133.451 227.4 133.881 227.51 134.331 227.51H135.021V228.03H126.871V227.51H127.541C128.331 227.51 128.901 227.28 129.251 226.82C129.471 226.52 129.591 225.8 129.591 224.66V212.38C129.591 211.41 129.531 210.77 129.411 210.46C129.321 210.23 129.121 210.03 128.831 209.86C128.421 209.63 127.991 209.52 127.541 209.52H126.871V209H135.021V209.52H134.331C133.881 209.52 133.461 209.63 133.051 209.84C132.761 209.99 132.561 210.22 132.451 210.52C132.341 210.82 132.281 211.45 132.281 212.38V217.83ZM154.291 210.04V217.56H158.471C159.551 217.56 160.281 217.4 160.651 217.07C161.141 216.64 161.411 215.88 161.461 214.8H161.981V221.42H161.461C161.331 220.49 161.201 219.9 161.071 219.64C160.901 219.31 160.631 219.06 160.241 218.87C159.861 218.68 159.271 218.59 158.471 218.59H154.291V224.86C154.291 225.7 154.331 226.21 154.401 226.4C154.481 226.58 154.611 226.73 154.791 226.84C154.981 226.95 155.331 227 155.861 227H159.091C160.171 227 160.951 226.93 161.431 226.77C161.921 226.62 162.391 226.33 162.831 225.89C163.411 225.31 164.001 224.44 164.611 223.27H165.171L163.531 228.04H148.861V227.52H149.531C149.981 227.52 150.401 227.41 150.811 227.2C151.111 227.05 151.311 226.83 151.421 226.53C151.531 226.23 151.581 225.62 151.581 224.69V212.31C151.581 211.1 151.461 210.36 151.221 210.08C150.881 209.71 150.321 209.52 149.541 209.52H148.871V209H163.541L163.751 213.17H163.201C163.001 212.17 162.791 211.48 162.551 211.11C162.311 210.74 161.961 210.45 161.491 210.25C161.111 210.11 160.461 210.04 159.511 210.04H154.291ZM186.411 228.03H181.331L174.891 219.13C174.411 219.15 174.021 219.16 173.721 219.16C173.601 219.16 173.471 219.16 173.331 219.16C173.191 219.16 173.041 219.15 172.901 219.14V224.67C172.901 225.87 173.031 226.61 173.291 226.9C173.651 227.31 174.181 227.52 174.891 227.52H175.631V228.04H167.481V227.52H168.201C169.001 227.52 169.581 227.26 169.931 226.73C170.131 226.44 170.221 225.75 170.221 224.67V212.37C170.221 211.17 170.091 210.43 169.831 210.14C169.471 209.73 168.921 209.52 168.201 209.52H167.481V209H174.411C176.431 209 177.921 209.15 178.881 209.44C179.841 209.73 180.651 210.28 181.321 211.07C181.991 211.86 182.321 212.8 182.321 213.9C182.321 215.07 181.941 216.08 181.181 216.94C180.421 217.8 179.241 218.41 177.641 218.76L181.571 224.22C182.471 225.47 183.241 226.31 183.891 226.72C184.541 227.13 185.381 227.39 186.421 227.51V228.03H186.411ZM172.901 218.25C173.081 218.25 173.231 218.25 173.361 218.25C173.491 218.25 173.601 218.25 173.681 218.25C175.501 218.25 176.861 217.86 177.791 217.07C178.711 216.28 179.171 215.28 179.171 214.07C179.171 212.86 178.801 211.92 178.051 211.17C177.311 210.42 176.321 210.05 175.101 210.05C174.561 210.05 173.821 210.14 172.901 210.32V218.24V218.25ZM193.321 210.04V217.56H197.501C198.581 217.56 199.311 217.4 199.681 217.07C200.171 216.64 200.441 215.88 200.491 214.8H201.011V221.42H200.491C200.361 220.49 200.231 219.9 200.101 219.64C199.931 219.31 199.661 219.06 199.271 218.87C198.891 218.68 198.301 218.59 197.501 218.59H193.321V224.86C193.321 225.7 193.361 226.21 193.431 226.4C193.511 226.58 193.641 226.73 193.821 226.84C194.011 226.95 194.361 227 194.891 227H198.121C199.201 227 199.981 226.93 200.461 226.77C200.941 226.61 201.421 226.33 201.861 225.89C202.441 225.31 203.031 224.44 203.641 223.27H204.201L202.561 228.04H187.891V227.52H188.561C189.011 227.52 189.431 227.41 189.841 227.2C190.141 227.05 190.341 226.83 190.451 226.53C190.561 226.23 190.611 225.62 190.611 224.69V212.31C190.611 211.1 190.491 210.36 190.251 210.08C189.911 209.71 189.351 209.52 188.571 209.52H187.901V209H202.571L202.781 213.17H202.231C202.031 212.17 201.821 211.48 201.581 211.11C201.341 210.74 200.991 210.45 200.521 210.25C200.141 210.11 199.491 210.04 198.541 210.04H193.321ZM50.0107 260.13V259.61H50.7307C51.5307 259.61 52.1007 259.35 52.4407 258.84C52.6407 258.53 52.7507 257.84 52.7507 256.76V244.47C52.7507 243.28 52.6207 242.54 52.3607 242.24C52.0007 241.83 51.4507 241.62 50.7307 241.62H50.0107V241.1H57.7607C60.6007 241.1 62.7707 241.42 64.2507 242.07C65.7307 242.72 66.9307 243.79 67.8307 245.3C68.7307 246.81 69.1807 248.55 69.1807 250.52C69.1807 253.17 68.3707 255.38 66.7707 257.16C64.9607 259.14 62.2107 260.14 58.5207 260.14H50.0107V260.13ZM55.4407 258.76C56.6307 259.02 57.6307 259.15 58.4307 259.15C60.6007 259.15 62.4007 258.39 63.8307 256.86C65.2607 255.34 65.9807 253.27 65.9807 250.66C65.9807 248.05 65.2607 245.96 63.8307 244.44C62.4007 242.92 60.5607 242.17 58.3107 242.17C57.4707 242.17 56.5107 242.31 55.4307 242.58V258.76H55.4407ZM90.8507 260.13H85.7707L79.3307 251.23C78.8507 251.25 78.4607 251.26 78.1607 251.26C78.0407 251.26 77.9107 251.26 77.7707 251.26C77.6307 251.26 77.4807 251.25 77.3407 251.24V256.77C77.3407 257.97 77.4707 258.71 77.7307 259C78.0907 259.41 78.6207 259.62 79.3307 259.62H80.0707V260.14H71.9207V259.62H72.6407C73.4407 259.62 74.0207 259.36 74.3707 258.83C74.5707 258.54 74.6607 257.85 74.6607 256.77V244.48C74.6607 243.28 74.5307 242.54 74.2707 242.25C73.9107 241.84 73.3607 241.63 72.6407 241.63H71.9207V241.11H78.8507C80.8707 241.11 82.3607 241.26 83.3207 241.55C84.2807 241.84 85.0907 242.39 85.7607 243.18C86.4307 243.97 86.7607 244.91 86.7607 246.01C86.7607 247.18 86.3807 248.19 85.6207 249.05C84.8607 249.91 83.6807 250.52 82.0807 250.88L86.0107 256.34C86.9107 257.59 87.6807 258.43 88.3307 258.84C88.9807 259.25 89.8207 259.51 90.8607 259.63V260.15L90.8507 260.13ZM77.3407 250.35C77.5207 250.35 77.6707 250.35 77.8007 250.35C77.9307 250.35 78.0407 250.35 78.1207 250.35C79.9407 250.35 81.3007 249.96 82.2307 249.17C83.1507 248.38 83.6107 247.38 83.6107 246.17C83.6107 244.96 83.2407 244.02 82.4907 243.27C81.7507 242.53 80.7607 242.15 79.5407 242.15C79.0007 242.15 78.2607 242.24 77.3407 242.42V250.34V250.35ZM97.7607 242.14V249.66H101.941C103.021 249.66 103.751 249.5 104.121 249.17C104.611 248.74 104.881 247.98 104.931 246.9H105.451V253.52H104.931C104.801 252.59 104.671 252 104.541 251.74C104.371 251.41 104.101 251.16 103.711 250.97C103.331 250.78 102.741 250.69 101.941 250.69H97.7607V256.96C97.7607 257.8 97.8007 258.31 97.8707 258.5C97.9407 258.68 98.0807 258.83 98.2607 258.94C98.4507 259.05 98.8007 259.1 99.3307 259.1H102.561C103.641 259.1 104.421 259.02 104.901 258.87C105.391 258.72 105.861 258.43 106.301 257.99C106.881 257.41 107.471 256.54 108.081 255.37H108.641L107.001 260.14H92.3307V259.62H93.0007C93.4507 259.62 93.8707 259.51 94.2807 259.3C94.5807 259.15 94.7807 258.93 94.8907 258.63C95.0007 258.33 95.0507 257.72 95.0507 256.79V244.42C95.0507 243.21 94.9307 242.47 94.6907 242.19C94.3507 241.82 93.7907 241.63 93.0107 241.63H92.3407V241.11H107.011L107.221 245.28H106.671C106.471 244.28 106.261 243.59 106.021 243.22C105.781 242.85 105.431 242.56 104.961 242.36C104.581 242.22 103.931 242.15 102.981 242.15H97.7607V242.14ZM123.611 253.76H116.241L114.951 256.76C114.631 257.5 114.471 258.05 114.471 258.42C114.471 258.71 114.611 258.97 114.881 259.18C115.161 259.4 115.751 259.54 116.671 259.61V260.13H110.681V259.61C111.471 259.47 111.991 259.29 112.221 259.06C112.701 258.61 113.231 257.7 113.811 256.32L120.501 240.66H120.991L127.621 256.49C128.151 257.76 128.641 258.59 129.071 258.97C129.501 259.35 130.111 259.56 130.891 259.61V260.13H123.381V259.61C124.141 259.57 124.651 259.45 124.921 259.23C125.191 259.02 125.321 258.75 125.321 258.44C125.321 258.03 125.131 257.38 124.761 256.49L123.611 253.75V253.76ZM123.221 252.72L119.991 245.03L116.681 252.72H123.221ZM144.131 260.13L136.781 244.11V256.83C136.781 258 136.911 258.73 137.161 259.02C137.511 259.41 138.051 259.61 138.801 259.61H139.471V260.13H132.851V259.61H133.521C134.321 259.61 134.901 259.37 135.231 258.88C135.441 258.58 135.541 257.9 135.541 256.83V244.39C135.541 243.55 135.451 242.94 135.261 242.57C135.131 242.3 134.891 242.07 134.541 241.89C134.191 241.71 133.631 241.62 132.851 241.62V241.1H138.241L145.151 255.99L151.941 241.1H157.331V241.62H156.671C155.861 241.62 155.281 241.86 154.941 242.35C154.731 242.65 154.631 243.33 154.631 244.4V256.84C154.631 258.01 154.761 258.74 155.021 259.03C155.371 259.42 155.911 259.62 156.661 259.62H157.321V260.14H149.231V259.62H149.901C150.711 259.62 151.281 259.38 151.611 258.89C151.821 258.59 151.921 257.91 151.921 256.84V244.12L144.581 260.14H144.121L144.131 260.13ZM172.251 240.66V247.24H171.731C171.561 245.98 171.261 244.97 170.831 244.22C170.391 243.47 169.771 242.88 168.971 242.44C168.161 242 167.331 241.78 166.471 241.78C165.501 241.78 164.691 242.08 164.061 242.67C163.421 243.26 163.111 243.94 163.111 244.7C163.111 245.28 163.311 245.81 163.711 246.29C164.291 246.99 165.671 247.93 167.851 249.1C169.631 250.05 170.841 250.79 171.491 251.3C172.141 251.81 172.641 252.41 172.991 253.1C173.341 253.79 173.521 254.52 173.521 255.28C173.521 256.72 172.961 257.96 171.841 259.01C170.721 260.05 169.281 260.58 167.521 260.58C166.971 260.58 166.451 260.54 165.961 260.45C165.671 260.4 165.071 260.23 164.161 259.94C163.251 259.64 162.671 259.5 162.431 259.5C162.191 259.5 162.011 259.57 161.881 259.71C161.741 259.85 161.641 260.14 161.581 260.58H161.061V254.05H161.581C161.821 255.42 162.151 256.44 162.561 257.12C162.971 257.8 163.601 258.36 164.451 258.81C165.301 259.26 166.231 259.48 167.241 259.48C168.411 259.48 169.331 259.17 170.011 258.55C170.691 257.93 171.031 257.2 171.031 256.36C171.031 255.89 170.901 255.42 170.641 254.94C170.381 254.46 169.981 254.02 169.441 253.61C169.081 253.33 168.081 252.73 166.451 251.82C164.821 250.91 163.661 250.18 162.981 249.64C162.291 249.1 161.771 248.5 161.411 247.84C161.051 247.19 160.881 246.46 160.881 245.68C160.881 244.31 161.401 243.14 162.451 242.15C163.501 241.16 164.831 240.67 166.451 240.67C167.461 240.67 168.531 240.92 169.661 241.41C170.181 241.64 170.551 241.76 170.771 241.76C171.011 241.76 171.211 241.69 171.371 241.54C171.521 241.39 171.651 241.1 171.741 240.66H172.261H172.251ZM201.021 254.87L201.481 254.97L199.851 260.14H185.111V259.62H185.831C186.631 259.62 187.211 259.36 187.561 258.83C187.761 258.53 187.851 257.84 187.851 256.75V244.47C187.851 243.28 187.721 242.54 187.461 242.24C187.101 241.83 186.551 241.62 185.831 241.62H185.111V241.1H193.731V241.62C192.721 241.62 192.011 241.7 191.601 241.9C191.191 242.1 190.911 242.34 190.761 242.64C190.611 242.94 190.531 243.66 190.531 244.79V256.75C190.531 257.53 190.611 258.06 190.761 258.35C190.871 258.55 191.051 258.69 191.281 258.79C191.511 258.88 192.241 258.93 193.471 258.93H194.861C196.321 258.93 197.341 258.82 197.931 258.61C198.521 258.39 199.061 258.01 199.541 257.47C200.031 256.92 200.511 256.06 201.001 254.88L201.021 254.87ZM212.121 259.61V260.13H203.971V259.61H204.641C205.431 259.61 206.001 259.38 206.351 258.92C206.581 258.62 206.691 257.9 206.691 256.76V244.47C206.691 243.51 206.631 242.87 206.511 242.56C206.421 242.33 206.221 242.13 205.931 241.96C205.521 241.73 205.091 241.62 204.641 241.62H203.971V241.1H212.121V241.62H211.431C210.651 241.62 210.091 241.85 209.731 242.31C209.501 242.61 209.381 243.33 209.381 244.47V256.76C209.381 257.72 209.441 258.36 209.561 258.67C209.651 258.9 209.851 259.11 210.151 259.27C210.551 259.5 210.981 259.61 211.431 259.61H212.121ZM234.381 241.1V241.62C233.711 241.74 233.201 241.96 232.851 242.27C232.351 242.73 231.911 243.43 231.531 244.38L224.891 260.58H224.371L217.241 244.17C216.881 243.33 216.621 242.81 216.471 242.63C216.241 242.34 215.951 242.11 215.611 241.95C215.271 241.79 214.811 241.68 214.231 241.63V241.11H222.011V241.63C221.131 241.71 220.561 241.86 220.301 242.08C220.041 242.3 219.911 242.57 219.911 242.91C219.911 243.38 220.121 244.11 220.561 245.1L225.401 256.26L229.891 245.24C230.331 244.15 230.551 243.4 230.551 242.98C230.551 242.71 230.411 242.45 230.141 242.2C229.871 241.95 229.411 241.78 228.761 241.67C228.711 241.67 228.631 241.65 228.521 241.63V241.11H234.391L234.381 241.1ZM241.891 242.14V249.66H246.071C247.151 249.66 247.881 249.5 248.241 249.17C248.731 248.74 249.001 247.98 249.051 246.9H249.571V253.52H249.051C248.921 252.59 248.791 252 248.661 251.74C248.491 251.41 248.221 251.16 247.831 250.97C247.451 250.78 246.861 250.69 246.061 250.69H241.881V256.96C241.881 257.8 241.921 258.31 241.991 258.5C242.071 258.68 242.201 258.83 242.381 258.94C242.571 259.05 242.921 259.1 243.451 259.1H246.681C247.761 259.1 248.541 259.02 249.021 258.87C249.511 258.72 249.981 258.43 250.421 257.99C251.001 257.41 251.591 256.54 252.201 255.37H252.761L251.121 260.14H236.451V259.62H237.121C237.571 259.62 237.991 259.51 238.401 259.3C238.701 259.15 238.901 258.93 239.011 258.63C239.121 258.33 239.171 257.72 239.171 256.79V244.42C239.171 243.21 239.051 242.47 238.811 242.19C238.471 241.82 237.911 241.63 237.131 241.63H236.461V241.11H251.131L251.341 245.28H250.791C250.591 244.28 250.381 243.59 250.141 243.22C249.901 242.85 249.551 242.56 249.081 242.36C248.701 242.22 248.051 242.15 247.101 242.15H241.881L241.891 242.14Z" fill="white"/>
<defs>
<linearGradient id="paint0_linear_14_679" x1="0.0108104" y1="114.1" x2="302.741" y2="114.1" gradientUnits="userSpaceOnUse">
<stop stop-color="#BC925B"/>
<stop offset="0.03" stop-color="#F9E7A8"/>
<stop offset="0.06" stop-color="#E4BA8E"/>
<stop offset="0.08" stop-color="#BC925B"/>
<stop offset="0.09" stop-color="#D3B278"/>
<stop offset="0.11" stop-color="#EED89A"/>
<stop offset="0.12" stop-color="#F9E7A8"/>
<stop offset="0.19" stop-color="#E4BA8E"/>
<stop offset="0.27" stop-color="#BC925B"/>
<stop offset="0.31" stop-color="#DEC186"/>
<stop offset="0.35" stop-color="#F9E7A8"/>
<stop offset="0.41" stop-color="#E4BA8E"/>
<stop offset="0.54" stop-color="#BC925B"/>
<stop offset="0.57" stop-color="#DEC186"/>
<stop offset="0.6" stop-color="#F9E7A8"/>
<stop offset="0.68" stop-color="#E4BA8E"/>
<stop offset="0.79" stop-color="#BC925B"/>
<stop offset="0.82" stop-color="#F9E7A8"/>
<stop offset="0.85" stop-color="#E4BA8E"/>
<stop offset="0.9" stop-color="#BC925B"/>
<stop offset="0.93" stop-color="#F9E7A8"/>
<stop offset="0.98" stop-color="#E4BA8E"/>
</linearGradient>
<linearGradient id="paint1_linear_14_679" x1="119.471" y1="31.91" x2="183.281" y2="31.91" gradientUnits="userSpaceOnUse">
<stop stop-color="#BC925B"/>
<stop offset="0.1" stop-color="#D3B278"/>
<stop offset="0.24" stop-color="#EED89A"/>
<stop offset="0.31" stop-color="#F9E7A8"/>
<stop offset="0.57" stop-color="#E4BA8E"/>
</linearGradient>
</defs>
</svg>
