<svg width="219" height="65" viewBox="0 0 219 65" fill="none" xmlns="http://www.w3.org/2000/svg">
<path d="M51.6832 20.39L51.7315 20.6252C49.9037 21.6809 47.0985 23.1106 42.9301 24.9385C42.7913 25.2461 42.532 25.4754 42.2484 25.5478L40.8911 22.0308C42.0614 21.9102 44.3296 21.5844 47.0262 21.1621V11.9686H41.6874L41.4763 11.3111H47.0262V4.18066L50.5853 4.53055C50.5371 4.86234 50.3742 5.09157 49.7408 5.18809V20.7157L51.6832 20.39ZM61.5403 21.9826C62.2884 22.3083 62.4995 22.6401 62.4995 23.1287C62.4995 24.3232 61.4257 24.842 57.7459 24.842H55.6647C53.3241 24.842 52.6243 24.2809 52.6243 22.2359V4.20479L56.1835 4.60294C56.1594 4.9106 55.9482 5.16396 55.3631 5.26048V11.3352H58.5241L59.7427 9.17557C59.7427 9.17557 61.1241 10.6777 61.8239 11.6127C61.7515 11.8721 61.5403 11.9867 61.2146 11.9867H55.3631V21.4396C55.3631 22.0007 55.5742 22.1635 56.2981 22.1635H57.9812C58.6387 22.1635 59.1756 22.1635 59.4772 22.1394C59.7366 22.1153 59.8995 22.067 60.0865 21.8317C60.37 21.3853 60.7682 19.9556 61.1844 18.4777H61.4197L61.5343 21.9705L61.5403 21.9826Z" fill="#CBA37B"/>
<path d="M75.6923 6.40718L78.2682 8.75382C78.1053 9.01322 77.87 9.1037 77.2849 9.17609C76.2533 16.1859 73.9369 22.5682 65.3225 25.7112L65.1113 25.4276C68.8334 23.2439 71.1499 20.1492 72.6037 16.4935C72.0909 16.777 71.4093 16.7529 70.7095 16.1859C70.5949 14.9914 70.0097 13.7005 69.2798 12.6689C68.206 14.3097 66.9392 15.6731 65.4853 16.771L65.2078 16.584C67.2891 13.4169 68.9782 8.6573 69.5392 3.68652L73.3758 4.5552C73.2854 4.86286 73.026 5.06796 72.4649 5.09209C72.2055 6.12365 71.9039 7.06472 71.5721 7.97563H74.2204L75.6923 6.40718ZM71.3429 8.6392C70.8543 9.85776 70.3113 10.9858 69.7262 11.9933C71.928 12.5784 72.9777 13.61 73.2612 14.551C73.8464 12.6749 74.1963 10.7023 74.4315 8.6392H71.3429ZM81.755 11.1487C89.7118 13.1394 87.7694 18.7255 84.8677 16.8494C84.355 15.1603 83.0218 13.3084 81.755 11.8786V24.8968C81.755 25.1562 80.5605 25.7172 79.5049 25.7172H78.9438V3.8313L82.5935 4.18119C82.5452 4.50694 82.3824 4.74221 81.7489 4.83873V11.1487H81.755Z" fill="#CBA37B"/>
<path d="M110.452 9.78489C110.452 9.83315 110.337 9.92364 110.15 9.99603C110.548 10.3218 111.622 11.1482 112.328 11.7575C112.255 12.0169 112.002 12.1315 111.67 12.1315H97.2766C97.5783 12.4573 97.9101 12.8132 98.1634 13.1148C98.091 13.3742 97.8799 13.4888 97.5541 13.4888H95.0507V19.3283C96.034 19.0206 97.0414 18.6949 98.0488 18.3691L98.1212 18.6285C96.8363 19.6842 94.8214 21.2768 91.8715 23.2253C91.8233 23.5329 91.594 23.7863 91.3346 23.8828L89.8145 20.8545C90.3996 20.7158 91.3105 20.4564 92.4567 20.1246V13.4888H90.3272L90.1402 12.8313H92.4567V6.78071H90.1402L89.9532 6.09904H94.5198L95.8771 4.27119C95.8771 4.27119 97.2827 5.4415 98.1936 6.31017V4.08418L100.673 5.09161H107.906L109.028 3.87305L111.441 5.67676C111.278 5.86377 110.928 6.07491 110.458 6.17143V9.78489H110.452ZM96.8302 11.474H108.72L109.752 10.1589C109.378 10.2977 108.907 10.4183 108.533 10.4183H108.135V10.0202H100.528V10.3278C100.528 10.539 99.4725 11.0517 98.5133 11.0517H98.1876V6.5937C98.0729 6.71435 97.8859 6.78071 97.6265 6.78071H95.0507V12.8313H95.3101L96.3416 11.1181C96.3416 11.1181 96.601 11.3775 96.9268 11.7274L96.8302 11.468V11.474ZM111.411 19.5213C111.248 19.7566 111.061 19.7807 110.59 19.6842C109.842 20.1065 108.787 20.5529 107.803 20.951C109.088 21.868 110.59 22.5014 112.183 22.8513L112.159 23.1107C111.248 23.3459 110.542 24.1181 110.283 25.3367C107.333 23.9311 105.553 21.6568 104.546 18.0675C104.033 18.6285 103.448 19.1473 102.79 19.636V22.4954C103.659 22.236 104.618 21.9343 105.553 21.6267L105.65 21.9102C104.805 22.5677 103.074 23.9251 101.107 25.2401C100.92 25.5478 100.685 25.7348 100.474 25.8253L99.3036 23.4545C100.311 22.984 100.474 22.797 100.474 22.3988V21.0355C99.0924 21.7413 97.5481 22.3023 95.9314 22.797L95.7685 22.4893C98.2237 21.2708 100.311 19.4851 101.644 17.6573H101.131V17.9167C101.131 18.1037 100.052 18.6225 99.0924 18.6225H98.7667V12.5478L101.27 13.5793H107.055L108.226 12.2884L110.753 14.1886C110.614 14.3756 110.259 14.5626 109.794 14.6591V17.3798C109.77 17.5005 109.468 17.6875 109.022 17.8503L111.411 19.5153V19.5213ZM100.528 5.77328V9.33849H101.91V5.77328H100.528ZM101.137 17.0118H107.297V14.2429H101.137V17.0118ZM105.022 9.33849V5.77328H103.737V9.33849H105.022ZM104.878 17.6694C105.414 18.6768 106.144 19.5696 107.007 20.3176C107.64 19.5937 108.292 18.725 108.835 17.9227C108.485 18.0373 108.063 18.1339 107.713 18.1339H107.291V17.6633H104.878V17.6694ZM106.844 5.77328V9.33849H108.129V5.77328H106.844Z" fill="#CBA37B"/>
<path d="M130.401 0L128.966 3.13086H121.461L119.826 6.48493C123.078 6.9615 125.648 8.17403 127.548 10.1165C129.177 11.7875 129.991 13.7541 129.991 16.0102C129.991 17.3253 129.726 18.5439 129.189 19.6599C128.658 20.7759 127.982 21.729 127.174 22.5133C126.366 23.2975 125.467 23.9309 124.472 24.4135C123.06 25.0891 121.612 25.427 120.134 25.427C118.656 25.427 117.552 25.1736 116.871 24.6608C116.189 24.1541 115.851 23.5871 115.851 22.9778C115.851 22.6339 115.99 22.3323 116.273 22.0669C116.557 21.8014 116.913 21.6687 117.341 21.6687C117.661 21.6687 117.938 21.717 118.18 21.8135C118.421 21.91 118.825 22.1634 119.404 22.5676C120.321 23.207 121.256 23.5267 122.197 23.5267C123.633 23.5267 124.888 22.9838 125.974 21.898C127.059 20.8121 127.602 19.491 127.602 17.9286C127.602 16.3662 127.12 15.0088 126.149 13.6998C125.177 12.3907 123.844 11.3833 122.143 10.6715C120.81 10.1165 118.988 9.79677 116.684 9.71232L121.467 0.00603249H130.401V0Z" fill="#CBA37B"/>
<path d="M142.291 6.29297C142.171 6.55237 141.966 6.73937 141.38 6.69111C139.673 9.71943 136.627 13.0916 132.277 14.8772L132.09 14.6419C135.342 12.1083 137.658 8.03033 138.624 4.81501L142.297 6.29297H142.291ZM147.883 11.8067L150.387 13.9422C150.2 14.1292 149.916 14.2921 149.428 14.3644C149.144 20.1798 148.607 23.4192 147.322 24.4749C146.526 25.1324 145.567 25.4341 144.023 25.4341C144.023 24.6378 143.908 23.9561 143.51 23.5821C143.039 23.1598 142.056 22.7858 140.934 22.5988V22.273C142.128 22.3877 143.932 22.5083 144.493 22.5083C144.915 22.5083 145.127 22.4359 145.338 22.2489C146.037 21.6638 146.436 18.5691 146.671 13.8999H142.714C142.267 17.9598 140.91 22.3877 133.212 25.5306L132.977 25.2229C138.853 21.519 139.51 17.3867 139.673 13.8939H136.277L136.066 13.2364H146.436L147.889 11.8067H147.883ZM148.119 5.21315C147.841 5.52081 147.063 5.70782 146.2 5.77417C147.419 8.12081 150.435 10.3468 154.043 11.3301L153.994 11.6136C152.939 11.9876 152.076 12.977 151.792 14.0266C148.752 12.1264 146.526 9.17047 145.567 5.65352H143.015L142.804 4.99598H144.982L145.802 3.63867L148.119 5.20712V5.21315Z" fill="#CBA37B"/>
<path d="M176.604 22.3317C176.604 22.3317 178.1 23.5261 178.993 24.3707C178.945 24.6301 178.71 24.7447 178.384 24.7447H165.112L164.925 24.0872H170.753V21.6259H166.536L166.373 21.0649C164.756 22.024 162.44 23.315 158.977 24.98C158.863 25.2876 158.652 25.5169 158.392 25.5892L156.751 22.7057C157.523 22.567 158.79 22.3317 160.335 22.024V14.8212H157.312L157.125 14.1396H160.335V11.2802H158.814L158.676 10.7192C158.018 11.3767 157.367 11.9377 156.643 12.4324L156.383 12.2454C158.09 10.0194 159.593 6.12239 160.081 3.70939L163.453 4.76508C163.357 5.04861 163.128 5.21148 162.567 5.28387C168.442 6.76183 165.939 10.327 164.135 8.92147C163.827 8.10105 163.152 6.92471 162.217 5.85093C161.42 7.44351 160.226 9.15673 158.802 10.6106H162.404L163.598 8.9456C163.598 8.9456 164.907 10.0978 165.704 10.9182C165.631 11.1776 165.396 11.2922 165.07 11.2922H162.615V14.1516H163.104L164.274 12.4384C164.274 12.4384 165.607 13.6328 166.355 14.4533C166.307 14.7127 166.071 14.8273 165.746 14.8273H162.609V21.5595C163.852 21.276 165.136 20.9985 166.446 20.715L166.518 20.9744H170.753V18.6277H168.997V19.2853C168.997 19.4482 168.249 19.8704 167.007 19.8704H166.584V11.5697L169.226 12.5772H175.012L176.182 11.2379L178.45 12.9753C178.311 13.1864 178.1 13.3252 177.581 13.4217V18.9354C177.581 19.0319 176.785 19.4542 175.5 19.4542H175.078V18.6338H173.232V20.9804H174.728L175.995 19.4542C175.995 19.4542 177.443 20.5099 178.336 21.2579C178.263 21.5173 178.028 21.6319 177.702 21.6319H173.232V24.0932H175.295L176.604 22.3317ZM157.879 15.8106C161.74 18.9535 159.4 22.38 157.904 20.5461C158.139 19.0199 157.903 17.2161 157.578 15.8769L157.879 15.8045V15.8106ZM162.91 20.4073C163.146 19.2129 163.405 17.3368 163.568 15.7141L166.331 16.5345C166.21 16.818 165.933 17.0291 165.438 17.0291C164.829 18.2236 164.057 19.5869 163.309 20.5702L162.91 20.4073ZM166.397 7.39525L166.21 6.7377H174.873L176.206 4.95812C176.206 4.95812 177.702 6.17668 178.619 7.02123C178.547 7.28063 178.293 7.39525 177.962 7.39525H173.751L176.677 8.10105C176.604 8.38457 176.327 8.59571 175.808 8.59571C175.271 9.1326 174.523 9.81428 173.775 10.4477H175.223L176.532 8.83098C176.532 8.83098 178.004 9.95906 178.969 10.7553C178.897 11.0147 178.661 11.1294 178.311 11.1294H166.09L165.903 10.4477H169.534C169.299 10.3572 169.064 10.2124 168.834 9.97715C168.907 9.03609 168.647 8.05279 168.364 7.41938L168.412 7.39525H166.397ZM172.858 10.4417C173.045 9.48249 173.28 8.28202 173.419 7.39525H168.925C172.086 8.28805 171.664 10.0435 170.517 10.4417H172.858ZM168.997 13.2588V15.2978H170.753V13.2588H168.997ZM170.753 17.9461V15.9735H168.997V17.9461H170.753ZM169.932 3.66113C175.482 3.82401 172.997 7.95024 170.801 6.24304C170.801 5.35023 170.288 4.36693 169.745 3.80591L169.932 3.66717V3.66113ZM173.232 13.2588V15.2978H175.078V13.2588H173.232ZM175.084 17.9461V15.9735H173.238V17.9461H175.084Z" fill="#CBA37B"/>
<path d="M3.23043 47.5245C3.51396 49.1895 3.09168 50.3839 2.36175 50.951C1.68008 51.512 0.46755 51.3491 0.0935357 50.4563C-0.208089 49.5877 0.256413 48.8819 0.962215 48.4837C1.66198 47.989 2.43414 46.7041 2.27127 45.4554H2.59702C2.80816 45.9501 2.97104 46.3965 3.08565 46.8368H10.391C10.204 46.7403 9.99286 46.6257 9.80585 46.4628C9.85411 45.2684 9.24483 43.9292 8.42441 43.157L8.58729 42.9941C13.552 43.3199 13.4072 46.0888 11.9594 46.8429H17.811L19.2648 45.389L21.8165 47.802C21.6295 47.989 21.3943 48.0614 20.9056 48.0856C20.0611 48.9301 18.5892 50.0341 17.4671 50.6675L17.2801 50.5046C17.5154 49.7083 17.817 48.4897 17.9618 47.5245H3.23043ZM18.7943 51.6085C18.7943 51.6085 20.5015 52.8754 21.5571 53.7923C21.4848 54.0517 21.2314 54.1663 20.8996 54.1663H16.146C15.6091 56.3923 14.7163 58.3167 13.1479 59.9575C22.2087 62.4188 18.6736 65.984 16.1882 64.6508C14.9697 63.7097 13.2383 62.6782 11.0606 61.6707C8.69587 63.197 5.34784 64.2949 0.576135 64.9524L0.437388 64.6689C4.32231 63.6615 7.06107 62.3464 9.00353 60.7779C7.17568 60.054 5.16686 59.3482 2.91674 58.739C3.55015 57.635 4.38867 55.9218 5.18496 54.1663H0.51581L0.304673 53.4847H5.49865C6.39146 51.4215 7.20585 49.4248 7.53763 48.3027L11.3502 49.4549C11.2536 49.7143 11.0485 49.9496 10.2945 49.9255C9.84808 50.8183 9.2388 52.1092 8.56316 53.4907H13.1298C13.2685 52.5496 13.365 51.5904 13.4072 50.583L17.4551 51.3552C17.3827 51.7292 17.081 51.9162 16.5441 51.8921C16.4718 52.429 16.3813 52.9719 16.2847 53.4907H17.3163L18.7882 51.6146L18.7943 51.6085ZM8.21327 54.1663C7.41698 55.7167 6.57243 57.3092 5.80027 58.6243C7.57986 58.8355 9.12418 59.0707 10.5056 59.3482C11.8388 57.7798 12.5687 56.0666 12.985 54.1663H8.20724H8.21327Z" fill="#CBA37B"/>
<path d="M33.7727 48.7911C33.7727 48.7911 35.3411 50.1062 36.2279 50.993C36.1797 51.2524 35.9263 51.367 35.5945 51.367H31.8001V52.9837C37.6999 54.7452 35.4739 58.8473 33.3685 57.1341C33.2056 55.9396 32.524 54.6004 31.8001 53.5689V64.1921C31.8001 64.355 30.9314 64.9643 29.6223 64.9643H29.1277V56.2835C27.9574 58.1596 26.4794 59.8004 24.724 61.206L24.4404 60.9225C26.3588 58.3647 27.6919 54.7512 28.4219 51.355H24.9773L24.7903 50.6974H29.1216V46.5471C27.6919 46.7099 26.22 46.8547 24.8627 46.9211L24.7903 46.5953C27.6678 45.7266 31.2994 44.1099 33.1031 42.9336L36.0047 45.606C35.7212 45.8171 35.2084 45.8654 34.4604 45.5819C33.6882 45.7689 32.7773 45.9559 31.794 46.1429V50.6914H32.4516L33.7606 48.767L33.7727 48.7911ZM46.1333 47.458C45.9945 47.6691 45.6386 47.8561 45.1741 47.9707V62.3281C45.1259 62.5151 43.8168 63.0761 42.8576 63.0761H42.4112V60.5907H39.0391V62.4909C39.0391 62.7986 37.9653 63.4501 36.7708 63.4501H36.3244V45.6241L39.1537 46.8185H42.1518L43.4609 45.3406L46.1272 47.4519L46.1333 47.458ZM42.4112 59.909V47.4761H39.0391V59.909H42.4112Z" fill="#CBA37B"/>
<path d="M55.8158 60.452C56.962 60.1926 58.1806 59.9332 59.375 59.6557L59.4655 59.9151C57.5471 60.9466 54.7843 62.3763 50.827 64.1378C50.7123 64.4213 50.4771 64.6747 50.2177 64.7471L49.0474 61.8394C49.3972 61.7912 49.8437 61.7007 50.3805 61.6042V53.2311L52.9564 53.4663C52.9323 53.6775 52.7935 53.8645 52.4195 53.9127V61.206L53.427 60.9949V51.0051H52.7935V51.3308C52.7935 51.4937 52.0455 52.0125 50.8511 52.0125H50.4288V43.6394L53.0952 44.6951H55.5504L56.6966 43.4524L59.0854 45.2802C58.9467 45.4431 58.639 45.6301 58.1987 45.7266V51.0956C58.1504 51.2584 56.9801 51.6807 56.2079 51.6807H55.8098V54.8236H56.1174L57.2878 52.9958C57.2878 52.9958 58.6209 54.2626 59.369 55.1072C59.2966 55.3666 59.0673 55.4812 58.7355 55.4812H55.8098V60.452H55.8158ZM52.7996 50.3174H55.7977V45.3466H52.7996V50.3174ZM70.0284 46.8004C69.8655 47.0598 69.6061 47.1262 69.0692 47.1744C68.3212 48.8394 67.3138 50.3898 66.0288 51.7712C67.5973 52.6881 69.4915 53.3879 71.7175 53.8343L71.6692 54.0696C70.5713 54.4677 70.0042 55.2399 69.8172 56.555C69.2803 56.3438 68.7616 56.1327 68.2971 55.8974L69.8172 57.0496C69.6544 57.2366 69.4432 57.3754 68.9486 57.4719V64.2947C68.9486 64.4334 68.0799 64.8798 66.6984 64.8798H66.2038V63.2148H62.0595V64.3429C62.0595 64.5299 61.2632 64.9763 59.93 64.9763H59.4836V56.1809C58.7597 56.4886 57.9875 56.742 57.1912 56.9772L57.0042 56.6696C59.6042 55.4269 61.782 53.7137 63.4409 51.6988C62.8316 50.8301 62.343 49.871 61.8966 48.8394C60.8168 50.0821 59.6042 51.0654 58.271 51.8436L58.0116 51.6324C59.7188 49.6176 61.2632 46.4023 61.9931 42.9336L65.4557 44.0556C65.3411 44.3633 65.0576 44.5744 64.5207 44.5262C64.2854 45.0631 64.0502 45.5819 63.7968 46.0765H66.2339L67.6878 44.6951L70.0284 46.8065V46.8004ZM67.2655 55.3123C66.2339 54.6789 65.3472 53.9489 64.5991 53.1285C63.3564 54.1842 61.9328 55.1011 60.2678 55.8492L62.3309 56.6213H66.1254L67.2715 55.3062L67.2655 55.3123ZM66.2098 62.5633V57.309H62.0655V62.5633H66.2098ZM63.4047 46.7522C63.0789 47.3132 62.723 47.832 62.3249 48.3206C62.8618 49.141 63.5434 49.8951 64.3156 50.5466C65.136 49.3522 65.7875 48.0853 66.2581 46.7461H63.4047V46.7522Z" fill="#CBA37B"/>
<path d="M82.1232 54.7748C81.9603 54.9618 81.7492 55.0342 81.2545 55.0825C80.6935 56.7716 79.5473 58.5994 78.0271 60.0291C78.1659 60.0774 78.2865 60.1498 78.4494 60.2644C80.2773 61.7182 83.1306 62.0018 88.397 62.0018C91.2081 62.0018 93.4522 61.9776 96.2392 61.8389V62.0983C95.1172 62.3335 94.4838 63.341 94.345 64.3967H87.462C82.1715 64.3967 80.1325 63.5762 78.1659 61.115C77.816 60.6686 77.5566 60.741 77.3696 61.1632C77.0197 61.869 76.5492 63.0394 76.1028 64.1916C76.1752 64.4027 76.1028 64.5414 75.9399 64.6621L74.0698 62.0319C75.029 61.495 76.4346 60.4393 77.1826 60.0834C77.9547 58.6296 78.564 56.6328 78.8234 54.9196H77.442L76.6698 55.6676L74.6791 54.2862C74.8902 54.1233 75.216 53.9604 75.5659 53.8398C76.1993 52.7117 77.0197 51.0709 77.5325 49.9006H74.6791L74.468 49.2189H77.5083L78.5882 48.1391L80.79 50.0876C80.5789 50.2987 80.1325 50.4133 79.6438 50.4616C79.1311 51.4932 78.3107 53.0857 77.6531 54.2379H78.6847L79.9515 52.9952L82.1292 54.7809L82.1232 54.7748ZM75.3849 43.3493C81.4958 44.2843 79.2457 48.863 76.9051 47.1498C76.7663 45.8588 75.9701 44.405 75.1738 43.488L75.3849 43.3493ZM87.7877 49.5929C86.732 50.0393 84.7232 50.8597 82.5455 51.656C82.3826 51.8672 82.1715 51.9818 81.9845 52.0783L81.0253 49.9669C81.52 49.6593 81.5863 49.4723 81.5863 49.0259V43.2105L84.1381 44.218H85.4954L86.4787 43.1864L88.5599 44.7609C88.4453 44.8996 88.1617 45.0685 87.7636 45.1349V47.5962C87.7395 47.759 86.732 48.2296 86.0564 48.2296H85.7065V47.5479H83.8123V49.5869C84.9585 49.4904 86.364 49.3758 87.7696 49.237L87.7937 49.5869L87.7877 49.5929ZM93.3376 54.8412C93.3376 54.8412 94.9302 55.9934 95.8894 56.8379C95.817 57.0973 95.5817 57.212 95.2559 57.212H81.2364L81.0494 56.5303H84.4216V54.1354H82.268L82.081 53.4778H84.4216V51.1071L87.4861 51.3906C87.462 51.65 87.3232 51.837 86.8527 51.9275V53.4778H89.0545V51.1071L92.119 51.3906C92.0949 51.6741 91.9562 51.837 91.4856 51.9275V53.4778H91.5339L92.6318 52.0481C92.6318 52.0481 93.9167 53.0556 94.713 53.7614C94.6648 54.0208 94.4355 54.1354 94.1037 54.1354H91.4796V56.5303H91.9743L93.3316 54.8412H93.3376ZM81.164 61.1512C82.6601 60.192 84.1381 58.5029 84.7715 57.2783L87.9808 58.708C87.8661 58.9915 87.4921 59.1303 86.7863 59.0579C85.5919 59.9929 83.4865 60.934 81.3329 61.4045L81.1701 61.1451L81.164 61.1512ZM85.7065 46.8904V44.8936H83.8123V46.8904H85.7065ZM86.8527 56.5303H89.0545V54.1354H86.8527V56.5303ZM90.6471 50.902C88.8675 50.902 88.6081 50.4556 88.6081 49.1405V43.2286L91.0875 44.2119H92.3543L93.3376 43.1562L95.4671 44.7549C95.3525 44.8936 95.0689 45.0625 94.6949 45.153V47.5238C94.6708 47.7108 93.6211 48.1572 92.9153 48.1572H92.5654V47.5479H90.7859V48.7906C90.7859 49.0983 90.8583 49.1646 91.2986 49.1646H93.4764C93.6151 49.1646 93.8262 49.1405 93.965 49.1405C94.1037 49.1164 94.339 49.0681 94.4777 49.0259H94.6889L94.8035 49.05C95.3887 49.3094 95.5998 49.4723 95.5998 49.8222C95.5998 50.6184 94.7794 50.902 92.1371 50.902H90.6411H90.6471ZM88.7951 57.586C98.791 58.5693 94.2485 63.0273 92.3061 60.9883C91.745 60.0472 90.5023 58.8287 88.6564 57.8695L88.7951 57.586ZM90.7859 44.8996V46.8964H92.5654V44.8996H90.7859Z" fill="#CBA37B"/>
<path d="M119.645 51.3972C119.645 51.3972 120.888 52.8027 121.515 53.6714C121.443 53.9308 121.232 54.0454 120.906 54.0454H118.565V61.8334C118.565 63.7336 118.24 64.7652 115.477 65.0004C115.453 64.1318 115.362 63.432 115.151 63.0519C114.94 62.6538 114.59 62.3461 113.842 62.2074V61.8816C113.842 61.8816 115.127 61.9721 115.459 61.9721C115.809 61.9721 115.881 61.8092 115.881 61.5257V54.0454H113.54V63.8724C113.54 64.0352 112.792 64.6023 111.483 64.6023H111.037V54.0454H108.745V63.8724C108.745 64.0352 107.972 64.6023 106.706 64.6023H106.235V54.0454H104.057V63.9448C104.057 64.2946 103.002 64.9763 101.831 64.9763H101.361V54.0454H98.9477L98.7607 53.3879H101.361V43.7721L104.238 44.9907H115.64L116.882 43.5127L119.525 45.5999C119.362 45.7869 119.036 45.9981 118.565 46.0946V53.3396L119.645 51.3911V51.3972ZM106.229 53.3879V45.6482H104.051V53.3879H106.229ZM111.031 53.3879V45.6482H108.738V53.3879H111.031ZM115.875 53.3879V45.6482H113.534V53.3879H115.875Z" fill="#CBA37B"/>
<path d="M146.255 47.4092C146.068 47.5963 145.832 47.6686 145.344 47.6928C144.547 48.6338 143.142 49.9007 142.02 50.6487L141.809 50.4858C142.044 49.5448 142.303 48.1874 142.442 47.1318H127.083C127.246 48.8208 126.685 49.9912 125.865 50.5341C125.117 51.0529 123.922 50.8598 123.572 49.9248C123.289 49.1044 123.784 48.3986 124.507 48.0246C125.376 47.5782 126.311 46.3837 126.263 45.1169H126.589C126.751 45.5874 126.89 46.0338 126.963 46.4561H133.87C133.755 46.3837 133.659 46.3174 133.544 46.2208C133.635 45.0747 133.146 43.7837 132.422 43.0538L132.585 42.915C137.031 43.1986 137.127 45.5633 135.933 46.4561H142.255L143.727 44.9782L146.255 47.4153V47.4092ZM144.264 61.4348C145.108 61.7183 145.344 62.0441 145.344 62.587C145.344 63.8297 144.222 64.3002 139.142 64.3002H135.981C133.17 64.3002 132.332 63.8538 132.332 61.7425V56.5847H124.538L124.326 55.9271H132.332V51.8914C130.202 52.1025 128 52.2413 125.919 52.2654L125.871 51.9155C130.413 51.1675 136.029 49.5689 138.865 48.2357L141.513 50.7211C141.254 50.9564 140.717 50.9805 140.017 50.697C138.611 51.0227 136.928 51.3062 135.076 51.5656V55.9271H140.18L141.772 53.8158C141.772 53.8158 143.6 55.2213 144.698 56.2107C144.65 56.4701 144.372 56.5847 144.016 56.5847H135.076V61.0668C135.076 61.5856 135.287 61.7485 136.343 61.7485H139.408C140.506 61.7485 141.447 61.7244 141.911 61.6761C142.309 61.652 142.496 61.5615 142.683 61.3021C142.991 60.8074 143.383 59.613 143.926 57.8998H144.185L144.276 61.4408L144.264 61.4348Z" fill="#CBA37B"/>
<path d="M165.106 59.4567L163.356 64.2646H148.649V63.583C152.974 59.6317 156.021 56.3983 157.788 53.8948C159.556 51.3913 160.436 49.0989 160.436 47.0238C160.436 45.4372 159.954 44.1402 158.983 43.1207C158.011 42.1013 156.853 41.5885 155.508 41.5885C154.283 41.5885 153.179 41.9504 152.208 42.6683C151.237 43.3862 150.513 44.4419 150.048 45.8293H149.367C149.674 43.5551 150.459 41.8117 151.732 40.5992C152.998 39.3806 154.585 38.7773 156.485 38.7773C158.506 38.7773 160.195 39.4289 161.552 40.7319C162.904 42.0349 163.585 43.5671 163.585 45.3347C163.585 46.6015 163.29 47.8683 162.705 49.1291C161.8 51.1198 160.328 53.2252 158.289 55.4512C155.236 58.7932 153.33 60.808 152.57 61.4897H159.079C160.4 61.4897 161.329 61.4414 161.866 61.3449C162.397 61.2484 162.88 61.0493 163.308 60.7477C163.736 60.4461 164.11 60.0178 164.43 59.4688H165.112L165.106 59.4567Z" fill="#CBA37B"/>
<path d="M166.596 51.8613H175.754V53.2548H166.596V51.8613Z" fill="#CBA37B"/>
<path d="M179.807 44.0429C180.519 42.3598 181.418 41.0629 182.498 40.1459C183.584 39.229 184.935 38.7705 186.552 38.7705C188.549 38.7705 190.081 39.422 191.149 40.725C191.957 41.6963 192.361 42.7339 192.361 43.8378C192.361 45.6536 191.221 47.5357 188.941 49.4722C190.473 50.0754 191.631 50.932 192.415 52.0541C193.2 53.1701 193.592 54.4852 193.592 55.9933C193.592 58.1529 192.904 60.029 191.535 61.6095C189.743 63.6726 187.155 64.7042 183.759 64.7042C182.082 64.7042 180.936 64.4931 180.332 64.0768C179.723 63.6606 179.421 63.2081 179.421 62.7316C179.421 62.3757 179.566 62.062 179.856 61.7905C180.145 61.519 180.489 61.3863 180.893 61.3863C181.201 61.3863 181.515 61.4346 181.828 61.5311C182.04 61.5914 182.51 61.8146 183.246 62.2007C183.982 62.5868 184.489 62.816 184.772 62.8945C185.225 63.0272 185.707 63.0996 186.226 63.0996C187.475 63.0996 188.567 62.617 189.49 61.6457C190.413 60.6745 190.877 59.5283 190.877 58.2012C190.877 57.2299 190.66 56.2828 190.232 55.3659C189.912 54.6782 189.562 54.1534 189.182 53.7975C188.657 53.3088 187.933 52.8624 187.01 52.4643C186.093 52.0661 185.152 51.8671 184.199 51.8671H183.608V51.3121C184.579 51.1914 185.55 50.8415 186.522 50.2624C187.499 49.6833 188.205 48.9896 188.645 48.1812C189.085 47.3668 189.309 46.48 189.309 45.5088C189.309 44.242 188.911 43.2225 188.12 42.4443C187.33 41.6661 186.347 41.274 185.17 41.274C183.27 41.274 181.684 42.2935 180.411 44.3325L179.801 44.0369L179.807 44.0429Z" fill="#CBA37B"/>
<path d="M197.549 64.9037L197.29 64.7167C199.703 60.8921 199.932 56.0359 199.932 51.6986V44.6164L202.484 45.5092C206.863 44.9482 212.105 43.8684 214.983 42.9756L217.535 45.5756C217.251 45.8109 216.714 45.8109 215.99 45.5032C212.503 45.9013 207.213 46.1125 202.646 46.0401V47.6809H214.024L215.291 46.2995L217.957 48.3143C217.818 48.4772 217.51 48.6884 217.046 48.7849V51.8313C217.022 52.0183 215.64 52.513 214.729 52.513H214.259V51.6443L202.646 51.6684C202.646 55.8429 202.345 61.3325 197.543 64.8977L197.549 64.9037ZM216.256 53.1584C216.256 53.1584 217.776 54.3046 218.735 55.1492C218.663 55.4086 218.409 55.5232 218.078 55.5232H209.65C209.554 56.3195 209.463 57.0977 209.276 57.8457H213.632L215.013 56.5547L217.474 58.5696C217.311 58.7566 217.028 58.8772 216.563 58.9436C216.28 61.7608 215.743 63.4499 214.669 64.1014C213.987 64.5478 213.077 64.7589 211.858 64.7589C211.858 64.035 211.786 63.3775 211.412 62.9974C211.062 62.6234 210.29 62.3158 209.349 62.1288V61.8211C210.235 61.8935 211.713 61.984 212.16 61.984C212.534 61.984 212.721 61.9357 212.908 61.8452C213.306 61.5376 213.607 60.3673 213.794 58.5153H209.065C208.22 61.0007 206.254 63.2749 201.223 64.9218L201.012 64.596C206.043 61.8271 206.441 58.6601 206.562 55.5171H203.189L203.002 54.8355H209.958C209.843 54.7872 209.698 54.7208 209.584 54.6485C209.397 53.7557 208.763 52.7724 208.275 52.2113L208.462 52.0726C212.558 52.0002 212.395 54.2986 211.128 54.8415H214.923L216.256 53.1524V53.1584ZM202.652 48.3445V50.9928H214.265V48.3445H202.652Z" fill="#CBA37B"/>
</svg>
