<svg width="289" height="74" viewBox="0 0 289 74" fill="none" xmlns="http://www.w3.org/2000/svg">
<g style="mix-blend-mode:multiply">
<path d="M23.2029 23.2592C24.2296 22.8188 22.2146 20.914 21.8028 20.6002C21.3526 20.2644 20.3588 19.5928 19.6999 19.7414C19.5517 20.4021 20.2215 21.3985 20.5564 21.8499C20.8694 22.2628 22.7691 24.2887 23.2083 23.2537L23.2029 23.2592ZM5.10616 23.2592C5.5454 24.2887 7.44512 22.2683 7.75808 21.8554C8.093 21.404 8.76284 20.4076 8.6146 19.7469C7.95574 19.5983 6.96195 20.2699 6.51173 20.6058C6.09994 20.9195 4.07944 22.8243 5.11166 23.2647L5.10616 23.2592ZM5.10616 5.11978C4.07944 5.56019 6.09444 7.46497 6.50623 7.77877C6.95645 8.11458 7.95024 8.78621 8.6091 8.63757C8.75735 7.97695 8.08751 6.98052 7.75259 6.5291C7.43963 6.11621 5.5454 4.09032 5.10067 5.12529L5.10616 5.11978ZM23.2029 5.11978C22.7636 4.09032 20.8639 6.11071 20.5509 6.5236C20.216 6.97502 19.5462 7.97145 19.6944 8.63206C20.3533 8.7807 21.3471 8.10908 21.7973 7.77326C22.2091 7.45947 24.2296 5.56019 23.1974 5.11428L23.2029 5.11978ZM14.6596 14.6932C14.4949 14.7263 14.3302 14.7483 14.1545 14.7483C13.9788 14.7483 13.8141 14.7263 13.6494 14.6932C13.6164 14.5281 13.5945 14.3629 13.5945 14.1868C13.5945 14.0106 13.6164 13.8454 13.6494 13.6803C13.8141 13.6473 13.9788 13.6252 14.1545 13.6252C14.3302 13.6252 14.4949 13.6473 14.6596 13.6803C14.6926 13.8454 14.7145 14.0106 14.7145 14.1868C14.7145 14.3629 14.6926 14.5281 14.6596 14.6932ZM26.8595 11.7039C26.4972 10.8286 26.2171 9.92027 26.0415 9.00091C26.0305 8.94035 26.0085 8.84677 25.9865 8.73666C25.6736 7.2778 25.8273 6.26485 25.6736 6.13273C25.5198 5.9896 25.2838 6.00061 25.141 6.15475C22.6428 8.84677 20.2545 10.2616 17.8826 10.4488C18.0692 8.07054 19.4803 5.6758 22.1652 3.17096C22.3189 3.02783 22.3244 2.79111 22.1871 2.63696C22.0554 2.48832 21.0451 2.63696 19.5901 2.32317C19.4803 2.30115 19.3924 2.27913 19.3266 2.26812C18.4096 2.09195 17.4982 1.81119 16.6252 1.44785C15.7358 1.0735 14.9232 0.561525 14.149 0C13.3749 0.561525 12.5568 1.07901 11.6728 1.44785C10.7998 1.81119 9.89387 2.09195 8.97696 2.26812C8.91656 2.27913 8.82324 2.30115 8.71342 2.32317C7.25844 2.63696 6.24818 2.48282 6.11641 2.63696C5.97366 2.79111 5.98464 3.02783 6.13838 3.17096C8.82323 5.6758 10.2343 8.07054 10.421 10.4488C8.04907 10.2616 5.6607 8.84677 3.16252 6.15475C3.01977 6.00061 2.78367 5.9951 2.62994 6.13273C2.4817 6.26485 2.62995 7.2778 2.31699 8.73666C2.29503 8.84677 2.27307 8.93485 2.26208 9.00091C2.08639 9.92027 1.80638 10.8341 1.444 11.7039C1.07614 12.5958 0.560031 13.4105 0 14.1868C0.560031 14.963 1.07614 15.7832 1.444 16.6696C1.80638 17.5449 2.08639 18.4532 2.26208 19.3781C2.27307 19.4387 2.29503 19.5322 2.31699 19.6424C2.62995 21.1012 2.4762 22.1142 2.62994 22.2463C2.78367 22.3894 3.01977 22.3784 3.16252 22.2243C5.6607 19.5322 8.04907 18.1174 10.421 17.9303C10.2343 20.3085 8.82323 22.7032 6.13838 25.2081C5.98464 25.3512 5.97915 25.5879 6.11641 25.7421C6.24818 25.8962 7.25844 25.7421 8.71342 26.0558C8.82324 26.0779 8.91107 26.0999 8.97696 26.1109C9.89387 26.2871 10.8053 26.5678 11.6728 26.9312C12.5623 27.3055 13.3749 27.8175 14.149 28.379C14.9232 27.8175 15.7413 27.3 16.6252 26.9312C17.4982 26.5678 18.4042 26.2871 19.3266 26.1109C19.387 26.0999 19.4803 26.0779 19.5901 26.0558C21.0451 25.7421 22.0554 25.8962 22.1871 25.7421C22.3299 25.5879 22.3189 25.3512 22.1652 25.2081C19.4803 22.7032 18.0692 20.3085 17.8826 17.9303C20.2545 18.1174 22.6483 19.5322 25.141 22.2243C25.2838 22.3784 25.5198 22.3839 25.6736 22.2463C25.8218 22.1142 25.6736 21.1012 25.9865 19.6424C26.0085 19.5322 26.0305 19.4442 26.0415 19.3781C26.2226 18.4587 26.4972 17.5449 26.8595 16.6696C27.2329 15.7777 27.7435 14.963 28.3035 14.1868C27.7435 13.4105 27.2274 12.5903 26.8595 11.7039ZM24.9818 7.39891C25.0257 7.78427 25.119 8.26873 25.2508 8.89631C25.2728 9.00091 25.2892 9.08349 25.3002 9.14404C25.4869 10.1129 25.7779 11.0763 26.1622 11.9957C26.4862 12.7719 26.9035 13.4876 27.3647 14.1647C26.8321 13.7518 26.327 13.3775 25.7724 13.0527C24.2955 12.1939 22.7417 11.748 21.2757 11.7755C20.2215 11.792 19.1124 12.0563 18.0638 12.5462C17.9594 12.1058 17.8935 11.6599 17.8716 11.2085C20.2215 11.0323 22.6044 9.76062 24.9873 7.40442L24.9818 7.39891ZM18.2724 13.2784C18.2998 13.2619 18.3273 13.2454 18.3602 13.2344C19.3211 12.7884 20.3313 12.5462 21.2867 12.5297C22.6154 12.5077 24.0374 12.9151 25.3991 13.7078C25.6571 13.8564 25.9042 14.0161 26.1513 14.1923C25.9042 14.3684 25.6571 14.5281 25.3991 14.6767C24.0374 15.4695 22.6209 15.8768 21.2867 15.8548C20.3313 15.8383 19.3211 15.5961 18.3602 15.1502C18.3328 15.1391 18.3053 15.1171 18.2724 15.1061C18.3767 14.8033 18.4975 14.495 18.6402 14.1923C18.4975 13.8895 18.3767 13.5867 18.2724 13.2784ZM16.3397 2.14701C17.2566 2.53237 18.2175 2.82414 19.1838 3.01131C19.2442 3.02232 19.3266 3.03884 19.4309 3.06086C20.0513 3.19298 20.54 3.28107 20.9243 3.33061C18.5744 5.71984 17.3061 8.11458 17.1304 10.4653C16.6801 10.4378 16.2354 10.3772 15.7962 10.2726C16.2793 9.22112 16.5484 8.10908 16.5648 7.05209C16.5868 5.58222 16.1476 4.02426 15.291 2.53787C14.9671 1.98185 14.5937 1.46987 14.182 0.94138C14.8573 1.40381 15.5711 1.8222 16.3452 2.14701H16.3397ZM17.7782 14.1868C17.7782 15.1667 17.1413 15.9979 16.2629 16.3007C15.9609 17.1816 15.1318 17.8201 14.1545 17.8201C13.1772 17.8201 12.3481 17.1816 12.0462 16.3007C11.1677 15.9979 10.5308 15.1667 10.5308 14.1868C10.5308 13.2068 11.1677 12.3756 12.0462 12.0728C12.3481 11.192 13.1772 10.5534 14.1545 10.5534C15.1318 10.5534 15.9609 11.192 16.2629 12.0728C17.1413 12.3756 17.7782 13.2068 17.7782 14.1868ZM14.6377 2.91773C15.4283 4.283 15.8346 5.70333 15.8126 7.04108C15.7962 7.99897 15.5546 9.01192 15.1099 9.97532C15.0989 10.0028 15.0769 10.0304 15.0659 10.0634C14.764 9.95881 14.4565 9.83769 14.1545 9.69456C13.8525 9.83769 13.5506 9.95881 13.2431 10.0634C13.2266 10.0359 13.2101 10.0084 13.1992 9.97532C12.7544 9.01192 12.5128 7.99897 12.4964 7.04108C12.4744 5.70883 12.8807 4.283 13.6713 2.91773C13.8196 2.65898 13.9788 2.41125 14.1545 2.16352C14.3302 2.41125 14.4894 2.65898 14.6377 2.91773ZM7.38472 3.33061C7.76905 3.28657 8.25771 3.19298 8.87813 3.06086C8.98245 3.03884 9.06482 3.02232 9.12521 3.01131C10.0915 2.82414 11.0524 2.53237 11.9693 2.14701C12.7435 1.8222 13.4517 1.40381 14.1325 0.94138C13.7208 1.47538 13.3474 1.98185 13.0235 2.53787C12.167 4.01875 11.7222 5.57671 11.7497 7.05209C11.7661 8.10908 12.0297 9.22112 12.5183 10.2726C12.0791 10.3772 11.6344 10.4433 11.1842 10.4653C11.0085 8.10908 9.74015 5.71984 7.39021 3.33061H7.38472ZM2.14129 11.9957C2.52563 11.0763 2.81663 10.1129 3.00331 9.14404C3.01429 9.08349 3.03076 9.00091 3.05272 8.89631C3.18449 8.27423 3.27782 7.78427 3.32175 7.39891C5.70463 9.75511 8.09299 11.0268 10.4374 11.203C10.41 11.6544 10.3496 12.1003 10.2453 12.5407C9.19659 12.0563 8.08751 11.7865 7.03333 11.77C5.56737 11.748 4.01355 12.1884 2.53111 13.0472C1.97657 13.372 1.46596 13.7408 0.938871 14.1592C1.40007 13.4821 1.81735 12.7664 2.14129 11.9902V11.9957ZM10.0366 15.1006C10.0092 15.1171 9.98173 15.1336 9.94879 15.1446C8.98795 15.5906 7.97769 15.8328 7.02234 15.8493C5.69364 15.8713 4.2716 15.4639 2.90996 14.6712C2.65191 14.5226 2.40484 14.3629 2.15776 14.1868C2.40484 14.0106 2.65191 13.8509 2.90996 13.7023C4.2716 12.9096 5.68815 12.5022 7.02234 12.5242C7.97769 12.5407 8.98795 12.7829 9.94879 13.2289C9.97624 13.2399 10.0037 13.2564 10.0366 13.2729C9.93232 13.5757 9.81152 13.884 9.66877 14.1868C9.81152 14.4895 9.93232 14.7923 10.0366 15.1006ZM3.32175 20.9746C3.27782 20.5892 3.18449 20.0993 3.05272 19.4772C3.03076 19.3726 3.01429 19.29 3.00331 19.2295C2.81663 18.2606 2.52563 17.2972 2.14129 16.3778C1.81735 15.6016 1.40007 14.8859 0.938871 14.2088C1.47145 14.6217 1.97657 14.996 2.53111 15.3208C4.00806 16.1796 5.56188 16.6255 7.03333 16.598C8.08751 16.5815 9.19659 16.3172 10.2453 15.8273C10.3496 16.2677 10.4155 16.7136 10.4374 17.165C8.0875 17.3412 5.70463 18.6129 3.32175 20.9691V20.9746ZM11.9638 26.232C11.0469 25.8466 10.086 25.5549 9.11972 25.3677C9.05932 25.3567 8.97697 25.3402 8.87265 25.3182C8.25223 25.186 7.76357 25.0979 7.37924 25.0484C9.72917 22.6592 10.9975 20.2644 11.1732 17.9137C11.6234 17.9413 12.0681 18.0018 12.5074 18.1064C12.0242 19.1579 11.7552 20.2699 11.7387 21.3269C11.7167 22.7968 12.156 24.3548 13.0125 25.8356C13.3364 26.3917 13.7043 26.9036 14.1216 27.4321C13.4462 26.9697 12.7325 26.5513 11.9583 26.2265L11.9638 26.232ZM13.6713 25.4613C12.8807 24.096 12.4744 22.6757 12.4964 21.3379C12.5128 20.38 12.7544 19.3671 13.1992 18.4037C13.2156 18.3762 13.2321 18.3486 13.2431 18.3156C13.5451 18.4202 13.8525 18.5413 14.1545 18.6845C14.4565 18.5413 14.7585 18.4202 15.0659 18.3156C15.0824 18.3431 15.0989 18.3707 15.1099 18.4037C15.5546 19.3671 15.7962 20.38 15.8126 21.3379C15.8346 22.6702 15.4283 24.096 14.6377 25.4613C14.4894 25.72 14.3302 25.9678 14.1545 26.2155C13.9788 25.9678 13.8196 25.72 13.6713 25.4613ZM20.9243 25.0484C20.54 25.0924 20.0513 25.186 19.4309 25.3182C19.3266 25.3402 19.2442 25.3567 19.1838 25.3677C18.2175 25.5549 17.2566 25.8466 16.3397 26.232C15.5656 26.5568 14.8518 26.9752 14.1765 27.4376C14.5883 26.9036 14.9616 26.3972 15.2856 25.8411C16.1421 24.3603 16.5868 22.8023 16.5594 21.3324C16.5429 20.2754 16.2793 19.1634 15.7907 18.1119C16.2299 18.0073 16.6747 17.9413 17.1249 17.9192C17.3006 20.2754 18.5689 22.6647 20.9188 25.0539L20.9243 25.0484ZM26.1677 16.3833C25.7834 17.3027 25.4924 18.2661 25.3057 19.235C25.2947 19.2955 25.2783 19.3781 25.2563 19.4827C25.1245 20.1048 25.0367 20.5947 24.9873 20.9801C22.6044 18.6239 20.216 17.3522 17.8716 17.176C17.899 16.7246 17.9594 16.2787 18.0638 15.8383C19.1124 16.3228 20.2215 16.5925 21.2757 16.609C22.7417 16.631 24.2955 16.1906 25.7724 15.3318C26.327 15.007 26.8376 14.6327 27.3647 14.2198C26.9035 14.8969 26.4862 15.6126 26.1622 16.3888L26.1677 16.3833ZM20.2105 14.1868C21.4734 13.5096 22.9558 13.3059 24.3669 13.961C24.5096 14.0271 24.6523 14.1042 24.7841 14.1868C24.6469 14.2693 24.5096 14.3464 24.3669 14.4125C22.9558 15.0676 21.4734 14.8639 20.2105 14.1868ZM12.7709 11.9407C12.6995 11.9407 12.6336 11.9572 12.5623 11.9627C12.8643 11.3901 13.4627 10.9938 14.1545 10.9938C14.8463 10.9938 15.4393 11.3901 15.7468 11.9627C15.6754 11.9572 15.6095 11.9407 15.5381 11.9407C15.0165 11.9407 14.5389 12.1278 14.1545 12.4306C13.7702 12.1278 13.298 11.9407 12.7709 11.9407ZM15.5381 12.3756C15.6699 12.3756 15.7962 12.3921 15.917 12.4196C15.9444 12.5407 15.9609 12.6728 15.9609 12.805C15.9609 13.2068 15.8236 13.5757 15.604 13.8785C15.3954 13.6968 15.1483 13.5537 14.8847 13.4656C14.7914 13.1958 14.6541 12.9536 14.473 12.7444C14.7749 12.5242 15.1428 12.3866 15.5436 12.3866L15.5381 12.3756ZM13.9294 3.94719C13.9953 3.80405 14.0722 3.66092 14.1545 3.52329C14.2369 3.66092 14.3137 3.79855 14.3796 3.94719C15.033 5.36201 14.8298 6.8484 14.1545 8.11458C13.4792 6.8484 13.276 5.36201 13.9294 3.94719ZM17.3445 14.1868C17.3445 14.8804 16.9492 15.475 16.3782 15.7832C16.3837 15.7117 16.4001 15.6456 16.4001 15.5741C16.4001 15.0511 16.2134 14.5721 15.9115 14.1868C16.2134 13.8014 16.4001 13.328 16.4001 12.7995C16.4001 12.7279 16.3837 12.6618 16.3782 12.5903C16.9492 12.893 17.3445 13.4931 17.3445 14.1868ZM12.705 13.873C12.4854 13.5702 12.3481 13.2068 12.3481 12.7995C12.3481 12.6673 12.3646 12.5407 12.3921 12.4141C12.5128 12.3866 12.6446 12.3701 12.7764 12.3701C13.1772 12.3701 13.5451 12.5077 13.8416 12.7279C13.6604 12.9371 13.5176 13.1848 13.4298 13.4491C13.1607 13.5427 12.9191 13.6858 12.7105 13.862L12.705 13.873ZM15.604 14.5061C15.8236 14.8088 15.9609 15.1722 15.9609 15.5741C15.9609 15.7062 15.9444 15.8328 15.917 15.9594C15.7962 15.9869 15.6644 16.0035 15.5381 16.0035C15.1373 16.0035 14.7694 15.8658 14.4675 15.6456C14.6486 15.4364 14.7859 15.1887 14.8792 14.9244C15.1483 14.8309 15.3899 14.6932 15.5985 14.5116L15.604 14.5061ZM14.3796 24.4318C14.3137 24.575 14.2369 24.7181 14.1545 24.8502C14.0722 24.7181 13.9953 24.575 13.9294 24.4318C13.276 23.017 13.4792 21.5306 14.1545 20.2644C14.8298 21.5306 15.033 23.017 14.3796 24.4318ZM12.403 14.1868C12.1011 14.5721 11.9144 15.0456 11.9144 15.5741C11.9144 15.6456 11.9309 15.7117 11.9363 15.7832C11.3653 15.4805 10.97 14.8804 10.97 14.1868C10.97 13.4931 11.3653 12.8986 11.9363 12.5903C11.9309 12.6618 11.9144 12.7279 11.9144 12.7995C11.9144 13.3224 12.1011 13.8014 12.403 14.1868ZM8.09849 14.1868C6.83568 14.8639 5.35324 15.0676 3.94218 14.4125C3.79942 14.3464 3.65667 14.2693 3.52489 14.1868C3.66216 14.1042 3.79942 14.0271 3.94218 13.961C5.35324 13.3059 6.83568 13.5096 8.09849 14.1868ZM12.7709 15.9979C12.6391 15.9979 12.5129 15.9814 12.3866 15.9539C12.3591 15.8328 12.3426 15.7007 12.3426 15.5685C12.3426 15.1667 12.4799 14.7978 12.6995 14.5005C12.9082 14.6822 13.1552 14.8198 13.4188 14.9134C13.5121 15.1832 13.6549 15.4254 13.8306 15.6346C13.5286 15.8548 13.1607 15.9924 12.7654 15.9924L12.7709 15.9979ZM15.5381 16.4384C15.6095 16.4384 15.6754 16.4218 15.7468 16.4163C15.4448 16.9889 14.8463 17.3852 14.1545 17.3852C13.4627 17.3852 12.8697 16.9889 12.5623 16.4163C12.6336 16.4218 12.6995 16.4384 12.7709 16.4384C13.2925 16.4384 13.7702 16.2512 14.1545 15.9484C14.5389 16.2512 15.011 16.4384 15.5381 16.4384Z" fill="#3B8281"/>
</g>
<path d="M8.9882 34.3963V34.5669C8.82349 34.5669 8.69172 34.5945 8.59289 34.655C8.49406 34.7156 8.39523 34.8257 8.30189 34.9853C8.2415 35.0954 8.14266 35.3487 8.01089 35.756L6.26491 40.8153H6.07824L4.6507 36.802L3.23415 40.8153H3.06944L1.20816 35.6019C1.07089 35.211 0.983047 34.9853 0.944614 34.9137C0.884218 34.7981 0.801865 34.7101 0.692055 34.6495C0.587736 34.5944 0.439487 34.5614 0.258301 34.5614V34.3908H2.57529V34.5614H2.46549C2.30077 34.5614 2.17997 34.6 2.09213 34.6715C2.00428 34.7431 1.96036 34.8367 1.96036 34.9413C1.96036 35.0459 2.02624 35.2991 2.16351 35.6845L3.39887 39.2078L4.43657 36.213L4.2499 35.6845L4.10165 35.2606C4.03577 35.1064 3.96439 34.9688 3.88204 34.8532C3.8436 34.7926 3.79419 34.7431 3.73379 34.7046C3.65692 34.6495 3.58006 34.611 3.50319 34.5834C3.44279 34.5669 3.35495 34.5559 3.22866 34.5559V34.3853H5.66645V34.5559H5.50173C5.33153 34.5559 5.20524 34.5945 5.12289 34.666C5.04053 34.7376 5.00209 34.8422 5.00209 34.9688C5.00209 35.1284 5.07347 35.3982 5.21074 35.7946L6.41316 39.2078L7.6046 35.7505C7.74186 35.3652 7.80774 35.1009 7.80774 34.9523C7.80774 34.8807 7.78578 34.8147 7.74186 34.7541C7.69793 34.6935 7.64303 34.6495 7.57165 34.622C7.45635 34.5779 7.30262 34.5559 7.11594 34.5559V34.3853H8.9882V34.3963Z" fill="#738C9A"/>
<path d="M11.7661 37.3083H14.6761V35.5137C14.6761 35.1944 14.6541 34.9797 14.6157 34.8806C14.5827 34.8035 14.5223 34.7374 14.4235 34.6824C14.2917 34.6108 14.149 34.5723 14.0007 34.5723H13.7811V34.4016H16.4605V34.5723H16.2409C16.0926 34.5723 15.9553 34.6053 15.8181 34.6769C15.7193 34.7264 15.6534 34.8035 15.6149 34.9026C15.582 35.0017 15.56 35.2054 15.56 35.5137V39.5655C15.56 39.8848 15.582 40.094 15.6204 40.193C15.6534 40.2701 15.7138 40.3362 15.8071 40.3912C15.9444 40.4628 16.0816 40.5013 16.2299 40.5013H16.4495V40.672H13.7701V40.5013H13.9898C14.2478 40.5013 14.429 40.4243 14.5498 40.2756C14.6266 40.1765 14.6651 39.9398 14.6651 39.56V37.6497H11.7551V39.56C11.7551 39.8793 11.7771 40.0884 11.8155 40.1875C11.8485 40.2646 11.9089 40.3307 12.0077 40.3857C12.1395 40.4573 12.2822 40.4958 12.4304 40.4958H12.6556V40.6665H9.9707V40.4958H10.1903C10.4484 40.4958 10.635 40.4188 10.7558 40.2701C10.8272 40.171 10.8657 39.9343 10.8657 39.5544V35.5027C10.8657 35.1834 10.8437 34.9687 10.8053 34.8696C10.7723 34.7925 10.7119 34.7264 10.6186 34.6714C10.4813 34.5998 10.3441 34.5613 10.1958 34.5613H9.97619V34.3906H12.661V34.5613H12.4359C12.2877 34.5613 12.1504 34.5943 12.0132 34.6659C11.9198 34.7154 11.8539 34.7925 11.8155 34.8916C11.7771 34.9907 11.7606 35.1944 11.7606 35.5027V37.2973L11.7661 37.3083Z" fill="#738C9A"/>
<path d="M19.3821 34.7375V37.2204H20.7602C21.1171 37.2204 21.3532 37.1653 21.4739 37.0607C21.6332 36.9176 21.721 36.6698 21.743 36.312H21.9132V38.4975H21.743C21.6991 38.1893 21.6551 37.9966 21.6112 37.9085C21.5563 37.7984 21.463 37.7158 21.3367 37.6553C21.2104 37.5947 21.0182 37.5617 20.7547 37.5617H19.3766V39.6316C19.3766 39.9069 19.3876 40.0775 19.415 40.1381C19.4425 40.1986 19.4809 40.2482 19.5468 40.2812C19.6072 40.3142 19.7225 40.3363 19.8982 40.3363H20.9578C21.3092 40.3363 21.5673 40.3142 21.7265 40.2647C21.8857 40.2152 22.0395 40.1161 22.1877 39.9729C22.3799 39.7802 22.5721 39.494 22.7752 39.1086H22.9619L22.4238 40.6831H17.5977V40.5124H17.8173C17.9655 40.5124 18.1028 40.4794 18.24 40.4078C18.3389 40.3583 18.4048 40.2867 18.4432 40.1876C18.4761 40.0885 18.4981 39.8848 18.4981 39.5821V35.5027C18.4981 35.1064 18.4597 34.8586 18.3773 34.7651C18.2675 34.6439 18.0808 34.5779 17.8228 34.5779H17.6031V34.4072H22.4293L22.5007 35.7835H22.3195C22.2536 35.4532 22.1822 35.2275 22.1054 35.1009C22.0285 34.9798 21.9132 34.8807 21.7595 34.8201C21.6387 34.7761 21.419 34.7485 21.1061 34.7485H19.3876L19.3821 34.7375Z" fill="#738C9A"/>
<path d="M30.3294 40.6721H28.6603L26.5409 37.7379C26.3817 37.7434 26.2554 37.7489 26.1566 37.7489C26.1182 37.7489 26.0742 37.7489 26.0248 37.7489C25.9809 37.7489 25.9315 37.7489 25.8821 37.7434V39.5656C25.8821 39.9619 25.926 40.2042 26.0138 40.3033C26.1291 40.4409 26.3048 40.507 26.5409 40.507H26.788V40.6776H24.1032V40.507H24.3392C24.6028 40.507 24.795 40.4189 24.9048 40.2482C24.9706 40.1546 25.0036 39.9234 25.0036 39.5656V35.5083C25.0036 35.1119 24.9597 34.8697 24.8718 34.7706C24.751 34.633 24.5753 34.5669 24.3338 34.5669H24.0977V34.3962H26.3762C27.0406 34.3962 27.5292 34.4458 27.8477 34.5394C28.1606 34.6385 28.4297 34.8146 28.6493 35.0789C28.8689 35.3376 28.9787 35.6514 28.9787 36.0092C28.9787 36.3946 28.8524 36.7304 28.5999 37.0112C28.3473 37.2975 27.963 37.4956 27.4359 37.6112L28.7262 39.4114C29.0226 39.8243 29.2752 40.0996 29.4893 40.2372C29.7035 40.3748 29.978 40.4574 30.3184 40.4959V40.6666L30.3294 40.6721ZM25.8821 37.4461C25.9425 37.4461 25.9919 37.4461 26.0358 37.4461C26.0797 37.4461 26.1127 37.4461 26.1401 37.4461C26.7386 37.4461 27.1888 37.314 27.4908 37.0552C27.7928 36.7965 27.9465 36.4662 27.9465 36.0643C27.9465 35.6624 27.8257 35.3541 27.5786 35.1064C27.3316 34.8587 27.0076 34.7376 26.6068 34.7376C26.4256 34.7376 26.184 34.7651 25.8821 34.8256V37.4351V37.4461Z" fill="#738C9A"/>
<path d="M32.9763 34.7375V37.2204H34.3544C34.7113 37.2204 34.9474 37.1653 35.0682 37.0607C35.2274 36.9176 35.3153 36.6698 35.3372 36.312H35.5074V38.4975H35.3372C35.2933 38.1893 35.2494 37.9966 35.2055 37.9085C35.1506 37.7984 35.0572 37.7158 34.9309 37.6553C34.8047 37.5947 34.6125 37.5617 34.3489 37.5617H32.9708V39.6316C32.9708 39.9069 32.9818 40.0775 33.0093 40.1381C33.0312 40.1986 33.0751 40.2482 33.141 40.2812C33.2014 40.3142 33.3222 40.3363 33.4924 40.3363H34.5521C34.9035 40.3363 35.1615 40.3142 35.3208 40.2647C35.48 40.2152 35.6337 40.1161 35.782 39.9729C35.9741 39.7802 36.1663 39.494 36.3694 39.1086H36.5561L36.0181 40.6831H31.1919V40.5124H31.4115C31.5598 40.5124 31.697 40.4794 31.8343 40.4078C31.9331 40.3583 31.999 40.2867 32.0374 40.1876C32.0704 40.0885 32.0923 39.8848 32.0923 39.5821V35.5027C32.0923 35.1064 32.0539 34.8586 31.9716 34.7651C31.8617 34.6439 31.6751 34.5779 31.417 34.5779H31.1974V34.4072H36.0235L36.0949 35.7835H35.9137C35.8478 35.4532 35.7765 35.2275 35.6996 35.1009C35.6227 34.9798 35.5074 34.8807 35.3537 34.8201C35.2329 34.7761 35.0133 34.7485 34.7003 34.7485H32.9818L32.9763 34.7375Z" fill="#738C9A"/>
<path d="M40.8166 40.6721V40.5014H41.0527C41.3163 40.5014 41.503 40.4189 41.6183 40.2482C41.6841 40.1436 41.7171 39.9179 41.7171 39.5656V35.5083C41.7171 35.1174 41.6732 34.8697 41.5853 34.7706C41.4645 34.633 41.2888 34.5669 41.0472 34.5669H40.8112V34.3962H43.3587C44.2921 34.3962 45.0059 34.5008 45.4945 34.7155C45.9832 34.9302 46.373 35.2826 46.6695 35.778C46.966 36.2735 47.1142 36.8515 47.1142 37.5011C47.1142 38.3765 46.8507 39.1031 46.3181 39.6922C45.7252 40.3473 44.8192 40.6721 43.6058 40.6721H40.8057H40.8166ZM42.6065 40.2207C42.9964 40.3088 43.3258 40.3528 43.5893 40.3528C44.3031 40.3528 44.8961 40.0996 45.3683 39.5986C45.8405 39.0976 46.0765 38.415 46.0765 37.5507C46.0765 36.6864 45.8405 35.9982 45.3683 35.4973C44.8961 34.9963 44.2921 34.7486 43.5564 34.7486C43.2819 34.7486 42.9634 34.7926 42.612 34.8807V40.2207H42.6065Z" fill="#738C9A"/>
<path d="M54.6306 40.6721H52.9615L50.8422 37.7379C50.683 37.7434 50.5567 37.7489 50.4579 37.7489C50.4194 37.7489 50.3755 37.7489 50.3261 37.7489C50.2822 37.7489 50.2328 37.7489 50.1833 37.7434V39.5656C50.1833 39.9619 50.2273 40.2042 50.3151 40.3033C50.4304 40.4409 50.6061 40.507 50.8422 40.507H51.0893V40.6776H48.4044V40.507H48.6405C48.904 40.507 49.0962 40.4189 49.206 40.2482C49.2719 40.1546 49.3049 39.9234 49.3049 39.5656V35.5083C49.3049 35.1119 49.2609 34.8697 49.1731 34.7706C49.0523 34.633 48.8766 34.5669 48.635 34.5669H48.3989V34.3962H50.6775C51.3418 34.3962 51.8305 34.4458 52.1489 34.5394C52.4619 34.6385 52.7309 34.8146 52.9505 35.0789C53.1702 35.3376 53.28 35.6514 53.28 36.0092C53.28 36.3946 53.1537 36.7304 52.9011 37.0112C52.6486 37.2975 52.2642 37.4956 51.7372 37.6112L53.0274 39.4114C53.3239 39.8243 53.5765 40.0996 53.7906 40.2372C54.0047 40.3748 54.2793 40.4574 54.6197 40.4959V40.6666L54.6306 40.6721ZM50.1833 37.4461C50.2437 37.4461 50.2931 37.4461 50.3371 37.4461C50.381 37.4461 50.4139 37.4461 50.4414 37.4461C51.0399 37.4461 51.4901 37.314 51.7921 37.0552C52.094 36.7965 52.2478 36.4662 52.2478 36.0643C52.2478 35.6624 52.127 35.3541 51.8799 35.1064C51.6328 34.8587 51.3089 34.7376 50.9081 34.7376C50.7269 34.7376 50.4853 34.7651 50.1833 34.8256V37.4351V37.4461Z" fill="#738C9A"/>
<path d="M57.2825 34.7375V37.2204H58.6606C59.0175 37.2204 59.2535 37.1653 59.3743 37.0607C59.5336 36.9176 59.6214 36.6698 59.6434 36.312H59.8136V38.4975H59.6434C59.5995 38.1893 59.5555 37.9966 59.5116 37.9085C59.4567 37.7984 59.3634 37.7158 59.2371 37.6553C59.1108 37.5947 58.9186 37.5617 58.6551 37.5617H57.277V39.6316C57.277 39.9069 57.2879 40.0775 57.3154 40.1381C57.3429 40.1986 57.3813 40.2482 57.4472 40.2812C57.5076 40.3142 57.6229 40.3363 57.7986 40.3363H58.8582C59.2096 40.3363 59.4677 40.3142 59.6269 40.2647C59.7861 40.2152 59.9399 40.1161 60.0881 39.9729C60.2803 39.7802 60.4724 39.494 60.6756 39.1086H60.8623L60.3242 40.6831H55.498V40.5124H55.7177C55.8659 40.5124 56.0032 40.4794 56.1404 40.4078C56.2393 40.3583 56.3052 40.2867 56.3436 40.1876C56.3765 40.0885 56.3985 39.8848 56.3985 39.5821V35.5027C56.3985 35.1064 56.3601 34.8586 56.2777 34.7651C56.1679 34.6439 55.9812 34.5779 55.7232 34.5779H55.5035V34.4072H60.3297L60.4011 35.7835H60.2199C60.154 35.4532 60.0826 35.2275 60.0058 35.1009C59.9289 34.9743 59.8136 34.8807 59.6598 34.8201C59.5391 34.7761 59.3194 34.7485 59.0065 34.7485H57.2879L57.2825 34.7375Z" fill="#738C9A"/>
<path d="M66.1663 38.569H63.7395L63.3167 39.5599C63.2124 39.8021 63.1575 39.9838 63.1575 40.1049C63.1575 40.1985 63.2014 40.2866 63.2947 40.3581C63.3881 40.4297 63.5802 40.4792 63.8822 40.5013V40.6719H61.9111V40.5013C62.1747 40.4572 62.3394 40.3967 62.4217 40.3196C62.581 40.171 62.7512 39.8682 62.9433 39.4168L65.145 34.2529H65.3043L67.484 39.4773C67.6597 39.8957 67.8189 40.171 67.9617 40.2921C68.1044 40.4187 68.3021 40.4848 68.5601 40.5013V40.6719H66.0894V40.5013C66.3365 40.4903 66.5067 40.4462 66.5945 40.3746C66.6824 40.3031 66.7263 40.215 66.7263 40.1159C66.7263 39.9783 66.6659 39.7636 66.5396 39.4718L66.1608 38.569H66.1663ZM66.0345 38.2276L64.9748 35.6898L63.8877 38.2276H66.04H66.0345Z" fill="#738C9A"/>
<path d="M73.2927 40.672L70.8715 35.3871V39.582C70.8715 39.9673 70.9154 40.2096 70.9977 40.3031C71.113 40.4353 71.2942 40.4958 71.5358 40.4958H71.7554V40.6665H69.5757V40.4958H69.7953C70.0588 40.4958 70.2455 40.4133 70.3608 40.2536C70.4267 40.1545 70.4597 39.9288 70.4597 39.5765V35.4751C70.4597 35.1999 70.4267 34.9962 70.3663 34.8751C70.3224 34.787 70.2455 34.7099 70.1302 34.6494C70.0149 34.5888 69.8282 34.5613 69.5757 34.5613V34.3906H71.3491L73.6222 39.3012L75.8568 34.3906H77.6303V34.5613H77.4106C77.1416 34.5613 76.9549 34.6439 76.8451 34.8035C76.7792 34.9026 76.7408 35.1283 76.7408 35.4806V39.582C76.7408 39.9673 76.7847 40.2096 76.8726 40.3031C76.9879 40.4353 77.169 40.4958 77.4106 40.4958H77.6303V40.6665H74.9729V40.4958H75.1925C75.4615 40.4958 75.6482 40.4133 75.758 40.2536C75.8239 40.1545 75.8623 39.9288 75.8623 39.5765V35.3815L73.4465 40.6665H73.2927V40.672Z" fill="#738C9A"/>
<path d="M82.9232 34.253V36.422H82.753C82.6981 36.0036 82.5993 35.6733 82.4565 35.4255C82.3138 35.1778 82.1106 34.9851 81.8471 34.8365C81.5836 34.6934 81.309 34.6163 81.0235 34.6163C80.7051 34.6163 80.436 34.7154 80.2274 34.9081C80.0188 35.1063 79.9145 35.3265 79.9145 35.5797C79.9145 35.7724 79.9803 35.943 80.1121 36.1027C80.3043 36.3339 80.7545 36.6422 81.4738 37.0275C82.0612 37.3413 82.4565 37.5836 82.6707 37.7542C82.8848 37.9249 83.0495 38.1231 83.1648 38.3488C83.2801 38.5745 83.3405 38.8167 83.3405 39.0644C83.3405 39.5379 83.1538 39.9508 82.786 40.2921C82.4181 40.6389 81.9459 40.8096 81.3639 40.8096C81.1828 40.8096 81.0125 40.7931 80.8533 40.7655C80.76 40.749 80.5623 40.694 80.2603 40.5949C79.9584 40.4958 79.7717 40.4517 79.6893 40.4517C79.607 40.4517 79.5521 40.4738 79.5081 40.5233C79.4642 40.5674 79.4313 40.6664 79.4093 40.8096H79.2391V38.6571H79.4093C79.4917 39.1085 79.596 39.4443 79.7333 39.67C79.8705 39.8957 80.0737 40.0774 80.3537 40.226C80.6337 40.3747 80.9357 40.4462 81.2706 40.4462C81.6549 40.4462 81.9569 40.3471 82.182 40.1435C82.4071 39.9398 82.5169 39.6975 82.5169 39.4223C82.5169 39.2681 82.473 39.114 82.3907 38.9543C82.3083 38.7947 82.1765 38.6516 81.9953 38.5139C81.8746 38.4203 81.5451 38.2222 81.0126 37.9249C80.4745 37.6221 80.0956 37.3854 79.8705 37.2037C79.6454 37.022 79.4752 36.8294 79.3544 36.6092C79.2336 36.3889 79.1787 36.1577 79.1787 35.8935C79.1787 35.4421 79.3489 35.0567 79.6948 34.7319C80.0407 34.4071 80.48 34.2419 81.0126 34.2419C81.3475 34.2419 81.6989 34.3245 82.0722 34.4897C82.2424 34.5667 82.3687 34.6053 82.4346 34.6053C82.5169 34.6053 82.5773 34.5833 82.6322 34.5337C82.6817 34.4842 82.7256 34.3906 82.753 34.2419H82.9232V34.253Z" fill="#738C9A"/>
<path d="M93.1466 38.938L93.3004 38.971L92.7623 40.6721H87.9142V40.5014H88.1503C88.4138 40.5014 88.606 40.4134 88.7158 40.2427C88.7817 40.1436 88.8146 39.9179 88.8146 39.5601V35.5083C88.8146 35.1174 88.7707 34.8697 88.6828 34.7706C88.562 34.633 88.3864 34.5669 88.1448 34.5669H87.9087V34.3962H90.7418V34.5669C90.4069 34.5669 90.1763 34.5944 90.0445 34.6605C89.9127 34.7265 89.8194 34.8091 89.77 34.9082C89.7205 35.0073 89.6986 35.244 89.6986 35.6184V39.5601C89.6986 39.8188 89.7205 39.9895 89.77 40.0886C89.8084 40.1546 89.8633 40.1987 89.9402 40.2317C90.017 40.2647 90.2586 40.2757 90.6594 40.2757H91.1151C91.5928 40.2757 91.9332 40.2427 92.1254 40.1711C92.3176 40.0996 92.4987 39.973 92.658 39.7913C92.8172 39.6096 92.9764 39.3233 93.1356 38.938H93.1466Z" fill="#738C9A"/>
<path d="M97.1761 40.5014V40.6721H94.4912V40.5014H94.7108C94.9689 40.5014 95.1556 40.4244 95.2763 40.2757C95.3477 40.1766 95.3862 39.9399 95.3862 39.5601V35.5028C95.3862 35.1835 95.3642 34.9743 95.3258 34.8752C95.2928 34.7981 95.2324 34.7321 95.1391 34.677C95.0018 34.6054 94.8646 34.5669 94.7163 34.5669H94.4967V34.3962H97.1816V34.5669H96.9564C96.6984 34.5669 96.5172 34.644 96.3964 34.7926C96.3195 34.8917 96.2811 35.1284 96.2811 35.5083V39.5656C96.2811 39.8849 96.3031 40.0941 96.3415 40.1932C96.3745 40.2702 96.4348 40.3363 96.5337 40.3913C96.6655 40.4629 96.8082 40.5014 96.9564 40.5014H97.1816H97.1761Z" fill="#738C9A"/>
<path d="M104.874 34.3961V34.5668C104.655 34.6053 104.484 34.6769 104.369 34.7815C104.204 34.9301 104.062 35.1669 103.935 35.4751L101.75 40.8151H101.58L99.2355 35.4036C99.1147 35.1283 99.0323 34.9577 98.9829 34.8916C98.9061 34.798 98.8127 34.7209 98.6974 34.6659C98.5876 34.6108 98.4339 34.5778 98.2417 34.5613V34.3906H100.8V34.5613C100.509 34.5888 100.323 34.6384 100.235 34.7099C100.147 34.7815 100.103 34.8696 100.103 34.9852C100.103 35.1393 100.174 35.3816 100.317 35.7064L101.909 39.3893L103.386 35.7559C103.529 35.3981 103.606 35.1503 103.606 35.0127C103.606 34.9246 103.562 34.8365 103.474 34.754C103.386 34.6714 103.233 34.6163 103.024 34.5778C103.007 34.5778 102.98 34.5723 102.947 34.5613V34.3906H104.88L104.874 34.3961Z" fill="#738C9A"/>
<path d="M107.724 34.7375V37.2204H109.102C109.459 37.2204 109.695 37.1653 109.816 37.0607C109.975 36.9176 110.063 36.6698 110.085 36.312H110.255V38.4975H110.085C110.041 38.1893 109.997 37.9966 109.953 37.9085C109.898 37.7984 109.805 37.7158 109.678 37.6553C109.552 37.5947 109.36 37.5617 109.096 37.5617H107.718V39.6316C107.718 39.9069 107.729 40.0775 107.757 40.1381C107.779 40.1986 107.823 40.2482 107.889 40.2812C107.949 40.3142 108.064 40.3363 108.24 40.3363H109.3C109.651 40.3363 109.909 40.3142 110.068 40.2647C110.228 40.2152 110.381 40.1161 110.53 39.9729C110.722 39.7802 110.914 39.494 111.117 39.1086H111.304L110.766 40.6831H105.939V40.5124H106.159C106.307 40.5124 106.445 40.4794 106.582 40.4078C106.681 40.3583 106.747 40.2867 106.785 40.1876C106.818 40.0885 106.84 39.8848 106.84 39.5821V35.5027C106.84 35.1064 106.801 34.8586 106.719 34.7651C106.609 34.6439 106.423 34.5779 106.165 34.5779H105.945V34.4072H110.771L110.842 35.7835H110.661C110.595 35.4532 110.524 35.2275 110.447 35.1009C110.37 34.9743 110.255 34.8807 110.101 34.8201C109.98 34.7761 109.761 34.7485 109.448 34.7485H107.729L107.724 34.7375Z" fill="#738C9A"/>
<path d="M288.605 39H119.877" stroke="#3B8281" stroke-width="0.5" stroke-miterlimit="10"/>
<path d="M284.877 38.5532H288.877V73.5532H284.877V38.5532Z" fill="#3B8281"/>
</svg>
